%TF.GenerationSoftware,KiCad,Pcbnew,9.0.8+1*%
%TF.CreationDate,2026-06-28T23:20:36-06:00*%
%TF.ProjectId,Tip_Etcher_Rev_2,5469705f-4574-4636-9865-725f5265765f,rev?*%
%TF.SameCoordinates,Original*%
%TF.FileFunction,Legend,Top*%
%TF.FilePolarity,Positive*%
%FSLAX46Y46*%
G04 Gerber Fmt 4.6, Leading zero omitted, Abs format (unit mm)*
G04 Created by KiCad (PCBNEW 9.0.8+1) date 2026-06-28 23:20:36*
%MOMM*%
%LPD*%
G01*
G04 APERTURE LIST*
%ADD10C,0.100000*%
%ADD11C,0.150000*%
%ADD12C,0.120000*%
%ADD13C,0.152400*%
%ADD14C,0.508000*%
G04 APERTURE END LIST*
D10*
X67825312Y-33372475D02*
X67491979Y-32896284D01*
X67253884Y-33372475D02*
X67253884Y-32372475D01*
X67253884Y-32372475D02*
X67634836Y-32372475D01*
X67634836Y-32372475D02*
X67730074Y-32420094D01*
X67730074Y-32420094D02*
X67777693Y-32467713D01*
X67777693Y-32467713D02*
X67825312Y-32562951D01*
X67825312Y-32562951D02*
X67825312Y-32705808D01*
X67825312Y-32705808D02*
X67777693Y-32801046D01*
X67777693Y-32801046D02*
X67730074Y-32848665D01*
X67730074Y-32848665D02*
X67634836Y-32896284D01*
X67634836Y-32896284D02*
X67253884Y-32896284D01*
X68682455Y-33372475D02*
X68682455Y-32848665D01*
X68682455Y-32848665D02*
X68634836Y-32753427D01*
X68634836Y-32753427D02*
X68539598Y-32705808D01*
X68539598Y-32705808D02*
X68349122Y-32705808D01*
X68349122Y-32705808D02*
X68253884Y-32753427D01*
X68682455Y-33324856D02*
X68587217Y-33372475D01*
X68587217Y-33372475D02*
X68349122Y-33372475D01*
X68349122Y-33372475D02*
X68253884Y-33324856D01*
X68253884Y-33324856D02*
X68206265Y-33229617D01*
X68206265Y-33229617D02*
X68206265Y-33134379D01*
X68206265Y-33134379D02*
X68253884Y-33039141D01*
X68253884Y-33039141D02*
X68349122Y-32991522D01*
X68349122Y-32991522D02*
X68587217Y-32991522D01*
X68587217Y-32991522D02*
X68682455Y-32943903D01*
X69111027Y-33324856D02*
X69206265Y-33372475D01*
X69206265Y-33372475D02*
X69396741Y-33372475D01*
X69396741Y-33372475D02*
X69491979Y-33324856D01*
X69491979Y-33324856D02*
X69539598Y-33229617D01*
X69539598Y-33229617D02*
X69539598Y-33181998D01*
X69539598Y-33181998D02*
X69491979Y-33086760D01*
X69491979Y-33086760D02*
X69396741Y-33039141D01*
X69396741Y-33039141D02*
X69253884Y-33039141D01*
X69253884Y-33039141D02*
X69158646Y-32991522D01*
X69158646Y-32991522D02*
X69111027Y-32896284D01*
X69111027Y-32896284D02*
X69111027Y-32848665D01*
X69111027Y-32848665D02*
X69158646Y-32753427D01*
X69158646Y-32753427D02*
X69253884Y-32705808D01*
X69253884Y-32705808D02*
X69396741Y-32705808D01*
X69396741Y-32705808D02*
X69491979Y-32753427D01*
X70396741Y-33324856D02*
X70301503Y-33372475D01*
X70301503Y-33372475D02*
X70111027Y-33372475D01*
X70111027Y-33372475D02*
X70015789Y-33324856D01*
X70015789Y-33324856D02*
X69968170Y-33277236D01*
X69968170Y-33277236D02*
X69920551Y-33181998D01*
X69920551Y-33181998D02*
X69920551Y-32896284D01*
X69920551Y-32896284D02*
X69968170Y-32801046D01*
X69968170Y-32801046D02*
X70015789Y-32753427D01*
X70015789Y-32753427D02*
X70111027Y-32705808D01*
X70111027Y-32705808D02*
X70301503Y-32705808D01*
X70301503Y-32705808D02*
X70396741Y-32753427D01*
X70825313Y-33372475D02*
X70825313Y-32372475D01*
X71253884Y-33372475D02*
X71253884Y-32848665D01*
X71253884Y-32848665D02*
X71206265Y-32753427D01*
X71206265Y-32753427D02*
X71111027Y-32705808D01*
X71111027Y-32705808D02*
X70968170Y-32705808D01*
X70968170Y-32705808D02*
X70872932Y-32753427D01*
X70872932Y-32753427D02*
X70825313Y-32801046D01*
X71730075Y-33372475D02*
X71730075Y-32372475D01*
X71825313Y-32991522D02*
X72111027Y-33372475D01*
X72111027Y-32705808D02*
X71730075Y-33086760D01*
X72920551Y-33324856D02*
X72825313Y-33372475D01*
X72825313Y-33372475D02*
X72634837Y-33372475D01*
X72634837Y-33372475D02*
X72539599Y-33324856D01*
X72539599Y-33324856D02*
X72491980Y-33229617D01*
X72491980Y-33229617D02*
X72491980Y-32848665D01*
X72491980Y-32848665D02*
X72539599Y-32753427D01*
X72539599Y-32753427D02*
X72634837Y-32705808D01*
X72634837Y-32705808D02*
X72825313Y-32705808D01*
X72825313Y-32705808D02*
X72920551Y-32753427D01*
X72920551Y-32753427D02*
X72968170Y-32848665D01*
X72968170Y-32848665D02*
X72968170Y-32943903D01*
X72968170Y-32943903D02*
X72491980Y-33039141D01*
X74158647Y-33372475D02*
X74158647Y-32372475D01*
X74158647Y-32372475D02*
X74730075Y-33372475D01*
X74730075Y-33372475D02*
X74730075Y-32372475D01*
X75634837Y-33372475D02*
X75634837Y-32848665D01*
X75634837Y-32848665D02*
X75587218Y-32753427D01*
X75587218Y-32753427D02*
X75491980Y-32705808D01*
X75491980Y-32705808D02*
X75301504Y-32705808D01*
X75301504Y-32705808D02*
X75206266Y-32753427D01*
X75634837Y-33324856D02*
X75539599Y-33372475D01*
X75539599Y-33372475D02*
X75301504Y-33372475D01*
X75301504Y-33372475D02*
X75206266Y-33324856D01*
X75206266Y-33324856D02*
X75158647Y-33229617D01*
X75158647Y-33229617D02*
X75158647Y-33134379D01*
X75158647Y-33134379D02*
X75206266Y-33039141D01*
X75206266Y-33039141D02*
X75301504Y-32991522D01*
X75301504Y-32991522D02*
X75539599Y-32991522D01*
X75539599Y-32991522D02*
X75634837Y-32943903D01*
X76111028Y-32705808D02*
X76111028Y-33372475D01*
X76111028Y-32801046D02*
X76158647Y-32753427D01*
X76158647Y-32753427D02*
X76253885Y-32705808D01*
X76253885Y-32705808D02*
X76396742Y-32705808D01*
X76396742Y-32705808D02*
X76491980Y-32753427D01*
X76491980Y-32753427D02*
X76539599Y-32848665D01*
X76539599Y-32848665D02*
X76539599Y-33372475D01*
X77158647Y-33372475D02*
X77063409Y-33324856D01*
X77063409Y-33324856D02*
X77015790Y-33277236D01*
X77015790Y-33277236D02*
X76968171Y-33181998D01*
X76968171Y-33181998D02*
X76968171Y-32896284D01*
X76968171Y-32896284D02*
X77015790Y-32801046D01*
X77015790Y-32801046D02*
X77063409Y-32753427D01*
X77063409Y-32753427D02*
X77158647Y-32705808D01*
X77158647Y-32705808D02*
X77301504Y-32705808D01*
X77301504Y-32705808D02*
X77396742Y-32753427D01*
X77396742Y-32753427D02*
X77444361Y-32801046D01*
X77444361Y-32801046D02*
X77491980Y-32896284D01*
X77491980Y-32896284D02*
X77491980Y-33181998D01*
X77491980Y-33181998D02*
X77444361Y-33277236D01*
X77444361Y-33277236D02*
X77396742Y-33324856D01*
X77396742Y-33324856D02*
X77301504Y-33372475D01*
X77301504Y-33372475D02*
X77158647Y-33372475D01*
X77920552Y-32991522D02*
X78682457Y-32991522D01*
X79349123Y-32372475D02*
X79539599Y-32372475D01*
X79539599Y-32372475D02*
X79634837Y-32420094D01*
X79634837Y-32420094D02*
X79730075Y-32515332D01*
X79730075Y-32515332D02*
X79777694Y-32705808D01*
X79777694Y-32705808D02*
X79777694Y-33039141D01*
X79777694Y-33039141D02*
X79730075Y-33229617D01*
X79730075Y-33229617D02*
X79634837Y-33324856D01*
X79634837Y-33324856D02*
X79539599Y-33372475D01*
X79539599Y-33372475D02*
X79349123Y-33372475D01*
X79349123Y-33372475D02*
X79253885Y-33324856D01*
X79253885Y-33324856D02*
X79158647Y-33229617D01*
X79158647Y-33229617D02*
X79111028Y-33039141D01*
X79111028Y-33039141D02*
X79111028Y-32705808D01*
X79111028Y-32705808D02*
X79158647Y-32515332D01*
X79158647Y-32515332D02*
X79253885Y-32420094D01*
X79253885Y-32420094D02*
X79349123Y-32372475D01*
X80206266Y-32705808D02*
X80206266Y-33705808D01*
X80206266Y-32753427D02*
X80301504Y-32705808D01*
X80301504Y-32705808D02*
X80491980Y-32705808D01*
X80491980Y-32705808D02*
X80587218Y-32753427D01*
X80587218Y-32753427D02*
X80634837Y-32801046D01*
X80634837Y-32801046D02*
X80682456Y-32896284D01*
X80682456Y-32896284D02*
X80682456Y-33181998D01*
X80682456Y-33181998D02*
X80634837Y-33277236D01*
X80634837Y-33277236D02*
X80587218Y-33324856D01*
X80587218Y-33324856D02*
X80491980Y-33372475D01*
X80491980Y-33372475D02*
X80301504Y-33372475D01*
X80301504Y-33372475D02*
X80206266Y-33324856D01*
X80968171Y-32705808D02*
X81349123Y-32705808D01*
X81111028Y-32372475D02*
X81111028Y-33229617D01*
X81111028Y-33229617D02*
X81158647Y-33324856D01*
X81158647Y-33324856D02*
X81253885Y-33372475D01*
X81253885Y-33372475D02*
X81349123Y-33372475D01*
X81682457Y-33372475D02*
X81682457Y-32705808D01*
X81682457Y-32372475D02*
X81634838Y-32420094D01*
X81634838Y-32420094D02*
X81682457Y-32467713D01*
X81682457Y-32467713D02*
X81730076Y-32420094D01*
X81730076Y-32420094D02*
X81682457Y-32372475D01*
X81682457Y-32372475D02*
X81682457Y-32467713D01*
X82587218Y-33324856D02*
X82491980Y-33372475D01*
X82491980Y-33372475D02*
X82301504Y-33372475D01*
X82301504Y-33372475D02*
X82206266Y-33324856D01*
X82206266Y-33324856D02*
X82158647Y-33277236D01*
X82158647Y-33277236D02*
X82111028Y-33181998D01*
X82111028Y-33181998D02*
X82111028Y-32896284D01*
X82111028Y-32896284D02*
X82158647Y-32801046D01*
X82158647Y-32801046D02*
X82206266Y-32753427D01*
X82206266Y-32753427D02*
X82301504Y-32705808D01*
X82301504Y-32705808D02*
X82491980Y-32705808D01*
X82491980Y-32705808D02*
X82587218Y-32753427D01*
X82968171Y-33324856D02*
X83063409Y-33372475D01*
X83063409Y-33372475D02*
X83253885Y-33372475D01*
X83253885Y-33372475D02*
X83349123Y-33324856D01*
X83349123Y-33324856D02*
X83396742Y-33229617D01*
X83396742Y-33229617D02*
X83396742Y-33181998D01*
X83396742Y-33181998D02*
X83349123Y-33086760D01*
X83349123Y-33086760D02*
X83253885Y-33039141D01*
X83253885Y-33039141D02*
X83111028Y-33039141D01*
X83111028Y-33039141D02*
X83015790Y-32991522D01*
X83015790Y-32991522D02*
X82968171Y-32896284D01*
X82968171Y-32896284D02*
X82968171Y-32848665D01*
X82968171Y-32848665D02*
X83015790Y-32753427D01*
X83015790Y-32753427D02*
X83111028Y-32705808D01*
X83111028Y-32705808D02*
X83253885Y-32705808D01*
X83253885Y-32705808D02*
X83349123Y-32753427D01*
X85111028Y-32420094D02*
X85015790Y-32372475D01*
X85015790Y-32372475D02*
X84872933Y-32372475D01*
X84872933Y-32372475D02*
X84730076Y-32420094D01*
X84730076Y-32420094D02*
X84634838Y-32515332D01*
X84634838Y-32515332D02*
X84587219Y-32610570D01*
X84587219Y-32610570D02*
X84539600Y-32801046D01*
X84539600Y-32801046D02*
X84539600Y-32943903D01*
X84539600Y-32943903D02*
X84587219Y-33134379D01*
X84587219Y-33134379D02*
X84634838Y-33229617D01*
X84634838Y-33229617D02*
X84730076Y-33324856D01*
X84730076Y-33324856D02*
X84872933Y-33372475D01*
X84872933Y-33372475D02*
X84968171Y-33372475D01*
X84968171Y-33372475D02*
X85111028Y-33324856D01*
X85111028Y-33324856D02*
X85158647Y-33277236D01*
X85158647Y-33277236D02*
X85158647Y-32943903D01*
X85158647Y-32943903D02*
X84968171Y-32943903D01*
X85587219Y-33372475D02*
X85587219Y-32705808D01*
X85587219Y-32896284D02*
X85634838Y-32801046D01*
X85634838Y-32801046D02*
X85682457Y-32753427D01*
X85682457Y-32753427D02*
X85777695Y-32705808D01*
X85777695Y-32705808D02*
X85872933Y-32705808D01*
X86349124Y-33372475D02*
X86253886Y-33324856D01*
X86253886Y-33324856D02*
X86206267Y-33277236D01*
X86206267Y-33277236D02*
X86158648Y-33181998D01*
X86158648Y-33181998D02*
X86158648Y-32896284D01*
X86158648Y-32896284D02*
X86206267Y-32801046D01*
X86206267Y-32801046D02*
X86253886Y-32753427D01*
X86253886Y-32753427D02*
X86349124Y-32705808D01*
X86349124Y-32705808D02*
X86491981Y-32705808D01*
X86491981Y-32705808D02*
X86587219Y-32753427D01*
X86587219Y-32753427D02*
X86634838Y-32801046D01*
X86634838Y-32801046D02*
X86682457Y-32896284D01*
X86682457Y-32896284D02*
X86682457Y-33181998D01*
X86682457Y-33181998D02*
X86634838Y-33277236D01*
X86634838Y-33277236D02*
X86587219Y-33324856D01*
X86587219Y-33324856D02*
X86491981Y-33372475D01*
X86491981Y-33372475D02*
X86349124Y-33372475D01*
X87539600Y-32705808D02*
X87539600Y-33372475D01*
X87111029Y-32705808D02*
X87111029Y-33229617D01*
X87111029Y-33229617D02*
X87158648Y-33324856D01*
X87158648Y-33324856D02*
X87253886Y-33372475D01*
X87253886Y-33372475D02*
X87396743Y-33372475D01*
X87396743Y-33372475D02*
X87491981Y-33324856D01*
X87491981Y-33324856D02*
X87539600Y-33277236D01*
X88015791Y-32705808D02*
X88015791Y-33705808D01*
X88015791Y-32753427D02*
X88111029Y-32705808D01*
X88111029Y-32705808D02*
X88301505Y-32705808D01*
X88301505Y-32705808D02*
X88396743Y-32753427D01*
X88396743Y-32753427D02*
X88444362Y-32801046D01*
X88444362Y-32801046D02*
X88491981Y-32896284D01*
X88491981Y-32896284D02*
X88491981Y-33181998D01*
X88491981Y-33181998D02*
X88444362Y-33277236D01*
X88444362Y-33277236D02*
X88396743Y-33324856D01*
X88396743Y-33324856D02*
X88301505Y-33372475D01*
X88301505Y-33372475D02*
X88111029Y-33372475D01*
X88111029Y-33372475D02*
X88015791Y-33324856D01*
X67111027Y-33982419D02*
X67682455Y-33982419D01*
X67396741Y-34982419D02*
X67396741Y-33982419D01*
X68015789Y-34982419D02*
X68015789Y-34315752D01*
X68015789Y-33982419D02*
X67968170Y-34030038D01*
X67968170Y-34030038D02*
X68015789Y-34077657D01*
X68015789Y-34077657D02*
X68063408Y-34030038D01*
X68063408Y-34030038D02*
X68015789Y-33982419D01*
X68015789Y-33982419D02*
X68015789Y-34077657D01*
X68491979Y-34315752D02*
X68491979Y-35315752D01*
X68491979Y-34363371D02*
X68587217Y-34315752D01*
X68587217Y-34315752D02*
X68777693Y-34315752D01*
X68777693Y-34315752D02*
X68872931Y-34363371D01*
X68872931Y-34363371D02*
X68920550Y-34410990D01*
X68920550Y-34410990D02*
X68968169Y-34506228D01*
X68968169Y-34506228D02*
X68968169Y-34791942D01*
X68968169Y-34791942D02*
X68920550Y-34887180D01*
X68920550Y-34887180D02*
X68872931Y-34934800D01*
X68872931Y-34934800D02*
X68777693Y-34982419D01*
X68777693Y-34982419D02*
X68587217Y-34982419D01*
X68587217Y-34982419D02*
X68491979Y-34934800D01*
X70158646Y-34458609D02*
X70491979Y-34458609D01*
X70634836Y-34982419D02*
X70158646Y-34982419D01*
X70158646Y-34982419D02*
X70158646Y-33982419D01*
X70158646Y-33982419D02*
X70634836Y-33982419D01*
X70920551Y-34315752D02*
X71301503Y-34315752D01*
X71063408Y-33982419D02*
X71063408Y-34839561D01*
X71063408Y-34839561D02*
X71111027Y-34934800D01*
X71111027Y-34934800D02*
X71206265Y-34982419D01*
X71206265Y-34982419D02*
X71301503Y-34982419D01*
X72063408Y-34934800D02*
X71968170Y-34982419D01*
X71968170Y-34982419D02*
X71777694Y-34982419D01*
X71777694Y-34982419D02*
X71682456Y-34934800D01*
X71682456Y-34934800D02*
X71634837Y-34887180D01*
X71634837Y-34887180D02*
X71587218Y-34791942D01*
X71587218Y-34791942D02*
X71587218Y-34506228D01*
X71587218Y-34506228D02*
X71634837Y-34410990D01*
X71634837Y-34410990D02*
X71682456Y-34363371D01*
X71682456Y-34363371D02*
X71777694Y-34315752D01*
X71777694Y-34315752D02*
X71968170Y-34315752D01*
X71968170Y-34315752D02*
X72063408Y-34363371D01*
X72491980Y-34982419D02*
X72491980Y-33982419D01*
X72920551Y-34982419D02*
X72920551Y-34458609D01*
X72920551Y-34458609D02*
X72872932Y-34363371D01*
X72872932Y-34363371D02*
X72777694Y-34315752D01*
X72777694Y-34315752D02*
X72634837Y-34315752D01*
X72634837Y-34315752D02*
X72539599Y-34363371D01*
X72539599Y-34363371D02*
X72491980Y-34410990D01*
X73777694Y-34934800D02*
X73682456Y-34982419D01*
X73682456Y-34982419D02*
X73491980Y-34982419D01*
X73491980Y-34982419D02*
X73396742Y-34934800D01*
X73396742Y-34934800D02*
X73349123Y-34839561D01*
X73349123Y-34839561D02*
X73349123Y-34458609D01*
X73349123Y-34458609D02*
X73396742Y-34363371D01*
X73396742Y-34363371D02*
X73491980Y-34315752D01*
X73491980Y-34315752D02*
X73682456Y-34315752D01*
X73682456Y-34315752D02*
X73777694Y-34363371D01*
X73777694Y-34363371D02*
X73825313Y-34458609D01*
X73825313Y-34458609D02*
X73825313Y-34553847D01*
X73825313Y-34553847D02*
X73349123Y-34649085D01*
X74253885Y-34982419D02*
X74253885Y-34315752D01*
X74253885Y-34506228D02*
X74301504Y-34410990D01*
X74301504Y-34410990D02*
X74349123Y-34363371D01*
X74349123Y-34363371D02*
X74444361Y-34315752D01*
X74444361Y-34315752D02*
X74539599Y-34315752D01*
X76206266Y-34982419D02*
X75872933Y-34506228D01*
X75634838Y-34982419D02*
X75634838Y-33982419D01*
X75634838Y-33982419D02*
X76015790Y-33982419D01*
X76015790Y-33982419D02*
X76111028Y-34030038D01*
X76111028Y-34030038D02*
X76158647Y-34077657D01*
X76158647Y-34077657D02*
X76206266Y-34172895D01*
X76206266Y-34172895D02*
X76206266Y-34315752D01*
X76206266Y-34315752D02*
X76158647Y-34410990D01*
X76158647Y-34410990D02*
X76111028Y-34458609D01*
X76111028Y-34458609D02*
X76015790Y-34506228D01*
X76015790Y-34506228D02*
X75634838Y-34506228D01*
X77015790Y-34934800D02*
X76920552Y-34982419D01*
X76920552Y-34982419D02*
X76730076Y-34982419D01*
X76730076Y-34982419D02*
X76634838Y-34934800D01*
X76634838Y-34934800D02*
X76587219Y-34839561D01*
X76587219Y-34839561D02*
X76587219Y-34458609D01*
X76587219Y-34458609D02*
X76634838Y-34363371D01*
X76634838Y-34363371D02*
X76730076Y-34315752D01*
X76730076Y-34315752D02*
X76920552Y-34315752D01*
X76920552Y-34315752D02*
X77015790Y-34363371D01*
X77015790Y-34363371D02*
X77063409Y-34458609D01*
X77063409Y-34458609D02*
X77063409Y-34553847D01*
X77063409Y-34553847D02*
X76587219Y-34649085D01*
X77396743Y-34315752D02*
X77634838Y-34982419D01*
X77634838Y-34982419D02*
X77872933Y-34315752D01*
X78253886Y-34887180D02*
X78301505Y-34934800D01*
X78301505Y-34934800D02*
X78253886Y-34982419D01*
X78253886Y-34982419D02*
X78206267Y-34934800D01*
X78206267Y-34934800D02*
X78253886Y-34887180D01*
X78253886Y-34887180D02*
X78253886Y-34982419D01*
X79444362Y-34077657D02*
X79491981Y-34030038D01*
X79491981Y-34030038D02*
X79587219Y-33982419D01*
X79587219Y-33982419D02*
X79825314Y-33982419D01*
X79825314Y-33982419D02*
X79920552Y-34030038D01*
X79920552Y-34030038D02*
X79968171Y-34077657D01*
X79968171Y-34077657D02*
X80015790Y-34172895D01*
X80015790Y-34172895D02*
X80015790Y-34268133D01*
X80015790Y-34268133D02*
X79968171Y-34410990D01*
X79968171Y-34410990D02*
X79396743Y-34982419D01*
X79396743Y-34982419D02*
X80015790Y-34982419D01*
X71475312Y-110072419D02*
X71141979Y-109596228D01*
X70903884Y-110072419D02*
X70903884Y-109072419D01*
X70903884Y-109072419D02*
X71284836Y-109072419D01*
X71284836Y-109072419D02*
X71380074Y-109120038D01*
X71380074Y-109120038D02*
X71427693Y-109167657D01*
X71427693Y-109167657D02*
X71475312Y-109262895D01*
X71475312Y-109262895D02*
X71475312Y-109405752D01*
X71475312Y-109405752D02*
X71427693Y-109500990D01*
X71427693Y-109500990D02*
X71380074Y-109548609D01*
X71380074Y-109548609D02*
X71284836Y-109596228D01*
X71284836Y-109596228D02*
X70903884Y-109596228D01*
X71903884Y-110072419D02*
X71903884Y-109405752D01*
X71903884Y-109072419D02*
X71856265Y-109120038D01*
X71856265Y-109120038D02*
X71903884Y-109167657D01*
X71903884Y-109167657D02*
X71951503Y-109120038D01*
X71951503Y-109120038D02*
X71903884Y-109072419D01*
X71903884Y-109072419D02*
X71903884Y-109167657D01*
X72380074Y-109405752D02*
X72380074Y-110072419D01*
X72380074Y-109500990D02*
X72427693Y-109453371D01*
X72427693Y-109453371D02*
X72522931Y-109405752D01*
X72522931Y-109405752D02*
X72665788Y-109405752D01*
X72665788Y-109405752D02*
X72761026Y-109453371D01*
X72761026Y-109453371D02*
X72808645Y-109548609D01*
X72808645Y-109548609D02*
X72808645Y-110072419D01*
X73713407Y-109405752D02*
X73713407Y-110215276D01*
X73713407Y-110215276D02*
X73665788Y-110310514D01*
X73665788Y-110310514D02*
X73618169Y-110358133D01*
X73618169Y-110358133D02*
X73522931Y-110405752D01*
X73522931Y-110405752D02*
X73380074Y-110405752D01*
X73380074Y-110405752D02*
X73284836Y-110358133D01*
X73713407Y-110024800D02*
X73618169Y-110072419D01*
X73618169Y-110072419D02*
X73427693Y-110072419D01*
X73427693Y-110072419D02*
X73332455Y-110024800D01*
X73332455Y-110024800D02*
X73284836Y-109977180D01*
X73284836Y-109977180D02*
X73237217Y-109881942D01*
X73237217Y-109881942D02*
X73237217Y-109596228D01*
X73237217Y-109596228D02*
X73284836Y-109500990D01*
X73284836Y-109500990D02*
X73332455Y-109453371D01*
X73332455Y-109453371D02*
X73427693Y-109405752D01*
X73427693Y-109405752D02*
X73618169Y-109405752D01*
X73618169Y-109405752D02*
X73713407Y-109453371D01*
X91461027Y-109172419D02*
X92032455Y-109172419D01*
X91746741Y-110172419D02*
X91746741Y-109172419D01*
X92365789Y-110172419D02*
X92365789Y-109505752D01*
X92365789Y-109172419D02*
X92318170Y-109220038D01*
X92318170Y-109220038D02*
X92365789Y-109267657D01*
X92365789Y-109267657D02*
X92413408Y-109220038D01*
X92413408Y-109220038D02*
X92365789Y-109172419D01*
X92365789Y-109172419D02*
X92365789Y-109267657D01*
X92841979Y-109505752D02*
X92841979Y-110505752D01*
X92841979Y-109553371D02*
X92937217Y-109505752D01*
X92937217Y-109505752D02*
X93127693Y-109505752D01*
X93127693Y-109505752D02*
X93222931Y-109553371D01*
X93222931Y-109553371D02*
X93270550Y-109600990D01*
X93270550Y-109600990D02*
X93318169Y-109696228D01*
X93318169Y-109696228D02*
X93318169Y-109981942D01*
X93318169Y-109981942D02*
X93270550Y-110077180D01*
X93270550Y-110077180D02*
X93222931Y-110124800D01*
X93222931Y-110124800D02*
X93127693Y-110172419D01*
X93127693Y-110172419D02*
X92937217Y-110172419D01*
X92937217Y-110172419D02*
X92841979Y-110124800D01*
X111875312Y-109972419D02*
X111541979Y-109496228D01*
X111303884Y-109972419D02*
X111303884Y-108972419D01*
X111303884Y-108972419D02*
X111684836Y-108972419D01*
X111684836Y-108972419D02*
X111780074Y-109020038D01*
X111780074Y-109020038D02*
X111827693Y-109067657D01*
X111827693Y-109067657D02*
X111875312Y-109162895D01*
X111875312Y-109162895D02*
X111875312Y-109305752D01*
X111875312Y-109305752D02*
X111827693Y-109400990D01*
X111827693Y-109400990D02*
X111780074Y-109448609D01*
X111780074Y-109448609D02*
X111684836Y-109496228D01*
X111684836Y-109496228D02*
X111303884Y-109496228D01*
X112684836Y-109924800D02*
X112589598Y-109972419D01*
X112589598Y-109972419D02*
X112399122Y-109972419D01*
X112399122Y-109972419D02*
X112303884Y-109924800D01*
X112303884Y-109924800D02*
X112256265Y-109829561D01*
X112256265Y-109829561D02*
X112256265Y-109448609D01*
X112256265Y-109448609D02*
X112303884Y-109353371D01*
X112303884Y-109353371D02*
X112399122Y-109305752D01*
X112399122Y-109305752D02*
X112589598Y-109305752D01*
X112589598Y-109305752D02*
X112684836Y-109353371D01*
X112684836Y-109353371D02*
X112732455Y-109448609D01*
X112732455Y-109448609D02*
X112732455Y-109543847D01*
X112732455Y-109543847D02*
X112256265Y-109639085D01*
X113018170Y-109305752D02*
X113399122Y-109305752D01*
X113161027Y-108972419D02*
X113161027Y-109829561D01*
X113161027Y-109829561D02*
X113208646Y-109924800D01*
X113208646Y-109924800D02*
X113303884Y-109972419D01*
X113303884Y-109972419D02*
X113399122Y-109972419D01*
X114161027Y-109305752D02*
X114161027Y-109972419D01*
X113732456Y-109305752D02*
X113732456Y-109829561D01*
X113732456Y-109829561D02*
X113780075Y-109924800D01*
X113780075Y-109924800D02*
X113875313Y-109972419D01*
X113875313Y-109972419D02*
X114018170Y-109972419D01*
X114018170Y-109972419D02*
X114113408Y-109924800D01*
X114113408Y-109924800D02*
X114161027Y-109877180D01*
X114637218Y-109972419D02*
X114637218Y-109305752D01*
X114637218Y-109496228D02*
X114684837Y-109400990D01*
X114684837Y-109400990D02*
X114732456Y-109353371D01*
X114732456Y-109353371D02*
X114827694Y-109305752D01*
X114827694Y-109305752D02*
X114922932Y-109305752D01*
X115256266Y-109305752D02*
X115256266Y-109972419D01*
X115256266Y-109400990D02*
X115303885Y-109353371D01*
X115303885Y-109353371D02*
X115399123Y-109305752D01*
X115399123Y-109305752D02*
X115541980Y-109305752D01*
X115541980Y-109305752D02*
X115637218Y-109353371D01*
X115637218Y-109353371D02*
X115684837Y-109448609D01*
X115684837Y-109448609D02*
X115684837Y-109972419D01*
X115209598Y-32712419D02*
X115209598Y-33426704D01*
X115209598Y-33426704D02*
X115161979Y-33569561D01*
X115161979Y-33569561D02*
X115066741Y-33664800D01*
X115066741Y-33664800D02*
X114923884Y-33712419D01*
X114923884Y-33712419D02*
X114828646Y-33712419D01*
X116161979Y-33712419D02*
X115685789Y-33712419D01*
X115685789Y-33712419D02*
X115685789Y-32712419D01*
X117066741Y-33617180D02*
X117019122Y-33664800D01*
X117019122Y-33664800D02*
X116876265Y-33712419D01*
X116876265Y-33712419D02*
X116781027Y-33712419D01*
X116781027Y-33712419D02*
X116638170Y-33664800D01*
X116638170Y-33664800D02*
X116542932Y-33569561D01*
X116542932Y-33569561D02*
X116495313Y-33474323D01*
X116495313Y-33474323D02*
X116447694Y-33283847D01*
X116447694Y-33283847D02*
X116447694Y-33140990D01*
X116447694Y-33140990D02*
X116495313Y-32950514D01*
X116495313Y-32950514D02*
X116542932Y-32855276D01*
X116542932Y-32855276D02*
X116638170Y-32760038D01*
X116638170Y-32760038D02*
X116781027Y-32712419D01*
X116781027Y-32712419D02*
X116876265Y-32712419D01*
X116876265Y-32712419D02*
X117019122Y-32760038D01*
X117019122Y-32760038D02*
X117066741Y-32807657D01*
X117781027Y-32712419D02*
X117781027Y-33426704D01*
X117781027Y-33426704D02*
X117733408Y-33569561D01*
X117733408Y-33569561D02*
X117638170Y-33664800D01*
X117638170Y-33664800D02*
X117495313Y-33712419D01*
X117495313Y-33712419D02*
X117400075Y-33712419D01*
X118733408Y-33712419D02*
X118257218Y-33712419D01*
X118257218Y-33712419D02*
X118257218Y-32712419D01*
X119638170Y-33617180D02*
X119590551Y-33664800D01*
X119590551Y-33664800D02*
X119447694Y-33712419D01*
X119447694Y-33712419D02*
X119352456Y-33712419D01*
X119352456Y-33712419D02*
X119209599Y-33664800D01*
X119209599Y-33664800D02*
X119114361Y-33569561D01*
X119114361Y-33569561D02*
X119066742Y-33474323D01*
X119066742Y-33474323D02*
X119019123Y-33283847D01*
X119019123Y-33283847D02*
X119019123Y-33140990D01*
X119019123Y-33140990D02*
X119066742Y-32950514D01*
X119066742Y-32950514D02*
X119114361Y-32855276D01*
X119114361Y-32855276D02*
X119209599Y-32760038D01*
X119209599Y-32760038D02*
X119352456Y-32712419D01*
X119352456Y-32712419D02*
X119447694Y-32712419D01*
X119447694Y-32712419D02*
X119590551Y-32760038D01*
X119590551Y-32760038D02*
X119638170Y-32807657D01*
X120352456Y-32712419D02*
X120352456Y-33426704D01*
X120352456Y-33426704D02*
X120304837Y-33569561D01*
X120304837Y-33569561D02*
X120209599Y-33664800D01*
X120209599Y-33664800D02*
X120066742Y-33712419D01*
X120066742Y-33712419D02*
X119971504Y-33712419D01*
X121304837Y-33712419D02*
X120828647Y-33712419D01*
X120828647Y-33712419D02*
X120828647Y-32712419D01*
X122209599Y-33617180D02*
X122161980Y-33664800D01*
X122161980Y-33664800D02*
X122019123Y-33712419D01*
X122019123Y-33712419D02*
X121923885Y-33712419D01*
X121923885Y-33712419D02*
X121781028Y-33664800D01*
X121781028Y-33664800D02*
X121685790Y-33569561D01*
X121685790Y-33569561D02*
X121638171Y-33474323D01*
X121638171Y-33474323D02*
X121590552Y-33283847D01*
X121590552Y-33283847D02*
X121590552Y-33140990D01*
X121590552Y-33140990D02*
X121638171Y-32950514D01*
X121638171Y-32950514D02*
X121685790Y-32855276D01*
X121685790Y-32855276D02*
X121781028Y-32760038D01*
X121781028Y-32760038D02*
X121923885Y-32712419D01*
X121923885Y-32712419D02*
X122019123Y-32712419D01*
X122019123Y-32712419D02*
X122161980Y-32760038D01*
X122161980Y-32760038D02*
X122209599Y-32807657D01*
X122923885Y-32712419D02*
X122923885Y-33426704D01*
X122923885Y-33426704D02*
X122876266Y-33569561D01*
X122876266Y-33569561D02*
X122781028Y-33664800D01*
X122781028Y-33664800D02*
X122638171Y-33712419D01*
X122638171Y-33712419D02*
X122542933Y-33712419D01*
X123876266Y-33712419D02*
X123400076Y-33712419D01*
X123400076Y-33712419D02*
X123400076Y-32712419D01*
X124781028Y-33617180D02*
X124733409Y-33664800D01*
X124733409Y-33664800D02*
X124590552Y-33712419D01*
X124590552Y-33712419D02*
X124495314Y-33712419D01*
X124495314Y-33712419D02*
X124352457Y-33664800D01*
X124352457Y-33664800D02*
X124257219Y-33569561D01*
X124257219Y-33569561D02*
X124209600Y-33474323D01*
X124209600Y-33474323D02*
X124161981Y-33283847D01*
X124161981Y-33283847D02*
X124161981Y-33140990D01*
X124161981Y-33140990D02*
X124209600Y-32950514D01*
X124209600Y-32950514D02*
X124257219Y-32855276D01*
X124257219Y-32855276D02*
X124352457Y-32760038D01*
X124352457Y-32760038D02*
X124495314Y-32712419D01*
X124495314Y-32712419D02*
X124590552Y-32712419D01*
X124590552Y-32712419D02*
X124733409Y-32760038D01*
X124733409Y-32760038D02*
X124781028Y-32807657D01*
X131703884Y-109348609D02*
X132037217Y-109348609D01*
X132180074Y-109872419D02*
X131703884Y-109872419D01*
X131703884Y-109872419D02*
X131703884Y-108872419D01*
X131703884Y-108872419D02*
X132180074Y-108872419D01*
X132465789Y-109205752D02*
X132846741Y-109205752D01*
X132608646Y-108872419D02*
X132608646Y-109729561D01*
X132608646Y-109729561D02*
X132656265Y-109824800D01*
X132656265Y-109824800D02*
X132751503Y-109872419D01*
X132751503Y-109872419D02*
X132846741Y-109872419D01*
X133608646Y-109824800D02*
X133513408Y-109872419D01*
X133513408Y-109872419D02*
X133322932Y-109872419D01*
X133322932Y-109872419D02*
X133227694Y-109824800D01*
X133227694Y-109824800D02*
X133180075Y-109777180D01*
X133180075Y-109777180D02*
X133132456Y-109681942D01*
X133132456Y-109681942D02*
X133132456Y-109396228D01*
X133132456Y-109396228D02*
X133180075Y-109300990D01*
X133180075Y-109300990D02*
X133227694Y-109253371D01*
X133227694Y-109253371D02*
X133322932Y-109205752D01*
X133322932Y-109205752D02*
X133513408Y-109205752D01*
X133513408Y-109205752D02*
X133608646Y-109253371D01*
X134037218Y-109872419D02*
X134037218Y-108872419D01*
X134465789Y-109872419D02*
X134465789Y-109348609D01*
X134465789Y-109348609D02*
X134418170Y-109253371D01*
X134418170Y-109253371D02*
X134322932Y-109205752D01*
X134322932Y-109205752D02*
X134180075Y-109205752D01*
X134180075Y-109205752D02*
X134084837Y-109253371D01*
X134084837Y-109253371D02*
X134037218Y-109300990D01*
X135894361Y-108872419D02*
X136084837Y-108872419D01*
X136084837Y-108872419D02*
X136180075Y-108920038D01*
X136180075Y-108920038D02*
X136275313Y-109015276D01*
X136275313Y-109015276D02*
X136322932Y-109205752D01*
X136322932Y-109205752D02*
X136322932Y-109539085D01*
X136322932Y-109539085D02*
X136275313Y-109729561D01*
X136275313Y-109729561D02*
X136180075Y-109824800D01*
X136180075Y-109824800D02*
X136084837Y-109872419D01*
X136084837Y-109872419D02*
X135894361Y-109872419D01*
X135894361Y-109872419D02*
X135799123Y-109824800D01*
X135799123Y-109824800D02*
X135703885Y-109729561D01*
X135703885Y-109729561D02*
X135656266Y-109539085D01*
X135656266Y-109539085D02*
X135656266Y-109205752D01*
X135656266Y-109205752D02*
X135703885Y-109015276D01*
X135703885Y-109015276D02*
X135799123Y-108920038D01*
X135799123Y-108920038D02*
X135894361Y-108872419D01*
X137180075Y-109205752D02*
X137180075Y-109872419D01*
X136751504Y-109205752D02*
X136751504Y-109729561D01*
X136751504Y-109729561D02*
X136799123Y-109824800D01*
X136799123Y-109824800D02*
X136894361Y-109872419D01*
X136894361Y-109872419D02*
X137037218Y-109872419D01*
X137037218Y-109872419D02*
X137132456Y-109824800D01*
X137132456Y-109824800D02*
X137180075Y-109777180D01*
X137513409Y-109205752D02*
X137894361Y-109205752D01*
X137656266Y-108872419D02*
X137656266Y-109729561D01*
X137656266Y-109729561D02*
X137703885Y-109824800D01*
X137703885Y-109824800D02*
X137799123Y-109872419D01*
X137799123Y-109872419D02*
X137894361Y-109872419D01*
D11*
X140289160Y-85822200D02*
X140432017Y-85869819D01*
X140432017Y-85869819D02*
X140670112Y-85869819D01*
X140670112Y-85869819D02*
X140765350Y-85822200D01*
X140765350Y-85822200D02*
X140812969Y-85774580D01*
X140812969Y-85774580D02*
X140860588Y-85679342D01*
X140860588Y-85679342D02*
X140860588Y-85584104D01*
X140860588Y-85584104D02*
X140812969Y-85488866D01*
X140812969Y-85488866D02*
X140765350Y-85441247D01*
X140765350Y-85441247D02*
X140670112Y-85393628D01*
X140670112Y-85393628D02*
X140479636Y-85346009D01*
X140479636Y-85346009D02*
X140384398Y-85298390D01*
X140384398Y-85298390D02*
X140336779Y-85250771D01*
X140336779Y-85250771D02*
X140289160Y-85155533D01*
X140289160Y-85155533D02*
X140289160Y-85060295D01*
X140289160Y-85060295D02*
X140336779Y-84965057D01*
X140336779Y-84965057D02*
X140384398Y-84917438D01*
X140384398Y-84917438D02*
X140479636Y-84869819D01*
X140479636Y-84869819D02*
X140717731Y-84869819D01*
X140717731Y-84869819D02*
X140860588Y-84917438D01*
X141193922Y-84869819D02*
X141432017Y-85869819D01*
X141432017Y-85869819D02*
X141622493Y-85155533D01*
X141622493Y-85155533D02*
X141812969Y-85869819D01*
X141812969Y-85869819D02*
X142051065Y-84869819D01*
X143003445Y-85774580D02*
X142955826Y-85822200D01*
X142955826Y-85822200D02*
X142812969Y-85869819D01*
X142812969Y-85869819D02*
X142717731Y-85869819D01*
X142717731Y-85869819D02*
X142574874Y-85822200D01*
X142574874Y-85822200D02*
X142479636Y-85726961D01*
X142479636Y-85726961D02*
X142432017Y-85631723D01*
X142432017Y-85631723D02*
X142384398Y-85441247D01*
X142384398Y-85441247D02*
X142384398Y-85298390D01*
X142384398Y-85298390D02*
X142432017Y-85107914D01*
X142432017Y-85107914D02*
X142479636Y-85012676D01*
X142479636Y-85012676D02*
X142574874Y-84917438D01*
X142574874Y-84917438D02*
X142717731Y-84869819D01*
X142717731Y-84869819D02*
X142812969Y-84869819D01*
X142812969Y-84869819D02*
X142955826Y-84917438D01*
X142955826Y-84917438D02*
X143003445Y-84965057D01*
X143908207Y-85869819D02*
X143432017Y-85869819D01*
X143432017Y-85869819D02*
X143432017Y-84869819D01*
X144241541Y-85869819D02*
X144241541Y-84869819D01*
X144812969Y-85869819D02*
X144384398Y-85298390D01*
X144812969Y-84869819D02*
X144241541Y-85441247D01*
X140336779Y-95488866D02*
X141098684Y-95488866D01*
X142098683Y-95869819D02*
X141527255Y-95869819D01*
X141812969Y-95869819D02*
X141812969Y-94869819D01*
X141812969Y-94869819D02*
X141717731Y-95012676D01*
X141717731Y-95012676D02*
X141622493Y-95107914D01*
X141622493Y-95107914D02*
X141527255Y-95155533D01*
X142479636Y-94965057D02*
X142527255Y-94917438D01*
X142527255Y-94917438D02*
X142622493Y-94869819D01*
X142622493Y-94869819D02*
X142860588Y-94869819D01*
X142860588Y-94869819D02*
X142955826Y-94917438D01*
X142955826Y-94917438D02*
X143003445Y-94965057D01*
X143003445Y-94965057D02*
X143051064Y-95060295D01*
X143051064Y-95060295D02*
X143051064Y-95155533D01*
X143051064Y-95155533D02*
X143003445Y-95298390D01*
X143003445Y-95298390D02*
X142432017Y-95869819D01*
X142432017Y-95869819D02*
X143051064Y-95869819D01*
X143336779Y-94869819D02*
X143670112Y-95869819D01*
X143670112Y-95869819D02*
X144003445Y-94869819D01*
X140336779Y-105488866D02*
X141098684Y-105488866D01*
X140717731Y-105869819D02*
X140717731Y-105107914D01*
X142098683Y-105869819D02*
X141527255Y-105869819D01*
X141812969Y-105869819D02*
X141812969Y-104869819D01*
X141812969Y-104869819D02*
X141717731Y-105012676D01*
X141717731Y-105012676D02*
X141622493Y-105107914D01*
X141622493Y-105107914D02*
X141527255Y-105155533D01*
X142479636Y-104965057D02*
X142527255Y-104917438D01*
X142527255Y-104917438D02*
X142622493Y-104869819D01*
X142622493Y-104869819D02*
X142860588Y-104869819D01*
X142860588Y-104869819D02*
X142955826Y-104917438D01*
X142955826Y-104917438D02*
X143003445Y-104965057D01*
X143003445Y-104965057D02*
X143051064Y-105060295D01*
X143051064Y-105060295D02*
X143051064Y-105155533D01*
X143051064Y-105155533D02*
X143003445Y-105298390D01*
X143003445Y-105298390D02*
X142432017Y-105869819D01*
X142432017Y-105869819D02*
X143051064Y-105869819D01*
X143336779Y-104869819D02*
X143670112Y-105869819D01*
X143670112Y-105869819D02*
X144003445Y-104869819D01*
X140789160Y-82822200D02*
X140932017Y-82869819D01*
X140932017Y-82869819D02*
X141170112Y-82869819D01*
X141170112Y-82869819D02*
X141265350Y-82822200D01*
X141265350Y-82822200D02*
X141312969Y-82774580D01*
X141312969Y-82774580D02*
X141360588Y-82679342D01*
X141360588Y-82679342D02*
X141360588Y-82584104D01*
X141360588Y-82584104D02*
X141312969Y-82488866D01*
X141312969Y-82488866D02*
X141265350Y-82441247D01*
X141265350Y-82441247D02*
X141170112Y-82393628D01*
X141170112Y-82393628D02*
X140979636Y-82346009D01*
X140979636Y-82346009D02*
X140884398Y-82298390D01*
X140884398Y-82298390D02*
X140836779Y-82250771D01*
X140836779Y-82250771D02*
X140789160Y-82155533D01*
X140789160Y-82155533D02*
X140789160Y-82060295D01*
X140789160Y-82060295D02*
X140836779Y-81965057D01*
X140836779Y-81965057D02*
X140884398Y-81917438D01*
X140884398Y-81917438D02*
X140979636Y-81869819D01*
X140979636Y-81869819D02*
X141217731Y-81869819D01*
X141217731Y-81869819D02*
X141360588Y-81917438D01*
X141693922Y-81869819D02*
X141932017Y-82869819D01*
X141932017Y-82869819D02*
X142122493Y-82155533D01*
X142122493Y-82155533D02*
X142312969Y-82869819D01*
X142312969Y-82869819D02*
X142551065Y-81869819D01*
X142932017Y-82869819D02*
X142932017Y-81869819D01*
X142932017Y-81869819D02*
X143170112Y-81869819D01*
X143170112Y-81869819D02*
X143312969Y-81917438D01*
X143312969Y-81917438D02*
X143408207Y-82012676D01*
X143408207Y-82012676D02*
X143455826Y-82107914D01*
X143455826Y-82107914D02*
X143503445Y-82298390D01*
X143503445Y-82298390D02*
X143503445Y-82441247D01*
X143503445Y-82441247D02*
X143455826Y-82631723D01*
X143455826Y-82631723D02*
X143408207Y-82726961D01*
X143408207Y-82726961D02*
X143312969Y-82822200D01*
X143312969Y-82822200D02*
X143170112Y-82869819D01*
X143170112Y-82869819D02*
X142932017Y-82869819D01*
X143932017Y-82869819D02*
X143932017Y-81869819D01*
X144598683Y-81869819D02*
X144789159Y-81869819D01*
X144789159Y-81869819D02*
X144884397Y-81917438D01*
X144884397Y-81917438D02*
X144979635Y-82012676D01*
X144979635Y-82012676D02*
X145027254Y-82203152D01*
X145027254Y-82203152D02*
X145027254Y-82536485D01*
X145027254Y-82536485D02*
X144979635Y-82726961D01*
X144979635Y-82726961D02*
X144884397Y-82822200D01*
X144884397Y-82822200D02*
X144789159Y-82869819D01*
X144789159Y-82869819D02*
X144598683Y-82869819D01*
X144598683Y-82869819D02*
X144503445Y-82822200D01*
X144503445Y-82822200D02*
X144408207Y-82726961D01*
X144408207Y-82726961D02*
X144360588Y-82536485D01*
X144360588Y-82536485D02*
X144360588Y-82203152D01*
X144360588Y-82203152D02*
X144408207Y-82012676D01*
X144408207Y-82012676D02*
X144503445Y-81917438D01*
X144503445Y-81917438D02*
X144598683Y-81869819D01*
X141336779Y-87988866D02*
X142098684Y-87988866D01*
X141717731Y-88369819D02*
X141717731Y-87607914D01*
X142479636Y-87369819D02*
X143098683Y-87369819D01*
X143098683Y-87369819D02*
X142765350Y-87750771D01*
X142765350Y-87750771D02*
X142908207Y-87750771D01*
X142908207Y-87750771D02*
X143003445Y-87798390D01*
X143003445Y-87798390D02*
X143051064Y-87846009D01*
X143051064Y-87846009D02*
X143098683Y-87941247D01*
X143098683Y-87941247D02*
X143098683Y-88179342D01*
X143098683Y-88179342D02*
X143051064Y-88274580D01*
X143051064Y-88274580D02*
X143003445Y-88322200D01*
X143003445Y-88322200D02*
X142908207Y-88369819D01*
X142908207Y-88369819D02*
X142622493Y-88369819D01*
X142622493Y-88369819D02*
X142527255Y-88322200D01*
X142527255Y-88322200D02*
X142479636Y-88274580D01*
X143384398Y-87369819D02*
X143717731Y-88369819D01*
X143717731Y-88369819D02*
X144051064Y-87369819D01*
X144289160Y-87369819D02*
X144908207Y-87369819D01*
X144908207Y-87369819D02*
X144574874Y-87750771D01*
X144574874Y-87750771D02*
X144717731Y-87750771D01*
X144717731Y-87750771D02*
X144812969Y-87798390D01*
X144812969Y-87798390D02*
X144860588Y-87846009D01*
X144860588Y-87846009D02*
X144908207Y-87941247D01*
X144908207Y-87941247D02*
X144908207Y-88179342D01*
X144908207Y-88179342D02*
X144860588Y-88274580D01*
X144860588Y-88274580D02*
X144812969Y-88322200D01*
X144812969Y-88322200D02*
X144717731Y-88369819D01*
X144717731Y-88369819D02*
X144432017Y-88369819D01*
X144432017Y-88369819D02*
X144336779Y-88322200D01*
X144336779Y-88322200D02*
X144289160Y-88274580D01*
X141860588Y-99917438D02*
X141765350Y-99869819D01*
X141765350Y-99869819D02*
X141622493Y-99869819D01*
X141622493Y-99869819D02*
X141479636Y-99917438D01*
X141479636Y-99917438D02*
X141384398Y-100012676D01*
X141384398Y-100012676D02*
X141336779Y-100107914D01*
X141336779Y-100107914D02*
X141289160Y-100298390D01*
X141289160Y-100298390D02*
X141289160Y-100441247D01*
X141289160Y-100441247D02*
X141336779Y-100631723D01*
X141336779Y-100631723D02*
X141384398Y-100726961D01*
X141384398Y-100726961D02*
X141479636Y-100822200D01*
X141479636Y-100822200D02*
X141622493Y-100869819D01*
X141622493Y-100869819D02*
X141717731Y-100869819D01*
X141717731Y-100869819D02*
X141860588Y-100822200D01*
X141860588Y-100822200D02*
X141908207Y-100774580D01*
X141908207Y-100774580D02*
X141908207Y-100441247D01*
X141908207Y-100441247D02*
X141717731Y-100441247D01*
X142336779Y-100869819D02*
X142336779Y-99869819D01*
X142336779Y-99869819D02*
X142908207Y-100869819D01*
X142908207Y-100869819D02*
X142908207Y-99869819D01*
X143384398Y-100869819D02*
X143384398Y-99869819D01*
X143384398Y-99869819D02*
X143622493Y-99869819D01*
X143622493Y-99869819D02*
X143765350Y-99917438D01*
X143765350Y-99917438D02*
X143860588Y-100012676D01*
X143860588Y-100012676D02*
X143908207Y-100107914D01*
X143908207Y-100107914D02*
X143955826Y-100298390D01*
X143955826Y-100298390D02*
X143955826Y-100441247D01*
X143955826Y-100441247D02*
X143908207Y-100631723D01*
X143908207Y-100631723D02*
X143860588Y-100726961D01*
X143860588Y-100726961D02*
X143765350Y-100822200D01*
X143765350Y-100822200D02*
X143622493Y-100869819D01*
X143622493Y-100869819D02*
X143384398Y-100869819D01*
X142860588Y-78917438D02*
X142765350Y-78869819D01*
X142765350Y-78869819D02*
X142622493Y-78869819D01*
X142622493Y-78869819D02*
X142479636Y-78917438D01*
X142479636Y-78917438D02*
X142384398Y-79012676D01*
X142384398Y-79012676D02*
X142336779Y-79107914D01*
X142336779Y-79107914D02*
X142289160Y-79298390D01*
X142289160Y-79298390D02*
X142289160Y-79441247D01*
X142289160Y-79441247D02*
X142336779Y-79631723D01*
X142336779Y-79631723D02*
X142384398Y-79726961D01*
X142384398Y-79726961D02*
X142479636Y-79822200D01*
X142479636Y-79822200D02*
X142622493Y-79869819D01*
X142622493Y-79869819D02*
X142717731Y-79869819D01*
X142717731Y-79869819D02*
X142860588Y-79822200D01*
X142860588Y-79822200D02*
X142908207Y-79774580D01*
X142908207Y-79774580D02*
X142908207Y-79441247D01*
X142908207Y-79441247D02*
X142717731Y-79441247D01*
X143336779Y-79869819D02*
X143336779Y-78869819D01*
X143336779Y-78869819D02*
X143908207Y-79869819D01*
X143908207Y-79869819D02*
X143908207Y-78869819D01*
X144384398Y-79869819D02*
X144384398Y-78869819D01*
X144384398Y-78869819D02*
X144622493Y-78869819D01*
X144622493Y-78869819D02*
X144765350Y-78917438D01*
X144765350Y-78917438D02*
X144860588Y-79012676D01*
X144860588Y-79012676D02*
X144908207Y-79107914D01*
X144908207Y-79107914D02*
X144955826Y-79298390D01*
X144955826Y-79298390D02*
X144955826Y-79441247D01*
X144955826Y-79441247D02*
X144908207Y-79631723D01*
X144908207Y-79631723D02*
X144860588Y-79726961D01*
X144860588Y-79726961D02*
X144765350Y-79822200D01*
X144765350Y-79822200D02*
X144622493Y-79869819D01*
X144622493Y-79869819D02*
X144384398Y-79869819D01*
X124833333Y-96924819D02*
X124500000Y-96448628D01*
X124261905Y-96924819D02*
X124261905Y-95924819D01*
X124261905Y-95924819D02*
X124642857Y-95924819D01*
X124642857Y-95924819D02*
X124738095Y-95972438D01*
X124738095Y-95972438D02*
X124785714Y-96020057D01*
X124785714Y-96020057D02*
X124833333Y-96115295D01*
X124833333Y-96115295D02*
X124833333Y-96258152D01*
X124833333Y-96258152D02*
X124785714Y-96353390D01*
X124785714Y-96353390D02*
X124738095Y-96401009D01*
X124738095Y-96401009D02*
X124642857Y-96448628D01*
X124642857Y-96448628D02*
X124261905Y-96448628D01*
X125738095Y-95924819D02*
X125261905Y-95924819D01*
X125261905Y-95924819D02*
X125214286Y-96401009D01*
X125214286Y-96401009D02*
X125261905Y-96353390D01*
X125261905Y-96353390D02*
X125357143Y-96305771D01*
X125357143Y-96305771D02*
X125595238Y-96305771D01*
X125595238Y-96305771D02*
X125690476Y-96353390D01*
X125690476Y-96353390D02*
X125738095Y-96401009D01*
X125738095Y-96401009D02*
X125785714Y-96496247D01*
X125785714Y-96496247D02*
X125785714Y-96734342D01*
X125785714Y-96734342D02*
X125738095Y-96829580D01*
X125738095Y-96829580D02*
X125690476Y-96877200D01*
X125690476Y-96877200D02*
X125595238Y-96924819D01*
X125595238Y-96924819D02*
X125357143Y-96924819D01*
X125357143Y-96924819D02*
X125261905Y-96877200D01*
X125261905Y-96877200D02*
X125214286Y-96829580D01*
X90419580Y-90891666D02*
X90467200Y-90939285D01*
X90467200Y-90939285D02*
X90514819Y-91082142D01*
X90514819Y-91082142D02*
X90514819Y-91177380D01*
X90514819Y-91177380D02*
X90467200Y-91320237D01*
X90467200Y-91320237D02*
X90371961Y-91415475D01*
X90371961Y-91415475D02*
X90276723Y-91463094D01*
X90276723Y-91463094D02*
X90086247Y-91510713D01*
X90086247Y-91510713D02*
X89943390Y-91510713D01*
X89943390Y-91510713D02*
X89752914Y-91463094D01*
X89752914Y-91463094D02*
X89657676Y-91415475D01*
X89657676Y-91415475D02*
X89562438Y-91320237D01*
X89562438Y-91320237D02*
X89514819Y-91177380D01*
X89514819Y-91177380D02*
X89514819Y-91082142D01*
X89514819Y-91082142D02*
X89562438Y-90939285D01*
X89562438Y-90939285D02*
X89610057Y-90891666D01*
X90514819Y-89939285D02*
X90514819Y-90510713D01*
X90514819Y-90224999D02*
X89514819Y-90224999D01*
X89514819Y-90224999D02*
X89657676Y-90320237D01*
X89657676Y-90320237D02*
X89752914Y-90415475D01*
X89752914Y-90415475D02*
X89800533Y-90510713D01*
X145772800Y-62536667D02*
X145725180Y-62679524D01*
X145725180Y-62679524D02*
X145725180Y-62917619D01*
X145725180Y-62917619D02*
X145772800Y-63012857D01*
X145772800Y-63012857D02*
X145820419Y-63060476D01*
X145820419Y-63060476D02*
X145915657Y-63108095D01*
X145915657Y-63108095D02*
X146010895Y-63108095D01*
X146010895Y-63108095D02*
X146106133Y-63060476D01*
X146106133Y-63060476D02*
X146153752Y-63012857D01*
X146153752Y-63012857D02*
X146201371Y-62917619D01*
X146201371Y-62917619D02*
X146248990Y-62727143D01*
X146248990Y-62727143D02*
X146296609Y-62631905D01*
X146296609Y-62631905D02*
X146344228Y-62584286D01*
X146344228Y-62584286D02*
X146439466Y-62536667D01*
X146439466Y-62536667D02*
X146534704Y-62536667D01*
X146534704Y-62536667D02*
X146629942Y-62584286D01*
X146629942Y-62584286D02*
X146677561Y-62631905D01*
X146677561Y-62631905D02*
X146725180Y-62727143D01*
X146725180Y-62727143D02*
X146725180Y-62965238D01*
X146725180Y-62965238D02*
X146677561Y-63108095D01*
X146725180Y-63441429D02*
X145725180Y-63679524D01*
X145725180Y-63679524D02*
X146439466Y-63870000D01*
X146439466Y-63870000D02*
X145725180Y-64060476D01*
X145725180Y-64060476D02*
X146725180Y-64298572D01*
X146725180Y-65155714D02*
X146725180Y-64679524D01*
X146725180Y-64679524D02*
X146248990Y-64631905D01*
X146248990Y-64631905D02*
X146296609Y-64679524D01*
X146296609Y-64679524D02*
X146344228Y-64774762D01*
X146344228Y-64774762D02*
X146344228Y-65012857D01*
X146344228Y-65012857D02*
X146296609Y-65108095D01*
X146296609Y-65108095D02*
X146248990Y-65155714D01*
X146248990Y-65155714D02*
X146153752Y-65203333D01*
X146153752Y-65203333D02*
X145915657Y-65203333D01*
X145915657Y-65203333D02*
X145820419Y-65155714D01*
X145820419Y-65155714D02*
X145772800Y-65108095D01*
X145772800Y-65108095D02*
X145725180Y-65012857D01*
X145725180Y-65012857D02*
X145725180Y-64774762D01*
X145725180Y-64774762D02*
X145772800Y-64679524D01*
X145772800Y-64679524D02*
X145820419Y-64631905D01*
X138954819Y-53738094D02*
X137954819Y-53738094D01*
X137954819Y-53738094D02*
X137954819Y-53499999D01*
X137954819Y-53499999D02*
X138002438Y-53357142D01*
X138002438Y-53357142D02*
X138097676Y-53261904D01*
X138097676Y-53261904D02*
X138192914Y-53214285D01*
X138192914Y-53214285D02*
X138383390Y-53166666D01*
X138383390Y-53166666D02*
X138526247Y-53166666D01*
X138526247Y-53166666D02*
X138716723Y-53214285D01*
X138716723Y-53214285D02*
X138811961Y-53261904D01*
X138811961Y-53261904D02*
X138907200Y-53357142D01*
X138907200Y-53357142D02*
X138954819Y-53499999D01*
X138954819Y-53499999D02*
X138954819Y-53738094D01*
X138050057Y-52785713D02*
X138002438Y-52738094D01*
X138002438Y-52738094D02*
X137954819Y-52642856D01*
X137954819Y-52642856D02*
X137954819Y-52404761D01*
X137954819Y-52404761D02*
X138002438Y-52309523D01*
X138002438Y-52309523D02*
X138050057Y-52261904D01*
X138050057Y-52261904D02*
X138145295Y-52214285D01*
X138145295Y-52214285D02*
X138240533Y-52214285D01*
X138240533Y-52214285D02*
X138383390Y-52261904D01*
X138383390Y-52261904D02*
X138954819Y-52833332D01*
X138954819Y-52833332D02*
X138954819Y-52214285D01*
X74236905Y-53449819D02*
X74236905Y-54259342D01*
X74236905Y-54259342D02*
X74284524Y-54354580D01*
X74284524Y-54354580D02*
X74332143Y-54402200D01*
X74332143Y-54402200D02*
X74427381Y-54449819D01*
X74427381Y-54449819D02*
X74617857Y-54449819D01*
X74617857Y-54449819D02*
X74713095Y-54402200D01*
X74713095Y-54402200D02*
X74760714Y-54354580D01*
X74760714Y-54354580D02*
X74808333Y-54259342D01*
X74808333Y-54259342D02*
X74808333Y-53449819D01*
X75808333Y-54449819D02*
X75236905Y-54449819D01*
X75522619Y-54449819D02*
X75522619Y-53449819D01*
X75522619Y-53449819D02*
X75427381Y-53592676D01*
X75427381Y-53592676D02*
X75332143Y-53687914D01*
X75332143Y-53687914D02*
X75236905Y-53735533D01*
X76189286Y-53545057D02*
X76236905Y-53497438D01*
X76236905Y-53497438D02*
X76332143Y-53449819D01*
X76332143Y-53449819D02*
X76570238Y-53449819D01*
X76570238Y-53449819D02*
X76665476Y-53497438D01*
X76665476Y-53497438D02*
X76713095Y-53545057D01*
X76713095Y-53545057D02*
X76760714Y-53640295D01*
X76760714Y-53640295D02*
X76760714Y-53735533D01*
X76760714Y-53735533D02*
X76713095Y-53878390D01*
X76713095Y-53878390D02*
X76141667Y-54449819D01*
X76141667Y-54449819D02*
X76760714Y-54449819D01*
X103582142Y-107289580D02*
X103534523Y-107337200D01*
X103534523Y-107337200D02*
X103391666Y-107384819D01*
X103391666Y-107384819D02*
X103296428Y-107384819D01*
X103296428Y-107384819D02*
X103153571Y-107337200D01*
X103153571Y-107337200D02*
X103058333Y-107241961D01*
X103058333Y-107241961D02*
X103010714Y-107146723D01*
X103010714Y-107146723D02*
X102963095Y-106956247D01*
X102963095Y-106956247D02*
X102963095Y-106813390D01*
X102963095Y-106813390D02*
X103010714Y-106622914D01*
X103010714Y-106622914D02*
X103058333Y-106527676D01*
X103058333Y-106527676D02*
X103153571Y-106432438D01*
X103153571Y-106432438D02*
X103296428Y-106384819D01*
X103296428Y-106384819D02*
X103391666Y-106384819D01*
X103391666Y-106384819D02*
X103534523Y-106432438D01*
X103534523Y-106432438D02*
X103582142Y-106480057D01*
X103963095Y-106480057D02*
X104010714Y-106432438D01*
X104010714Y-106432438D02*
X104105952Y-106384819D01*
X104105952Y-106384819D02*
X104344047Y-106384819D01*
X104344047Y-106384819D02*
X104439285Y-106432438D01*
X104439285Y-106432438D02*
X104486904Y-106480057D01*
X104486904Y-106480057D02*
X104534523Y-106575295D01*
X104534523Y-106575295D02*
X104534523Y-106670533D01*
X104534523Y-106670533D02*
X104486904Y-106813390D01*
X104486904Y-106813390D02*
X103915476Y-107384819D01*
X103915476Y-107384819D02*
X104534523Y-107384819D01*
X104867857Y-106384819D02*
X105486904Y-106384819D01*
X105486904Y-106384819D02*
X105153571Y-106765771D01*
X105153571Y-106765771D02*
X105296428Y-106765771D01*
X105296428Y-106765771D02*
X105391666Y-106813390D01*
X105391666Y-106813390D02*
X105439285Y-106861009D01*
X105439285Y-106861009D02*
X105486904Y-106956247D01*
X105486904Y-106956247D02*
X105486904Y-107194342D01*
X105486904Y-107194342D02*
X105439285Y-107289580D01*
X105439285Y-107289580D02*
X105391666Y-107337200D01*
X105391666Y-107337200D02*
X105296428Y-107384819D01*
X105296428Y-107384819D02*
X105010714Y-107384819D01*
X105010714Y-107384819D02*
X104915476Y-107337200D01*
X104915476Y-107337200D02*
X104867857Y-107289580D01*
X75429580Y-107117857D02*
X75477200Y-107165476D01*
X75477200Y-107165476D02*
X75524819Y-107308333D01*
X75524819Y-107308333D02*
X75524819Y-107403571D01*
X75524819Y-107403571D02*
X75477200Y-107546428D01*
X75477200Y-107546428D02*
X75381961Y-107641666D01*
X75381961Y-107641666D02*
X75286723Y-107689285D01*
X75286723Y-107689285D02*
X75096247Y-107736904D01*
X75096247Y-107736904D02*
X74953390Y-107736904D01*
X74953390Y-107736904D02*
X74762914Y-107689285D01*
X74762914Y-107689285D02*
X74667676Y-107641666D01*
X74667676Y-107641666D02*
X74572438Y-107546428D01*
X74572438Y-107546428D02*
X74524819Y-107403571D01*
X74524819Y-107403571D02*
X74524819Y-107308333D01*
X74524819Y-107308333D02*
X74572438Y-107165476D01*
X74572438Y-107165476D02*
X74620057Y-107117857D01*
X74620057Y-106736904D02*
X74572438Y-106689285D01*
X74572438Y-106689285D02*
X74524819Y-106594047D01*
X74524819Y-106594047D02*
X74524819Y-106355952D01*
X74524819Y-106355952D02*
X74572438Y-106260714D01*
X74572438Y-106260714D02*
X74620057Y-106213095D01*
X74620057Y-106213095D02*
X74715295Y-106165476D01*
X74715295Y-106165476D02*
X74810533Y-106165476D01*
X74810533Y-106165476D02*
X74953390Y-106213095D01*
X74953390Y-106213095D02*
X75524819Y-106784523D01*
X75524819Y-106784523D02*
X75524819Y-106165476D01*
X75524819Y-105213095D02*
X75524819Y-105784523D01*
X75524819Y-105498809D02*
X74524819Y-105498809D01*
X74524819Y-105498809D02*
X74667676Y-105594047D01*
X74667676Y-105594047D02*
X74762914Y-105689285D01*
X74762914Y-105689285D02*
X74810533Y-105784523D01*
X119859580Y-107867857D02*
X119907200Y-107915476D01*
X119907200Y-107915476D02*
X119954819Y-108058333D01*
X119954819Y-108058333D02*
X119954819Y-108153571D01*
X119954819Y-108153571D02*
X119907200Y-108296428D01*
X119907200Y-108296428D02*
X119811961Y-108391666D01*
X119811961Y-108391666D02*
X119716723Y-108439285D01*
X119716723Y-108439285D02*
X119526247Y-108486904D01*
X119526247Y-108486904D02*
X119383390Y-108486904D01*
X119383390Y-108486904D02*
X119192914Y-108439285D01*
X119192914Y-108439285D02*
X119097676Y-108391666D01*
X119097676Y-108391666D02*
X119002438Y-108296428D01*
X119002438Y-108296428D02*
X118954819Y-108153571D01*
X118954819Y-108153571D02*
X118954819Y-108058333D01*
X118954819Y-108058333D02*
X119002438Y-107915476D01*
X119002438Y-107915476D02*
X119050057Y-107867857D01*
X119954819Y-106915476D02*
X119954819Y-107486904D01*
X119954819Y-107201190D02*
X118954819Y-107201190D01*
X118954819Y-107201190D02*
X119097676Y-107296428D01*
X119097676Y-107296428D02*
X119192914Y-107391666D01*
X119192914Y-107391666D02*
X119240533Y-107486904D01*
X119954819Y-106439285D02*
X119954819Y-106248809D01*
X119954819Y-106248809D02*
X119907200Y-106153571D01*
X119907200Y-106153571D02*
X119859580Y-106105952D01*
X119859580Y-106105952D02*
X119716723Y-106010714D01*
X119716723Y-106010714D02*
X119526247Y-105963095D01*
X119526247Y-105963095D02*
X119145295Y-105963095D01*
X119145295Y-105963095D02*
X119050057Y-106010714D01*
X119050057Y-106010714D02*
X119002438Y-106058333D01*
X119002438Y-106058333D02*
X118954819Y-106153571D01*
X118954819Y-106153571D02*
X118954819Y-106344047D01*
X118954819Y-106344047D02*
X119002438Y-106439285D01*
X119002438Y-106439285D02*
X119050057Y-106486904D01*
X119050057Y-106486904D02*
X119145295Y-106534523D01*
X119145295Y-106534523D02*
X119383390Y-106534523D01*
X119383390Y-106534523D02*
X119478628Y-106486904D01*
X119478628Y-106486904D02*
X119526247Y-106439285D01*
X119526247Y-106439285D02*
X119573866Y-106344047D01*
X119573866Y-106344047D02*
X119573866Y-106153571D01*
X119573866Y-106153571D02*
X119526247Y-106058333D01*
X119526247Y-106058333D02*
X119478628Y-106010714D01*
X119478628Y-106010714D02*
X119383390Y-105963095D01*
X115632142Y-100929580D02*
X115584523Y-100977200D01*
X115584523Y-100977200D02*
X115441666Y-101024819D01*
X115441666Y-101024819D02*
X115346428Y-101024819D01*
X115346428Y-101024819D02*
X115203571Y-100977200D01*
X115203571Y-100977200D02*
X115108333Y-100881961D01*
X115108333Y-100881961D02*
X115060714Y-100786723D01*
X115060714Y-100786723D02*
X115013095Y-100596247D01*
X115013095Y-100596247D02*
X115013095Y-100453390D01*
X115013095Y-100453390D02*
X115060714Y-100262914D01*
X115060714Y-100262914D02*
X115108333Y-100167676D01*
X115108333Y-100167676D02*
X115203571Y-100072438D01*
X115203571Y-100072438D02*
X115346428Y-100024819D01*
X115346428Y-100024819D02*
X115441666Y-100024819D01*
X115441666Y-100024819D02*
X115584523Y-100072438D01*
X115584523Y-100072438D02*
X115632142Y-100120057D01*
X116584523Y-101024819D02*
X116013095Y-101024819D01*
X116298809Y-101024819D02*
X116298809Y-100024819D01*
X116298809Y-100024819D02*
X116203571Y-100167676D01*
X116203571Y-100167676D02*
X116108333Y-100262914D01*
X116108333Y-100262914D02*
X116013095Y-100310533D01*
X117536904Y-101024819D02*
X116965476Y-101024819D01*
X117251190Y-101024819D02*
X117251190Y-100024819D01*
X117251190Y-100024819D02*
X117155952Y-100167676D01*
X117155952Y-100167676D02*
X117060714Y-100262914D01*
X117060714Y-100262914D02*
X116965476Y-100310533D01*
X77919580Y-94931666D02*
X77967200Y-94979285D01*
X77967200Y-94979285D02*
X78014819Y-95122142D01*
X78014819Y-95122142D02*
X78014819Y-95217380D01*
X78014819Y-95217380D02*
X77967200Y-95360237D01*
X77967200Y-95360237D02*
X77871961Y-95455475D01*
X77871961Y-95455475D02*
X77776723Y-95503094D01*
X77776723Y-95503094D02*
X77586247Y-95550713D01*
X77586247Y-95550713D02*
X77443390Y-95550713D01*
X77443390Y-95550713D02*
X77252914Y-95503094D01*
X77252914Y-95503094D02*
X77157676Y-95455475D01*
X77157676Y-95455475D02*
X77062438Y-95360237D01*
X77062438Y-95360237D02*
X77014819Y-95217380D01*
X77014819Y-95217380D02*
X77014819Y-95122142D01*
X77014819Y-95122142D02*
X77062438Y-94979285D01*
X77062438Y-94979285D02*
X77110057Y-94931666D01*
X77443390Y-94360237D02*
X77395771Y-94455475D01*
X77395771Y-94455475D02*
X77348152Y-94503094D01*
X77348152Y-94503094D02*
X77252914Y-94550713D01*
X77252914Y-94550713D02*
X77205295Y-94550713D01*
X77205295Y-94550713D02*
X77110057Y-94503094D01*
X77110057Y-94503094D02*
X77062438Y-94455475D01*
X77062438Y-94455475D02*
X77014819Y-94360237D01*
X77014819Y-94360237D02*
X77014819Y-94169761D01*
X77014819Y-94169761D02*
X77062438Y-94074523D01*
X77062438Y-94074523D02*
X77110057Y-94026904D01*
X77110057Y-94026904D02*
X77205295Y-93979285D01*
X77205295Y-93979285D02*
X77252914Y-93979285D01*
X77252914Y-93979285D02*
X77348152Y-94026904D01*
X77348152Y-94026904D02*
X77395771Y-94074523D01*
X77395771Y-94074523D02*
X77443390Y-94169761D01*
X77443390Y-94169761D02*
X77443390Y-94360237D01*
X77443390Y-94360237D02*
X77491009Y-94455475D01*
X77491009Y-94455475D02*
X77538628Y-94503094D01*
X77538628Y-94503094D02*
X77633866Y-94550713D01*
X77633866Y-94550713D02*
X77824342Y-94550713D01*
X77824342Y-94550713D02*
X77919580Y-94503094D01*
X77919580Y-94503094D02*
X77967200Y-94455475D01*
X77967200Y-94455475D02*
X78014819Y-94360237D01*
X78014819Y-94360237D02*
X78014819Y-94169761D01*
X78014819Y-94169761D02*
X77967200Y-94074523D01*
X77967200Y-94074523D02*
X77919580Y-94026904D01*
X77919580Y-94026904D02*
X77824342Y-93979285D01*
X77824342Y-93979285D02*
X77633866Y-93979285D01*
X77633866Y-93979285D02*
X77538628Y-94026904D01*
X77538628Y-94026904D02*
X77491009Y-94074523D01*
X77491009Y-94074523D02*
X77443390Y-94169761D01*
X127608333Y-93024819D02*
X127275000Y-92548628D01*
X127036905Y-93024819D02*
X127036905Y-92024819D01*
X127036905Y-92024819D02*
X127417857Y-92024819D01*
X127417857Y-92024819D02*
X127513095Y-92072438D01*
X127513095Y-92072438D02*
X127560714Y-92120057D01*
X127560714Y-92120057D02*
X127608333Y-92215295D01*
X127608333Y-92215295D02*
X127608333Y-92358152D01*
X127608333Y-92358152D02*
X127560714Y-92453390D01*
X127560714Y-92453390D02*
X127513095Y-92501009D01*
X127513095Y-92501009D02*
X127417857Y-92548628D01*
X127417857Y-92548628D02*
X127036905Y-92548628D01*
X128465476Y-92358152D02*
X128465476Y-93024819D01*
X128227381Y-91977200D02*
X127989286Y-92691485D01*
X127989286Y-92691485D02*
X128608333Y-92691485D01*
X135454819Y-88841666D02*
X134978628Y-89174999D01*
X135454819Y-89413094D02*
X134454819Y-89413094D01*
X134454819Y-89413094D02*
X134454819Y-89032142D01*
X134454819Y-89032142D02*
X134502438Y-88936904D01*
X134502438Y-88936904D02*
X134550057Y-88889285D01*
X134550057Y-88889285D02*
X134645295Y-88841666D01*
X134645295Y-88841666D02*
X134788152Y-88841666D01*
X134788152Y-88841666D02*
X134883390Y-88889285D01*
X134883390Y-88889285D02*
X134931009Y-88936904D01*
X134931009Y-88936904D02*
X134978628Y-89032142D01*
X134978628Y-89032142D02*
X134978628Y-89413094D01*
X134454819Y-88508332D02*
X134454819Y-87889285D01*
X134454819Y-87889285D02*
X134835771Y-88222618D01*
X134835771Y-88222618D02*
X134835771Y-88079761D01*
X134835771Y-88079761D02*
X134883390Y-87984523D01*
X134883390Y-87984523D02*
X134931009Y-87936904D01*
X134931009Y-87936904D02*
X135026247Y-87889285D01*
X135026247Y-87889285D02*
X135264342Y-87889285D01*
X135264342Y-87889285D02*
X135359580Y-87936904D01*
X135359580Y-87936904D02*
X135407200Y-87984523D01*
X135407200Y-87984523D02*
X135454819Y-88079761D01*
X135454819Y-88079761D02*
X135454819Y-88365475D01*
X135454819Y-88365475D02*
X135407200Y-88460713D01*
X135407200Y-88460713D02*
X135359580Y-88508332D01*
X75959580Y-95066666D02*
X76007200Y-95114285D01*
X76007200Y-95114285D02*
X76054819Y-95257142D01*
X76054819Y-95257142D02*
X76054819Y-95352380D01*
X76054819Y-95352380D02*
X76007200Y-95495237D01*
X76007200Y-95495237D02*
X75911961Y-95590475D01*
X75911961Y-95590475D02*
X75816723Y-95638094D01*
X75816723Y-95638094D02*
X75626247Y-95685713D01*
X75626247Y-95685713D02*
X75483390Y-95685713D01*
X75483390Y-95685713D02*
X75292914Y-95638094D01*
X75292914Y-95638094D02*
X75197676Y-95590475D01*
X75197676Y-95590475D02*
X75102438Y-95495237D01*
X75102438Y-95495237D02*
X75054819Y-95352380D01*
X75054819Y-95352380D02*
X75054819Y-95257142D01*
X75054819Y-95257142D02*
X75102438Y-95114285D01*
X75102438Y-95114285D02*
X75150057Y-95066666D01*
X75054819Y-94733332D02*
X75054819Y-94066666D01*
X75054819Y-94066666D02*
X76054819Y-94495237D01*
X98761905Y-82104819D02*
X98761905Y-81104819D01*
X98761905Y-81104819D02*
X99000000Y-81104819D01*
X99000000Y-81104819D02*
X99142857Y-81152438D01*
X99142857Y-81152438D02*
X99238095Y-81247676D01*
X99238095Y-81247676D02*
X99285714Y-81342914D01*
X99285714Y-81342914D02*
X99333333Y-81533390D01*
X99333333Y-81533390D02*
X99333333Y-81676247D01*
X99333333Y-81676247D02*
X99285714Y-81866723D01*
X99285714Y-81866723D02*
X99238095Y-81961961D01*
X99238095Y-81961961D02*
X99142857Y-82057200D01*
X99142857Y-82057200D02*
X99000000Y-82104819D01*
X99000000Y-82104819D02*
X98761905Y-82104819D01*
X99666667Y-81104819D02*
X100285714Y-81104819D01*
X100285714Y-81104819D02*
X99952381Y-81485771D01*
X99952381Y-81485771D02*
X100095238Y-81485771D01*
X100095238Y-81485771D02*
X100190476Y-81533390D01*
X100190476Y-81533390D02*
X100238095Y-81581009D01*
X100238095Y-81581009D02*
X100285714Y-81676247D01*
X100285714Y-81676247D02*
X100285714Y-81914342D01*
X100285714Y-81914342D02*
X100238095Y-82009580D01*
X100238095Y-82009580D02*
X100190476Y-82057200D01*
X100190476Y-82057200D02*
X100095238Y-82104819D01*
X100095238Y-82104819D02*
X99809524Y-82104819D01*
X99809524Y-82104819D02*
X99714286Y-82057200D01*
X99714286Y-82057200D02*
X99666667Y-82009580D01*
X69429580Y-52417857D02*
X69477200Y-52465476D01*
X69477200Y-52465476D02*
X69524819Y-52608333D01*
X69524819Y-52608333D02*
X69524819Y-52703571D01*
X69524819Y-52703571D02*
X69477200Y-52846428D01*
X69477200Y-52846428D02*
X69381961Y-52941666D01*
X69381961Y-52941666D02*
X69286723Y-52989285D01*
X69286723Y-52989285D02*
X69096247Y-53036904D01*
X69096247Y-53036904D02*
X68953390Y-53036904D01*
X68953390Y-53036904D02*
X68762914Y-52989285D01*
X68762914Y-52989285D02*
X68667676Y-52941666D01*
X68667676Y-52941666D02*
X68572438Y-52846428D01*
X68572438Y-52846428D02*
X68524819Y-52703571D01*
X68524819Y-52703571D02*
X68524819Y-52608333D01*
X68524819Y-52608333D02*
X68572438Y-52465476D01*
X68572438Y-52465476D02*
X68620057Y-52417857D01*
X68620057Y-52036904D02*
X68572438Y-51989285D01*
X68572438Y-51989285D02*
X68524819Y-51894047D01*
X68524819Y-51894047D02*
X68524819Y-51655952D01*
X68524819Y-51655952D02*
X68572438Y-51560714D01*
X68572438Y-51560714D02*
X68620057Y-51513095D01*
X68620057Y-51513095D02*
X68715295Y-51465476D01*
X68715295Y-51465476D02*
X68810533Y-51465476D01*
X68810533Y-51465476D02*
X68953390Y-51513095D01*
X68953390Y-51513095D02*
X69524819Y-52084523D01*
X69524819Y-52084523D02*
X69524819Y-51465476D01*
X69524819Y-50989285D02*
X69524819Y-50798809D01*
X69524819Y-50798809D02*
X69477200Y-50703571D01*
X69477200Y-50703571D02*
X69429580Y-50655952D01*
X69429580Y-50655952D02*
X69286723Y-50560714D01*
X69286723Y-50560714D02*
X69096247Y-50513095D01*
X69096247Y-50513095D02*
X68715295Y-50513095D01*
X68715295Y-50513095D02*
X68620057Y-50560714D01*
X68620057Y-50560714D02*
X68572438Y-50608333D01*
X68572438Y-50608333D02*
X68524819Y-50703571D01*
X68524819Y-50703571D02*
X68524819Y-50894047D01*
X68524819Y-50894047D02*
X68572438Y-50989285D01*
X68572438Y-50989285D02*
X68620057Y-51036904D01*
X68620057Y-51036904D02*
X68715295Y-51084523D01*
X68715295Y-51084523D02*
X68953390Y-51084523D01*
X68953390Y-51084523D02*
X69048628Y-51036904D01*
X69048628Y-51036904D02*
X69096247Y-50989285D01*
X69096247Y-50989285D02*
X69143866Y-50894047D01*
X69143866Y-50894047D02*
X69143866Y-50703571D01*
X69143866Y-50703571D02*
X69096247Y-50608333D01*
X69096247Y-50608333D02*
X69048628Y-50560714D01*
X69048628Y-50560714D02*
X68953390Y-50513095D01*
X63838095Y-32054819D02*
X63838095Y-31054819D01*
X63838095Y-31531009D02*
X64409523Y-31531009D01*
X64409523Y-32054819D02*
X64409523Y-31054819D01*
X65409523Y-32054819D02*
X64838095Y-32054819D01*
X65123809Y-32054819D02*
X65123809Y-31054819D01*
X65123809Y-31054819D02*
X65028571Y-31197676D01*
X65028571Y-31197676D02*
X64933333Y-31292914D01*
X64933333Y-31292914D02*
X64838095Y-31340533D01*
X131357142Y-75359580D02*
X131309523Y-75407200D01*
X131309523Y-75407200D02*
X131166666Y-75454819D01*
X131166666Y-75454819D02*
X131071428Y-75454819D01*
X131071428Y-75454819D02*
X130928571Y-75407200D01*
X130928571Y-75407200D02*
X130833333Y-75311961D01*
X130833333Y-75311961D02*
X130785714Y-75216723D01*
X130785714Y-75216723D02*
X130738095Y-75026247D01*
X130738095Y-75026247D02*
X130738095Y-74883390D01*
X130738095Y-74883390D02*
X130785714Y-74692914D01*
X130785714Y-74692914D02*
X130833333Y-74597676D01*
X130833333Y-74597676D02*
X130928571Y-74502438D01*
X130928571Y-74502438D02*
X131071428Y-74454819D01*
X131071428Y-74454819D02*
X131166666Y-74454819D01*
X131166666Y-74454819D02*
X131309523Y-74502438D01*
X131309523Y-74502438D02*
X131357142Y-74550057D01*
X132309523Y-75454819D02*
X131738095Y-75454819D01*
X132023809Y-75454819D02*
X132023809Y-74454819D01*
X132023809Y-74454819D02*
X131928571Y-74597676D01*
X131928571Y-74597676D02*
X131833333Y-74692914D01*
X131833333Y-74692914D02*
X131738095Y-74740533D01*
X132642857Y-74454819D02*
X133261904Y-74454819D01*
X133261904Y-74454819D02*
X132928571Y-74835771D01*
X132928571Y-74835771D02*
X133071428Y-74835771D01*
X133071428Y-74835771D02*
X133166666Y-74883390D01*
X133166666Y-74883390D02*
X133214285Y-74931009D01*
X133214285Y-74931009D02*
X133261904Y-75026247D01*
X133261904Y-75026247D02*
X133261904Y-75264342D01*
X133261904Y-75264342D02*
X133214285Y-75359580D01*
X133214285Y-75359580D02*
X133166666Y-75407200D01*
X133166666Y-75407200D02*
X133071428Y-75454819D01*
X133071428Y-75454819D02*
X132785714Y-75454819D01*
X132785714Y-75454819D02*
X132690476Y-75407200D01*
X132690476Y-75407200D02*
X132642857Y-75359580D01*
X106567517Y-70086167D02*
X106567517Y-70800452D01*
X106567517Y-70800452D02*
X106519898Y-70943309D01*
X106519898Y-70943309D02*
X106424660Y-71038548D01*
X106424660Y-71038548D02*
X106281803Y-71086167D01*
X106281803Y-71086167D02*
X106186565Y-71086167D01*
X107567517Y-71086167D02*
X106996089Y-71086167D01*
X107281803Y-71086167D02*
X107281803Y-70086167D01*
X107281803Y-70086167D02*
X107186565Y-70229024D01*
X107186565Y-70229024D02*
X107091327Y-70324262D01*
X107091327Y-70324262D02*
X106996089Y-70371881D01*
X92760000Y-63654818D02*
X92760000Y-63892913D01*
X92521905Y-63797675D02*
X92760000Y-63892913D01*
X92760000Y-63892913D02*
X92998095Y-63797675D01*
X92617143Y-64083389D02*
X92760000Y-63892913D01*
X92760000Y-63892913D02*
X92902857Y-64083389D01*
X92760000Y-63654818D02*
X92760000Y-63892913D01*
X92521905Y-63797675D02*
X92760000Y-63892913D01*
X92760000Y-63892913D02*
X92998095Y-63797675D01*
X92617143Y-64083389D02*
X92760000Y-63892913D01*
X92760000Y-63892913D02*
X92902857Y-64083389D01*
X79104819Y-44300594D02*
X78104819Y-44300594D01*
X78104819Y-44300594D02*
X78104819Y-44062499D01*
X78104819Y-44062499D02*
X78152438Y-43919642D01*
X78152438Y-43919642D02*
X78247676Y-43824404D01*
X78247676Y-43824404D02*
X78342914Y-43776785D01*
X78342914Y-43776785D02*
X78533390Y-43729166D01*
X78533390Y-43729166D02*
X78676247Y-43729166D01*
X78676247Y-43729166D02*
X78866723Y-43776785D01*
X78866723Y-43776785D02*
X78961961Y-43824404D01*
X78961961Y-43824404D02*
X79057200Y-43919642D01*
X79057200Y-43919642D02*
X79104819Y-44062499D01*
X79104819Y-44062499D02*
X79104819Y-44300594D01*
X78104819Y-42824404D02*
X78104819Y-43300594D01*
X78104819Y-43300594D02*
X78581009Y-43348213D01*
X78581009Y-43348213D02*
X78533390Y-43300594D01*
X78533390Y-43300594D02*
X78485771Y-43205356D01*
X78485771Y-43205356D02*
X78485771Y-42967261D01*
X78485771Y-42967261D02*
X78533390Y-42872023D01*
X78533390Y-42872023D02*
X78581009Y-42824404D01*
X78581009Y-42824404D02*
X78676247Y-42776785D01*
X78676247Y-42776785D02*
X78914342Y-42776785D01*
X78914342Y-42776785D02*
X79009580Y-42824404D01*
X79009580Y-42824404D02*
X79057200Y-42872023D01*
X79057200Y-42872023D02*
X79104819Y-42967261D01*
X79104819Y-42967261D02*
X79104819Y-43205356D01*
X79104819Y-43205356D02*
X79057200Y-43300594D01*
X79057200Y-43300594D02*
X79009580Y-43348213D01*
X148238095Y-116454819D02*
X148238095Y-115454819D01*
X148238095Y-115931009D02*
X148809523Y-115931009D01*
X148809523Y-116454819D02*
X148809523Y-115454819D01*
X149190476Y-115454819D02*
X149809523Y-115454819D01*
X149809523Y-115454819D02*
X149476190Y-115835771D01*
X149476190Y-115835771D02*
X149619047Y-115835771D01*
X149619047Y-115835771D02*
X149714285Y-115883390D01*
X149714285Y-115883390D02*
X149761904Y-115931009D01*
X149761904Y-115931009D02*
X149809523Y-116026247D01*
X149809523Y-116026247D02*
X149809523Y-116264342D01*
X149809523Y-116264342D02*
X149761904Y-116359580D01*
X149761904Y-116359580D02*
X149714285Y-116407200D01*
X149714285Y-116407200D02*
X149619047Y-116454819D01*
X149619047Y-116454819D02*
X149333333Y-116454819D01*
X149333333Y-116454819D02*
X149238095Y-116407200D01*
X149238095Y-116407200D02*
X149190476Y-116359580D01*
X98744642Y-77024819D02*
X98411309Y-76548628D01*
X98173214Y-77024819D02*
X98173214Y-76024819D01*
X98173214Y-76024819D02*
X98554166Y-76024819D01*
X98554166Y-76024819D02*
X98649404Y-76072438D01*
X98649404Y-76072438D02*
X98697023Y-76120057D01*
X98697023Y-76120057D02*
X98744642Y-76215295D01*
X98744642Y-76215295D02*
X98744642Y-76358152D01*
X98744642Y-76358152D02*
X98697023Y-76453390D01*
X98697023Y-76453390D02*
X98649404Y-76501009D01*
X98649404Y-76501009D02*
X98554166Y-76548628D01*
X98554166Y-76548628D02*
X98173214Y-76548628D01*
X99697023Y-77024819D02*
X99125595Y-77024819D01*
X99411309Y-77024819D02*
X99411309Y-76024819D01*
X99411309Y-76024819D02*
X99316071Y-76167676D01*
X99316071Y-76167676D02*
X99220833Y-76262914D01*
X99220833Y-76262914D02*
X99125595Y-76310533D01*
X100316071Y-76024819D02*
X100411309Y-76024819D01*
X100411309Y-76024819D02*
X100506547Y-76072438D01*
X100506547Y-76072438D02*
X100554166Y-76120057D01*
X100554166Y-76120057D02*
X100601785Y-76215295D01*
X100601785Y-76215295D02*
X100649404Y-76405771D01*
X100649404Y-76405771D02*
X100649404Y-76643866D01*
X100649404Y-76643866D02*
X100601785Y-76834342D01*
X100601785Y-76834342D02*
X100554166Y-76929580D01*
X100554166Y-76929580D02*
X100506547Y-76977200D01*
X100506547Y-76977200D02*
X100411309Y-77024819D01*
X100411309Y-77024819D02*
X100316071Y-77024819D01*
X100316071Y-77024819D02*
X100220833Y-76977200D01*
X100220833Y-76977200D02*
X100173214Y-76929580D01*
X100173214Y-76929580D02*
X100125595Y-76834342D01*
X100125595Y-76834342D02*
X100077976Y-76643866D01*
X100077976Y-76643866D02*
X100077976Y-76405771D01*
X100077976Y-76405771D02*
X100125595Y-76215295D01*
X100125595Y-76215295D02*
X100173214Y-76120057D01*
X100173214Y-76120057D02*
X100220833Y-76072438D01*
X100220833Y-76072438D02*
X100316071Y-76024819D01*
X56238095Y-116704819D02*
X56238095Y-115704819D01*
X56238095Y-116181009D02*
X56809523Y-116181009D01*
X56809523Y-116704819D02*
X56809523Y-115704819D01*
X57238095Y-115800057D02*
X57285714Y-115752438D01*
X57285714Y-115752438D02*
X57380952Y-115704819D01*
X57380952Y-115704819D02*
X57619047Y-115704819D01*
X57619047Y-115704819D02*
X57714285Y-115752438D01*
X57714285Y-115752438D02*
X57761904Y-115800057D01*
X57761904Y-115800057D02*
X57809523Y-115895295D01*
X57809523Y-115895295D02*
X57809523Y-115990533D01*
X57809523Y-115990533D02*
X57761904Y-116133390D01*
X57761904Y-116133390D02*
X57190476Y-116704819D01*
X57190476Y-116704819D02*
X57809523Y-116704819D01*
X66057142Y-109384819D02*
X65723809Y-108908628D01*
X65485714Y-109384819D02*
X65485714Y-108384819D01*
X65485714Y-108384819D02*
X65866666Y-108384819D01*
X65866666Y-108384819D02*
X65961904Y-108432438D01*
X65961904Y-108432438D02*
X66009523Y-108480057D01*
X66009523Y-108480057D02*
X66057142Y-108575295D01*
X66057142Y-108575295D02*
X66057142Y-108718152D01*
X66057142Y-108718152D02*
X66009523Y-108813390D01*
X66009523Y-108813390D02*
X65961904Y-108861009D01*
X65961904Y-108861009D02*
X65866666Y-108908628D01*
X65866666Y-108908628D02*
X65485714Y-108908628D01*
X67009523Y-109384819D02*
X66438095Y-109384819D01*
X66723809Y-109384819D02*
X66723809Y-108384819D01*
X66723809Y-108384819D02*
X66628571Y-108527676D01*
X66628571Y-108527676D02*
X66533333Y-108622914D01*
X66533333Y-108622914D02*
X66438095Y-108670533D01*
X67390476Y-108480057D02*
X67438095Y-108432438D01*
X67438095Y-108432438D02*
X67533333Y-108384819D01*
X67533333Y-108384819D02*
X67771428Y-108384819D01*
X67771428Y-108384819D02*
X67866666Y-108432438D01*
X67866666Y-108432438D02*
X67914285Y-108480057D01*
X67914285Y-108480057D02*
X67961904Y-108575295D01*
X67961904Y-108575295D02*
X67961904Y-108670533D01*
X67961904Y-108670533D02*
X67914285Y-108813390D01*
X67914285Y-108813390D02*
X67342857Y-109384819D01*
X67342857Y-109384819D02*
X67961904Y-109384819D01*
X87719761Y-83284819D02*
X87386428Y-82808628D01*
X87148333Y-83284819D02*
X87148333Y-82284819D01*
X87148333Y-82284819D02*
X87529285Y-82284819D01*
X87529285Y-82284819D02*
X87624523Y-82332438D01*
X87624523Y-82332438D02*
X87672142Y-82380057D01*
X87672142Y-82380057D02*
X87719761Y-82475295D01*
X87719761Y-82475295D02*
X87719761Y-82618152D01*
X87719761Y-82618152D02*
X87672142Y-82713390D01*
X87672142Y-82713390D02*
X87624523Y-82761009D01*
X87624523Y-82761009D02*
X87529285Y-82808628D01*
X87529285Y-82808628D02*
X87148333Y-82808628D01*
X88005476Y-82284819D02*
X88338809Y-83284819D01*
X88338809Y-83284819D02*
X88672142Y-82284819D01*
X88957857Y-82380057D02*
X89005476Y-82332438D01*
X89005476Y-82332438D02*
X89100714Y-82284819D01*
X89100714Y-82284819D02*
X89338809Y-82284819D01*
X89338809Y-82284819D02*
X89434047Y-82332438D01*
X89434047Y-82332438D02*
X89481666Y-82380057D01*
X89481666Y-82380057D02*
X89529285Y-82475295D01*
X89529285Y-82475295D02*
X89529285Y-82570533D01*
X89529285Y-82570533D02*
X89481666Y-82713390D01*
X89481666Y-82713390D02*
X88910238Y-83284819D01*
X88910238Y-83284819D02*
X89529285Y-83284819D01*
X69429580Y-61142857D02*
X69477200Y-61190476D01*
X69477200Y-61190476D02*
X69524819Y-61333333D01*
X69524819Y-61333333D02*
X69524819Y-61428571D01*
X69524819Y-61428571D02*
X69477200Y-61571428D01*
X69477200Y-61571428D02*
X69381961Y-61666666D01*
X69381961Y-61666666D02*
X69286723Y-61714285D01*
X69286723Y-61714285D02*
X69096247Y-61761904D01*
X69096247Y-61761904D02*
X68953390Y-61761904D01*
X68953390Y-61761904D02*
X68762914Y-61714285D01*
X68762914Y-61714285D02*
X68667676Y-61666666D01*
X68667676Y-61666666D02*
X68572438Y-61571428D01*
X68572438Y-61571428D02*
X68524819Y-61428571D01*
X68524819Y-61428571D02*
X68524819Y-61333333D01*
X68524819Y-61333333D02*
X68572438Y-61190476D01*
X68572438Y-61190476D02*
X68620057Y-61142857D01*
X68620057Y-60761904D02*
X68572438Y-60714285D01*
X68572438Y-60714285D02*
X68524819Y-60619047D01*
X68524819Y-60619047D02*
X68524819Y-60380952D01*
X68524819Y-60380952D02*
X68572438Y-60285714D01*
X68572438Y-60285714D02*
X68620057Y-60238095D01*
X68620057Y-60238095D02*
X68715295Y-60190476D01*
X68715295Y-60190476D02*
X68810533Y-60190476D01*
X68810533Y-60190476D02*
X68953390Y-60238095D01*
X68953390Y-60238095D02*
X69524819Y-60809523D01*
X69524819Y-60809523D02*
X69524819Y-60190476D01*
X68524819Y-59857142D02*
X68524819Y-59190476D01*
X68524819Y-59190476D02*
X69524819Y-59619047D01*
X103582142Y-101859580D02*
X103534523Y-101907200D01*
X103534523Y-101907200D02*
X103391666Y-101954819D01*
X103391666Y-101954819D02*
X103296428Y-101954819D01*
X103296428Y-101954819D02*
X103153571Y-101907200D01*
X103153571Y-101907200D02*
X103058333Y-101811961D01*
X103058333Y-101811961D02*
X103010714Y-101716723D01*
X103010714Y-101716723D02*
X102963095Y-101526247D01*
X102963095Y-101526247D02*
X102963095Y-101383390D01*
X102963095Y-101383390D02*
X103010714Y-101192914D01*
X103010714Y-101192914D02*
X103058333Y-101097676D01*
X103058333Y-101097676D02*
X103153571Y-101002438D01*
X103153571Y-101002438D02*
X103296428Y-100954819D01*
X103296428Y-100954819D02*
X103391666Y-100954819D01*
X103391666Y-100954819D02*
X103534523Y-101002438D01*
X103534523Y-101002438D02*
X103582142Y-101050057D01*
X103963095Y-101050057D02*
X104010714Y-101002438D01*
X104010714Y-101002438D02*
X104105952Y-100954819D01*
X104105952Y-100954819D02*
X104344047Y-100954819D01*
X104344047Y-100954819D02*
X104439285Y-101002438D01*
X104439285Y-101002438D02*
X104486904Y-101050057D01*
X104486904Y-101050057D02*
X104534523Y-101145295D01*
X104534523Y-101145295D02*
X104534523Y-101240533D01*
X104534523Y-101240533D02*
X104486904Y-101383390D01*
X104486904Y-101383390D02*
X103915476Y-101954819D01*
X103915476Y-101954819D02*
X104534523Y-101954819D01*
X105391666Y-101288152D02*
X105391666Y-101954819D01*
X105153571Y-100907200D02*
X104915476Y-101621485D01*
X104915476Y-101621485D02*
X105534523Y-101621485D01*
X69429580Y-77642857D02*
X69477200Y-77690476D01*
X69477200Y-77690476D02*
X69524819Y-77833333D01*
X69524819Y-77833333D02*
X69524819Y-77928571D01*
X69524819Y-77928571D02*
X69477200Y-78071428D01*
X69477200Y-78071428D02*
X69381961Y-78166666D01*
X69381961Y-78166666D02*
X69286723Y-78214285D01*
X69286723Y-78214285D02*
X69096247Y-78261904D01*
X69096247Y-78261904D02*
X68953390Y-78261904D01*
X68953390Y-78261904D02*
X68762914Y-78214285D01*
X68762914Y-78214285D02*
X68667676Y-78166666D01*
X68667676Y-78166666D02*
X68572438Y-78071428D01*
X68572438Y-78071428D02*
X68524819Y-77928571D01*
X68524819Y-77928571D02*
X68524819Y-77833333D01*
X68524819Y-77833333D02*
X68572438Y-77690476D01*
X68572438Y-77690476D02*
X68620057Y-77642857D01*
X68620057Y-77261904D02*
X68572438Y-77214285D01*
X68572438Y-77214285D02*
X68524819Y-77119047D01*
X68524819Y-77119047D02*
X68524819Y-76880952D01*
X68524819Y-76880952D02*
X68572438Y-76785714D01*
X68572438Y-76785714D02*
X68620057Y-76738095D01*
X68620057Y-76738095D02*
X68715295Y-76690476D01*
X68715295Y-76690476D02*
X68810533Y-76690476D01*
X68810533Y-76690476D02*
X68953390Y-76738095D01*
X68953390Y-76738095D02*
X69524819Y-77309523D01*
X69524819Y-77309523D02*
X69524819Y-76690476D01*
X68524819Y-75785714D02*
X68524819Y-76261904D01*
X68524819Y-76261904D02*
X69001009Y-76309523D01*
X69001009Y-76309523D02*
X68953390Y-76261904D01*
X68953390Y-76261904D02*
X68905771Y-76166666D01*
X68905771Y-76166666D02*
X68905771Y-75928571D01*
X68905771Y-75928571D02*
X68953390Y-75833333D01*
X68953390Y-75833333D02*
X69001009Y-75785714D01*
X69001009Y-75785714D02*
X69096247Y-75738095D01*
X69096247Y-75738095D02*
X69334342Y-75738095D01*
X69334342Y-75738095D02*
X69429580Y-75785714D01*
X69429580Y-75785714D02*
X69477200Y-75833333D01*
X69477200Y-75833333D02*
X69524819Y-75928571D01*
X69524819Y-75928571D02*
X69524819Y-76166666D01*
X69524819Y-76166666D02*
X69477200Y-76261904D01*
X69477200Y-76261904D02*
X69429580Y-76309523D01*
X60054819Y-45733333D02*
X60769104Y-45733333D01*
X60769104Y-45733333D02*
X60911961Y-45780952D01*
X60911961Y-45780952D02*
X61007200Y-45876190D01*
X61007200Y-45876190D02*
X61054819Y-46019047D01*
X61054819Y-46019047D02*
X61054819Y-46114285D01*
X60483390Y-45114285D02*
X60435771Y-45209523D01*
X60435771Y-45209523D02*
X60388152Y-45257142D01*
X60388152Y-45257142D02*
X60292914Y-45304761D01*
X60292914Y-45304761D02*
X60245295Y-45304761D01*
X60245295Y-45304761D02*
X60150057Y-45257142D01*
X60150057Y-45257142D02*
X60102438Y-45209523D01*
X60102438Y-45209523D02*
X60054819Y-45114285D01*
X60054819Y-45114285D02*
X60054819Y-44923809D01*
X60054819Y-44923809D02*
X60102438Y-44828571D01*
X60102438Y-44828571D02*
X60150057Y-44780952D01*
X60150057Y-44780952D02*
X60245295Y-44733333D01*
X60245295Y-44733333D02*
X60292914Y-44733333D01*
X60292914Y-44733333D02*
X60388152Y-44780952D01*
X60388152Y-44780952D02*
X60435771Y-44828571D01*
X60435771Y-44828571D02*
X60483390Y-44923809D01*
X60483390Y-44923809D02*
X60483390Y-45114285D01*
X60483390Y-45114285D02*
X60531009Y-45209523D01*
X60531009Y-45209523D02*
X60578628Y-45257142D01*
X60578628Y-45257142D02*
X60673866Y-45304761D01*
X60673866Y-45304761D02*
X60864342Y-45304761D01*
X60864342Y-45304761D02*
X60959580Y-45257142D01*
X60959580Y-45257142D02*
X61007200Y-45209523D01*
X61007200Y-45209523D02*
X61054819Y-45114285D01*
X61054819Y-45114285D02*
X61054819Y-44923809D01*
X61054819Y-44923809D02*
X61007200Y-44828571D01*
X61007200Y-44828571D02*
X60959580Y-44780952D01*
X60959580Y-44780952D02*
X60864342Y-44733333D01*
X60864342Y-44733333D02*
X60673866Y-44733333D01*
X60673866Y-44733333D02*
X60578628Y-44780952D01*
X60578628Y-44780952D02*
X60531009Y-44828571D01*
X60531009Y-44828571D02*
X60483390Y-44923809D01*
X91429580Y-102867857D02*
X91477200Y-102915476D01*
X91477200Y-102915476D02*
X91524819Y-103058333D01*
X91524819Y-103058333D02*
X91524819Y-103153571D01*
X91524819Y-103153571D02*
X91477200Y-103296428D01*
X91477200Y-103296428D02*
X91381961Y-103391666D01*
X91381961Y-103391666D02*
X91286723Y-103439285D01*
X91286723Y-103439285D02*
X91096247Y-103486904D01*
X91096247Y-103486904D02*
X90953390Y-103486904D01*
X90953390Y-103486904D02*
X90762914Y-103439285D01*
X90762914Y-103439285D02*
X90667676Y-103391666D01*
X90667676Y-103391666D02*
X90572438Y-103296428D01*
X90572438Y-103296428D02*
X90524819Y-103153571D01*
X90524819Y-103153571D02*
X90524819Y-103058333D01*
X90524819Y-103058333D02*
X90572438Y-102915476D01*
X90572438Y-102915476D02*
X90620057Y-102867857D01*
X91524819Y-101915476D02*
X91524819Y-102486904D01*
X91524819Y-102201190D02*
X90524819Y-102201190D01*
X90524819Y-102201190D02*
X90667676Y-102296428D01*
X90667676Y-102296428D02*
X90762914Y-102391666D01*
X90762914Y-102391666D02*
X90810533Y-102486904D01*
X90524819Y-101296428D02*
X90524819Y-101201190D01*
X90524819Y-101201190D02*
X90572438Y-101105952D01*
X90572438Y-101105952D02*
X90620057Y-101058333D01*
X90620057Y-101058333D02*
X90715295Y-101010714D01*
X90715295Y-101010714D02*
X90905771Y-100963095D01*
X90905771Y-100963095D02*
X91143866Y-100963095D01*
X91143866Y-100963095D02*
X91334342Y-101010714D01*
X91334342Y-101010714D02*
X91429580Y-101058333D01*
X91429580Y-101058333D02*
X91477200Y-101105952D01*
X91477200Y-101105952D02*
X91524819Y-101201190D01*
X91524819Y-101201190D02*
X91524819Y-101296428D01*
X91524819Y-101296428D02*
X91477200Y-101391666D01*
X91477200Y-101391666D02*
X91429580Y-101439285D01*
X91429580Y-101439285D02*
X91334342Y-101486904D01*
X91334342Y-101486904D02*
X91143866Y-101534523D01*
X91143866Y-101534523D02*
X90905771Y-101534523D01*
X90905771Y-101534523D02*
X90715295Y-101486904D01*
X90715295Y-101486904D02*
X90620057Y-101439285D01*
X90620057Y-101439285D02*
X90572438Y-101391666D01*
X90572438Y-101391666D02*
X90524819Y-101296428D01*
X123238095Y-90104819D02*
X123238095Y-90914342D01*
X123238095Y-90914342D02*
X123285714Y-91009580D01*
X123285714Y-91009580D02*
X123333333Y-91057200D01*
X123333333Y-91057200D02*
X123428571Y-91104819D01*
X123428571Y-91104819D02*
X123619047Y-91104819D01*
X123619047Y-91104819D02*
X123714285Y-91057200D01*
X123714285Y-91057200D02*
X123761904Y-91009580D01*
X123761904Y-91009580D02*
X123809523Y-90914342D01*
X123809523Y-90914342D02*
X123809523Y-90104819D01*
X124809523Y-91104819D02*
X124238095Y-91104819D01*
X124523809Y-91104819D02*
X124523809Y-90104819D01*
X124523809Y-90104819D02*
X124428571Y-90247676D01*
X124428571Y-90247676D02*
X124333333Y-90342914D01*
X124333333Y-90342914D02*
X124238095Y-90390533D01*
X139104819Y-67163094D02*
X138104819Y-67163094D01*
X138104819Y-67163094D02*
X138104819Y-66782142D01*
X138104819Y-66782142D02*
X138152438Y-66686904D01*
X138152438Y-66686904D02*
X138200057Y-66639285D01*
X138200057Y-66639285D02*
X138295295Y-66591666D01*
X138295295Y-66591666D02*
X138438152Y-66591666D01*
X138438152Y-66591666D02*
X138533390Y-66639285D01*
X138533390Y-66639285D02*
X138581009Y-66686904D01*
X138581009Y-66686904D02*
X138628628Y-66782142D01*
X138628628Y-66782142D02*
X138628628Y-67163094D01*
X139104819Y-65639285D02*
X139104819Y-66210713D01*
X139104819Y-65924999D02*
X138104819Y-65924999D01*
X138104819Y-65924999D02*
X138247676Y-66020237D01*
X138247676Y-66020237D02*
X138342914Y-66115475D01*
X138342914Y-66115475D02*
X138390533Y-66210713D01*
X135632142Y-80429580D02*
X135584523Y-80477200D01*
X135584523Y-80477200D02*
X135441666Y-80524819D01*
X135441666Y-80524819D02*
X135346428Y-80524819D01*
X135346428Y-80524819D02*
X135203571Y-80477200D01*
X135203571Y-80477200D02*
X135108333Y-80381961D01*
X135108333Y-80381961D02*
X135060714Y-80286723D01*
X135060714Y-80286723D02*
X135013095Y-80096247D01*
X135013095Y-80096247D02*
X135013095Y-79953390D01*
X135013095Y-79953390D02*
X135060714Y-79762914D01*
X135060714Y-79762914D02*
X135108333Y-79667676D01*
X135108333Y-79667676D02*
X135203571Y-79572438D01*
X135203571Y-79572438D02*
X135346428Y-79524819D01*
X135346428Y-79524819D02*
X135441666Y-79524819D01*
X135441666Y-79524819D02*
X135584523Y-79572438D01*
X135584523Y-79572438D02*
X135632142Y-79620057D01*
X136584523Y-80524819D02*
X136013095Y-80524819D01*
X136298809Y-80524819D02*
X136298809Y-79524819D01*
X136298809Y-79524819D02*
X136203571Y-79667676D01*
X136203571Y-79667676D02*
X136108333Y-79762914D01*
X136108333Y-79762914D02*
X136013095Y-79810533D01*
X137441666Y-79858152D02*
X137441666Y-80524819D01*
X137203571Y-79477200D02*
X136965476Y-80191485D01*
X136965476Y-80191485D02*
X137584523Y-80191485D01*
X78666666Y-101954819D02*
X78666666Y-102669104D01*
X78666666Y-102669104D02*
X78619047Y-102811961D01*
X78619047Y-102811961D02*
X78523809Y-102907200D01*
X78523809Y-102907200D02*
X78380952Y-102954819D01*
X78380952Y-102954819D02*
X78285714Y-102954819D01*
X79142857Y-102954819D02*
X79142857Y-101954819D01*
X79142857Y-101954819D02*
X79523809Y-101954819D01*
X79523809Y-101954819D02*
X79619047Y-102002438D01*
X79619047Y-102002438D02*
X79666666Y-102050057D01*
X79666666Y-102050057D02*
X79714285Y-102145295D01*
X79714285Y-102145295D02*
X79714285Y-102288152D01*
X79714285Y-102288152D02*
X79666666Y-102383390D01*
X79666666Y-102383390D02*
X79619047Y-102431009D01*
X79619047Y-102431009D02*
X79523809Y-102478628D01*
X79523809Y-102478628D02*
X79142857Y-102478628D01*
X80095238Y-102050057D02*
X80142857Y-102002438D01*
X80142857Y-102002438D02*
X80238095Y-101954819D01*
X80238095Y-101954819D02*
X80476190Y-101954819D01*
X80476190Y-101954819D02*
X80571428Y-102002438D01*
X80571428Y-102002438D02*
X80619047Y-102050057D01*
X80619047Y-102050057D02*
X80666666Y-102145295D01*
X80666666Y-102145295D02*
X80666666Y-102240533D01*
X80666666Y-102240533D02*
X80619047Y-102383390D01*
X80619047Y-102383390D02*
X80047619Y-102954819D01*
X80047619Y-102954819D02*
X80666666Y-102954819D01*
X101859580Y-90066666D02*
X101907200Y-90114285D01*
X101907200Y-90114285D02*
X101954819Y-90257142D01*
X101954819Y-90257142D02*
X101954819Y-90352380D01*
X101954819Y-90352380D02*
X101907200Y-90495237D01*
X101907200Y-90495237D02*
X101811961Y-90590475D01*
X101811961Y-90590475D02*
X101716723Y-90638094D01*
X101716723Y-90638094D02*
X101526247Y-90685713D01*
X101526247Y-90685713D02*
X101383390Y-90685713D01*
X101383390Y-90685713D02*
X101192914Y-90638094D01*
X101192914Y-90638094D02*
X101097676Y-90590475D01*
X101097676Y-90590475D02*
X101002438Y-90495237D01*
X101002438Y-90495237D02*
X100954819Y-90352380D01*
X100954819Y-90352380D02*
X100954819Y-90257142D01*
X100954819Y-90257142D02*
X101002438Y-90114285D01*
X101002438Y-90114285D02*
X101050057Y-90066666D01*
X101288152Y-89209523D02*
X101954819Y-89209523D01*
X100907200Y-89447618D02*
X101621485Y-89685713D01*
X101621485Y-89685713D02*
X101621485Y-89066666D01*
X146428571Y-109981009D02*
X146095238Y-109981009D01*
X146095238Y-110504819D02*
X146095238Y-109504819D01*
X146095238Y-109504819D02*
X146571428Y-109504819D01*
X146952381Y-110504819D02*
X146952381Y-109504819D01*
X147428571Y-110504819D02*
X147428571Y-109504819D01*
X147428571Y-109504819D02*
X147666666Y-109504819D01*
X147666666Y-109504819D02*
X147809523Y-109552438D01*
X147809523Y-109552438D02*
X147904761Y-109647676D01*
X147904761Y-109647676D02*
X147952380Y-109742914D01*
X147952380Y-109742914D02*
X147999999Y-109933390D01*
X147999999Y-109933390D02*
X147999999Y-110076247D01*
X147999999Y-110076247D02*
X147952380Y-110266723D01*
X147952380Y-110266723D02*
X147904761Y-110361961D01*
X147904761Y-110361961D02*
X147809523Y-110457200D01*
X147809523Y-110457200D02*
X147666666Y-110504819D01*
X147666666Y-110504819D02*
X147428571Y-110504819D01*
X148952380Y-110504819D02*
X148380952Y-110504819D01*
X148666666Y-110504819D02*
X148666666Y-109504819D01*
X148666666Y-109504819D02*
X148571428Y-109647676D01*
X148571428Y-109647676D02*
X148476190Y-109742914D01*
X148476190Y-109742914D02*
X148380952Y-109790533D01*
X70909580Y-94166666D02*
X70957200Y-94214285D01*
X70957200Y-94214285D02*
X71004819Y-94357142D01*
X71004819Y-94357142D02*
X71004819Y-94452380D01*
X71004819Y-94452380D02*
X70957200Y-94595237D01*
X70957200Y-94595237D02*
X70861961Y-94690475D01*
X70861961Y-94690475D02*
X70766723Y-94738094D01*
X70766723Y-94738094D02*
X70576247Y-94785713D01*
X70576247Y-94785713D02*
X70433390Y-94785713D01*
X70433390Y-94785713D02*
X70242914Y-94738094D01*
X70242914Y-94738094D02*
X70147676Y-94690475D01*
X70147676Y-94690475D02*
X70052438Y-94595237D01*
X70052438Y-94595237D02*
X70004819Y-94452380D01*
X70004819Y-94452380D02*
X70004819Y-94357142D01*
X70004819Y-94357142D02*
X70052438Y-94214285D01*
X70052438Y-94214285D02*
X70100057Y-94166666D01*
X70004819Y-93261904D02*
X70004819Y-93738094D01*
X70004819Y-93738094D02*
X70481009Y-93785713D01*
X70481009Y-93785713D02*
X70433390Y-93738094D01*
X70433390Y-93738094D02*
X70385771Y-93642856D01*
X70385771Y-93642856D02*
X70385771Y-93404761D01*
X70385771Y-93404761D02*
X70433390Y-93309523D01*
X70433390Y-93309523D02*
X70481009Y-93261904D01*
X70481009Y-93261904D02*
X70576247Y-93214285D01*
X70576247Y-93214285D02*
X70814342Y-93214285D01*
X70814342Y-93214285D02*
X70909580Y-93261904D01*
X70909580Y-93261904D02*
X70957200Y-93309523D01*
X70957200Y-93309523D02*
X71004819Y-93404761D01*
X71004819Y-93404761D02*
X71004819Y-93642856D01*
X71004819Y-93642856D02*
X70957200Y-93738094D01*
X70957200Y-93738094D02*
X70909580Y-93785713D01*
X107707142Y-83059580D02*
X107659523Y-83107200D01*
X107659523Y-83107200D02*
X107516666Y-83154819D01*
X107516666Y-83154819D02*
X107421428Y-83154819D01*
X107421428Y-83154819D02*
X107278571Y-83107200D01*
X107278571Y-83107200D02*
X107183333Y-83011961D01*
X107183333Y-83011961D02*
X107135714Y-82916723D01*
X107135714Y-82916723D02*
X107088095Y-82726247D01*
X107088095Y-82726247D02*
X107088095Y-82583390D01*
X107088095Y-82583390D02*
X107135714Y-82392914D01*
X107135714Y-82392914D02*
X107183333Y-82297676D01*
X107183333Y-82297676D02*
X107278571Y-82202438D01*
X107278571Y-82202438D02*
X107421428Y-82154819D01*
X107421428Y-82154819D02*
X107516666Y-82154819D01*
X107516666Y-82154819D02*
X107659523Y-82202438D01*
X107659523Y-82202438D02*
X107707142Y-82250057D01*
X108659523Y-83154819D02*
X108088095Y-83154819D01*
X108373809Y-83154819D02*
X108373809Y-82154819D01*
X108373809Y-82154819D02*
X108278571Y-82297676D01*
X108278571Y-82297676D02*
X108183333Y-82392914D01*
X108183333Y-82392914D02*
X108088095Y-82440533D01*
X109516666Y-82154819D02*
X109326190Y-82154819D01*
X109326190Y-82154819D02*
X109230952Y-82202438D01*
X109230952Y-82202438D02*
X109183333Y-82250057D01*
X109183333Y-82250057D02*
X109088095Y-82392914D01*
X109088095Y-82392914D02*
X109040476Y-82583390D01*
X109040476Y-82583390D02*
X109040476Y-82964342D01*
X109040476Y-82964342D02*
X109088095Y-83059580D01*
X109088095Y-83059580D02*
X109135714Y-83107200D01*
X109135714Y-83107200D02*
X109230952Y-83154819D01*
X109230952Y-83154819D02*
X109421428Y-83154819D01*
X109421428Y-83154819D02*
X109516666Y-83107200D01*
X109516666Y-83107200D02*
X109564285Y-83059580D01*
X109564285Y-83059580D02*
X109611904Y-82964342D01*
X109611904Y-82964342D02*
X109611904Y-82726247D01*
X109611904Y-82726247D02*
X109564285Y-82631009D01*
X109564285Y-82631009D02*
X109516666Y-82583390D01*
X109516666Y-82583390D02*
X109421428Y-82535771D01*
X109421428Y-82535771D02*
X109230952Y-82535771D01*
X109230952Y-82535771D02*
X109135714Y-82583390D01*
X109135714Y-82583390D02*
X109088095Y-82631009D01*
X109088095Y-82631009D02*
X109040476Y-82726247D01*
X96419580Y-90941666D02*
X96467200Y-90989285D01*
X96467200Y-90989285D02*
X96514819Y-91132142D01*
X96514819Y-91132142D02*
X96514819Y-91227380D01*
X96514819Y-91227380D02*
X96467200Y-91370237D01*
X96467200Y-91370237D02*
X96371961Y-91465475D01*
X96371961Y-91465475D02*
X96276723Y-91513094D01*
X96276723Y-91513094D02*
X96086247Y-91560713D01*
X96086247Y-91560713D02*
X95943390Y-91560713D01*
X95943390Y-91560713D02*
X95752914Y-91513094D01*
X95752914Y-91513094D02*
X95657676Y-91465475D01*
X95657676Y-91465475D02*
X95562438Y-91370237D01*
X95562438Y-91370237D02*
X95514819Y-91227380D01*
X95514819Y-91227380D02*
X95514819Y-91132142D01*
X95514819Y-91132142D02*
X95562438Y-90989285D01*
X95562438Y-90989285D02*
X95610057Y-90941666D01*
X95514819Y-90608332D02*
X95514819Y-89989285D01*
X95514819Y-89989285D02*
X95895771Y-90322618D01*
X95895771Y-90322618D02*
X95895771Y-90179761D01*
X95895771Y-90179761D02*
X95943390Y-90084523D01*
X95943390Y-90084523D02*
X95991009Y-90036904D01*
X95991009Y-90036904D02*
X96086247Y-89989285D01*
X96086247Y-89989285D02*
X96324342Y-89989285D01*
X96324342Y-89989285D02*
X96419580Y-90036904D01*
X96419580Y-90036904D02*
X96467200Y-90084523D01*
X96467200Y-90084523D02*
X96514819Y-90179761D01*
X96514819Y-90179761D02*
X96514819Y-90465475D01*
X96514819Y-90465475D02*
X96467200Y-90560713D01*
X96467200Y-90560713D02*
X96419580Y-90608332D01*
X141359580Y-80642857D02*
X141407200Y-80690476D01*
X141407200Y-80690476D02*
X141454819Y-80833333D01*
X141454819Y-80833333D02*
X141454819Y-80928571D01*
X141454819Y-80928571D02*
X141407200Y-81071428D01*
X141407200Y-81071428D02*
X141311961Y-81166666D01*
X141311961Y-81166666D02*
X141216723Y-81214285D01*
X141216723Y-81214285D02*
X141026247Y-81261904D01*
X141026247Y-81261904D02*
X140883390Y-81261904D01*
X140883390Y-81261904D02*
X140692914Y-81214285D01*
X140692914Y-81214285D02*
X140597676Y-81166666D01*
X140597676Y-81166666D02*
X140502438Y-81071428D01*
X140502438Y-81071428D02*
X140454819Y-80928571D01*
X140454819Y-80928571D02*
X140454819Y-80833333D01*
X140454819Y-80833333D02*
X140502438Y-80690476D01*
X140502438Y-80690476D02*
X140550057Y-80642857D01*
X141454819Y-79690476D02*
X141454819Y-80261904D01*
X141454819Y-79976190D02*
X140454819Y-79976190D01*
X140454819Y-79976190D02*
X140597676Y-80071428D01*
X140597676Y-80071428D02*
X140692914Y-80166666D01*
X140692914Y-80166666D02*
X140740533Y-80261904D01*
X140454819Y-78785714D02*
X140454819Y-79261904D01*
X140454819Y-79261904D02*
X140931009Y-79309523D01*
X140931009Y-79309523D02*
X140883390Y-79261904D01*
X140883390Y-79261904D02*
X140835771Y-79166666D01*
X140835771Y-79166666D02*
X140835771Y-78928571D01*
X140835771Y-78928571D02*
X140883390Y-78833333D01*
X140883390Y-78833333D02*
X140931009Y-78785714D01*
X140931009Y-78785714D02*
X141026247Y-78738095D01*
X141026247Y-78738095D02*
X141264342Y-78738095D01*
X141264342Y-78738095D02*
X141359580Y-78785714D01*
X141359580Y-78785714D02*
X141407200Y-78833333D01*
X141407200Y-78833333D02*
X141454819Y-78928571D01*
X141454819Y-78928571D02*
X141454819Y-79166666D01*
X141454819Y-79166666D02*
X141407200Y-79261904D01*
X141407200Y-79261904D02*
X141359580Y-79309523D01*
X135238095Y-106954819D02*
X135238095Y-107764342D01*
X135238095Y-107764342D02*
X135285714Y-107859580D01*
X135285714Y-107859580D02*
X135333333Y-107907200D01*
X135333333Y-107907200D02*
X135428571Y-107954819D01*
X135428571Y-107954819D02*
X135619047Y-107954819D01*
X135619047Y-107954819D02*
X135714285Y-107907200D01*
X135714285Y-107907200D02*
X135761904Y-107859580D01*
X135761904Y-107859580D02*
X135809523Y-107764342D01*
X135809523Y-107764342D02*
X135809523Y-106954819D01*
X136714285Y-107288152D02*
X136714285Y-107954819D01*
X136476190Y-106907200D02*
X136238095Y-107621485D01*
X136238095Y-107621485D02*
X136857142Y-107621485D01*
X82604819Y-44300594D02*
X81604819Y-44300594D01*
X81604819Y-44300594D02*
X81604819Y-44062499D01*
X81604819Y-44062499D02*
X81652438Y-43919642D01*
X81652438Y-43919642D02*
X81747676Y-43824404D01*
X81747676Y-43824404D02*
X81842914Y-43776785D01*
X81842914Y-43776785D02*
X82033390Y-43729166D01*
X82033390Y-43729166D02*
X82176247Y-43729166D01*
X82176247Y-43729166D02*
X82366723Y-43776785D01*
X82366723Y-43776785D02*
X82461961Y-43824404D01*
X82461961Y-43824404D02*
X82557200Y-43919642D01*
X82557200Y-43919642D02*
X82604819Y-44062499D01*
X82604819Y-44062499D02*
X82604819Y-44300594D01*
X81938152Y-42872023D02*
X82604819Y-42872023D01*
X81557200Y-43110118D02*
X82271485Y-43348213D01*
X82271485Y-43348213D02*
X82271485Y-42729166D01*
X105607200Y-89333332D02*
X105654819Y-89190475D01*
X105654819Y-89190475D02*
X105654819Y-88952380D01*
X105654819Y-88952380D02*
X105607200Y-88857142D01*
X105607200Y-88857142D02*
X105559580Y-88809523D01*
X105559580Y-88809523D02*
X105464342Y-88761904D01*
X105464342Y-88761904D02*
X105369104Y-88761904D01*
X105369104Y-88761904D02*
X105273866Y-88809523D01*
X105273866Y-88809523D02*
X105226247Y-88857142D01*
X105226247Y-88857142D02*
X105178628Y-88952380D01*
X105178628Y-88952380D02*
X105131009Y-89142856D01*
X105131009Y-89142856D02*
X105083390Y-89238094D01*
X105083390Y-89238094D02*
X105035771Y-89285713D01*
X105035771Y-89285713D02*
X104940533Y-89333332D01*
X104940533Y-89333332D02*
X104845295Y-89333332D01*
X104845295Y-89333332D02*
X104750057Y-89285713D01*
X104750057Y-89285713D02*
X104702438Y-89238094D01*
X104702438Y-89238094D02*
X104654819Y-89142856D01*
X104654819Y-89142856D02*
X104654819Y-88904761D01*
X104654819Y-88904761D02*
X104702438Y-88761904D01*
X104654819Y-88428570D02*
X105654819Y-88190475D01*
X105654819Y-88190475D02*
X104940533Y-87999999D01*
X104940533Y-87999999D02*
X105654819Y-87809523D01*
X105654819Y-87809523D02*
X104654819Y-87571428D01*
X104750057Y-87238094D02*
X104702438Y-87190475D01*
X104702438Y-87190475D02*
X104654819Y-87095237D01*
X104654819Y-87095237D02*
X104654819Y-86857142D01*
X104654819Y-86857142D02*
X104702438Y-86761904D01*
X104702438Y-86761904D02*
X104750057Y-86714285D01*
X104750057Y-86714285D02*
X104845295Y-86666666D01*
X104845295Y-86666666D02*
X104940533Y-86666666D01*
X104940533Y-86666666D02*
X105083390Y-86714285D01*
X105083390Y-86714285D02*
X105654819Y-87285713D01*
X105654819Y-87285713D02*
X105654819Y-86666666D01*
X71804819Y-101166904D02*
X72614342Y-101166904D01*
X72614342Y-101166904D02*
X72709580Y-101119285D01*
X72709580Y-101119285D02*
X72757200Y-101071666D01*
X72757200Y-101071666D02*
X72804819Y-100976428D01*
X72804819Y-100976428D02*
X72804819Y-100785952D01*
X72804819Y-100785952D02*
X72757200Y-100690714D01*
X72757200Y-100690714D02*
X72709580Y-100643095D01*
X72709580Y-100643095D02*
X72614342Y-100595476D01*
X72614342Y-100595476D02*
X71804819Y-100595476D01*
X71804819Y-100214523D02*
X71804819Y-99547857D01*
X71804819Y-99547857D02*
X72804819Y-99976428D01*
X118738095Y-100954819D02*
X118738095Y-101764342D01*
X118738095Y-101764342D02*
X118785714Y-101859580D01*
X118785714Y-101859580D02*
X118833333Y-101907200D01*
X118833333Y-101907200D02*
X118928571Y-101954819D01*
X118928571Y-101954819D02*
X119119047Y-101954819D01*
X119119047Y-101954819D02*
X119214285Y-101907200D01*
X119214285Y-101907200D02*
X119261904Y-101859580D01*
X119261904Y-101859580D02*
X119309523Y-101764342D01*
X119309523Y-101764342D02*
X119309523Y-100954819D01*
X119738095Y-101050057D02*
X119785714Y-101002438D01*
X119785714Y-101002438D02*
X119880952Y-100954819D01*
X119880952Y-100954819D02*
X120119047Y-100954819D01*
X120119047Y-100954819D02*
X120214285Y-101002438D01*
X120214285Y-101002438D02*
X120261904Y-101050057D01*
X120261904Y-101050057D02*
X120309523Y-101145295D01*
X120309523Y-101145295D02*
X120309523Y-101240533D01*
X120309523Y-101240533D02*
X120261904Y-101383390D01*
X120261904Y-101383390D02*
X119690476Y-101954819D01*
X119690476Y-101954819D02*
X120309523Y-101954819D01*
X95195833Y-109104819D02*
X94862500Y-108628628D01*
X94624405Y-109104819D02*
X94624405Y-108104819D01*
X94624405Y-108104819D02*
X95005357Y-108104819D01*
X95005357Y-108104819D02*
X95100595Y-108152438D01*
X95100595Y-108152438D02*
X95148214Y-108200057D01*
X95148214Y-108200057D02*
X95195833Y-108295295D01*
X95195833Y-108295295D02*
X95195833Y-108438152D01*
X95195833Y-108438152D02*
X95148214Y-108533390D01*
X95148214Y-108533390D02*
X95100595Y-108581009D01*
X95100595Y-108581009D02*
X95005357Y-108628628D01*
X95005357Y-108628628D02*
X94624405Y-108628628D01*
X96148214Y-109104819D02*
X95576786Y-109104819D01*
X95862500Y-109104819D02*
X95862500Y-108104819D01*
X95862500Y-108104819D02*
X95767262Y-108247676D01*
X95767262Y-108247676D02*
X95672024Y-108342914D01*
X95672024Y-108342914D02*
X95576786Y-108390533D01*
X74236905Y-80989819D02*
X74236905Y-81799342D01*
X74236905Y-81799342D02*
X74284524Y-81894580D01*
X74284524Y-81894580D02*
X74332143Y-81942200D01*
X74332143Y-81942200D02*
X74427381Y-81989819D01*
X74427381Y-81989819D02*
X74617857Y-81989819D01*
X74617857Y-81989819D02*
X74713095Y-81942200D01*
X74713095Y-81942200D02*
X74760714Y-81894580D01*
X74760714Y-81894580D02*
X74808333Y-81799342D01*
X74808333Y-81799342D02*
X74808333Y-80989819D01*
X75808333Y-81989819D02*
X75236905Y-81989819D01*
X75522619Y-81989819D02*
X75522619Y-80989819D01*
X75522619Y-80989819D02*
X75427381Y-81132676D01*
X75427381Y-81132676D02*
X75332143Y-81227914D01*
X75332143Y-81227914D02*
X75236905Y-81275533D01*
X76141667Y-80989819D02*
X76760714Y-80989819D01*
X76760714Y-80989819D02*
X76427381Y-81370771D01*
X76427381Y-81370771D02*
X76570238Y-81370771D01*
X76570238Y-81370771D02*
X76665476Y-81418390D01*
X76665476Y-81418390D02*
X76713095Y-81466009D01*
X76713095Y-81466009D02*
X76760714Y-81561247D01*
X76760714Y-81561247D02*
X76760714Y-81799342D01*
X76760714Y-81799342D02*
X76713095Y-81894580D01*
X76713095Y-81894580D02*
X76665476Y-81942200D01*
X76665476Y-81942200D02*
X76570238Y-81989819D01*
X76570238Y-81989819D02*
X76284524Y-81989819D01*
X76284524Y-81989819D02*
X76189286Y-81942200D01*
X76189286Y-81942200D02*
X76141667Y-81894580D01*
X109738095Y-93674819D02*
X109738095Y-94484342D01*
X109738095Y-94484342D02*
X109785714Y-94579580D01*
X109785714Y-94579580D02*
X109833333Y-94627200D01*
X109833333Y-94627200D02*
X109928571Y-94674819D01*
X109928571Y-94674819D02*
X110119047Y-94674819D01*
X110119047Y-94674819D02*
X110214285Y-94627200D01*
X110214285Y-94627200D02*
X110261904Y-94579580D01*
X110261904Y-94579580D02*
X110309523Y-94484342D01*
X110309523Y-94484342D02*
X110309523Y-93674819D01*
X111261904Y-93674819D02*
X110785714Y-93674819D01*
X110785714Y-93674819D02*
X110738095Y-94151009D01*
X110738095Y-94151009D02*
X110785714Y-94103390D01*
X110785714Y-94103390D02*
X110880952Y-94055771D01*
X110880952Y-94055771D02*
X111119047Y-94055771D01*
X111119047Y-94055771D02*
X111214285Y-94103390D01*
X111214285Y-94103390D02*
X111261904Y-94151009D01*
X111261904Y-94151009D02*
X111309523Y-94246247D01*
X111309523Y-94246247D02*
X111309523Y-94484342D01*
X111309523Y-94484342D02*
X111261904Y-94579580D01*
X111261904Y-94579580D02*
X111214285Y-94627200D01*
X111214285Y-94627200D02*
X111119047Y-94674819D01*
X111119047Y-94674819D02*
X110880952Y-94674819D01*
X110880952Y-94674819D02*
X110785714Y-94627200D01*
X110785714Y-94627200D02*
X110738095Y-94579580D01*
X135537200Y-65253332D02*
X135584819Y-65110475D01*
X135584819Y-65110475D02*
X135584819Y-64872380D01*
X135584819Y-64872380D02*
X135537200Y-64777142D01*
X135537200Y-64777142D02*
X135489580Y-64729523D01*
X135489580Y-64729523D02*
X135394342Y-64681904D01*
X135394342Y-64681904D02*
X135299104Y-64681904D01*
X135299104Y-64681904D02*
X135203866Y-64729523D01*
X135203866Y-64729523D02*
X135156247Y-64777142D01*
X135156247Y-64777142D02*
X135108628Y-64872380D01*
X135108628Y-64872380D02*
X135061009Y-65062856D01*
X135061009Y-65062856D02*
X135013390Y-65158094D01*
X135013390Y-65158094D02*
X134965771Y-65205713D01*
X134965771Y-65205713D02*
X134870533Y-65253332D01*
X134870533Y-65253332D02*
X134775295Y-65253332D01*
X134775295Y-65253332D02*
X134680057Y-65205713D01*
X134680057Y-65205713D02*
X134632438Y-65158094D01*
X134632438Y-65158094D02*
X134584819Y-65062856D01*
X134584819Y-65062856D02*
X134584819Y-64824761D01*
X134584819Y-64824761D02*
X134632438Y-64681904D01*
X134584819Y-64348570D02*
X135584819Y-64110475D01*
X135584819Y-64110475D02*
X134870533Y-63919999D01*
X134870533Y-63919999D02*
X135584819Y-63729523D01*
X135584819Y-63729523D02*
X134584819Y-63491428D01*
X134918152Y-62681904D02*
X135584819Y-62681904D01*
X134537200Y-62919999D02*
X135251485Y-63158094D01*
X135251485Y-63158094D02*
X135251485Y-62539047D01*
X124783333Y-102254819D02*
X124450000Y-101778628D01*
X124211905Y-102254819D02*
X124211905Y-101254819D01*
X124211905Y-101254819D02*
X124592857Y-101254819D01*
X124592857Y-101254819D02*
X124688095Y-101302438D01*
X124688095Y-101302438D02*
X124735714Y-101350057D01*
X124735714Y-101350057D02*
X124783333Y-101445295D01*
X124783333Y-101445295D02*
X124783333Y-101588152D01*
X124783333Y-101588152D02*
X124735714Y-101683390D01*
X124735714Y-101683390D02*
X124688095Y-101731009D01*
X124688095Y-101731009D02*
X124592857Y-101778628D01*
X124592857Y-101778628D02*
X124211905Y-101778628D01*
X125640476Y-101254819D02*
X125450000Y-101254819D01*
X125450000Y-101254819D02*
X125354762Y-101302438D01*
X125354762Y-101302438D02*
X125307143Y-101350057D01*
X125307143Y-101350057D02*
X125211905Y-101492914D01*
X125211905Y-101492914D02*
X125164286Y-101683390D01*
X125164286Y-101683390D02*
X125164286Y-102064342D01*
X125164286Y-102064342D02*
X125211905Y-102159580D01*
X125211905Y-102159580D02*
X125259524Y-102207200D01*
X125259524Y-102207200D02*
X125354762Y-102254819D01*
X125354762Y-102254819D02*
X125545238Y-102254819D01*
X125545238Y-102254819D02*
X125640476Y-102207200D01*
X125640476Y-102207200D02*
X125688095Y-102159580D01*
X125688095Y-102159580D02*
X125735714Y-102064342D01*
X125735714Y-102064342D02*
X125735714Y-101826247D01*
X125735714Y-101826247D02*
X125688095Y-101731009D01*
X125688095Y-101731009D02*
X125640476Y-101683390D01*
X125640476Y-101683390D02*
X125545238Y-101635771D01*
X125545238Y-101635771D02*
X125354762Y-101635771D01*
X125354762Y-101635771D02*
X125259524Y-101683390D01*
X125259524Y-101683390D02*
X125211905Y-101731009D01*
X125211905Y-101731009D02*
X125164286Y-101826247D01*
X98154819Y-97333333D02*
X98869104Y-97333333D01*
X98869104Y-97333333D02*
X99011961Y-97380952D01*
X99011961Y-97380952D02*
X99107200Y-97476190D01*
X99107200Y-97476190D02*
X99154819Y-97619047D01*
X99154819Y-97619047D02*
X99154819Y-97714285D01*
X99154819Y-96857142D02*
X98154819Y-96857142D01*
X98154819Y-96857142D02*
X98154819Y-96476190D01*
X98154819Y-96476190D02*
X98202438Y-96380952D01*
X98202438Y-96380952D02*
X98250057Y-96333333D01*
X98250057Y-96333333D02*
X98345295Y-96285714D01*
X98345295Y-96285714D02*
X98488152Y-96285714D01*
X98488152Y-96285714D02*
X98583390Y-96333333D01*
X98583390Y-96333333D02*
X98631009Y-96380952D01*
X98631009Y-96380952D02*
X98678628Y-96476190D01*
X98678628Y-96476190D02*
X98678628Y-96857142D01*
X99154819Y-95333333D02*
X99154819Y-95904761D01*
X99154819Y-95619047D02*
X98154819Y-95619047D01*
X98154819Y-95619047D02*
X98297676Y-95714285D01*
X98297676Y-95714285D02*
X98392914Y-95809523D01*
X98392914Y-95809523D02*
X98440533Y-95904761D01*
X132808333Y-70759819D02*
X132475000Y-70283628D01*
X132236905Y-70759819D02*
X132236905Y-69759819D01*
X132236905Y-69759819D02*
X132617857Y-69759819D01*
X132617857Y-69759819D02*
X132713095Y-69807438D01*
X132713095Y-69807438D02*
X132760714Y-69855057D01*
X132760714Y-69855057D02*
X132808333Y-69950295D01*
X132808333Y-69950295D02*
X132808333Y-70093152D01*
X132808333Y-70093152D02*
X132760714Y-70188390D01*
X132760714Y-70188390D02*
X132713095Y-70236009D01*
X132713095Y-70236009D02*
X132617857Y-70283628D01*
X132617857Y-70283628D02*
X132236905Y-70283628D01*
X133379762Y-70188390D02*
X133284524Y-70140771D01*
X133284524Y-70140771D02*
X133236905Y-70093152D01*
X133236905Y-70093152D02*
X133189286Y-69997914D01*
X133189286Y-69997914D02*
X133189286Y-69950295D01*
X133189286Y-69950295D02*
X133236905Y-69855057D01*
X133236905Y-69855057D02*
X133284524Y-69807438D01*
X133284524Y-69807438D02*
X133379762Y-69759819D01*
X133379762Y-69759819D02*
X133570238Y-69759819D01*
X133570238Y-69759819D02*
X133665476Y-69807438D01*
X133665476Y-69807438D02*
X133713095Y-69855057D01*
X133713095Y-69855057D02*
X133760714Y-69950295D01*
X133760714Y-69950295D02*
X133760714Y-69997914D01*
X133760714Y-69997914D02*
X133713095Y-70093152D01*
X133713095Y-70093152D02*
X133665476Y-70140771D01*
X133665476Y-70140771D02*
X133570238Y-70188390D01*
X133570238Y-70188390D02*
X133379762Y-70188390D01*
X133379762Y-70188390D02*
X133284524Y-70236009D01*
X133284524Y-70236009D02*
X133236905Y-70283628D01*
X133236905Y-70283628D02*
X133189286Y-70378866D01*
X133189286Y-70378866D02*
X133189286Y-70569342D01*
X133189286Y-70569342D02*
X133236905Y-70664580D01*
X133236905Y-70664580D02*
X133284524Y-70712200D01*
X133284524Y-70712200D02*
X133379762Y-70759819D01*
X133379762Y-70759819D02*
X133570238Y-70759819D01*
X133570238Y-70759819D02*
X133665476Y-70712200D01*
X133665476Y-70712200D02*
X133713095Y-70664580D01*
X133713095Y-70664580D02*
X133760714Y-70569342D01*
X133760714Y-70569342D02*
X133760714Y-70378866D01*
X133760714Y-70378866D02*
X133713095Y-70283628D01*
X133713095Y-70283628D02*
X133665476Y-70236009D01*
X133665476Y-70236009D02*
X133570238Y-70188390D01*
X74236905Y-71719819D02*
X74236905Y-72529342D01*
X74236905Y-72529342D02*
X74284524Y-72624580D01*
X74284524Y-72624580D02*
X74332143Y-72672200D01*
X74332143Y-72672200D02*
X74427381Y-72719819D01*
X74427381Y-72719819D02*
X74617857Y-72719819D01*
X74617857Y-72719819D02*
X74713095Y-72672200D01*
X74713095Y-72672200D02*
X74760714Y-72624580D01*
X74760714Y-72624580D02*
X74808333Y-72529342D01*
X74808333Y-72529342D02*
X74808333Y-71719819D01*
X75808333Y-72719819D02*
X75236905Y-72719819D01*
X75522619Y-72719819D02*
X75522619Y-71719819D01*
X75522619Y-71719819D02*
X75427381Y-71862676D01*
X75427381Y-71862676D02*
X75332143Y-71957914D01*
X75332143Y-71957914D02*
X75236905Y-72005533D01*
X76427381Y-71719819D02*
X76522619Y-71719819D01*
X76522619Y-71719819D02*
X76617857Y-71767438D01*
X76617857Y-71767438D02*
X76665476Y-71815057D01*
X76665476Y-71815057D02*
X76713095Y-71910295D01*
X76713095Y-71910295D02*
X76760714Y-72100771D01*
X76760714Y-72100771D02*
X76760714Y-72338866D01*
X76760714Y-72338866D02*
X76713095Y-72529342D01*
X76713095Y-72529342D02*
X76665476Y-72624580D01*
X76665476Y-72624580D02*
X76617857Y-72672200D01*
X76617857Y-72672200D02*
X76522619Y-72719819D01*
X76522619Y-72719819D02*
X76427381Y-72719819D01*
X76427381Y-72719819D02*
X76332143Y-72672200D01*
X76332143Y-72672200D02*
X76284524Y-72624580D01*
X76284524Y-72624580D02*
X76236905Y-72529342D01*
X76236905Y-72529342D02*
X76189286Y-72338866D01*
X76189286Y-72338866D02*
X76189286Y-72100771D01*
X76189286Y-72100771D02*
X76236905Y-71910295D01*
X76236905Y-71910295D02*
X76284524Y-71815057D01*
X76284524Y-71815057D02*
X76332143Y-71767438D01*
X76332143Y-71767438D02*
X76427381Y-71719819D01*
X116859580Y-86642857D02*
X116907200Y-86690476D01*
X116907200Y-86690476D02*
X116954819Y-86833333D01*
X116954819Y-86833333D02*
X116954819Y-86928571D01*
X116954819Y-86928571D02*
X116907200Y-87071428D01*
X116907200Y-87071428D02*
X116811961Y-87166666D01*
X116811961Y-87166666D02*
X116716723Y-87214285D01*
X116716723Y-87214285D02*
X116526247Y-87261904D01*
X116526247Y-87261904D02*
X116383390Y-87261904D01*
X116383390Y-87261904D02*
X116192914Y-87214285D01*
X116192914Y-87214285D02*
X116097676Y-87166666D01*
X116097676Y-87166666D02*
X116002438Y-87071428D01*
X116002438Y-87071428D02*
X115954819Y-86928571D01*
X115954819Y-86928571D02*
X115954819Y-86833333D01*
X115954819Y-86833333D02*
X116002438Y-86690476D01*
X116002438Y-86690476D02*
X116050057Y-86642857D01*
X116954819Y-85690476D02*
X116954819Y-86261904D01*
X116954819Y-85976190D02*
X115954819Y-85976190D01*
X115954819Y-85976190D02*
X116097676Y-86071428D01*
X116097676Y-86071428D02*
X116192914Y-86166666D01*
X116192914Y-86166666D02*
X116240533Y-86261904D01*
X115954819Y-85357142D02*
X115954819Y-84690476D01*
X115954819Y-84690476D02*
X116954819Y-85119047D01*
X72729580Y-107117857D02*
X72777200Y-107165476D01*
X72777200Y-107165476D02*
X72824819Y-107308333D01*
X72824819Y-107308333D02*
X72824819Y-107403571D01*
X72824819Y-107403571D02*
X72777200Y-107546428D01*
X72777200Y-107546428D02*
X72681961Y-107641666D01*
X72681961Y-107641666D02*
X72586723Y-107689285D01*
X72586723Y-107689285D02*
X72396247Y-107736904D01*
X72396247Y-107736904D02*
X72253390Y-107736904D01*
X72253390Y-107736904D02*
X72062914Y-107689285D01*
X72062914Y-107689285D02*
X71967676Y-107641666D01*
X71967676Y-107641666D02*
X71872438Y-107546428D01*
X71872438Y-107546428D02*
X71824819Y-107403571D01*
X71824819Y-107403571D02*
X71824819Y-107308333D01*
X71824819Y-107308333D02*
X71872438Y-107165476D01*
X71872438Y-107165476D02*
X71920057Y-107117857D01*
X72824819Y-106165476D02*
X72824819Y-106736904D01*
X72824819Y-106451190D02*
X71824819Y-106451190D01*
X71824819Y-106451190D02*
X71967676Y-106546428D01*
X71967676Y-106546428D02*
X72062914Y-106641666D01*
X72062914Y-106641666D02*
X72110533Y-106736904D01*
X71920057Y-105784523D02*
X71872438Y-105736904D01*
X71872438Y-105736904D02*
X71824819Y-105641666D01*
X71824819Y-105641666D02*
X71824819Y-105403571D01*
X71824819Y-105403571D02*
X71872438Y-105308333D01*
X71872438Y-105308333D02*
X71920057Y-105260714D01*
X71920057Y-105260714D02*
X72015295Y-105213095D01*
X72015295Y-105213095D02*
X72110533Y-105213095D01*
X72110533Y-105213095D02*
X72253390Y-105260714D01*
X72253390Y-105260714D02*
X72824819Y-105832142D01*
X72824819Y-105832142D02*
X72824819Y-105213095D01*
X63024819Y-100595238D02*
X62548628Y-100928571D01*
X63024819Y-101166666D02*
X62024819Y-101166666D01*
X62024819Y-101166666D02*
X62024819Y-100785714D01*
X62024819Y-100785714D02*
X62072438Y-100690476D01*
X62072438Y-100690476D02*
X62120057Y-100642857D01*
X62120057Y-100642857D02*
X62215295Y-100595238D01*
X62215295Y-100595238D02*
X62358152Y-100595238D01*
X62358152Y-100595238D02*
X62453390Y-100642857D01*
X62453390Y-100642857D02*
X62501009Y-100690476D01*
X62501009Y-100690476D02*
X62548628Y-100785714D01*
X62548628Y-100785714D02*
X62548628Y-101166666D01*
X62024819Y-100309523D02*
X63024819Y-99976190D01*
X63024819Y-99976190D02*
X62024819Y-99642857D01*
X62358152Y-98880952D02*
X63024819Y-98880952D01*
X61977200Y-99119047D02*
X62691485Y-99357142D01*
X62691485Y-99357142D02*
X62691485Y-98738095D01*
X86866666Y-109054819D02*
X86866666Y-109769104D01*
X86866666Y-109769104D02*
X86819047Y-109911961D01*
X86819047Y-109911961D02*
X86723809Y-110007200D01*
X86723809Y-110007200D02*
X86580952Y-110054819D01*
X86580952Y-110054819D02*
X86485714Y-110054819D01*
X87819047Y-109054819D02*
X87342857Y-109054819D01*
X87342857Y-109054819D02*
X87295238Y-109531009D01*
X87295238Y-109531009D02*
X87342857Y-109483390D01*
X87342857Y-109483390D02*
X87438095Y-109435771D01*
X87438095Y-109435771D02*
X87676190Y-109435771D01*
X87676190Y-109435771D02*
X87771428Y-109483390D01*
X87771428Y-109483390D02*
X87819047Y-109531009D01*
X87819047Y-109531009D02*
X87866666Y-109626247D01*
X87866666Y-109626247D02*
X87866666Y-109864342D01*
X87866666Y-109864342D02*
X87819047Y-109959580D01*
X87819047Y-109959580D02*
X87771428Y-110007200D01*
X87771428Y-110007200D02*
X87676190Y-110054819D01*
X87676190Y-110054819D02*
X87438095Y-110054819D01*
X87438095Y-110054819D02*
X87342857Y-110007200D01*
X87342857Y-110007200D02*
X87295238Y-109959580D01*
X121388095Y-92354819D02*
X121388095Y-93164342D01*
X121388095Y-93164342D02*
X121435714Y-93259580D01*
X121435714Y-93259580D02*
X121483333Y-93307200D01*
X121483333Y-93307200D02*
X121578571Y-93354819D01*
X121578571Y-93354819D02*
X121769047Y-93354819D01*
X121769047Y-93354819D02*
X121864285Y-93307200D01*
X121864285Y-93307200D02*
X121911904Y-93259580D01*
X121911904Y-93259580D02*
X121959523Y-93164342D01*
X121959523Y-93164342D02*
X121959523Y-92354819D01*
X122864285Y-92354819D02*
X122673809Y-92354819D01*
X122673809Y-92354819D02*
X122578571Y-92402438D01*
X122578571Y-92402438D02*
X122530952Y-92450057D01*
X122530952Y-92450057D02*
X122435714Y-92592914D01*
X122435714Y-92592914D02*
X122388095Y-92783390D01*
X122388095Y-92783390D02*
X122388095Y-93164342D01*
X122388095Y-93164342D02*
X122435714Y-93259580D01*
X122435714Y-93259580D02*
X122483333Y-93307200D01*
X122483333Y-93307200D02*
X122578571Y-93354819D01*
X122578571Y-93354819D02*
X122769047Y-93354819D01*
X122769047Y-93354819D02*
X122864285Y-93307200D01*
X122864285Y-93307200D02*
X122911904Y-93259580D01*
X122911904Y-93259580D02*
X122959523Y-93164342D01*
X122959523Y-93164342D02*
X122959523Y-92926247D01*
X122959523Y-92926247D02*
X122911904Y-92831009D01*
X122911904Y-92831009D02*
X122864285Y-92783390D01*
X122864285Y-92783390D02*
X122769047Y-92735771D01*
X122769047Y-92735771D02*
X122578571Y-92735771D01*
X122578571Y-92735771D02*
X122483333Y-92783390D01*
X122483333Y-92783390D02*
X122435714Y-92831009D01*
X122435714Y-92831009D02*
X122388095Y-92926247D01*
X70899580Y-67732857D02*
X70947200Y-67780476D01*
X70947200Y-67780476D02*
X70994819Y-67923333D01*
X70994819Y-67923333D02*
X70994819Y-68018571D01*
X70994819Y-68018571D02*
X70947200Y-68161428D01*
X70947200Y-68161428D02*
X70851961Y-68256666D01*
X70851961Y-68256666D02*
X70756723Y-68304285D01*
X70756723Y-68304285D02*
X70566247Y-68351904D01*
X70566247Y-68351904D02*
X70423390Y-68351904D01*
X70423390Y-68351904D02*
X70232914Y-68304285D01*
X70232914Y-68304285D02*
X70137676Y-68256666D01*
X70137676Y-68256666D02*
X70042438Y-68161428D01*
X70042438Y-68161428D02*
X69994819Y-68018571D01*
X69994819Y-68018571D02*
X69994819Y-67923333D01*
X69994819Y-67923333D02*
X70042438Y-67780476D01*
X70042438Y-67780476D02*
X70090057Y-67732857D01*
X69994819Y-67399523D02*
X69994819Y-66780476D01*
X69994819Y-66780476D02*
X70375771Y-67113809D01*
X70375771Y-67113809D02*
X70375771Y-66970952D01*
X70375771Y-66970952D02*
X70423390Y-66875714D01*
X70423390Y-66875714D02*
X70471009Y-66828095D01*
X70471009Y-66828095D02*
X70566247Y-66780476D01*
X70566247Y-66780476D02*
X70804342Y-66780476D01*
X70804342Y-66780476D02*
X70899580Y-66828095D01*
X70899580Y-66828095D02*
X70947200Y-66875714D01*
X70947200Y-66875714D02*
X70994819Y-66970952D01*
X70994819Y-66970952D02*
X70994819Y-67256666D01*
X70994819Y-67256666D02*
X70947200Y-67351904D01*
X70947200Y-67351904D02*
X70899580Y-67399523D01*
X70994819Y-65828095D02*
X70994819Y-66399523D01*
X70994819Y-66113809D02*
X69994819Y-66113809D01*
X69994819Y-66113809D02*
X70137676Y-66209047D01*
X70137676Y-66209047D02*
X70232914Y-66304285D01*
X70232914Y-66304285D02*
X70280533Y-66399523D01*
X124833333Y-105454819D02*
X124500000Y-104978628D01*
X124261905Y-105454819D02*
X124261905Y-104454819D01*
X124261905Y-104454819D02*
X124642857Y-104454819D01*
X124642857Y-104454819D02*
X124738095Y-104502438D01*
X124738095Y-104502438D02*
X124785714Y-104550057D01*
X124785714Y-104550057D02*
X124833333Y-104645295D01*
X124833333Y-104645295D02*
X124833333Y-104788152D01*
X124833333Y-104788152D02*
X124785714Y-104883390D01*
X124785714Y-104883390D02*
X124738095Y-104931009D01*
X124738095Y-104931009D02*
X124642857Y-104978628D01*
X124642857Y-104978628D02*
X124261905Y-104978628D01*
X125166667Y-104454819D02*
X125833333Y-104454819D01*
X125833333Y-104454819D02*
X125404762Y-105454819D01*
X57928571Y-109981009D02*
X57595238Y-109981009D01*
X57595238Y-110504819D02*
X57595238Y-109504819D01*
X57595238Y-109504819D02*
X58071428Y-109504819D01*
X58452381Y-110504819D02*
X58452381Y-109504819D01*
X58928571Y-110504819D02*
X58928571Y-109504819D01*
X58928571Y-109504819D02*
X59166666Y-109504819D01*
X59166666Y-109504819D02*
X59309523Y-109552438D01*
X59309523Y-109552438D02*
X59404761Y-109647676D01*
X59404761Y-109647676D02*
X59452380Y-109742914D01*
X59452380Y-109742914D02*
X59499999Y-109933390D01*
X59499999Y-109933390D02*
X59499999Y-110076247D01*
X59499999Y-110076247D02*
X59452380Y-110266723D01*
X59452380Y-110266723D02*
X59404761Y-110361961D01*
X59404761Y-110361961D02*
X59309523Y-110457200D01*
X59309523Y-110457200D02*
X59166666Y-110504819D01*
X59166666Y-110504819D02*
X58928571Y-110504819D01*
X59880952Y-109600057D02*
X59928571Y-109552438D01*
X59928571Y-109552438D02*
X60023809Y-109504819D01*
X60023809Y-109504819D02*
X60261904Y-109504819D01*
X60261904Y-109504819D02*
X60357142Y-109552438D01*
X60357142Y-109552438D02*
X60404761Y-109600057D01*
X60404761Y-109600057D02*
X60452380Y-109695295D01*
X60452380Y-109695295D02*
X60452380Y-109790533D01*
X60452380Y-109790533D02*
X60404761Y-109933390D01*
X60404761Y-109933390D02*
X59833333Y-110504819D01*
X59833333Y-110504819D02*
X60452380Y-110504819D01*
X141354819Y-53638094D02*
X140354819Y-53638094D01*
X140354819Y-53638094D02*
X140354819Y-53399999D01*
X140354819Y-53399999D02*
X140402438Y-53257142D01*
X140402438Y-53257142D02*
X140497676Y-53161904D01*
X140497676Y-53161904D02*
X140592914Y-53114285D01*
X140592914Y-53114285D02*
X140783390Y-53066666D01*
X140783390Y-53066666D02*
X140926247Y-53066666D01*
X140926247Y-53066666D02*
X141116723Y-53114285D01*
X141116723Y-53114285D02*
X141211961Y-53161904D01*
X141211961Y-53161904D02*
X141307200Y-53257142D01*
X141307200Y-53257142D02*
X141354819Y-53399999D01*
X141354819Y-53399999D02*
X141354819Y-53638094D01*
X141354819Y-52114285D02*
X141354819Y-52685713D01*
X141354819Y-52399999D02*
X140354819Y-52399999D01*
X140354819Y-52399999D02*
X140497676Y-52495237D01*
X140497676Y-52495237D02*
X140592914Y-52590475D01*
X140592914Y-52590475D02*
X140640533Y-52685713D01*
X74713095Y-62449819D02*
X74713095Y-63259342D01*
X74713095Y-63259342D02*
X74760714Y-63354580D01*
X74760714Y-63354580D02*
X74808333Y-63402200D01*
X74808333Y-63402200D02*
X74903571Y-63449819D01*
X74903571Y-63449819D02*
X75094047Y-63449819D01*
X75094047Y-63449819D02*
X75189285Y-63402200D01*
X75189285Y-63402200D02*
X75236904Y-63354580D01*
X75236904Y-63354580D02*
X75284523Y-63259342D01*
X75284523Y-63259342D02*
X75284523Y-62449819D01*
X75808333Y-63449819D02*
X75998809Y-63449819D01*
X75998809Y-63449819D02*
X76094047Y-63402200D01*
X76094047Y-63402200D02*
X76141666Y-63354580D01*
X76141666Y-63354580D02*
X76236904Y-63211723D01*
X76236904Y-63211723D02*
X76284523Y-63021247D01*
X76284523Y-63021247D02*
X76284523Y-62640295D01*
X76284523Y-62640295D02*
X76236904Y-62545057D01*
X76236904Y-62545057D02*
X76189285Y-62497438D01*
X76189285Y-62497438D02*
X76094047Y-62449819D01*
X76094047Y-62449819D02*
X75903571Y-62449819D01*
X75903571Y-62449819D02*
X75808333Y-62497438D01*
X75808333Y-62497438D02*
X75760714Y-62545057D01*
X75760714Y-62545057D02*
X75713095Y-62640295D01*
X75713095Y-62640295D02*
X75713095Y-62878390D01*
X75713095Y-62878390D02*
X75760714Y-62973628D01*
X75760714Y-62973628D02*
X75808333Y-63021247D01*
X75808333Y-63021247D02*
X75903571Y-63068866D01*
X75903571Y-63068866D02*
X76094047Y-63068866D01*
X76094047Y-63068866D02*
X76189285Y-63021247D01*
X76189285Y-63021247D02*
X76236904Y-62973628D01*
X76236904Y-62973628D02*
X76284523Y-62878390D01*
X59972222Y-77931009D02*
X59638889Y-77931009D01*
X59638889Y-78454819D02*
X59638889Y-77454819D01*
X59638889Y-77454819D02*
X60115079Y-77454819D01*
X60496032Y-78454819D02*
X60496032Y-77454819D01*
X60972222Y-78454819D02*
X60972222Y-77454819D01*
X60972222Y-77454819D02*
X61210317Y-77454819D01*
X61210317Y-77454819D02*
X61353174Y-77502438D01*
X61353174Y-77502438D02*
X61448412Y-77597676D01*
X61448412Y-77597676D02*
X61496031Y-77692914D01*
X61496031Y-77692914D02*
X61543650Y-77883390D01*
X61543650Y-77883390D02*
X61543650Y-78026247D01*
X61543650Y-78026247D02*
X61496031Y-78216723D01*
X61496031Y-78216723D02*
X61448412Y-78311961D01*
X61448412Y-78311961D02*
X61353174Y-78407200D01*
X61353174Y-78407200D02*
X61210317Y-78454819D01*
X61210317Y-78454819D02*
X60972222Y-78454819D01*
X61876984Y-77454819D02*
X62496031Y-77454819D01*
X62496031Y-77454819D02*
X62162698Y-77835771D01*
X62162698Y-77835771D02*
X62305555Y-77835771D01*
X62305555Y-77835771D02*
X62400793Y-77883390D01*
X62400793Y-77883390D02*
X62448412Y-77931009D01*
X62448412Y-77931009D02*
X62496031Y-78026247D01*
X62496031Y-78026247D02*
X62496031Y-78264342D01*
X62496031Y-78264342D02*
X62448412Y-78359580D01*
X62448412Y-78359580D02*
X62400793Y-78407200D01*
X62400793Y-78407200D02*
X62305555Y-78454819D01*
X62305555Y-78454819D02*
X62019841Y-78454819D01*
X62019841Y-78454819D02*
X61924603Y-78407200D01*
X61924603Y-78407200D02*
X61876984Y-78359580D01*
X128166666Y-108854819D02*
X128166666Y-109569104D01*
X128166666Y-109569104D02*
X128119047Y-109711961D01*
X128119047Y-109711961D02*
X128023809Y-109807200D01*
X128023809Y-109807200D02*
X127880952Y-109854819D01*
X127880952Y-109854819D02*
X127785714Y-109854819D01*
X128547619Y-108854819D02*
X129214285Y-108854819D01*
X129214285Y-108854819D02*
X128785714Y-109854819D01*
X119859580Y-99867857D02*
X119907200Y-99915476D01*
X119907200Y-99915476D02*
X119954819Y-100058333D01*
X119954819Y-100058333D02*
X119954819Y-100153571D01*
X119954819Y-100153571D02*
X119907200Y-100296428D01*
X119907200Y-100296428D02*
X119811961Y-100391666D01*
X119811961Y-100391666D02*
X119716723Y-100439285D01*
X119716723Y-100439285D02*
X119526247Y-100486904D01*
X119526247Y-100486904D02*
X119383390Y-100486904D01*
X119383390Y-100486904D02*
X119192914Y-100439285D01*
X119192914Y-100439285D02*
X119097676Y-100391666D01*
X119097676Y-100391666D02*
X119002438Y-100296428D01*
X119002438Y-100296428D02*
X118954819Y-100153571D01*
X118954819Y-100153571D02*
X118954819Y-100058333D01*
X118954819Y-100058333D02*
X119002438Y-99915476D01*
X119002438Y-99915476D02*
X119050057Y-99867857D01*
X119050057Y-99486904D02*
X119002438Y-99439285D01*
X119002438Y-99439285D02*
X118954819Y-99344047D01*
X118954819Y-99344047D02*
X118954819Y-99105952D01*
X118954819Y-99105952D02*
X119002438Y-99010714D01*
X119002438Y-99010714D02*
X119050057Y-98963095D01*
X119050057Y-98963095D02*
X119145295Y-98915476D01*
X119145295Y-98915476D02*
X119240533Y-98915476D01*
X119240533Y-98915476D02*
X119383390Y-98963095D01*
X119383390Y-98963095D02*
X119954819Y-99534523D01*
X119954819Y-99534523D02*
X119954819Y-98915476D01*
X118954819Y-98296428D02*
X118954819Y-98201190D01*
X118954819Y-98201190D02*
X119002438Y-98105952D01*
X119002438Y-98105952D02*
X119050057Y-98058333D01*
X119050057Y-98058333D02*
X119145295Y-98010714D01*
X119145295Y-98010714D02*
X119335771Y-97963095D01*
X119335771Y-97963095D02*
X119573866Y-97963095D01*
X119573866Y-97963095D02*
X119764342Y-98010714D01*
X119764342Y-98010714D02*
X119859580Y-98058333D01*
X119859580Y-98058333D02*
X119907200Y-98105952D01*
X119907200Y-98105952D02*
X119954819Y-98201190D01*
X119954819Y-98201190D02*
X119954819Y-98296428D01*
X119954819Y-98296428D02*
X119907200Y-98391666D01*
X119907200Y-98391666D02*
X119859580Y-98439285D01*
X119859580Y-98439285D02*
X119764342Y-98486904D01*
X119764342Y-98486904D02*
X119573866Y-98534523D01*
X119573866Y-98534523D02*
X119335771Y-98534523D01*
X119335771Y-98534523D02*
X119145295Y-98486904D01*
X119145295Y-98486904D02*
X119050057Y-98439285D01*
X119050057Y-98439285D02*
X119002438Y-98391666D01*
X119002438Y-98391666D02*
X118954819Y-98296428D01*
X83857142Y-42524819D02*
X83523809Y-42048628D01*
X83285714Y-42524819D02*
X83285714Y-41524819D01*
X83285714Y-41524819D02*
X83666666Y-41524819D01*
X83666666Y-41524819D02*
X83761904Y-41572438D01*
X83761904Y-41572438D02*
X83809523Y-41620057D01*
X83809523Y-41620057D02*
X83857142Y-41715295D01*
X83857142Y-41715295D02*
X83857142Y-41858152D01*
X83857142Y-41858152D02*
X83809523Y-41953390D01*
X83809523Y-41953390D02*
X83761904Y-42001009D01*
X83761904Y-42001009D02*
X83666666Y-42048628D01*
X83666666Y-42048628D02*
X83285714Y-42048628D01*
X84809523Y-42524819D02*
X84238095Y-42524819D01*
X84523809Y-42524819D02*
X84523809Y-41524819D01*
X84523809Y-41524819D02*
X84428571Y-41667676D01*
X84428571Y-41667676D02*
X84333333Y-41762914D01*
X84333333Y-41762914D02*
X84238095Y-41810533D01*
X85666666Y-41858152D02*
X85666666Y-42524819D01*
X85428571Y-41477200D02*
X85190476Y-42191485D01*
X85190476Y-42191485D02*
X85809523Y-42191485D01*
X146666666Y-89374819D02*
X146666666Y-90089104D01*
X146666666Y-90089104D02*
X146619047Y-90231961D01*
X146619047Y-90231961D02*
X146523809Y-90327200D01*
X146523809Y-90327200D02*
X146380952Y-90374819D01*
X146380952Y-90374819D02*
X146285714Y-90374819D01*
X147095238Y-89470057D02*
X147142857Y-89422438D01*
X147142857Y-89422438D02*
X147238095Y-89374819D01*
X147238095Y-89374819D02*
X147476190Y-89374819D01*
X147476190Y-89374819D02*
X147571428Y-89422438D01*
X147571428Y-89422438D02*
X147619047Y-89470057D01*
X147619047Y-89470057D02*
X147666666Y-89565295D01*
X147666666Y-89565295D02*
X147666666Y-89660533D01*
X147666666Y-89660533D02*
X147619047Y-89803390D01*
X147619047Y-89803390D02*
X147047619Y-90374819D01*
X147047619Y-90374819D02*
X147666666Y-90374819D01*
X63649580Y-45200357D02*
X63697200Y-45247976D01*
X63697200Y-45247976D02*
X63744819Y-45390833D01*
X63744819Y-45390833D02*
X63744819Y-45486071D01*
X63744819Y-45486071D02*
X63697200Y-45628928D01*
X63697200Y-45628928D02*
X63601961Y-45724166D01*
X63601961Y-45724166D02*
X63506723Y-45771785D01*
X63506723Y-45771785D02*
X63316247Y-45819404D01*
X63316247Y-45819404D02*
X63173390Y-45819404D01*
X63173390Y-45819404D02*
X62982914Y-45771785D01*
X62982914Y-45771785D02*
X62887676Y-45724166D01*
X62887676Y-45724166D02*
X62792438Y-45628928D01*
X62792438Y-45628928D02*
X62744819Y-45486071D01*
X62744819Y-45486071D02*
X62744819Y-45390833D01*
X62744819Y-45390833D02*
X62792438Y-45247976D01*
X62792438Y-45247976D02*
X62840057Y-45200357D01*
X62744819Y-44867023D02*
X62744819Y-44247976D01*
X62744819Y-44247976D02*
X63125771Y-44581309D01*
X63125771Y-44581309D02*
X63125771Y-44438452D01*
X63125771Y-44438452D02*
X63173390Y-44343214D01*
X63173390Y-44343214D02*
X63221009Y-44295595D01*
X63221009Y-44295595D02*
X63316247Y-44247976D01*
X63316247Y-44247976D02*
X63554342Y-44247976D01*
X63554342Y-44247976D02*
X63649580Y-44295595D01*
X63649580Y-44295595D02*
X63697200Y-44343214D01*
X63697200Y-44343214D02*
X63744819Y-44438452D01*
X63744819Y-44438452D02*
X63744819Y-44724166D01*
X63744819Y-44724166D02*
X63697200Y-44819404D01*
X63697200Y-44819404D02*
X63649580Y-44867023D01*
X62744819Y-43914642D02*
X62744819Y-43295595D01*
X62744819Y-43295595D02*
X63125771Y-43628928D01*
X63125771Y-43628928D02*
X63125771Y-43486071D01*
X63125771Y-43486071D02*
X63173390Y-43390833D01*
X63173390Y-43390833D02*
X63221009Y-43343214D01*
X63221009Y-43343214D02*
X63316247Y-43295595D01*
X63316247Y-43295595D02*
X63554342Y-43295595D01*
X63554342Y-43295595D02*
X63649580Y-43343214D01*
X63649580Y-43343214D02*
X63697200Y-43390833D01*
X63697200Y-43390833D02*
X63744819Y-43486071D01*
X63744819Y-43486071D02*
X63744819Y-43771785D01*
X63744819Y-43771785D02*
X63697200Y-43867023D01*
X63697200Y-43867023D02*
X63649580Y-43914642D01*
X75604819Y-44300594D02*
X74604819Y-44300594D01*
X74604819Y-44300594D02*
X74604819Y-44062499D01*
X74604819Y-44062499D02*
X74652438Y-43919642D01*
X74652438Y-43919642D02*
X74747676Y-43824404D01*
X74747676Y-43824404D02*
X74842914Y-43776785D01*
X74842914Y-43776785D02*
X75033390Y-43729166D01*
X75033390Y-43729166D02*
X75176247Y-43729166D01*
X75176247Y-43729166D02*
X75366723Y-43776785D01*
X75366723Y-43776785D02*
X75461961Y-43824404D01*
X75461961Y-43824404D02*
X75557200Y-43919642D01*
X75557200Y-43919642D02*
X75604819Y-44062499D01*
X75604819Y-44062499D02*
X75604819Y-44300594D01*
X74604819Y-42872023D02*
X74604819Y-43062499D01*
X74604819Y-43062499D02*
X74652438Y-43157737D01*
X74652438Y-43157737D02*
X74700057Y-43205356D01*
X74700057Y-43205356D02*
X74842914Y-43300594D01*
X74842914Y-43300594D02*
X75033390Y-43348213D01*
X75033390Y-43348213D02*
X75414342Y-43348213D01*
X75414342Y-43348213D02*
X75509580Y-43300594D01*
X75509580Y-43300594D02*
X75557200Y-43252975D01*
X75557200Y-43252975D02*
X75604819Y-43157737D01*
X75604819Y-43157737D02*
X75604819Y-42967261D01*
X75604819Y-42967261D02*
X75557200Y-42872023D01*
X75557200Y-42872023D02*
X75509580Y-42824404D01*
X75509580Y-42824404D02*
X75414342Y-42776785D01*
X75414342Y-42776785D02*
X75176247Y-42776785D01*
X75176247Y-42776785D02*
X75081009Y-42824404D01*
X75081009Y-42824404D02*
X75033390Y-42872023D01*
X75033390Y-42872023D02*
X74985771Y-42967261D01*
X74985771Y-42967261D02*
X74985771Y-43157737D01*
X74985771Y-43157737D02*
X75033390Y-43252975D01*
X75033390Y-43252975D02*
X75081009Y-43300594D01*
X75081009Y-43300594D02*
X75176247Y-43348213D01*
X83857142Y-45524819D02*
X83523809Y-45048628D01*
X83285714Y-45524819D02*
X83285714Y-44524819D01*
X83285714Y-44524819D02*
X83666666Y-44524819D01*
X83666666Y-44524819D02*
X83761904Y-44572438D01*
X83761904Y-44572438D02*
X83809523Y-44620057D01*
X83809523Y-44620057D02*
X83857142Y-44715295D01*
X83857142Y-44715295D02*
X83857142Y-44858152D01*
X83857142Y-44858152D02*
X83809523Y-44953390D01*
X83809523Y-44953390D02*
X83761904Y-45001009D01*
X83761904Y-45001009D02*
X83666666Y-45048628D01*
X83666666Y-45048628D02*
X83285714Y-45048628D01*
X84809523Y-45524819D02*
X84238095Y-45524819D01*
X84523809Y-45524819D02*
X84523809Y-44524819D01*
X84523809Y-44524819D02*
X84428571Y-44667676D01*
X84428571Y-44667676D02*
X84333333Y-44762914D01*
X84333333Y-44762914D02*
X84238095Y-44810533D01*
X85714285Y-44524819D02*
X85238095Y-44524819D01*
X85238095Y-44524819D02*
X85190476Y-45001009D01*
X85190476Y-45001009D02*
X85238095Y-44953390D01*
X85238095Y-44953390D02*
X85333333Y-44905771D01*
X85333333Y-44905771D02*
X85571428Y-44905771D01*
X85571428Y-44905771D02*
X85666666Y-44953390D01*
X85666666Y-44953390D02*
X85714285Y-45001009D01*
X85714285Y-45001009D02*
X85761904Y-45096247D01*
X85761904Y-45096247D02*
X85761904Y-45334342D01*
X85761904Y-45334342D02*
X85714285Y-45429580D01*
X85714285Y-45429580D02*
X85666666Y-45477200D01*
X85666666Y-45477200D02*
X85571428Y-45524819D01*
X85571428Y-45524819D02*
X85333333Y-45524819D01*
X85333333Y-45524819D02*
X85238095Y-45477200D01*
X85238095Y-45477200D02*
X85190476Y-45429580D01*
X87257142Y-104024819D02*
X86923809Y-103548628D01*
X86685714Y-104024819D02*
X86685714Y-103024819D01*
X86685714Y-103024819D02*
X87066666Y-103024819D01*
X87066666Y-103024819D02*
X87161904Y-103072438D01*
X87161904Y-103072438D02*
X87209523Y-103120057D01*
X87209523Y-103120057D02*
X87257142Y-103215295D01*
X87257142Y-103215295D02*
X87257142Y-103358152D01*
X87257142Y-103358152D02*
X87209523Y-103453390D01*
X87209523Y-103453390D02*
X87161904Y-103501009D01*
X87161904Y-103501009D02*
X87066666Y-103548628D01*
X87066666Y-103548628D02*
X86685714Y-103548628D01*
X88209523Y-104024819D02*
X87638095Y-104024819D01*
X87923809Y-104024819D02*
X87923809Y-103024819D01*
X87923809Y-103024819D02*
X87828571Y-103167676D01*
X87828571Y-103167676D02*
X87733333Y-103262914D01*
X87733333Y-103262914D02*
X87638095Y-103310533D01*
X89161904Y-104024819D02*
X88590476Y-104024819D01*
X88876190Y-104024819D02*
X88876190Y-103024819D01*
X88876190Y-103024819D02*
X88780952Y-103167676D01*
X88780952Y-103167676D02*
X88685714Y-103262914D01*
X88685714Y-103262914D02*
X88590476Y-103310533D01*
X82359580Y-79867857D02*
X82407200Y-79915476D01*
X82407200Y-79915476D02*
X82454819Y-80058333D01*
X82454819Y-80058333D02*
X82454819Y-80153571D01*
X82454819Y-80153571D02*
X82407200Y-80296428D01*
X82407200Y-80296428D02*
X82311961Y-80391666D01*
X82311961Y-80391666D02*
X82216723Y-80439285D01*
X82216723Y-80439285D02*
X82026247Y-80486904D01*
X82026247Y-80486904D02*
X81883390Y-80486904D01*
X81883390Y-80486904D02*
X81692914Y-80439285D01*
X81692914Y-80439285D02*
X81597676Y-80391666D01*
X81597676Y-80391666D02*
X81502438Y-80296428D01*
X81502438Y-80296428D02*
X81454819Y-80153571D01*
X81454819Y-80153571D02*
X81454819Y-80058333D01*
X81454819Y-80058333D02*
X81502438Y-79915476D01*
X81502438Y-79915476D02*
X81550057Y-79867857D01*
X81550057Y-79486904D02*
X81502438Y-79439285D01*
X81502438Y-79439285D02*
X81454819Y-79344047D01*
X81454819Y-79344047D02*
X81454819Y-79105952D01*
X81454819Y-79105952D02*
X81502438Y-79010714D01*
X81502438Y-79010714D02*
X81550057Y-78963095D01*
X81550057Y-78963095D02*
X81645295Y-78915476D01*
X81645295Y-78915476D02*
X81740533Y-78915476D01*
X81740533Y-78915476D02*
X81883390Y-78963095D01*
X81883390Y-78963095D02*
X82454819Y-79534523D01*
X82454819Y-79534523D02*
X82454819Y-78915476D01*
X81454819Y-78058333D02*
X81454819Y-78248809D01*
X81454819Y-78248809D02*
X81502438Y-78344047D01*
X81502438Y-78344047D02*
X81550057Y-78391666D01*
X81550057Y-78391666D02*
X81692914Y-78486904D01*
X81692914Y-78486904D02*
X81883390Y-78534523D01*
X81883390Y-78534523D02*
X82264342Y-78534523D01*
X82264342Y-78534523D02*
X82359580Y-78486904D01*
X82359580Y-78486904D02*
X82407200Y-78439285D01*
X82407200Y-78439285D02*
X82454819Y-78344047D01*
X82454819Y-78344047D02*
X82454819Y-78153571D01*
X82454819Y-78153571D02*
X82407200Y-78058333D01*
X82407200Y-78058333D02*
X82359580Y-78010714D01*
X82359580Y-78010714D02*
X82264342Y-77963095D01*
X82264342Y-77963095D02*
X82026247Y-77963095D01*
X82026247Y-77963095D02*
X81931009Y-78010714D01*
X81931009Y-78010714D02*
X81883390Y-78058333D01*
X81883390Y-78058333D02*
X81835771Y-78153571D01*
X81835771Y-78153571D02*
X81835771Y-78344047D01*
X81835771Y-78344047D02*
X81883390Y-78439285D01*
X81883390Y-78439285D02*
X81931009Y-78486904D01*
X81931009Y-78486904D02*
X82026247Y-78534523D01*
X142658333Y-57954819D02*
X142325000Y-57478628D01*
X142086905Y-57954819D02*
X142086905Y-56954819D01*
X142086905Y-56954819D02*
X142467857Y-56954819D01*
X142467857Y-56954819D02*
X142563095Y-57002438D01*
X142563095Y-57002438D02*
X142610714Y-57050057D01*
X142610714Y-57050057D02*
X142658333Y-57145295D01*
X142658333Y-57145295D02*
X142658333Y-57288152D01*
X142658333Y-57288152D02*
X142610714Y-57383390D01*
X142610714Y-57383390D02*
X142563095Y-57431009D01*
X142563095Y-57431009D02*
X142467857Y-57478628D01*
X142467857Y-57478628D02*
X142086905Y-57478628D01*
X143134524Y-57954819D02*
X143325000Y-57954819D01*
X143325000Y-57954819D02*
X143420238Y-57907200D01*
X143420238Y-57907200D02*
X143467857Y-57859580D01*
X143467857Y-57859580D02*
X143563095Y-57716723D01*
X143563095Y-57716723D02*
X143610714Y-57526247D01*
X143610714Y-57526247D02*
X143610714Y-57145295D01*
X143610714Y-57145295D02*
X143563095Y-57050057D01*
X143563095Y-57050057D02*
X143515476Y-57002438D01*
X143515476Y-57002438D02*
X143420238Y-56954819D01*
X143420238Y-56954819D02*
X143229762Y-56954819D01*
X143229762Y-56954819D02*
X143134524Y-57002438D01*
X143134524Y-57002438D02*
X143086905Y-57050057D01*
X143086905Y-57050057D02*
X143039286Y-57145295D01*
X143039286Y-57145295D02*
X143039286Y-57383390D01*
X143039286Y-57383390D02*
X143086905Y-57478628D01*
X143086905Y-57478628D02*
X143134524Y-57526247D01*
X143134524Y-57526247D02*
X143229762Y-57573866D01*
X143229762Y-57573866D02*
X143420238Y-57573866D01*
X143420238Y-57573866D02*
X143515476Y-57526247D01*
X143515476Y-57526247D02*
X143563095Y-57478628D01*
X143563095Y-57478628D02*
X143610714Y-57383390D01*
X83524819Y-98055238D02*
X83048628Y-98388571D01*
X83524819Y-98626666D02*
X82524819Y-98626666D01*
X82524819Y-98626666D02*
X82524819Y-98245714D01*
X82524819Y-98245714D02*
X82572438Y-98150476D01*
X82572438Y-98150476D02*
X82620057Y-98102857D01*
X82620057Y-98102857D02*
X82715295Y-98055238D01*
X82715295Y-98055238D02*
X82858152Y-98055238D01*
X82858152Y-98055238D02*
X82953390Y-98102857D01*
X82953390Y-98102857D02*
X83001009Y-98150476D01*
X83001009Y-98150476D02*
X83048628Y-98245714D01*
X83048628Y-98245714D02*
X83048628Y-98626666D01*
X82524819Y-97769523D02*
X83524819Y-97436190D01*
X83524819Y-97436190D02*
X82524819Y-97102857D01*
X82524819Y-96864761D02*
X82524819Y-96245714D01*
X82524819Y-96245714D02*
X82905771Y-96579047D01*
X82905771Y-96579047D02*
X82905771Y-96436190D01*
X82905771Y-96436190D02*
X82953390Y-96340952D01*
X82953390Y-96340952D02*
X83001009Y-96293333D01*
X83001009Y-96293333D02*
X83096247Y-96245714D01*
X83096247Y-96245714D02*
X83334342Y-96245714D01*
X83334342Y-96245714D02*
X83429580Y-96293333D01*
X83429580Y-96293333D02*
X83477200Y-96340952D01*
X83477200Y-96340952D02*
X83524819Y-96436190D01*
X83524819Y-96436190D02*
X83524819Y-96721904D01*
X83524819Y-96721904D02*
X83477200Y-96817142D01*
X83477200Y-96817142D02*
X83429580Y-96864761D01*
X62009580Y-69680357D02*
X62057200Y-69727976D01*
X62057200Y-69727976D02*
X62104819Y-69870833D01*
X62104819Y-69870833D02*
X62104819Y-69966071D01*
X62104819Y-69966071D02*
X62057200Y-70108928D01*
X62057200Y-70108928D02*
X61961961Y-70204166D01*
X61961961Y-70204166D02*
X61866723Y-70251785D01*
X61866723Y-70251785D02*
X61676247Y-70299404D01*
X61676247Y-70299404D02*
X61533390Y-70299404D01*
X61533390Y-70299404D02*
X61342914Y-70251785D01*
X61342914Y-70251785D02*
X61247676Y-70204166D01*
X61247676Y-70204166D02*
X61152438Y-70108928D01*
X61152438Y-70108928D02*
X61104819Y-69966071D01*
X61104819Y-69966071D02*
X61104819Y-69870833D01*
X61104819Y-69870833D02*
X61152438Y-69727976D01*
X61152438Y-69727976D02*
X61200057Y-69680357D01*
X61104819Y-69347023D02*
X61104819Y-68727976D01*
X61104819Y-68727976D02*
X61485771Y-69061309D01*
X61485771Y-69061309D02*
X61485771Y-68918452D01*
X61485771Y-68918452D02*
X61533390Y-68823214D01*
X61533390Y-68823214D02*
X61581009Y-68775595D01*
X61581009Y-68775595D02*
X61676247Y-68727976D01*
X61676247Y-68727976D02*
X61914342Y-68727976D01*
X61914342Y-68727976D02*
X62009580Y-68775595D01*
X62009580Y-68775595D02*
X62057200Y-68823214D01*
X62057200Y-68823214D02*
X62104819Y-68918452D01*
X62104819Y-68918452D02*
X62104819Y-69204166D01*
X62104819Y-69204166D02*
X62057200Y-69299404D01*
X62057200Y-69299404D02*
X62009580Y-69347023D01*
X61438152Y-67870833D02*
X62104819Y-67870833D01*
X61057200Y-68108928D02*
X61771485Y-68347023D01*
X61771485Y-68347023D02*
X61771485Y-67727976D01*
X91279819Y-97261904D02*
X92089342Y-97261904D01*
X92089342Y-97261904D02*
X92184580Y-97214285D01*
X92184580Y-97214285D02*
X92232200Y-97166666D01*
X92232200Y-97166666D02*
X92279819Y-97071428D01*
X92279819Y-97071428D02*
X92279819Y-96880952D01*
X92279819Y-96880952D02*
X92232200Y-96785714D01*
X92232200Y-96785714D02*
X92184580Y-96738095D01*
X92184580Y-96738095D02*
X92089342Y-96690476D01*
X92089342Y-96690476D02*
X91279819Y-96690476D01*
X91708390Y-96071428D02*
X91660771Y-96166666D01*
X91660771Y-96166666D02*
X91613152Y-96214285D01*
X91613152Y-96214285D02*
X91517914Y-96261904D01*
X91517914Y-96261904D02*
X91470295Y-96261904D01*
X91470295Y-96261904D02*
X91375057Y-96214285D01*
X91375057Y-96214285D02*
X91327438Y-96166666D01*
X91327438Y-96166666D02*
X91279819Y-96071428D01*
X91279819Y-96071428D02*
X91279819Y-95880952D01*
X91279819Y-95880952D02*
X91327438Y-95785714D01*
X91327438Y-95785714D02*
X91375057Y-95738095D01*
X91375057Y-95738095D02*
X91470295Y-95690476D01*
X91470295Y-95690476D02*
X91517914Y-95690476D01*
X91517914Y-95690476D02*
X91613152Y-95738095D01*
X91613152Y-95738095D02*
X91660771Y-95785714D01*
X91660771Y-95785714D02*
X91708390Y-95880952D01*
X91708390Y-95880952D02*
X91708390Y-96071428D01*
X91708390Y-96071428D02*
X91756009Y-96166666D01*
X91756009Y-96166666D02*
X91803628Y-96214285D01*
X91803628Y-96214285D02*
X91898866Y-96261904D01*
X91898866Y-96261904D02*
X92089342Y-96261904D01*
X92089342Y-96261904D02*
X92184580Y-96214285D01*
X92184580Y-96214285D02*
X92232200Y-96166666D01*
X92232200Y-96166666D02*
X92279819Y-96071428D01*
X92279819Y-96071428D02*
X92279819Y-95880952D01*
X92279819Y-95880952D02*
X92232200Y-95785714D01*
X92232200Y-95785714D02*
X92184580Y-95738095D01*
X92184580Y-95738095D02*
X92089342Y-95690476D01*
X92089342Y-95690476D02*
X91898866Y-95690476D01*
X91898866Y-95690476D02*
X91803628Y-95738095D01*
X91803628Y-95738095D02*
X91756009Y-95785714D01*
X91756009Y-95785714D02*
X91708390Y-95880952D01*
X82359580Y-52642857D02*
X82407200Y-52690476D01*
X82407200Y-52690476D02*
X82454819Y-52833333D01*
X82454819Y-52833333D02*
X82454819Y-52928571D01*
X82454819Y-52928571D02*
X82407200Y-53071428D01*
X82407200Y-53071428D02*
X82311961Y-53166666D01*
X82311961Y-53166666D02*
X82216723Y-53214285D01*
X82216723Y-53214285D02*
X82026247Y-53261904D01*
X82026247Y-53261904D02*
X81883390Y-53261904D01*
X81883390Y-53261904D02*
X81692914Y-53214285D01*
X81692914Y-53214285D02*
X81597676Y-53166666D01*
X81597676Y-53166666D02*
X81502438Y-53071428D01*
X81502438Y-53071428D02*
X81454819Y-52928571D01*
X81454819Y-52928571D02*
X81454819Y-52833333D01*
X81454819Y-52833333D02*
X81502438Y-52690476D01*
X81502438Y-52690476D02*
X81550057Y-52642857D01*
X81454819Y-52309523D02*
X81454819Y-51690476D01*
X81454819Y-51690476D02*
X81835771Y-52023809D01*
X81835771Y-52023809D02*
X81835771Y-51880952D01*
X81835771Y-51880952D02*
X81883390Y-51785714D01*
X81883390Y-51785714D02*
X81931009Y-51738095D01*
X81931009Y-51738095D02*
X82026247Y-51690476D01*
X82026247Y-51690476D02*
X82264342Y-51690476D01*
X82264342Y-51690476D02*
X82359580Y-51738095D01*
X82359580Y-51738095D02*
X82407200Y-51785714D01*
X82407200Y-51785714D02*
X82454819Y-51880952D01*
X82454819Y-51880952D02*
X82454819Y-52166666D01*
X82454819Y-52166666D02*
X82407200Y-52261904D01*
X82407200Y-52261904D02*
X82359580Y-52309523D01*
X81454819Y-51071428D02*
X81454819Y-50976190D01*
X81454819Y-50976190D02*
X81502438Y-50880952D01*
X81502438Y-50880952D02*
X81550057Y-50833333D01*
X81550057Y-50833333D02*
X81645295Y-50785714D01*
X81645295Y-50785714D02*
X81835771Y-50738095D01*
X81835771Y-50738095D02*
X82073866Y-50738095D01*
X82073866Y-50738095D02*
X82264342Y-50785714D01*
X82264342Y-50785714D02*
X82359580Y-50833333D01*
X82359580Y-50833333D02*
X82407200Y-50880952D01*
X82407200Y-50880952D02*
X82454819Y-50976190D01*
X82454819Y-50976190D02*
X82454819Y-51071428D01*
X82454819Y-51071428D02*
X82407200Y-51166666D01*
X82407200Y-51166666D02*
X82359580Y-51214285D01*
X82359580Y-51214285D02*
X82264342Y-51261904D01*
X82264342Y-51261904D02*
X82073866Y-51309523D01*
X82073866Y-51309523D02*
X81835771Y-51309523D01*
X81835771Y-51309523D02*
X81645295Y-51261904D01*
X81645295Y-51261904D02*
X81550057Y-51214285D01*
X81550057Y-51214285D02*
X81502438Y-51166666D01*
X81502438Y-51166666D02*
X81454819Y-51071428D01*
X83857142Y-39524819D02*
X83523809Y-39048628D01*
X83285714Y-39524819D02*
X83285714Y-38524819D01*
X83285714Y-38524819D02*
X83666666Y-38524819D01*
X83666666Y-38524819D02*
X83761904Y-38572438D01*
X83761904Y-38572438D02*
X83809523Y-38620057D01*
X83809523Y-38620057D02*
X83857142Y-38715295D01*
X83857142Y-38715295D02*
X83857142Y-38858152D01*
X83857142Y-38858152D02*
X83809523Y-38953390D01*
X83809523Y-38953390D02*
X83761904Y-39001009D01*
X83761904Y-39001009D02*
X83666666Y-39048628D01*
X83666666Y-39048628D02*
X83285714Y-39048628D01*
X84809523Y-39524819D02*
X84238095Y-39524819D01*
X84523809Y-39524819D02*
X84523809Y-38524819D01*
X84523809Y-38524819D02*
X84428571Y-38667676D01*
X84428571Y-38667676D02*
X84333333Y-38762914D01*
X84333333Y-38762914D02*
X84238095Y-38810533D01*
X85142857Y-38524819D02*
X85761904Y-38524819D01*
X85761904Y-38524819D02*
X85428571Y-38905771D01*
X85428571Y-38905771D02*
X85571428Y-38905771D01*
X85571428Y-38905771D02*
X85666666Y-38953390D01*
X85666666Y-38953390D02*
X85714285Y-39001009D01*
X85714285Y-39001009D02*
X85761904Y-39096247D01*
X85761904Y-39096247D02*
X85761904Y-39334342D01*
X85761904Y-39334342D02*
X85714285Y-39429580D01*
X85714285Y-39429580D02*
X85666666Y-39477200D01*
X85666666Y-39477200D02*
X85571428Y-39524819D01*
X85571428Y-39524819D02*
X85285714Y-39524819D01*
X85285714Y-39524819D02*
X85190476Y-39477200D01*
X85190476Y-39477200D02*
X85142857Y-39429580D01*
X68404761Y-86524819D02*
X68071428Y-86048628D01*
X67833333Y-86524819D02*
X67833333Y-85524819D01*
X67833333Y-85524819D02*
X68214285Y-85524819D01*
X68214285Y-85524819D02*
X68309523Y-85572438D01*
X68309523Y-85572438D02*
X68357142Y-85620057D01*
X68357142Y-85620057D02*
X68404761Y-85715295D01*
X68404761Y-85715295D02*
X68404761Y-85858152D01*
X68404761Y-85858152D02*
X68357142Y-85953390D01*
X68357142Y-85953390D02*
X68309523Y-86001009D01*
X68309523Y-86001009D02*
X68214285Y-86048628D01*
X68214285Y-86048628D02*
X67833333Y-86048628D01*
X68690476Y-85524819D02*
X69023809Y-86524819D01*
X69023809Y-86524819D02*
X69357142Y-85524819D01*
X70214285Y-86524819D02*
X69642857Y-86524819D01*
X69928571Y-86524819D02*
X69928571Y-85524819D01*
X69928571Y-85524819D02*
X69833333Y-85667676D01*
X69833333Y-85667676D02*
X69738095Y-85762914D01*
X69738095Y-85762914D02*
X69642857Y-85810533D01*
X95059580Y-88366666D02*
X95107200Y-88414285D01*
X95107200Y-88414285D02*
X95154819Y-88557142D01*
X95154819Y-88557142D02*
X95154819Y-88652380D01*
X95154819Y-88652380D02*
X95107200Y-88795237D01*
X95107200Y-88795237D02*
X95011961Y-88890475D01*
X95011961Y-88890475D02*
X94916723Y-88938094D01*
X94916723Y-88938094D02*
X94726247Y-88985713D01*
X94726247Y-88985713D02*
X94583390Y-88985713D01*
X94583390Y-88985713D02*
X94392914Y-88938094D01*
X94392914Y-88938094D02*
X94297676Y-88890475D01*
X94297676Y-88890475D02*
X94202438Y-88795237D01*
X94202438Y-88795237D02*
X94154819Y-88652380D01*
X94154819Y-88652380D02*
X94154819Y-88557142D01*
X94154819Y-88557142D02*
X94202438Y-88414285D01*
X94202438Y-88414285D02*
X94250057Y-88366666D01*
X94250057Y-87985713D02*
X94202438Y-87938094D01*
X94202438Y-87938094D02*
X94154819Y-87842856D01*
X94154819Y-87842856D02*
X94154819Y-87604761D01*
X94154819Y-87604761D02*
X94202438Y-87509523D01*
X94202438Y-87509523D02*
X94250057Y-87461904D01*
X94250057Y-87461904D02*
X94345295Y-87414285D01*
X94345295Y-87414285D02*
X94440533Y-87414285D01*
X94440533Y-87414285D02*
X94583390Y-87461904D01*
X94583390Y-87461904D02*
X95154819Y-88033332D01*
X95154819Y-88033332D02*
X95154819Y-87414285D01*
X135524819Y-85841666D02*
X135048628Y-86174999D01*
X135524819Y-86413094D02*
X134524819Y-86413094D01*
X134524819Y-86413094D02*
X134524819Y-86032142D01*
X134524819Y-86032142D02*
X134572438Y-85936904D01*
X134572438Y-85936904D02*
X134620057Y-85889285D01*
X134620057Y-85889285D02*
X134715295Y-85841666D01*
X134715295Y-85841666D02*
X134858152Y-85841666D01*
X134858152Y-85841666D02*
X134953390Y-85889285D01*
X134953390Y-85889285D02*
X135001009Y-85936904D01*
X135001009Y-85936904D02*
X135048628Y-86032142D01*
X135048628Y-86032142D02*
X135048628Y-86413094D01*
X134620057Y-85460713D02*
X134572438Y-85413094D01*
X134572438Y-85413094D02*
X134524819Y-85317856D01*
X134524819Y-85317856D02*
X134524819Y-85079761D01*
X134524819Y-85079761D02*
X134572438Y-84984523D01*
X134572438Y-84984523D02*
X134620057Y-84936904D01*
X134620057Y-84936904D02*
X134715295Y-84889285D01*
X134715295Y-84889285D02*
X134810533Y-84889285D01*
X134810533Y-84889285D02*
X134953390Y-84936904D01*
X134953390Y-84936904D02*
X135524819Y-85508332D01*
X135524819Y-85508332D02*
X135524819Y-84889285D01*
X124779580Y-99817857D02*
X124827200Y-99865476D01*
X124827200Y-99865476D02*
X124874819Y-100008333D01*
X124874819Y-100008333D02*
X124874819Y-100103571D01*
X124874819Y-100103571D02*
X124827200Y-100246428D01*
X124827200Y-100246428D02*
X124731961Y-100341666D01*
X124731961Y-100341666D02*
X124636723Y-100389285D01*
X124636723Y-100389285D02*
X124446247Y-100436904D01*
X124446247Y-100436904D02*
X124303390Y-100436904D01*
X124303390Y-100436904D02*
X124112914Y-100389285D01*
X124112914Y-100389285D02*
X124017676Y-100341666D01*
X124017676Y-100341666D02*
X123922438Y-100246428D01*
X123922438Y-100246428D02*
X123874819Y-100103571D01*
X123874819Y-100103571D02*
X123874819Y-100008333D01*
X123874819Y-100008333D02*
X123922438Y-99865476D01*
X123922438Y-99865476D02*
X123970057Y-99817857D01*
X123874819Y-99484523D02*
X123874819Y-98865476D01*
X123874819Y-98865476D02*
X124255771Y-99198809D01*
X124255771Y-99198809D02*
X124255771Y-99055952D01*
X124255771Y-99055952D02*
X124303390Y-98960714D01*
X124303390Y-98960714D02*
X124351009Y-98913095D01*
X124351009Y-98913095D02*
X124446247Y-98865476D01*
X124446247Y-98865476D02*
X124684342Y-98865476D01*
X124684342Y-98865476D02*
X124779580Y-98913095D01*
X124779580Y-98913095D02*
X124827200Y-98960714D01*
X124827200Y-98960714D02*
X124874819Y-99055952D01*
X124874819Y-99055952D02*
X124874819Y-99341666D01*
X124874819Y-99341666D02*
X124827200Y-99436904D01*
X124827200Y-99436904D02*
X124779580Y-99484523D01*
X123874819Y-97960714D02*
X123874819Y-98436904D01*
X123874819Y-98436904D02*
X124351009Y-98484523D01*
X124351009Y-98484523D02*
X124303390Y-98436904D01*
X124303390Y-98436904D02*
X124255771Y-98341666D01*
X124255771Y-98341666D02*
X124255771Y-98103571D01*
X124255771Y-98103571D02*
X124303390Y-98008333D01*
X124303390Y-98008333D02*
X124351009Y-97960714D01*
X124351009Y-97960714D02*
X124446247Y-97913095D01*
X124446247Y-97913095D02*
X124684342Y-97913095D01*
X124684342Y-97913095D02*
X124779580Y-97960714D01*
X124779580Y-97960714D02*
X124827200Y-98008333D01*
X124827200Y-98008333D02*
X124874819Y-98103571D01*
X124874819Y-98103571D02*
X124874819Y-98341666D01*
X124874819Y-98341666D02*
X124827200Y-98436904D01*
X124827200Y-98436904D02*
X124779580Y-98484523D01*
X145738095Y-42454819D02*
X145738095Y-41454819D01*
X145738095Y-41931009D02*
X146309523Y-41931009D01*
X146309523Y-42454819D02*
X146309523Y-41454819D01*
X147214285Y-41788152D02*
X147214285Y-42454819D01*
X146976190Y-41407200D02*
X146738095Y-42121485D01*
X146738095Y-42121485D02*
X147357142Y-42121485D01*
X115357142Y-106359580D02*
X115309523Y-106407200D01*
X115309523Y-106407200D02*
X115166666Y-106454819D01*
X115166666Y-106454819D02*
X115071428Y-106454819D01*
X115071428Y-106454819D02*
X114928571Y-106407200D01*
X114928571Y-106407200D02*
X114833333Y-106311961D01*
X114833333Y-106311961D02*
X114785714Y-106216723D01*
X114785714Y-106216723D02*
X114738095Y-106026247D01*
X114738095Y-106026247D02*
X114738095Y-105883390D01*
X114738095Y-105883390D02*
X114785714Y-105692914D01*
X114785714Y-105692914D02*
X114833333Y-105597676D01*
X114833333Y-105597676D02*
X114928571Y-105502438D01*
X114928571Y-105502438D02*
X115071428Y-105454819D01*
X115071428Y-105454819D02*
X115166666Y-105454819D01*
X115166666Y-105454819D02*
X115309523Y-105502438D01*
X115309523Y-105502438D02*
X115357142Y-105550057D01*
X115738095Y-105550057D02*
X115785714Y-105502438D01*
X115785714Y-105502438D02*
X115880952Y-105454819D01*
X115880952Y-105454819D02*
X116119047Y-105454819D01*
X116119047Y-105454819D02*
X116214285Y-105502438D01*
X116214285Y-105502438D02*
X116261904Y-105550057D01*
X116261904Y-105550057D02*
X116309523Y-105645295D01*
X116309523Y-105645295D02*
X116309523Y-105740533D01*
X116309523Y-105740533D02*
X116261904Y-105883390D01*
X116261904Y-105883390D02*
X115690476Y-106454819D01*
X115690476Y-106454819D02*
X116309523Y-106454819D01*
X116690476Y-105550057D02*
X116738095Y-105502438D01*
X116738095Y-105502438D02*
X116833333Y-105454819D01*
X116833333Y-105454819D02*
X117071428Y-105454819D01*
X117071428Y-105454819D02*
X117166666Y-105502438D01*
X117166666Y-105502438D02*
X117214285Y-105550057D01*
X117214285Y-105550057D02*
X117261904Y-105645295D01*
X117261904Y-105645295D02*
X117261904Y-105740533D01*
X117261904Y-105740533D02*
X117214285Y-105883390D01*
X117214285Y-105883390D02*
X116642857Y-106454819D01*
X116642857Y-106454819D02*
X117261904Y-106454819D01*
X82859580Y-94966666D02*
X82907200Y-95014285D01*
X82907200Y-95014285D02*
X82954819Y-95157142D01*
X82954819Y-95157142D02*
X82954819Y-95252380D01*
X82954819Y-95252380D02*
X82907200Y-95395237D01*
X82907200Y-95395237D02*
X82811961Y-95490475D01*
X82811961Y-95490475D02*
X82716723Y-95538094D01*
X82716723Y-95538094D02*
X82526247Y-95585713D01*
X82526247Y-95585713D02*
X82383390Y-95585713D01*
X82383390Y-95585713D02*
X82192914Y-95538094D01*
X82192914Y-95538094D02*
X82097676Y-95490475D01*
X82097676Y-95490475D02*
X82002438Y-95395237D01*
X82002438Y-95395237D02*
X81954819Y-95252380D01*
X81954819Y-95252380D02*
X81954819Y-95157142D01*
X81954819Y-95157142D02*
X82002438Y-95014285D01*
X82002438Y-95014285D02*
X82050057Y-94966666D01*
X81954819Y-94109523D02*
X81954819Y-94299999D01*
X81954819Y-94299999D02*
X82002438Y-94395237D01*
X82002438Y-94395237D02*
X82050057Y-94442856D01*
X82050057Y-94442856D02*
X82192914Y-94538094D01*
X82192914Y-94538094D02*
X82383390Y-94585713D01*
X82383390Y-94585713D02*
X82764342Y-94585713D01*
X82764342Y-94585713D02*
X82859580Y-94538094D01*
X82859580Y-94538094D02*
X82907200Y-94490475D01*
X82907200Y-94490475D02*
X82954819Y-94395237D01*
X82954819Y-94395237D02*
X82954819Y-94204761D01*
X82954819Y-94204761D02*
X82907200Y-94109523D01*
X82907200Y-94109523D02*
X82859580Y-94061904D01*
X82859580Y-94061904D02*
X82764342Y-94014285D01*
X82764342Y-94014285D02*
X82526247Y-94014285D01*
X82526247Y-94014285D02*
X82431009Y-94061904D01*
X82431009Y-94061904D02*
X82383390Y-94109523D01*
X82383390Y-94109523D02*
X82335771Y-94204761D01*
X82335771Y-94204761D02*
X82335771Y-94395237D01*
X82335771Y-94395237D02*
X82383390Y-94490475D01*
X82383390Y-94490475D02*
X82431009Y-94538094D01*
X82431009Y-94538094D02*
X82526247Y-94585713D01*
X82359580Y-70642857D02*
X82407200Y-70690476D01*
X82407200Y-70690476D02*
X82454819Y-70833333D01*
X82454819Y-70833333D02*
X82454819Y-70928571D01*
X82454819Y-70928571D02*
X82407200Y-71071428D01*
X82407200Y-71071428D02*
X82311961Y-71166666D01*
X82311961Y-71166666D02*
X82216723Y-71214285D01*
X82216723Y-71214285D02*
X82026247Y-71261904D01*
X82026247Y-71261904D02*
X81883390Y-71261904D01*
X81883390Y-71261904D02*
X81692914Y-71214285D01*
X81692914Y-71214285D02*
X81597676Y-71166666D01*
X81597676Y-71166666D02*
X81502438Y-71071428D01*
X81502438Y-71071428D02*
X81454819Y-70928571D01*
X81454819Y-70928571D02*
X81454819Y-70833333D01*
X81454819Y-70833333D02*
X81502438Y-70690476D01*
X81502438Y-70690476D02*
X81550057Y-70642857D01*
X81454819Y-70309523D02*
X81454819Y-69690476D01*
X81454819Y-69690476D02*
X81835771Y-70023809D01*
X81835771Y-70023809D02*
X81835771Y-69880952D01*
X81835771Y-69880952D02*
X81883390Y-69785714D01*
X81883390Y-69785714D02*
X81931009Y-69738095D01*
X81931009Y-69738095D02*
X82026247Y-69690476D01*
X82026247Y-69690476D02*
X82264342Y-69690476D01*
X82264342Y-69690476D02*
X82359580Y-69738095D01*
X82359580Y-69738095D02*
X82407200Y-69785714D01*
X82407200Y-69785714D02*
X82454819Y-69880952D01*
X82454819Y-69880952D02*
X82454819Y-70166666D01*
X82454819Y-70166666D02*
X82407200Y-70261904D01*
X82407200Y-70261904D02*
X82359580Y-70309523D01*
X81550057Y-69309523D02*
X81502438Y-69261904D01*
X81502438Y-69261904D02*
X81454819Y-69166666D01*
X81454819Y-69166666D02*
X81454819Y-68928571D01*
X81454819Y-68928571D02*
X81502438Y-68833333D01*
X81502438Y-68833333D02*
X81550057Y-68785714D01*
X81550057Y-68785714D02*
X81645295Y-68738095D01*
X81645295Y-68738095D02*
X81740533Y-68738095D01*
X81740533Y-68738095D02*
X81883390Y-68785714D01*
X81883390Y-68785714D02*
X82454819Y-69357142D01*
X82454819Y-69357142D02*
X82454819Y-68738095D01*
X82359580Y-61142857D02*
X82407200Y-61190476D01*
X82407200Y-61190476D02*
X82454819Y-61333333D01*
X82454819Y-61333333D02*
X82454819Y-61428571D01*
X82454819Y-61428571D02*
X82407200Y-61571428D01*
X82407200Y-61571428D02*
X82311961Y-61666666D01*
X82311961Y-61666666D02*
X82216723Y-61714285D01*
X82216723Y-61714285D02*
X82026247Y-61761904D01*
X82026247Y-61761904D02*
X81883390Y-61761904D01*
X81883390Y-61761904D02*
X81692914Y-61714285D01*
X81692914Y-61714285D02*
X81597676Y-61666666D01*
X81597676Y-61666666D02*
X81502438Y-61571428D01*
X81502438Y-61571428D02*
X81454819Y-61428571D01*
X81454819Y-61428571D02*
X81454819Y-61333333D01*
X81454819Y-61333333D02*
X81502438Y-61190476D01*
X81502438Y-61190476D02*
X81550057Y-61142857D01*
X81550057Y-60761904D02*
X81502438Y-60714285D01*
X81502438Y-60714285D02*
X81454819Y-60619047D01*
X81454819Y-60619047D02*
X81454819Y-60380952D01*
X81454819Y-60380952D02*
X81502438Y-60285714D01*
X81502438Y-60285714D02*
X81550057Y-60238095D01*
X81550057Y-60238095D02*
X81645295Y-60190476D01*
X81645295Y-60190476D02*
X81740533Y-60190476D01*
X81740533Y-60190476D02*
X81883390Y-60238095D01*
X81883390Y-60238095D02*
X82454819Y-60809523D01*
X82454819Y-60809523D02*
X82454819Y-60190476D01*
X81883390Y-59619047D02*
X81835771Y-59714285D01*
X81835771Y-59714285D02*
X81788152Y-59761904D01*
X81788152Y-59761904D02*
X81692914Y-59809523D01*
X81692914Y-59809523D02*
X81645295Y-59809523D01*
X81645295Y-59809523D02*
X81550057Y-59761904D01*
X81550057Y-59761904D02*
X81502438Y-59714285D01*
X81502438Y-59714285D02*
X81454819Y-59619047D01*
X81454819Y-59619047D02*
X81454819Y-59428571D01*
X81454819Y-59428571D02*
X81502438Y-59333333D01*
X81502438Y-59333333D02*
X81550057Y-59285714D01*
X81550057Y-59285714D02*
X81645295Y-59238095D01*
X81645295Y-59238095D02*
X81692914Y-59238095D01*
X81692914Y-59238095D02*
X81788152Y-59285714D01*
X81788152Y-59285714D02*
X81835771Y-59333333D01*
X81835771Y-59333333D02*
X81883390Y-59428571D01*
X81883390Y-59428571D02*
X81883390Y-59619047D01*
X81883390Y-59619047D02*
X81931009Y-59714285D01*
X81931009Y-59714285D02*
X81978628Y-59761904D01*
X81978628Y-59761904D02*
X82073866Y-59809523D01*
X82073866Y-59809523D02*
X82264342Y-59809523D01*
X82264342Y-59809523D02*
X82359580Y-59761904D01*
X82359580Y-59761904D02*
X82407200Y-59714285D01*
X82407200Y-59714285D02*
X82454819Y-59619047D01*
X82454819Y-59619047D02*
X82454819Y-59428571D01*
X82454819Y-59428571D02*
X82407200Y-59333333D01*
X82407200Y-59333333D02*
X82359580Y-59285714D01*
X82359580Y-59285714D02*
X82264342Y-59238095D01*
X82264342Y-59238095D02*
X82073866Y-59238095D01*
X82073866Y-59238095D02*
X81978628Y-59285714D01*
X81978628Y-59285714D02*
X81931009Y-59333333D01*
X81931009Y-59333333D02*
X81883390Y-59428571D01*
X96359580Y-102666666D02*
X96407200Y-102714285D01*
X96407200Y-102714285D02*
X96454819Y-102857142D01*
X96454819Y-102857142D02*
X96454819Y-102952380D01*
X96454819Y-102952380D02*
X96407200Y-103095237D01*
X96407200Y-103095237D02*
X96311961Y-103190475D01*
X96311961Y-103190475D02*
X96216723Y-103238094D01*
X96216723Y-103238094D02*
X96026247Y-103285713D01*
X96026247Y-103285713D02*
X95883390Y-103285713D01*
X95883390Y-103285713D02*
X95692914Y-103238094D01*
X95692914Y-103238094D02*
X95597676Y-103190475D01*
X95597676Y-103190475D02*
X95502438Y-103095237D01*
X95502438Y-103095237D02*
X95454819Y-102952380D01*
X95454819Y-102952380D02*
X95454819Y-102857142D01*
X95454819Y-102857142D02*
X95502438Y-102714285D01*
X95502438Y-102714285D02*
X95550057Y-102666666D01*
X96454819Y-102190475D02*
X96454819Y-101999999D01*
X96454819Y-101999999D02*
X96407200Y-101904761D01*
X96407200Y-101904761D02*
X96359580Y-101857142D01*
X96359580Y-101857142D02*
X96216723Y-101761904D01*
X96216723Y-101761904D02*
X96026247Y-101714285D01*
X96026247Y-101714285D02*
X95645295Y-101714285D01*
X95645295Y-101714285D02*
X95550057Y-101761904D01*
X95550057Y-101761904D02*
X95502438Y-101809523D01*
X95502438Y-101809523D02*
X95454819Y-101904761D01*
X95454819Y-101904761D02*
X95454819Y-102095237D01*
X95454819Y-102095237D02*
X95502438Y-102190475D01*
X95502438Y-102190475D02*
X95550057Y-102238094D01*
X95550057Y-102238094D02*
X95645295Y-102285713D01*
X95645295Y-102285713D02*
X95883390Y-102285713D01*
X95883390Y-102285713D02*
X95978628Y-102238094D01*
X95978628Y-102238094D02*
X96026247Y-102190475D01*
X96026247Y-102190475D02*
X96073866Y-102095237D01*
X96073866Y-102095237D02*
X96073866Y-101904761D01*
X96073866Y-101904761D02*
X96026247Y-101809523D01*
X96026247Y-101809523D02*
X95978628Y-101761904D01*
X95978628Y-101761904D02*
X95883390Y-101714285D01*
X68666666Y-109254819D02*
X68666666Y-109969104D01*
X68666666Y-109969104D02*
X68619047Y-110111961D01*
X68619047Y-110111961D02*
X68523809Y-110207200D01*
X68523809Y-110207200D02*
X68380952Y-110254819D01*
X68380952Y-110254819D02*
X68285714Y-110254819D01*
X69571428Y-109588152D02*
X69571428Y-110254819D01*
X69333333Y-109207200D02*
X69095238Y-109921485D01*
X69095238Y-109921485D02*
X69714285Y-109921485D01*
X124799580Y-107867857D02*
X124847200Y-107915476D01*
X124847200Y-107915476D02*
X124894819Y-108058333D01*
X124894819Y-108058333D02*
X124894819Y-108153571D01*
X124894819Y-108153571D02*
X124847200Y-108296428D01*
X124847200Y-108296428D02*
X124751961Y-108391666D01*
X124751961Y-108391666D02*
X124656723Y-108439285D01*
X124656723Y-108439285D02*
X124466247Y-108486904D01*
X124466247Y-108486904D02*
X124323390Y-108486904D01*
X124323390Y-108486904D02*
X124132914Y-108439285D01*
X124132914Y-108439285D02*
X124037676Y-108391666D01*
X124037676Y-108391666D02*
X123942438Y-108296428D01*
X123942438Y-108296428D02*
X123894819Y-108153571D01*
X123894819Y-108153571D02*
X123894819Y-108058333D01*
X123894819Y-108058333D02*
X123942438Y-107915476D01*
X123942438Y-107915476D02*
X123990057Y-107867857D01*
X124894819Y-106915476D02*
X124894819Y-107486904D01*
X124894819Y-107201190D02*
X123894819Y-107201190D01*
X123894819Y-107201190D02*
X124037676Y-107296428D01*
X124037676Y-107296428D02*
X124132914Y-107391666D01*
X124132914Y-107391666D02*
X124180533Y-107486904D01*
X124323390Y-106344047D02*
X124275771Y-106439285D01*
X124275771Y-106439285D02*
X124228152Y-106486904D01*
X124228152Y-106486904D02*
X124132914Y-106534523D01*
X124132914Y-106534523D02*
X124085295Y-106534523D01*
X124085295Y-106534523D02*
X123990057Y-106486904D01*
X123990057Y-106486904D02*
X123942438Y-106439285D01*
X123942438Y-106439285D02*
X123894819Y-106344047D01*
X123894819Y-106344047D02*
X123894819Y-106153571D01*
X123894819Y-106153571D02*
X123942438Y-106058333D01*
X123942438Y-106058333D02*
X123990057Y-106010714D01*
X123990057Y-106010714D02*
X124085295Y-105963095D01*
X124085295Y-105963095D02*
X124132914Y-105963095D01*
X124132914Y-105963095D02*
X124228152Y-106010714D01*
X124228152Y-106010714D02*
X124275771Y-106058333D01*
X124275771Y-106058333D02*
X124323390Y-106153571D01*
X124323390Y-106153571D02*
X124323390Y-106344047D01*
X124323390Y-106344047D02*
X124371009Y-106439285D01*
X124371009Y-106439285D02*
X124418628Y-106486904D01*
X124418628Y-106486904D02*
X124513866Y-106534523D01*
X124513866Y-106534523D02*
X124704342Y-106534523D01*
X124704342Y-106534523D02*
X124799580Y-106486904D01*
X124799580Y-106486904D02*
X124847200Y-106439285D01*
X124847200Y-106439285D02*
X124894819Y-106344047D01*
X124894819Y-106344047D02*
X124894819Y-106153571D01*
X124894819Y-106153571D02*
X124847200Y-106058333D01*
X124847200Y-106058333D02*
X124799580Y-106010714D01*
X124799580Y-106010714D02*
X124704342Y-105963095D01*
X124704342Y-105963095D02*
X124513866Y-105963095D01*
X124513866Y-105963095D02*
X124418628Y-106010714D01*
X124418628Y-106010714D02*
X124371009Y-106058333D01*
X124371009Y-106058333D02*
X124323390Y-106153571D01*
X135238095Y-90954819D02*
X135238095Y-91764342D01*
X135238095Y-91764342D02*
X135285714Y-91859580D01*
X135285714Y-91859580D02*
X135333333Y-91907200D01*
X135333333Y-91907200D02*
X135428571Y-91954819D01*
X135428571Y-91954819D02*
X135619047Y-91954819D01*
X135619047Y-91954819D02*
X135714285Y-91907200D01*
X135714285Y-91907200D02*
X135761904Y-91859580D01*
X135761904Y-91859580D02*
X135809523Y-91764342D01*
X135809523Y-91764342D02*
X135809523Y-90954819D01*
X136190476Y-90954819D02*
X136809523Y-90954819D01*
X136809523Y-90954819D02*
X136476190Y-91335771D01*
X136476190Y-91335771D02*
X136619047Y-91335771D01*
X136619047Y-91335771D02*
X136714285Y-91383390D01*
X136714285Y-91383390D02*
X136761904Y-91431009D01*
X136761904Y-91431009D02*
X136809523Y-91526247D01*
X136809523Y-91526247D02*
X136809523Y-91764342D01*
X136809523Y-91764342D02*
X136761904Y-91859580D01*
X136761904Y-91859580D02*
X136714285Y-91907200D01*
X136714285Y-91907200D02*
X136619047Y-91954819D01*
X136619047Y-91954819D02*
X136333333Y-91954819D01*
X136333333Y-91954819D02*
X136238095Y-91907200D01*
X136238095Y-91907200D02*
X136190476Y-91859580D01*
X107066666Y-109154819D02*
X107066666Y-109869104D01*
X107066666Y-109869104D02*
X107019047Y-110011961D01*
X107019047Y-110011961D02*
X106923809Y-110107200D01*
X106923809Y-110107200D02*
X106780952Y-110154819D01*
X106780952Y-110154819D02*
X106685714Y-110154819D01*
X107971428Y-109154819D02*
X107780952Y-109154819D01*
X107780952Y-109154819D02*
X107685714Y-109202438D01*
X107685714Y-109202438D02*
X107638095Y-109250057D01*
X107638095Y-109250057D02*
X107542857Y-109392914D01*
X107542857Y-109392914D02*
X107495238Y-109583390D01*
X107495238Y-109583390D02*
X107495238Y-109964342D01*
X107495238Y-109964342D02*
X107542857Y-110059580D01*
X107542857Y-110059580D02*
X107590476Y-110107200D01*
X107590476Y-110107200D02*
X107685714Y-110154819D01*
X107685714Y-110154819D02*
X107876190Y-110154819D01*
X107876190Y-110154819D02*
X107971428Y-110107200D01*
X107971428Y-110107200D02*
X108019047Y-110059580D01*
X108019047Y-110059580D02*
X108066666Y-109964342D01*
X108066666Y-109964342D02*
X108066666Y-109726247D01*
X108066666Y-109726247D02*
X108019047Y-109631009D01*
X108019047Y-109631009D02*
X107971428Y-109583390D01*
X107971428Y-109583390D02*
X107876190Y-109535771D01*
X107876190Y-109535771D02*
X107685714Y-109535771D01*
X107685714Y-109535771D02*
X107590476Y-109583390D01*
X107590476Y-109583390D02*
X107542857Y-109631009D01*
X107542857Y-109631009D02*
X107495238Y-109726247D01*
D12*
%TO.C,R5*%
X128062258Y-95987500D02*
X127587742Y-95987500D01*
X128062258Y-97032500D02*
X127587742Y-97032500D01*
%TO.C,C1*%
X90980000Y-90865580D02*
X90980000Y-90584420D01*
X92000000Y-90865580D02*
X92000000Y-90584420D01*
D13*
%TO.C,SW5*%
X141724400Y-62309731D02*
X141724400Y-65440269D01*
X144975600Y-62692260D02*
X144975600Y-62309731D01*
X144975600Y-65440269D02*
X144975600Y-65057740D01*
D14*
X144150000Y-67215100D02*
G75*
G02*
X143771780Y-66880038I0J381000D01*
G01*
X144528221Y-66880038D02*
G75*
G02*
X144150000Y-67215101I-378221J45938D01*
G01*
D12*
%TO.C,D2*%
X137950000Y-51500000D02*
X137950000Y-49540000D01*
X139150000Y-49540000D02*
X137950000Y-49540000D01*
X139150000Y-51500000D02*
X139150000Y-49540000D01*
%TO.C,U12*%
X73415000Y-48035000D02*
X77535000Y-48035000D01*
X73415000Y-48130000D02*
X73415000Y-48035000D01*
X73415000Y-53155000D02*
X73415000Y-53060000D01*
X77535000Y-48035000D02*
X77535000Y-48130000D01*
X77535000Y-53060000D02*
X77535000Y-53155000D01*
X77535000Y-53155000D02*
X73415000Y-53155000D01*
X78315000Y-53395000D02*
X77835000Y-53395000D01*
X78075000Y-53065000D01*
X78315000Y-53395000D01*
G36*
X78315000Y-53395000D02*
G01*
X77835000Y-53395000D01*
X78075000Y-53065000D01*
X78315000Y-53395000D01*
G37*
%TO.C,C23*%
X104365580Y-104990000D02*
X104084420Y-104990000D01*
X104365580Y-106010000D02*
X104084420Y-106010000D01*
%TO.C,C21*%
X75990000Y-106615580D02*
X75990000Y-106334420D01*
X77010000Y-106615580D02*
X77010000Y-106334420D01*
%TO.C,C19*%
X120490000Y-107084420D02*
X120490000Y-107365580D01*
X121510000Y-107084420D02*
X121510000Y-107365580D01*
%TO.C,C11*%
X116134420Y-101490000D02*
X116415580Y-101490000D01*
X116134420Y-102510000D02*
X116415580Y-102510000D01*
%TO.C,C8*%
X78480000Y-94905580D02*
X78480000Y-94624420D01*
X79500000Y-94905580D02*
X79500000Y-94624420D01*
%TO.C,R4*%
X127537742Y-93477500D02*
X128012258Y-93477500D01*
X127537742Y-94522500D02*
X128012258Y-94522500D01*
%TO.C,R3*%
X135977500Y-88437742D02*
X135977500Y-88912258D01*
X137022500Y-88437742D02*
X137022500Y-88912258D01*
%TO.C,C7*%
X73490000Y-94915580D02*
X73490000Y-94634420D01*
X74510000Y-94915580D02*
X74510000Y-94634420D01*
%TO.C,D3*%
X98500000Y-80960000D02*
X101185000Y-80960000D01*
X101185000Y-79040000D02*
X98500000Y-79040000D01*
X101185000Y-80960000D02*
X101185000Y-79040000D01*
%TO.C,C29*%
X69990000Y-51915580D02*
X69990000Y-51634420D01*
X71010000Y-51915580D02*
X71010000Y-51634420D01*
%TO.C,C13*%
X133915000Y-74740000D02*
X133915000Y-75940000D01*
X133915000Y-79260000D02*
X133915000Y-78060000D01*
X137370563Y-74740000D02*
X133915000Y-74740000D01*
X137370563Y-79260000D02*
X133915000Y-79260000D01*
X138435000Y-75804437D02*
X137370563Y-74740000D01*
X138435000Y-75804437D02*
X138435000Y-75940000D01*
X138435000Y-78195563D02*
X137370563Y-79260000D01*
X138435000Y-78195563D02*
X138435000Y-78060000D01*
D13*
%TO.C,J1*%
X91974299Y-63072999D02*
X91974299Y-69866991D01*
X93908628Y-73537799D02*
X94692365Y-73537799D01*
X95045143Y-63072999D02*
X91974299Y-63072999D01*
X101507634Y-73537799D02*
X104292364Y-73537799D01*
X104645144Y-63072999D02*
X101954856Y-63072999D01*
X119107631Y-73537799D02*
X120291370Y-73537799D01*
X122225699Y-63072999D02*
X119554854Y-63072999D01*
X122225699Y-69866991D02*
X122225699Y-63072999D01*
D12*
%TO.C,D5*%
X76040000Y-41877500D02*
X76040000Y-44562500D01*
X77960000Y-41877500D02*
X76040000Y-41877500D01*
X77960000Y-44562500D02*
X77960000Y-41877500D01*
%TO.C,R10*%
X99150242Y-77477500D02*
X99624758Y-77477500D01*
X99150242Y-78522500D02*
X99624758Y-78522500D01*
%TO.C,R12*%
X68287258Y-106977500D02*
X67812742Y-106977500D01*
X68287258Y-108022500D02*
X67812742Y-108022500D01*
%TO.C,RV2*%
X83625000Y-83970000D02*
X93375000Y-83970000D01*
X83625000Y-89020000D02*
X83625000Y-83970000D01*
X93375000Y-83970000D02*
X93375000Y-89020000D01*
X93375000Y-89020000D02*
X83625000Y-89020000D01*
%TO.C,C27*%
X69990000Y-60640580D02*
X69990000Y-60359420D01*
X71010000Y-60640580D02*
X71010000Y-60359420D01*
%TO.C,C24*%
X104365580Y-102480000D02*
X104084420Y-102480000D01*
X104365580Y-103500000D02*
X104084420Y-103500000D01*
%TO.C,C25*%
X69990000Y-77140580D02*
X69990000Y-76859420D01*
X71010000Y-77140580D02*
X71010000Y-76859420D01*
%TO.C,J8*%
X55880000Y-48780000D02*
X65920000Y-48780000D01*
X55880000Y-51100000D02*
X55880000Y-48780000D01*
X55880000Y-64020000D02*
X55880000Y-51700000D01*
X56500000Y-48780000D02*
X56500000Y-64020000D01*
X58000000Y-48780000D02*
X58000000Y-64020000D01*
X62900000Y-48780000D02*
X62900000Y-64020000D01*
X65920000Y-48780000D02*
X65920000Y-64020000D01*
X65920000Y-64020000D02*
X55880000Y-64020000D01*
X55880000Y-51400000D02*
X55270000Y-51840000D01*
X55270000Y-50960000D01*
X55880000Y-51400000D01*
G36*
X55880000Y-51400000D02*
G01*
X55270000Y-51840000D01*
X55270000Y-50960000D01*
X55880000Y-51400000D01*
G37*
%TO.C,C10*%
X91990000Y-102365580D02*
X91990000Y-102084420D01*
X93010000Y-102365580D02*
X93010000Y-102084420D01*
%TO.C,U1*%
X127460000Y-78800000D02*
X128825000Y-78800000D01*
X127460000Y-89200000D02*
X128825000Y-89200000D01*
X128825000Y-78800000D02*
X128825000Y-79490000D01*
X128825000Y-89200000D02*
X128825000Y-88510000D01*
X131990000Y-88940000D02*
X131310000Y-88940000D01*
X131650000Y-88470000D01*
X131990000Y-88940000D01*
G36*
X131990000Y-88940000D02*
G01*
X131310000Y-88940000D01*
X131650000Y-88470000D01*
X131990000Y-88940000D01*
G37*
%TO.C,P1*%
X143813651Y-52850852D02*
X143813651Y-43900852D01*
X146893651Y-43780852D02*
X147793651Y-43780852D01*
X146893651Y-52970852D02*
X147793651Y-52970852D01*
X150493651Y-43780852D02*
X153223651Y-43780852D01*
X150493651Y-52970852D02*
X153223651Y-52970852D01*
X153223651Y-52970852D02*
X153223651Y-43780852D01*
%TO.C,C14*%
X136134420Y-80990000D02*
X136415580Y-80990000D01*
X136134420Y-82010000D02*
X136415580Y-82010000D01*
%TO.C,JP2*%
X78700000Y-98750000D02*
X80700000Y-98750000D01*
X78700000Y-101550000D02*
X78700000Y-98750000D01*
X80700000Y-98750000D02*
X80700000Y-101550000D01*
X80700000Y-101550000D02*
X78700000Y-101550000D01*
%TO.C,C4*%
X99490000Y-90915580D02*
X99490000Y-90634420D01*
X100510000Y-90915580D02*
X100510000Y-90634420D01*
%TO.C,C5*%
X71470000Y-94915580D02*
X71470000Y-94634420D01*
X72490000Y-94915580D02*
X72490000Y-94634420D01*
%TO.C,C16*%
X110415000Y-77240000D02*
X110415000Y-78440000D01*
X110415000Y-81760000D02*
X110415000Y-80560000D01*
X113870563Y-77240000D02*
X110415000Y-77240000D01*
X113870563Y-81760000D02*
X110415000Y-81760000D01*
X114935000Y-78304437D02*
X113870563Y-77240000D01*
X114935000Y-78304437D02*
X114935000Y-78440000D01*
X114935000Y-80695563D02*
X113870563Y-81760000D01*
X114935000Y-80695563D02*
X114935000Y-80560000D01*
%TO.C,C3*%
X96980000Y-90915580D02*
X96980000Y-90634420D01*
X98000000Y-90915580D02*
X98000000Y-90634420D01*
%TO.C,C15*%
X138990000Y-81134420D02*
X138990000Y-81415580D01*
X140010000Y-81134420D02*
X140010000Y-81415580D01*
%TO.C,U4*%
X139000000Y-101390000D02*
X133000000Y-101390000D01*
X139000000Y-106610000D02*
X133000000Y-106610000D01*
X139640000Y-106820000D02*
X139640000Y-106340000D01*
X140120000Y-106340000D01*
X139640000Y-106820000D01*
G36*
X139640000Y-106820000D02*
G01*
X139640000Y-106340000D01*
X140120000Y-106340000D01*
X139640000Y-106820000D01*
G37*
%TO.C,D4*%
X79540000Y-41877500D02*
X79540000Y-44562500D01*
X81460000Y-41877500D02*
X79540000Y-41877500D01*
X81460000Y-44562500D02*
X81460000Y-41877500D01*
%TO.C,SW2*%
X108100000Y-83400000D02*
X110400000Y-83400000D01*
X108100000Y-84600000D02*
X108100000Y-83400000D01*
X108100000Y-86400000D02*
X108100000Y-87100000D01*
X108100000Y-88900000D02*
X108100000Y-89600000D01*
X108100000Y-92600000D02*
X108100000Y-91400000D01*
X110400000Y-92600000D02*
X108100000Y-92600000D01*
%TO.C,U7*%
X73190000Y-98345000D02*
X73285000Y-98345000D01*
X73190000Y-102465000D02*
X73190000Y-98345000D01*
X73285000Y-102465000D02*
X73190000Y-102465000D01*
X78215000Y-98345000D02*
X78310000Y-98345000D01*
X78310000Y-98345000D02*
X78310000Y-102465000D01*
X78310000Y-102465000D02*
X78215000Y-102465000D01*
X73280000Y-103005000D02*
X72950000Y-103245000D01*
X72950000Y-102765000D01*
X73280000Y-103005000D01*
G36*
X73280000Y-103005000D02*
G01*
X72950000Y-103245000D01*
X72950000Y-102765000D01*
X73280000Y-103005000D01*
G37*
%TO.C,U2*%
X121250000Y-104150000D02*
X121250000Y-102970000D01*
X122350000Y-102650000D02*
X121570000Y-102650000D01*
X122350000Y-102650000D02*
X122350000Y-104150000D01*
X122350000Y-104150000D02*
X121250000Y-104150000D01*
X121250000Y-102650000D02*
X120750000Y-102650000D01*
X121250000Y-102150000D01*
X121250000Y-102650000D01*
G36*
X121250000Y-102650000D02*
G01*
X120750000Y-102650000D01*
X121250000Y-102150000D01*
X121250000Y-102650000D01*
G37*
%TO.C,R1*%
X96748752Y-104290000D02*
X93976248Y-104290000D01*
X96748752Y-107710000D02*
X93976248Y-107710000D01*
%TO.C,U13*%
X73415000Y-75575000D02*
X77535000Y-75575000D01*
X73415000Y-75670000D02*
X73415000Y-75575000D01*
X73415000Y-80695000D02*
X73415000Y-80600000D01*
X77535000Y-75575000D02*
X77535000Y-75670000D01*
X77535000Y-80600000D02*
X77535000Y-80695000D01*
X77535000Y-80695000D02*
X73415000Y-80695000D01*
X78315000Y-80935000D02*
X77835000Y-80935000D01*
X78075000Y-80605000D01*
X78315000Y-80935000D01*
G36*
X78315000Y-80935000D02*
G01*
X77835000Y-80935000D01*
X78075000Y-80605000D01*
X78315000Y-80935000D01*
G37*
%TO.C,U5*%
X108440000Y-95065000D02*
X112560000Y-95065000D01*
X108440000Y-95130000D02*
X108440000Y-95065000D01*
X108440000Y-103935000D02*
X108440000Y-103870000D01*
X112560000Y-95065000D02*
X112560000Y-95130000D01*
X112560000Y-103870000D02*
X112560000Y-103935000D01*
X112560000Y-103935000D02*
X108440000Y-103935000D01*
X107900000Y-95130000D02*
X107660000Y-94800000D01*
X108140000Y-94800000D01*
X107900000Y-95130000D01*
G36*
X107900000Y-95130000D02*
G01*
X107660000Y-94800000D01*
X108140000Y-94800000D01*
X107900000Y-95130000D01*
G37*
D13*
%TO.C,SW4*%
X131024400Y-62309731D02*
X131024400Y-62692260D01*
X131024400Y-65057740D02*
X131024400Y-65440269D01*
X134275600Y-65440269D02*
X134275600Y-62309731D01*
D14*
X131471779Y-60869962D02*
G75*
G02*
X131850000Y-60534899I378221J-45938D01*
G01*
X131850000Y-60534900D02*
G75*
G02*
X132228220Y-60869962I0J-381000D01*
G01*
D12*
%TO.C,R6*%
X127537742Y-101767500D02*
X128012258Y-101767500D01*
X127537742Y-102812500D02*
X128012258Y-102812500D01*
%TO.C,JP1*%
X99500000Y-95100000D02*
X101500000Y-95100000D01*
X99500000Y-97900000D02*
X99500000Y-95100000D01*
X101500000Y-95100000D02*
X101500000Y-97900000D01*
X101500000Y-97900000D02*
X99500000Y-97900000D01*
%TO.C,R8*%
X133212258Y-68352500D02*
X132737742Y-68352500D01*
X133212258Y-69397500D02*
X132737742Y-69397500D01*
%TO.C,U10*%
X73415000Y-66305000D02*
X77535000Y-66305000D01*
X73415000Y-66400000D02*
X73415000Y-66305000D01*
X73415000Y-71425000D02*
X73415000Y-71330000D01*
X77535000Y-66305000D02*
X77535000Y-66400000D01*
X77535000Y-71330000D02*
X77535000Y-71425000D01*
X77535000Y-71425000D02*
X73415000Y-71425000D01*
X78315000Y-71665000D02*
X77835000Y-71665000D01*
X78075000Y-71335000D01*
X78315000Y-71665000D01*
G36*
X78315000Y-71665000D02*
G01*
X77835000Y-71665000D01*
X78075000Y-71335000D01*
X78315000Y-71665000D01*
G37*
%TO.C,C17*%
X114634420Y-82990000D02*
X114915580Y-82990000D01*
X114634420Y-84010000D02*
X114915580Y-84010000D01*
%TO.C,C12*%
X73290000Y-106615580D02*
X73290000Y-106334420D01*
X74310000Y-106615580D02*
X74310000Y-106334420D01*
%TO.C,RV4*%
X63710000Y-95125000D02*
X68760000Y-95125000D01*
X63710000Y-104875000D02*
X63710000Y-95125000D01*
X68760000Y-95125000D02*
X68760000Y-104875000D01*
X68760000Y-104875000D02*
X63710000Y-104875000D01*
%TO.C,J5*%
X87270000Y-115175000D02*
X87270000Y-120825000D01*
X90175000Y-123500000D02*
X95825000Y-123500000D01*
X93000000Y-123300000D02*
X92500000Y-122600000D01*
X93000000Y-123300000D02*
X93500000Y-122600000D01*
X95825000Y-112270000D02*
X90175000Y-112270000D01*
X98730000Y-120825000D02*
X98730000Y-115175000D01*
%TO.C,U6*%
X121250000Y-96150000D02*
X121250000Y-94970000D01*
X122350000Y-94650000D02*
X121570000Y-94650000D01*
X122350000Y-94650000D02*
X122350000Y-96150000D01*
X122350000Y-96150000D02*
X121250000Y-96150000D01*
X121250000Y-94650000D02*
X120750000Y-94650000D01*
X121250000Y-94150000D01*
X121250000Y-94650000D01*
G36*
X121250000Y-94650000D02*
G01*
X120750000Y-94650000D01*
X121250000Y-94150000D01*
X121250000Y-94650000D01*
G37*
%TO.C,C31*%
X69990000Y-70140580D02*
X69990000Y-69859420D01*
X71010000Y-70140580D02*
X71010000Y-69859420D01*
%TO.C,R7*%
X128062258Y-104477500D02*
X127587742Y-104477500D01*
X128062258Y-105522500D02*
X127587742Y-105522500D01*
%TO.C,D1*%
X140400000Y-51500000D02*
X140400000Y-49540000D01*
X141600000Y-49540000D02*
X140400000Y-49540000D01*
X141600000Y-51500000D02*
X141600000Y-49540000D01*
%TO.C,U9*%
X73415000Y-57035000D02*
X77535000Y-57035000D01*
X73415000Y-57130000D02*
X73415000Y-57035000D01*
X73415000Y-62155000D02*
X73415000Y-62060000D01*
X77535000Y-57035000D02*
X77535000Y-57130000D01*
X77535000Y-62060000D02*
X77535000Y-62155000D01*
X77535000Y-62155000D02*
X73415000Y-62155000D01*
X78315000Y-62395000D02*
X77835000Y-62395000D01*
X78075000Y-62065000D01*
X78315000Y-62395000D01*
G36*
X78315000Y-62395000D02*
G01*
X77835000Y-62395000D01*
X78075000Y-62065000D01*
X78315000Y-62395000D01*
G37*
%TO.C,J7*%
X128270000Y-115175000D02*
X128270000Y-120825000D01*
X131175000Y-123500000D02*
X136825000Y-123500000D01*
X134000000Y-123300000D02*
X133500000Y-122600000D01*
X134000000Y-123300000D02*
X134500000Y-122600000D01*
X136825000Y-112270000D02*
X131175000Y-112270000D01*
X139730000Y-120825000D02*
X139730000Y-115175000D01*
%TO.C,C20*%
X120490000Y-99084420D02*
X120490000Y-99365580D01*
X121510000Y-99084420D02*
X121510000Y-99365580D01*
%TO.C,R14*%
X84262742Y-42977500D02*
X84737258Y-42977500D01*
X84262742Y-44022500D02*
X84737258Y-44022500D01*
%TO.C,J2*%
X145620000Y-86270000D02*
X145620000Y-78540000D01*
X148380000Y-78540000D02*
X145620000Y-78540000D01*
X148380000Y-86270000D02*
X145620000Y-86270000D01*
X148380000Y-86270000D02*
X148380000Y-78540000D01*
X148380000Y-87540000D02*
X148380000Y-88920000D01*
X148380000Y-88920000D02*
X147000000Y-88920000D01*
%TO.C,C33*%
X64230000Y-41147500D02*
X66580000Y-41147500D01*
X64230000Y-46903063D02*
X64230000Y-41147500D01*
X65294437Y-47967500D02*
X64230000Y-46903063D01*
X65294437Y-47967500D02*
X66580000Y-47967500D01*
X69985563Y-47967500D02*
X68700000Y-47967500D01*
X69985563Y-47967500D02*
X71050000Y-46903063D01*
X71050000Y-41147500D02*
X68700000Y-41147500D01*
X71050000Y-46903063D02*
X71050000Y-41147500D01*
%TO.C,D6*%
X72540000Y-41877500D02*
X72540000Y-44562500D01*
X74460000Y-41877500D02*
X72540000Y-41877500D01*
X74460000Y-44562500D02*
X74460000Y-41877500D01*
%TO.C,R15*%
X84262742Y-45977500D02*
X84737258Y-45977500D01*
X84262742Y-47022500D02*
X84737258Y-47022500D01*
%TO.C,R11*%
X87662742Y-104477500D02*
X88137258Y-104477500D01*
X87662742Y-105522500D02*
X88137258Y-105522500D01*
%TO.C,C26*%
X79990000Y-79365580D02*
X79990000Y-79084420D01*
X81010000Y-79365580D02*
X81010000Y-79084420D01*
%TO.C,R9*%
X143062258Y-58477500D02*
X142587742Y-58477500D01*
X143062258Y-59522500D02*
X142587742Y-59522500D01*
%TO.C,RV3*%
X84210000Y-92585000D02*
X89260000Y-92585000D01*
X84210000Y-102335000D02*
X84210000Y-92585000D01*
X89260000Y-92585000D02*
X89260000Y-102335000D01*
X89260000Y-102335000D02*
X84210000Y-102335000D01*
%TO.C,C34*%
X62590000Y-65627500D02*
X64940000Y-65627500D01*
X62590000Y-71383063D02*
X62590000Y-65627500D01*
X63654437Y-72447500D02*
X62590000Y-71383063D01*
X63654437Y-72447500D02*
X64940000Y-72447500D01*
X68345563Y-72447500D02*
X67060000Y-72447500D01*
X68345563Y-72447500D02*
X69410000Y-71383063D01*
X69410000Y-65627500D02*
X67060000Y-65627500D01*
X69410000Y-71383063D02*
X69410000Y-65627500D01*
%TO.C,U8*%
X92665000Y-94440000D02*
X92760000Y-94440000D01*
X92665000Y-98560000D02*
X92665000Y-94440000D01*
X92760000Y-98560000D02*
X92665000Y-98560000D01*
X97690000Y-94440000D02*
X97785000Y-94440000D01*
X97785000Y-94440000D02*
X97785000Y-98560000D01*
X97785000Y-98560000D02*
X97690000Y-98560000D01*
X92755000Y-99100000D02*
X92425000Y-99340000D01*
X92425000Y-98860000D01*
X92755000Y-99100000D01*
G36*
X92755000Y-99100000D02*
G01*
X92425000Y-99340000D01*
X92425000Y-98860000D01*
X92755000Y-99100000D01*
G37*
%TO.C,C30*%
X79990000Y-51915580D02*
X79990000Y-51634420D01*
X81010000Y-51915580D02*
X81010000Y-51634420D01*
%TO.C,R13*%
X84262742Y-39977500D02*
X84737258Y-39977500D01*
X84262742Y-41022500D02*
X84737258Y-41022500D01*
%TO.C,RV1*%
X64125000Y-87210000D02*
X73875000Y-87210000D01*
X64125000Y-92260000D02*
X64125000Y-87210000D01*
X73875000Y-87210000D02*
X73875000Y-92260000D01*
X73875000Y-92260000D02*
X64125000Y-92260000D01*
%TO.C,C2*%
X93490000Y-90865580D02*
X93490000Y-90584420D01*
X94510000Y-90865580D02*
X94510000Y-90584420D01*
%TO.C,R2*%
X135977500Y-85912258D02*
X135977500Y-85437742D01*
X137022500Y-85912258D02*
X137022500Y-85437742D01*
%TO.C,C35*%
X122480000Y-99034420D02*
X122480000Y-99315580D01*
X123500000Y-99034420D02*
X123500000Y-99315580D01*
%TO.C,C22*%
X116134420Y-103990000D02*
X116415580Y-103990000D01*
X116134420Y-105010000D02*
X116415580Y-105010000D01*
%TO.C,C6*%
X80530000Y-94915580D02*
X80530000Y-94634420D01*
X81550000Y-94915580D02*
X81550000Y-94634420D01*
%TO.C,C32*%
X79990000Y-69865580D02*
X79990000Y-69584420D01*
X81010000Y-69865580D02*
X81010000Y-69584420D01*
%TO.C,C28*%
X79990000Y-60640580D02*
X79990000Y-60359420D01*
X81010000Y-60640580D02*
X81010000Y-60359420D01*
%TO.C,C9*%
X93990000Y-102415580D02*
X93990000Y-102134420D01*
X95010000Y-102415580D02*
X95010000Y-102134420D01*
%TO.C,J4*%
X66270000Y-115175000D02*
X66270000Y-120825000D01*
X69175000Y-123500000D02*
X74825000Y-123500000D01*
X72000000Y-123300000D02*
X71500000Y-122600000D01*
X72000000Y-123300000D02*
X72500000Y-122600000D01*
X74825000Y-112270000D02*
X69175000Y-112270000D01*
X77730000Y-120825000D02*
X77730000Y-115175000D01*
%TO.C,C18*%
X122500000Y-107084420D02*
X122500000Y-107365580D01*
X123520000Y-107084420D02*
X123520000Y-107365580D01*
%TO.C,U3*%
X133000000Y-92390000D02*
X139000000Y-92390000D01*
X133000000Y-97610000D02*
X139000000Y-97610000D01*
X132360000Y-92660000D02*
X131880000Y-92660000D01*
X132360000Y-92180000D01*
X132360000Y-92660000D01*
G36*
X132360000Y-92660000D02*
G01*
X131880000Y-92660000D01*
X132360000Y-92180000D01*
X132360000Y-92660000D01*
G37*
%TO.C,J6*%
X107770000Y-115175000D02*
X107770000Y-120825000D01*
X110675000Y-123500000D02*
X116325000Y-123500000D01*
X113500000Y-123300000D02*
X113000000Y-122600000D01*
X113500000Y-123300000D02*
X114000000Y-122600000D01*
X116325000Y-112270000D02*
X110675000Y-112270000D01*
X119230000Y-120825000D02*
X119230000Y-115175000D01*
%TD*%
M02*
