M48
; DRILL file {KiCad 9.0.8+1} date 2026-06-28T23:20:42-0600
; FORMAT={-:-/ absolute / metric / decimal}
; #@! TF.CreationDate,2026-06-28T23:20:42-06:00
; #@! TF.GenerationSoftware,Kicad,Pcbnew,9.0.8+1
; #@! TF.FileFunction,Plated,1,2,PTH
FMAT,2
METRIC
; #@! TA.AperFunction,Plated,PTH,ViaDrill
T1C0.300
; #@! TA.AperFunction,Plated,PTH,ComponentDrill
T2C0.400
; #@! TA.AperFunction,Plated,PTH,ComponentDrill
T3C0.600
; #@! TA.AperFunction,Plated,PTH,ComponentDrill
T4C0.800
; #@! TA.AperFunction,Plated,PTH,ComponentDrill
T5C1.000
; #@! TA.AperFunction,Plated,PTH,ComponentDrill
T6C1.100
; #@! TA.AperFunction,Plated,PTH,ComponentDrill
T7C1.300
; #@! TA.AperFunction,Plated,PTH,ComponentDrill
T8C1.500
%
G90
G05
T1
X58.3Y-85.5
X58.3Y-90.0
X58.4Y-103.7
X58.4Y-108.2
X58.5Y-94.8
X58.5Y-99.3
X61.6Y-85.5
X61.6Y-90.0
X61.7Y-103.7
X61.7Y-108.2
X61.8Y-94.8
X61.8Y-99.3
X68.275Y-77.775
X68.4Y-102.3
X68.4Y-104.3
X69.9Y-73.6
X70.1Y-102.3
X70.1Y-104.4
X70.1Y-106.2
X70.3Y-95.4
X70.4Y-57.0
X71.3Y-98.6
X71.6Y-102.4
X71.7Y-91.4
X71.9Y-106.3
X72.0Y-64.0
X73.9Y-89.5
X73.9Y-91.5
X74.1Y-73.6
X75.3Y-64.1
X75.9Y-89.3
X76.8Y-93.6
X77.8Y-73.6
X78.1Y-87.2
X78.1Y-109.2
X78.8Y-46.8
X78.8Y-91.8
X79.5Y-102.3
X79.5Y-103.8
X80.0Y-83.9
X80.2Y-90.5
X80.8Y-48.481
X80.9Y-118.2
X80.9Y-122.7
X81.1Y-63.0
X81.3Y-88.8
X81.5Y-103.8
X82.0Y-70.3
X83.1Y-87.7
X83.3Y-83.9
X83.7Y-73.6
X84.2Y-118.2
X84.2Y-122.7
X84.3Y-82.1
X84.6Y-105.0
X84.7Y-89.3
X84.8Y-102.5
X84.9Y-91.7
X86.4Y-55.7
X86.4Y-60.2
X86.7Y-91.7
X86.9Y-102.5
X87.5Y-78.9
X87.7Y-76.2
X88.9Y-85.0
X89.6Y-65.2
X89.6Y-79.4
X89.6Y-81.2
X89.7Y-55.7
X89.7Y-60.2
X89.9Y-91.445
X90.4Y-101.9
X90.9Y-104.7
X90.9Y-106.2
X90.9Y-107.6
X91.1Y-94.9
X91.2Y-41.7
X91.2Y-46.2
X91.4Y-88.1
X91.6Y-99.0
X91.7Y-79.4
X91.7Y-81.2
X93.5Y-88.1
X93.8Y-85.0
X94.2Y-75.1
X94.5Y-41.7
X94.5Y-46.2
X94.7Y-65.2
X95.249Y-95.451
X95.4Y-96.4
X95.651Y-69.963
X96.3Y-77.0
X96.5Y-84.9
X96.95Y-70.47
X97.5Y-61.6
X98.4Y-88.0
X98.425Y-66.485
X99.1Y-92.9
X99.3Y-61.7
X99.3Y-84.3
X99.3Y-102.0
X100.1Y-60.4
X100.3Y-61.6
X100.4Y-104.3
X101.4Y-69.9
X101.5Y-119.2
X101.5Y-123.7
X101.6Y-82.8
X101.6Y-99.6
X101.6Y-102.1
X101.8Y-91.7
X102.1Y-88.1
X102.8Y-95.5
X102.8Y-98.2
X103.1Y-63.4
X103.1Y-65.2
X103.3Y-79.2
X103.3Y-81.0
X103.5Y-69.9
X104.7Y-92.5
X104.8Y-119.2
X104.8Y-123.7
X105.2Y-62.1
X105.4Y-79.2
X105.4Y-81.0
X105.9Y-97.7
X106.0Y-95.4
X107.7Y-79.2
X107.7Y-81.0
X109.8Y-81.0
X110.6Y-100.6
X110.9Y-107.1
X113.1Y-70.0
X113.2Y-87.0
X113.2Y-88.8
X115.2Y-70.0
X115.3Y-38.4
X115.3Y-42.7
X115.3Y-47.2
X115.3Y-87.0
X115.3Y-88.8
X115.4Y-107.1
X115.6Y-96.0
X117.5Y-96.0
X118.0Y-93.7
X118.6Y-38.4
X118.6Y-42.7
X118.6Y-47.2
X119.5Y-90.8
X119.78Y-95.28
X119.93Y-102.68
X120.312Y-101.977
X120.4Y-93.8
X120.4Y-96.1
X120.5Y-64.1
X121.3Y-104.7
X121.8Y-38.4
X122.0Y-97.4
X122.0Y-116.4
X122.0Y-120.9
X124.0Y-65.8
X124.6Y-57.9
X125.0Y-70.7
X125.0Y-72.5
X125.1Y-38.4
X125.1Y-98.4
X125.1Y-100.7
X125.3Y-116.4
X125.3Y-120.9
X126.2Y-49.8
X126.2Y-54.3
X127.0Y-56.9
X127.1Y-70.7
X127.1Y-72.5
X127.8Y-90.8
X128.4Y-38.5
X128.4Y-98.4
X128.4Y-99.5
X128.4Y-100.7
X129.034Y-69.066
X129.5Y-49.8
X129.5Y-54.3
X129.6Y-68.5
X129.8Y-60.6
X130.3Y-59.3
X131.0Y-71.9
X131.25Y-78.5
X131.7Y-38.5
X131.7Y-99.5
X131.969Y-93.129
X134.5Y-73.7
X134.6Y-70.1
X134.85Y-86.15
X135.33Y-80.2
X135.76Y-82.94
X137.5Y-54.4
X137.6Y-57.5
X137.9Y-79.2
X139.32Y-83.44
X139.6Y-54.4
X139.7Y-57.5
X140.125Y-68.875
X140.6Y-72.6
X140.8Y-61.3
X142.0Y-65.1
X144.3Y-83.1
X144.8Y-97.9
X144.8Y-102.4
X147.4Y-69.8
X147.4Y-73.1
X148.1Y-97.9
X148.1Y-102.4
T2
X144.494Y-45.401
X144.494Y-46.251
X144.494Y-47.101
X144.494Y-47.951
X144.494Y-48.801
X144.494Y-49.651
X144.494Y-50.501
X144.494Y-51.351
X145.844Y-45.401
X145.844Y-46.251
X145.844Y-47.101
X145.844Y-47.951
X145.844Y-48.801
X145.844Y-49.651
X145.844Y-50.501
X145.844Y-51.351
T4
X64.96Y-97.46
X64.96Y-102.54
X66.46Y-88.46
X67.5Y-100.0
X69.0Y-91.0
X71.54Y-88.46
X85.46Y-94.92
X85.46Y-100.0
X85.96Y-85.22
X88.0Y-97.46
X88.5Y-87.76
X91.04Y-85.22
T5
X147.0Y-79.92
X147.0Y-82.46
X147.0Y-85.0
X147.0Y-87.54
T6
X72.0Y-118.0
X93.0Y-118.0
X113.5Y-118.0
X134.0Y-118.0
T7
X60.6Y-51.4
X60.6Y-56.4
X60.6Y-61.4
T8
X66.975Y-112.975
X66.975Y-123.025
X77.025Y-112.975
X77.025Y-123.025
X87.975Y-112.975
X87.975Y-123.025
X98.025Y-112.975
X98.025Y-123.025
X108.475Y-112.975
X108.475Y-123.025
X118.525Y-112.975
X118.525Y-123.025
X128.975Y-112.975
X128.975Y-123.025
X139.025Y-112.975
X139.025Y-123.025
T3
G00X144.724Y-44.051
M15
G01X146.224Y-44.051
M16
G05
G00X144.724Y-52.701
M15
G01X146.224Y-52.701
M16
G05
G00X148.454Y-44.051
M15
G01X149.254Y-44.051
M16
G05
G00X148.454Y-52.701
M15
G01X149.254Y-52.701
M16
G05
M30
