%TF.GenerationSoftware,KiCad,Pcbnew,9.0.8+1*%
%TF.CreationDate,2026-06-28T23:20:35-06:00*%
%TF.ProjectId,Tip_Etcher_Rev_2,5469705f-4574-4636-9865-725f5265765f,rev?*%
%TF.SameCoordinates,Original*%
%TF.FileFunction,Paste,Top*%
%TF.FilePolarity,Positive*%
%FSLAX46Y46*%
G04 Gerber Fmt 4.6, Leading zero omitted, Abs format (unit mm)*
G04 Created by KiCad (PCBNEW 9.0.8+1) date 2026-06-28 23:20:35*
%MOMM*%
%LPD*%
G01*
G04 APERTURE LIST*
G04 Aperture macros list*
%AMRoundRect*
0 Rectangle with rounded corners*
0 $1 Rounding radius*
0 $2 $3 $4 $5 $6 $7 $8 $9 X,Y pos of 4 corners*
0 Add a 4 corners polygon primitive as box body*
4,1,4,$2,$3,$4,$5,$6,$7,$8,$9,$2,$3,0*
0 Add four circle primitives for the rounded corners*
1,1,$1+$1,$2,$3*
1,1,$1+$1,$4,$5*
1,1,$1+$1,$6,$7*
1,1,$1+$1,$8,$9*
0 Add four rect primitives between the rounded corners*
20,1,$1+$1,$2,$3,$4,$5,0*
20,1,$1+$1,$4,$5,$6,$7,0*
20,1,$1+$1,$6,$7,$8,$9,0*
20,1,$1+$1,$8,$9,$2,$3,0*%
G04 Aperture macros list end*
%ADD10C,0.100000*%
%ADD11RoundRect,0.200000X0.200000X0.275000X-0.200000X0.275000X-0.200000X-0.275000X0.200000X-0.275000X0*%
%ADD12RoundRect,0.225000X0.250000X-0.225000X0.250000X0.225000X-0.250000X0.225000X-0.250000X-0.225000X0*%
%ADD13R,0.990600X0.889000*%
%ADD14R,0.550000X1.700000*%
%ADD15RoundRect,0.150000X0.200000X-0.150000X0.200000X0.150000X-0.200000X0.150000X-0.200000X-0.150000X0*%
%ADD16RoundRect,0.150000X0.825000X0.150000X-0.825000X0.150000X-0.825000X-0.150000X0.825000X-0.150000X0*%
%ADD17RoundRect,0.225000X0.225000X0.250000X-0.225000X0.250000X-0.225000X-0.250000X0.225000X-0.250000X0*%
%ADD18RoundRect,0.225000X-0.250000X0.225000X-0.250000X-0.225000X0.250000X-0.225000X0.250000X0.225000X0*%
%ADD19RoundRect,0.225000X-0.225000X-0.250000X0.225000X-0.250000X0.225000X0.250000X-0.225000X0.250000X0*%
%ADD20RoundRect,0.200000X-0.200000X-0.275000X0.200000X-0.275000X0.200000X0.275000X-0.200000X0.275000X0*%
%ADD21RoundRect,0.200000X-0.275000X0.200000X-0.275000X-0.200000X0.275000X-0.200000X0.275000X0.200000X0*%
%ADD22RoundRect,0.243750X0.243750X0.456250X-0.243750X0.456250X-0.243750X-0.456250X0.243750X-0.456250X0*%
%ADD23RoundRect,0.250000X1.075000X0.550000X-1.075000X0.550000X-1.075000X-0.550000X1.075000X-0.550000X0*%
%ADD24R,0.660400X2.108200*%
%ADD25RoundRect,0.243750X-0.456250X0.243750X-0.456250X-0.243750X0.456250X-0.243750X0.456250X0.243750X0*%
%ADD26RoundRect,0.250000X2.025000X2.375000X-2.025000X2.375000X-2.025000X-2.375000X2.025000X-2.375000X0*%
%ADD27RoundRect,0.200000X2.100000X0.200000X-2.100000X0.200000X-2.100000X-0.200000X2.100000X-0.200000X0*%
%ADD28R,0.800000X0.800000*%
%ADD29R,1.100000X0.500000*%
%ADD30RoundRect,0.250000X1.000000X-0.375000X1.000000X0.375000X-1.000000X0.375000X-1.000000X-0.375000X0*%
%ADD31RoundRect,0.150000X0.150000X-0.825000X0.150000X0.825000X-0.150000X0.825000X-0.150000X-0.825000X0*%
%ADD32RoundRect,0.250000X0.312500X1.450000X-0.312500X1.450000X-0.312500X-1.450000X0.312500X-1.450000X0*%
%ADD33RoundRect,0.150000X-0.825000X-0.150000X0.825000X-0.150000X0.825000X0.150000X-0.825000X0.150000X0*%
%ADD34RoundRect,0.250000X0.550000X-1.412500X0.550000X1.412500X-0.550000X1.412500X-0.550000X-1.412500X0*%
%ADD35RoundRect,0.200000X0.275000X-0.200000X0.275000X0.200000X-0.275000X0.200000X-0.275000X-0.200000X0*%
G04 APERTURE END LIST*
%TO.C,U2*%
D10*
X121525000Y-102925000D02*
X121675000Y-102925000D01*
X121675000Y-103075000D01*
X121525000Y-103075000D01*
X121525000Y-102925000D01*
G36*
X121525000Y-102925000D02*
G01*
X121675000Y-102925000D01*
X121675000Y-103075000D01*
X121525000Y-103075000D01*
X121525000Y-102925000D01*
G37*
X121525000Y-103325000D02*
X121675000Y-103325000D01*
X121675000Y-103475000D01*
X121525000Y-103475000D01*
X121525000Y-103325000D01*
G36*
X121525000Y-103325000D02*
G01*
X121675000Y-103325000D01*
X121675000Y-103475000D01*
X121525000Y-103475000D01*
X121525000Y-103325000D01*
G37*
X121525000Y-103725000D02*
X121675000Y-103725000D01*
X121675000Y-103875000D01*
X121525000Y-103875000D01*
X121525000Y-103725000D01*
G36*
X121525000Y-103725000D02*
G01*
X121675000Y-103725000D01*
X121675000Y-103875000D01*
X121525000Y-103875000D01*
X121525000Y-103725000D01*
G37*
X121925000Y-102925000D02*
X122075000Y-102925000D01*
X122075000Y-103075000D01*
X121925000Y-103075000D01*
X121925000Y-102925000D01*
G36*
X121925000Y-102925000D02*
G01*
X122075000Y-102925000D01*
X122075000Y-103075000D01*
X121925000Y-103075000D01*
X121925000Y-102925000D01*
G37*
X121925000Y-103325000D02*
X122075000Y-103325000D01*
X122075000Y-103475000D01*
X121925000Y-103475000D01*
X121925000Y-103325000D01*
G36*
X121925000Y-103325000D02*
G01*
X122075000Y-103325000D01*
X122075000Y-103475000D01*
X121925000Y-103475000D01*
X121925000Y-103325000D01*
G37*
X121925000Y-103725000D02*
X122075000Y-103725000D01*
X122075000Y-103875000D01*
X121925000Y-103875000D01*
X121925000Y-103725000D01*
G36*
X121925000Y-103725000D02*
G01*
X122075000Y-103725000D01*
X122075000Y-103875000D01*
X121925000Y-103875000D01*
X121925000Y-103725000D01*
G37*
%TO.C,U6*%
X121525000Y-94925000D02*
X121675000Y-94925000D01*
X121675000Y-95075000D01*
X121525000Y-95075000D01*
X121525000Y-94925000D01*
G36*
X121525000Y-94925000D02*
G01*
X121675000Y-94925000D01*
X121675000Y-95075000D01*
X121525000Y-95075000D01*
X121525000Y-94925000D01*
G37*
X121525000Y-95325000D02*
X121675000Y-95325000D01*
X121675000Y-95475000D01*
X121525000Y-95475000D01*
X121525000Y-95325000D01*
G36*
X121525000Y-95325000D02*
G01*
X121675000Y-95325000D01*
X121675000Y-95475000D01*
X121525000Y-95475000D01*
X121525000Y-95325000D01*
G37*
X121525000Y-95725000D02*
X121675000Y-95725000D01*
X121675000Y-95875000D01*
X121525000Y-95875000D01*
X121525000Y-95725000D01*
G36*
X121525000Y-95725000D02*
G01*
X121675000Y-95725000D01*
X121675000Y-95875000D01*
X121525000Y-95875000D01*
X121525000Y-95725000D01*
G37*
X121925000Y-94925000D02*
X122075000Y-94925000D01*
X122075000Y-95075000D01*
X121925000Y-95075000D01*
X121925000Y-94925000D01*
G36*
X121925000Y-94925000D02*
G01*
X122075000Y-94925000D01*
X122075000Y-95075000D01*
X121925000Y-95075000D01*
X121925000Y-94925000D01*
G37*
X121925000Y-95325000D02*
X122075000Y-95325000D01*
X122075000Y-95475000D01*
X121925000Y-95475000D01*
X121925000Y-95325000D01*
G36*
X121925000Y-95325000D02*
G01*
X122075000Y-95325000D01*
X122075000Y-95475000D01*
X121925000Y-95475000D01*
X121925000Y-95325000D01*
G37*
X121925000Y-95725000D02*
X122075000Y-95725000D01*
X122075000Y-95875000D01*
X121925000Y-95875000D01*
X121925000Y-95725000D01*
G36*
X121925000Y-95725000D02*
G01*
X122075000Y-95725000D01*
X122075000Y-95875000D01*
X121925000Y-95875000D01*
X121925000Y-95725000D01*
G37*
%TD*%
D11*
%TO.C,R5*%
X128650000Y-96510000D03*
X127000000Y-96510000D03*
%TD*%
D12*
%TO.C,C1*%
X91490000Y-91500000D03*
X91490000Y-89950000D03*
%TD*%
D13*
%TO.C,SW5*%
X144150001Y-65924998D03*
X142549999Y-65924998D03*
X142549999Y-61825002D03*
X144150001Y-61825002D03*
D14*
X144775001Y-63875000D03*
%TD*%
D15*
%TO.C,D2*%
X138550000Y-50100000D03*
X138550000Y-51500000D03*
%TD*%
D16*
%TO.C,U12*%
X77950000Y-52500000D03*
X77950000Y-51230000D03*
X77950000Y-49960000D03*
X77950000Y-48690000D03*
X73000000Y-48690000D03*
X73000000Y-49960000D03*
X73000000Y-51230000D03*
X73000000Y-52500000D03*
%TD*%
D17*
%TO.C,C23*%
X105000000Y-105500000D03*
X103450000Y-105500000D03*
%TD*%
D12*
%TO.C,C21*%
X76500000Y-107250000D03*
X76500000Y-105700000D03*
%TD*%
D18*
%TO.C,C19*%
X121000000Y-106450000D03*
X121000000Y-108000000D03*
%TD*%
D19*
%TO.C,C11*%
X115500000Y-102000000D03*
X117050000Y-102000000D03*
%TD*%
D12*
%TO.C,C8*%
X78990000Y-95540000D03*
X78990000Y-93990000D03*
%TD*%
D20*
%TO.C,R4*%
X126950000Y-94000000D03*
X128600000Y-94000000D03*
%TD*%
D21*
%TO.C,R3*%
X136500000Y-87850000D03*
X136500000Y-89500000D03*
%TD*%
D12*
%TO.C,C7*%
X74000000Y-95550000D03*
X74000000Y-94000000D03*
%TD*%
D22*
%TO.C,D3*%
X100437500Y-80000000D03*
X98562500Y-80000000D03*
%TD*%
D12*
%TO.C,C29*%
X70500000Y-52550000D03*
X70500000Y-51000000D03*
%TD*%
D23*
%TO.C,C13*%
X137850000Y-77000000D03*
X134500000Y-77000000D03*
%TD*%
D24*
%TO.C,J1*%
X95300000Y-72299999D03*
X95699999Y-64200000D03*
X96100001Y-72299999D03*
X96500000Y-64200000D03*
X96899999Y-72299999D03*
X97300001Y-64200000D03*
X97700000Y-72299999D03*
X98099999Y-64200000D03*
X98499998Y-72299999D03*
X98900000Y-64200000D03*
X99299999Y-72299999D03*
X99699999Y-64200000D03*
X100100000Y-72299999D03*
X100500000Y-64200000D03*
X100899999Y-72299999D03*
X101300000Y-64200000D03*
X104899998Y-72299999D03*
X105300000Y-64200000D03*
X105699999Y-72299999D03*
X106099998Y-64200000D03*
X106500000Y-72299999D03*
X106899999Y-64200000D03*
X107299999Y-72299999D03*
X107699998Y-64200000D03*
X108100000Y-72299999D03*
X108499999Y-64200000D03*
X108899998Y-72299999D03*
X109300000Y-64200000D03*
X109699999Y-72299999D03*
X110099998Y-64200000D03*
X110499997Y-72299999D03*
X110899999Y-64200000D03*
X111299998Y-72299999D03*
X111699997Y-64200000D03*
X112099999Y-72299999D03*
X112499998Y-64200000D03*
X112899998Y-72299999D03*
X113299999Y-64200000D03*
X113699998Y-72299999D03*
X114099998Y-64200000D03*
X114499997Y-72299999D03*
X114899999Y-64200000D03*
X115299998Y-72299999D03*
X115699997Y-64200000D03*
X116099999Y-72299999D03*
X116499998Y-64200000D03*
X116899997Y-72299999D03*
X117299999Y-64200000D03*
X117699998Y-72299999D03*
X118099997Y-64200000D03*
X118499997Y-72299999D03*
X118899998Y-64200000D03*
%TD*%
D25*
%TO.C,D5*%
X77000000Y-42625000D03*
X77000000Y-44500000D03*
%TD*%
D20*
%TO.C,R10*%
X98562500Y-78000000D03*
X100212500Y-78000000D03*
%TD*%
D11*
%TO.C,R12*%
X68875000Y-107500000D03*
X67225000Y-107500000D03*
%TD*%
D12*
%TO.C,C27*%
X70500000Y-61275000D03*
X70500000Y-59725000D03*
%TD*%
D17*
%TO.C,C24*%
X105000000Y-102990000D03*
X103450000Y-102990000D03*
%TD*%
D12*
%TO.C,C25*%
X70500000Y-77775000D03*
X70500000Y-76225000D03*
%TD*%
%TO.C,C10*%
X92500000Y-103000000D03*
X92500000Y-101450000D03*
%TD*%
D26*
%TO.C,U1*%
X124925000Y-86775000D03*
X124925000Y-81225000D03*
X120075000Y-86775000D03*
X120075000Y-81225000D03*
D27*
X131650000Y-87810000D03*
X131650000Y-86540000D03*
X131650000Y-85270000D03*
X131650000Y-84000000D03*
X131650000Y-82730000D03*
X131650000Y-81460000D03*
X131650000Y-80190000D03*
%TD*%
D19*
%TO.C,C14*%
X135500000Y-81500000D03*
X137050000Y-81500000D03*
%TD*%
D12*
%TO.C,C4*%
X100000000Y-91550000D03*
X100000000Y-90000000D03*
%TD*%
%TO.C,C5*%
X71980000Y-95550000D03*
X71980000Y-94000000D03*
%TD*%
D23*
%TO.C,C16*%
X114350000Y-79500000D03*
X111000000Y-79500000D03*
%TD*%
D12*
%TO.C,C3*%
X97490000Y-91550000D03*
X97490000Y-90000000D03*
%TD*%
D18*
%TO.C,C15*%
X139500000Y-80500000D03*
X139500000Y-82050000D03*
%TD*%
D28*
%TO.C,U4*%
X136500000Y-104500000D03*
X136500000Y-103500000D03*
X135500000Y-104500000D03*
X135500000Y-103500000D03*
D29*
X138900000Y-105905000D03*
X138900000Y-104635000D03*
X138900000Y-103365000D03*
X138900000Y-102095000D03*
X133100000Y-102095000D03*
X133100000Y-103365000D03*
X133100000Y-104635000D03*
X133100000Y-105905000D03*
%TD*%
D25*
%TO.C,D4*%
X80500000Y-42625000D03*
X80500000Y-44500000D03*
%TD*%
D30*
%TO.C,SW2*%
X107250000Y-90500000D03*
X107250000Y-88000000D03*
X107250000Y-85500000D03*
%TD*%
D31*
%TO.C,U7*%
X73845000Y-102880000D03*
X75115000Y-102880000D03*
X76385000Y-102880000D03*
X77655000Y-102880000D03*
X77655000Y-97930000D03*
X76385000Y-97930000D03*
X75115000Y-97930000D03*
X73845000Y-97930000D03*
%TD*%
D32*
%TO.C,R1*%
X97500000Y-106000000D03*
X93225000Y-106000000D03*
%TD*%
D16*
%TO.C,U13*%
X77950000Y-80040000D03*
X77950000Y-78770000D03*
X77950000Y-77500000D03*
X77950000Y-76230000D03*
X73000000Y-76230000D03*
X73000000Y-77500000D03*
X73000000Y-78770000D03*
X73000000Y-80040000D03*
%TD*%
D33*
%TO.C,U5*%
X108025000Y-95690000D03*
X108025000Y-96960000D03*
X108025000Y-98230000D03*
X108025000Y-99500000D03*
X108025000Y-100770000D03*
X108025000Y-102040000D03*
X108025000Y-103310000D03*
X112975000Y-103310000D03*
X112975000Y-102040000D03*
X112975000Y-100770000D03*
X112975000Y-99500000D03*
X112975000Y-98230000D03*
X112975000Y-96960000D03*
X112975000Y-95690000D03*
%TD*%
D13*
%TO.C,SW4*%
X131849999Y-61825002D03*
X133450001Y-61825002D03*
X133450001Y-65924998D03*
X131849999Y-65924998D03*
D14*
X131224999Y-63875000D03*
%TD*%
D20*
%TO.C,R6*%
X126950000Y-102290000D03*
X128600000Y-102290000D03*
%TD*%
D11*
%TO.C,R8*%
X133800000Y-68875000D03*
X132150000Y-68875000D03*
%TD*%
D16*
%TO.C,U10*%
X77950000Y-70770000D03*
X77950000Y-69500000D03*
X77950000Y-68230000D03*
X77950000Y-66960000D03*
X73000000Y-66960000D03*
X73000000Y-68230000D03*
X73000000Y-69500000D03*
X73000000Y-70770000D03*
%TD*%
D19*
%TO.C,C17*%
X114000000Y-83500000D03*
X115550000Y-83500000D03*
%TD*%
D12*
%TO.C,C12*%
X73800000Y-107250000D03*
X73800000Y-105700000D03*
%TD*%
%TO.C,C31*%
X70500000Y-70775000D03*
X70500000Y-69225000D03*
%TD*%
D11*
%TO.C,R7*%
X128650000Y-105000000D03*
X127000000Y-105000000D03*
%TD*%
D15*
%TO.C,D1*%
X141000000Y-50100000D03*
X141000000Y-51500000D03*
%TD*%
D16*
%TO.C,U9*%
X77950000Y-61500000D03*
X77950000Y-60230000D03*
X77950000Y-58960000D03*
X77950000Y-57690000D03*
X73000000Y-57690000D03*
X73000000Y-58960000D03*
X73000000Y-60230000D03*
X73000000Y-61500000D03*
%TD*%
D18*
%TO.C,C20*%
X121000000Y-98450000D03*
X121000000Y-100000000D03*
%TD*%
D20*
%TO.C,R14*%
X83675000Y-43500000D03*
X85325000Y-43500000D03*
%TD*%
D34*
%TO.C,C33*%
X67640000Y-47095000D03*
X67640000Y-42020000D03*
%TD*%
D25*
%TO.C,D6*%
X73500000Y-42625000D03*
X73500000Y-44500000D03*
%TD*%
D20*
%TO.C,R15*%
X83675000Y-46500000D03*
X85325000Y-46500000D03*
%TD*%
%TO.C,R11*%
X87075000Y-105000000D03*
X88725000Y-105000000D03*
%TD*%
D12*
%TO.C,C26*%
X80500000Y-80000000D03*
X80500000Y-78450000D03*
%TD*%
D11*
%TO.C,R9*%
X143650000Y-59000000D03*
X142000000Y-59000000D03*
%TD*%
D34*
%TO.C,C34*%
X66000000Y-71575000D03*
X66000000Y-66500000D03*
%TD*%
D31*
%TO.C,U8*%
X93320000Y-98975000D03*
X94590000Y-98975000D03*
X95860000Y-98975000D03*
X97130000Y-98975000D03*
X97130000Y-94025000D03*
X95860000Y-94025000D03*
X94590000Y-94025000D03*
X93320000Y-94025000D03*
%TD*%
D12*
%TO.C,C30*%
X80500000Y-52550000D03*
X80500000Y-51000000D03*
%TD*%
D20*
%TO.C,R13*%
X83675000Y-40500000D03*
X85325000Y-40500000D03*
%TD*%
D12*
%TO.C,C2*%
X94000000Y-91500000D03*
X94000000Y-89950000D03*
%TD*%
D35*
%TO.C,R2*%
X136500000Y-86500000D03*
X136500000Y-84850000D03*
%TD*%
D18*
%TO.C,C35*%
X122990000Y-98400000D03*
X122990000Y-99950000D03*
%TD*%
D19*
%TO.C,C22*%
X115500000Y-104500000D03*
X117050000Y-104500000D03*
%TD*%
D12*
%TO.C,C6*%
X81040000Y-95550000D03*
X81040000Y-94000000D03*
%TD*%
%TO.C,C32*%
X80500000Y-70500000D03*
X80500000Y-68950000D03*
%TD*%
%TO.C,C28*%
X80500000Y-61275000D03*
X80500000Y-59725000D03*
%TD*%
%TO.C,C9*%
X94500000Y-103050000D03*
X94500000Y-101500000D03*
%TD*%
D18*
%TO.C,C18*%
X123010000Y-106450000D03*
X123010000Y-108000000D03*
%TD*%
D28*
%TO.C,U3*%
X135500000Y-94500000D03*
X135500000Y-95500000D03*
X136500000Y-94500000D03*
X136500000Y-95500000D03*
D29*
X133100000Y-93095000D03*
X133100000Y-94365000D03*
X133100000Y-95635000D03*
X133100000Y-96905000D03*
X138900000Y-96905000D03*
X138900000Y-95635000D03*
X138900000Y-94365000D03*
X138900000Y-93095000D03*
%TD*%
M02*
