%TF.GenerationSoftware,KiCad,Pcbnew,9.0.8+1*%
%TF.CreationDate,2026-09-14T00:24:06-06:00*%
%TF.ProjectId,Tip_Etcher_Rev_2,5469705f-4574-4636-9865-725f5265765f,rev?*%
%TF.SameCoordinates,Original*%
%TF.FileFunction,Legend,Top*%
%TF.FilePolarity,Positive*%
%FSLAX46Y46*%
G04 Gerber Fmt 4.6, Leading zero omitted, Abs format (unit mm)*
G04 Created by KiCad (PCBNEW 9.0.8+1) date 2026-09-14 00:24:06*
%MOMM*%
%LPD*%
G01*
G04 APERTURE LIST*
G04 Aperture macros list*
%AMRoundRect*
0 Rectangle with rounded corners*
0 $1 Rounding radius*
0 $2 $3 $4 $5 $6 $7 $8 $9 X,Y pos of 4 corners*
0 Add a 4 corners polygon primitive as box body*
4,1,4,$2,$3,$4,$5,$6,$7,$8,$9,$2,$3,0*
0 Add four circle primitives for the rounded corners*
1,1,$1+$1,$2,$3*
1,1,$1+$1,$4,$5*
1,1,$1+$1,$6,$7*
1,1,$1+$1,$8,$9*
0 Add four rect primitives between the rounded corners*
20,1,$1+$1,$2,$3,$4,$5,0*
20,1,$1+$1,$4,$5,$6,$7,0*
20,1,$1+$1,$6,$7,$8,$9,0*
20,1,$1+$1,$8,$9,$2,$3,0*%
G04 Aperture macros list end*
%ADD10C,0.100000*%
%ADD11C,0.150000*%
%ADD12C,0.120000*%
%ADD13C,0.127000*%
%ADD14C,0.200000*%
%ADD15RoundRect,0.225000X0.250000X-0.225000X0.250000X0.225000X-0.250000X0.225000X-0.250000X-0.225000X0*%
%ADD16RoundRect,0.225000X-0.225000X-0.250000X0.225000X-0.250000X0.225000X0.250000X-0.225000X0.250000X0*%
%ADD17R,1.600000X1.600000*%
%ADD18O,1.600000X1.600000*%
%ADD19RoundRect,0.150000X0.825000X0.150000X-0.825000X0.150000X-0.825000X-0.150000X0.825000X-0.150000X0*%
%ADD20RoundRect,0.225000X0.225000X0.250000X-0.225000X0.250000X-0.225000X-0.250000X0.225000X-0.250000X0*%
%ADD21RoundRect,0.150000X-0.150000X0.825000X-0.150000X-0.825000X0.150000X-0.825000X0.150000X0.825000X0*%
%ADD22R,3.000000X2.290000*%
%ADD23RoundRect,0.200000X0.275000X-0.200000X0.275000X0.200000X-0.275000X0.200000X-0.275000X-0.200000X0*%
%ADD24RoundRect,0.250000X0.650000X-0.412500X0.650000X0.412500X-0.650000X0.412500X-0.650000X-0.412500X0*%
%ADD25RoundRect,0.200000X-0.275000X0.200000X-0.275000X-0.200000X0.275000X-0.200000X0.275000X0.200000X0*%
%ADD26RoundRect,0.150000X-0.587500X-0.150000X0.587500X-0.150000X0.587500X0.150000X-0.587500X0.150000X0*%
%ADD27C,4.700000*%
%ADD28C,7.000000*%
%ADD29RoundRect,0.250001X0.924999X0.499999X-0.924999X0.499999X-0.924999X-0.499999X0.924999X-0.499999X0*%
%ADD30RoundRect,0.243750X-0.456250X0.243750X-0.456250X-0.243750X0.456250X-0.243750X0.456250X0.243750X0*%
%ADD31RoundRect,0.200000X0.200000X0.275000X-0.200000X0.275000X-0.200000X-0.275000X0.200000X-0.275000X0*%
%ADD32C,1.440000*%
%ADD33RoundRect,0.250000X0.412500X0.650000X-0.412500X0.650000X-0.412500X-0.650000X0.412500X-0.650000X0*%
%ADD34RoundRect,0.250000X-1.050000X1.050000X-1.050000X-1.050000X1.050000X-1.050000X1.050000X1.050000X0*%
%ADD35C,2.600000*%
%ADD36RoundRect,0.200000X2.100000X0.200000X-2.100000X0.200000X-2.100000X-0.200000X2.100000X-0.200000X0*%
%ADD37RoundRect,0.250002X4.449998X5.149998X-4.449998X5.149998X-4.449998X-5.149998X4.449998X-5.149998X0*%
%ADD38R,1.500000X1.000000*%
%ADD39C,1.000000*%
%ADD40RoundRect,0.225000X-0.250000X0.225000X-0.250000X-0.225000X0.250000X-0.225000X0.250000X0.225000X0*%
%ADD41C,0.900000*%
%ADD42RoundRect,0.250000X1.000000X-0.375000X1.000000X0.375000X-1.000000X0.375000X-1.000000X-0.375000X0*%
%ADD43RoundRect,0.150000X0.150000X-0.825000X0.150000X0.825000X-0.150000X0.825000X-0.150000X-0.825000X0*%
%ADD44RoundRect,0.250000X0.312500X1.450000X-0.312500X1.450000X-0.312500X-1.450000X0.312500X-1.450000X0*%
%ADD45RoundRect,0.200000X-0.200000X-0.275000X0.200000X-0.275000X0.200000X0.275000X-0.200000X0.275000X0*%
%ADD46RoundRect,0.150000X-0.825000X-0.150000X0.825000X-0.150000X0.825000X0.150000X-0.825000X0.150000X0*%
%ADD47RoundRect,0.102000X-0.699000X-0.699000X0.699000X-0.699000X0.699000X0.699000X-0.699000X0.699000X0*%
%ADD48C,1.602000*%
%ADD49C,3.204000*%
%ADD50RoundRect,0.250001X0.499999X-0.924999X0.499999X0.924999X-0.499999X0.924999X-0.499999X-0.924999X0*%
%ADD51RoundRect,0.250000X-0.412500X-0.650000X0.412500X-0.650000X0.412500X0.650000X-0.412500X0.650000X0*%
%ADD52RoundRect,0.150000X0.587500X0.150000X-0.587500X0.150000X-0.587500X-0.150000X0.587500X-0.150000X0*%
G04 APERTURE END LIST*
D10*
X82000000Y-34000000D02*
X93000000Y-34000000D01*
X93000000Y-35000000D01*
X82000000Y-35000000D01*
X82000000Y-34000000D01*
X58803884Y-47491466D02*
X59565789Y-47491466D01*
X59184836Y-47872419D02*
X59184836Y-47110514D01*
X60565788Y-47872419D02*
X59994360Y-47872419D01*
X60280074Y-47872419D02*
X60280074Y-46872419D01*
X60280074Y-46872419D02*
X60184836Y-47015276D01*
X60184836Y-47015276D02*
X60089598Y-47110514D01*
X60089598Y-47110514D02*
X59994360Y-47158133D01*
X60946741Y-46967657D02*
X60994360Y-46920038D01*
X60994360Y-46920038D02*
X61089598Y-46872419D01*
X61089598Y-46872419D02*
X61327693Y-46872419D01*
X61327693Y-46872419D02*
X61422931Y-46920038D01*
X61422931Y-46920038D02*
X61470550Y-46967657D01*
X61470550Y-46967657D02*
X61518169Y-47062895D01*
X61518169Y-47062895D02*
X61518169Y-47158133D01*
X61518169Y-47158133D02*
X61470550Y-47300990D01*
X61470550Y-47300990D02*
X60899122Y-47872419D01*
X60899122Y-47872419D02*
X61518169Y-47872419D01*
X61803884Y-46872419D02*
X62137217Y-47872419D01*
X62137217Y-47872419D02*
X62470550Y-46872419D01*
X58803884Y-64991466D02*
X59565789Y-64991466D01*
X60565788Y-65372419D02*
X59994360Y-65372419D01*
X60280074Y-65372419D02*
X60280074Y-64372419D01*
X60280074Y-64372419D02*
X60184836Y-64515276D01*
X60184836Y-64515276D02*
X60089598Y-64610514D01*
X60089598Y-64610514D02*
X59994360Y-64658133D01*
X60946741Y-64467657D02*
X60994360Y-64420038D01*
X60994360Y-64420038D02*
X61089598Y-64372419D01*
X61089598Y-64372419D02*
X61327693Y-64372419D01*
X61327693Y-64372419D02*
X61422931Y-64420038D01*
X61422931Y-64420038D02*
X61470550Y-64467657D01*
X61470550Y-64467657D02*
X61518169Y-64562895D01*
X61518169Y-64562895D02*
X61518169Y-64658133D01*
X61518169Y-64658133D02*
X61470550Y-64800990D01*
X61470550Y-64800990D02*
X60899122Y-65372419D01*
X60899122Y-65372419D02*
X61518169Y-65372419D01*
X61803884Y-64372419D02*
X62137217Y-65372419D01*
X62137217Y-65372419D02*
X62470550Y-64372419D01*
X67825312Y-33372475D02*
X67491979Y-32896284D01*
X67253884Y-33372475D02*
X67253884Y-32372475D01*
X67253884Y-32372475D02*
X67634836Y-32372475D01*
X67634836Y-32372475D02*
X67730074Y-32420094D01*
X67730074Y-32420094D02*
X67777693Y-32467713D01*
X67777693Y-32467713D02*
X67825312Y-32562951D01*
X67825312Y-32562951D02*
X67825312Y-32705808D01*
X67825312Y-32705808D02*
X67777693Y-32801046D01*
X67777693Y-32801046D02*
X67730074Y-32848665D01*
X67730074Y-32848665D02*
X67634836Y-32896284D01*
X67634836Y-32896284D02*
X67253884Y-32896284D01*
X68682455Y-33372475D02*
X68682455Y-32848665D01*
X68682455Y-32848665D02*
X68634836Y-32753427D01*
X68634836Y-32753427D02*
X68539598Y-32705808D01*
X68539598Y-32705808D02*
X68349122Y-32705808D01*
X68349122Y-32705808D02*
X68253884Y-32753427D01*
X68682455Y-33324856D02*
X68587217Y-33372475D01*
X68587217Y-33372475D02*
X68349122Y-33372475D01*
X68349122Y-33372475D02*
X68253884Y-33324856D01*
X68253884Y-33324856D02*
X68206265Y-33229617D01*
X68206265Y-33229617D02*
X68206265Y-33134379D01*
X68206265Y-33134379D02*
X68253884Y-33039141D01*
X68253884Y-33039141D02*
X68349122Y-32991522D01*
X68349122Y-32991522D02*
X68587217Y-32991522D01*
X68587217Y-32991522D02*
X68682455Y-32943903D01*
X69111027Y-33324856D02*
X69206265Y-33372475D01*
X69206265Y-33372475D02*
X69396741Y-33372475D01*
X69396741Y-33372475D02*
X69491979Y-33324856D01*
X69491979Y-33324856D02*
X69539598Y-33229617D01*
X69539598Y-33229617D02*
X69539598Y-33181998D01*
X69539598Y-33181998D02*
X69491979Y-33086760D01*
X69491979Y-33086760D02*
X69396741Y-33039141D01*
X69396741Y-33039141D02*
X69253884Y-33039141D01*
X69253884Y-33039141D02*
X69158646Y-32991522D01*
X69158646Y-32991522D02*
X69111027Y-32896284D01*
X69111027Y-32896284D02*
X69111027Y-32848665D01*
X69111027Y-32848665D02*
X69158646Y-32753427D01*
X69158646Y-32753427D02*
X69253884Y-32705808D01*
X69253884Y-32705808D02*
X69396741Y-32705808D01*
X69396741Y-32705808D02*
X69491979Y-32753427D01*
X70396741Y-33324856D02*
X70301503Y-33372475D01*
X70301503Y-33372475D02*
X70111027Y-33372475D01*
X70111027Y-33372475D02*
X70015789Y-33324856D01*
X70015789Y-33324856D02*
X69968170Y-33277236D01*
X69968170Y-33277236D02*
X69920551Y-33181998D01*
X69920551Y-33181998D02*
X69920551Y-32896284D01*
X69920551Y-32896284D02*
X69968170Y-32801046D01*
X69968170Y-32801046D02*
X70015789Y-32753427D01*
X70015789Y-32753427D02*
X70111027Y-32705808D01*
X70111027Y-32705808D02*
X70301503Y-32705808D01*
X70301503Y-32705808D02*
X70396741Y-32753427D01*
X70825313Y-33372475D02*
X70825313Y-32372475D01*
X71253884Y-33372475D02*
X71253884Y-32848665D01*
X71253884Y-32848665D02*
X71206265Y-32753427D01*
X71206265Y-32753427D02*
X71111027Y-32705808D01*
X71111027Y-32705808D02*
X70968170Y-32705808D01*
X70968170Y-32705808D02*
X70872932Y-32753427D01*
X70872932Y-32753427D02*
X70825313Y-32801046D01*
X71730075Y-33372475D02*
X71730075Y-32372475D01*
X71825313Y-32991522D02*
X72111027Y-33372475D01*
X72111027Y-32705808D02*
X71730075Y-33086760D01*
X72920551Y-33324856D02*
X72825313Y-33372475D01*
X72825313Y-33372475D02*
X72634837Y-33372475D01*
X72634837Y-33372475D02*
X72539599Y-33324856D01*
X72539599Y-33324856D02*
X72491980Y-33229617D01*
X72491980Y-33229617D02*
X72491980Y-32848665D01*
X72491980Y-32848665D02*
X72539599Y-32753427D01*
X72539599Y-32753427D02*
X72634837Y-32705808D01*
X72634837Y-32705808D02*
X72825313Y-32705808D01*
X72825313Y-32705808D02*
X72920551Y-32753427D01*
X72920551Y-32753427D02*
X72968170Y-32848665D01*
X72968170Y-32848665D02*
X72968170Y-32943903D01*
X72968170Y-32943903D02*
X72491980Y-33039141D01*
X74158647Y-33372475D02*
X74158647Y-32372475D01*
X74158647Y-32372475D02*
X74730075Y-33372475D01*
X74730075Y-33372475D02*
X74730075Y-32372475D01*
X75634837Y-33372475D02*
X75634837Y-32848665D01*
X75634837Y-32848665D02*
X75587218Y-32753427D01*
X75587218Y-32753427D02*
X75491980Y-32705808D01*
X75491980Y-32705808D02*
X75301504Y-32705808D01*
X75301504Y-32705808D02*
X75206266Y-32753427D01*
X75634837Y-33324856D02*
X75539599Y-33372475D01*
X75539599Y-33372475D02*
X75301504Y-33372475D01*
X75301504Y-33372475D02*
X75206266Y-33324856D01*
X75206266Y-33324856D02*
X75158647Y-33229617D01*
X75158647Y-33229617D02*
X75158647Y-33134379D01*
X75158647Y-33134379D02*
X75206266Y-33039141D01*
X75206266Y-33039141D02*
X75301504Y-32991522D01*
X75301504Y-32991522D02*
X75539599Y-32991522D01*
X75539599Y-32991522D02*
X75634837Y-32943903D01*
X76111028Y-32705808D02*
X76111028Y-33372475D01*
X76111028Y-32801046D02*
X76158647Y-32753427D01*
X76158647Y-32753427D02*
X76253885Y-32705808D01*
X76253885Y-32705808D02*
X76396742Y-32705808D01*
X76396742Y-32705808D02*
X76491980Y-32753427D01*
X76491980Y-32753427D02*
X76539599Y-32848665D01*
X76539599Y-32848665D02*
X76539599Y-33372475D01*
X77158647Y-33372475D02*
X77063409Y-33324856D01*
X77063409Y-33324856D02*
X77015790Y-33277236D01*
X77015790Y-33277236D02*
X76968171Y-33181998D01*
X76968171Y-33181998D02*
X76968171Y-32896284D01*
X76968171Y-32896284D02*
X77015790Y-32801046D01*
X77015790Y-32801046D02*
X77063409Y-32753427D01*
X77063409Y-32753427D02*
X77158647Y-32705808D01*
X77158647Y-32705808D02*
X77301504Y-32705808D01*
X77301504Y-32705808D02*
X77396742Y-32753427D01*
X77396742Y-32753427D02*
X77444361Y-32801046D01*
X77444361Y-32801046D02*
X77491980Y-32896284D01*
X77491980Y-32896284D02*
X77491980Y-33181998D01*
X77491980Y-33181998D02*
X77444361Y-33277236D01*
X77444361Y-33277236D02*
X77396742Y-33324856D01*
X77396742Y-33324856D02*
X77301504Y-33372475D01*
X77301504Y-33372475D02*
X77158647Y-33372475D01*
X77920552Y-32991522D02*
X78682457Y-32991522D01*
X79349123Y-32372475D02*
X79539599Y-32372475D01*
X79539599Y-32372475D02*
X79634837Y-32420094D01*
X79634837Y-32420094D02*
X79730075Y-32515332D01*
X79730075Y-32515332D02*
X79777694Y-32705808D01*
X79777694Y-32705808D02*
X79777694Y-33039141D01*
X79777694Y-33039141D02*
X79730075Y-33229617D01*
X79730075Y-33229617D02*
X79634837Y-33324856D01*
X79634837Y-33324856D02*
X79539599Y-33372475D01*
X79539599Y-33372475D02*
X79349123Y-33372475D01*
X79349123Y-33372475D02*
X79253885Y-33324856D01*
X79253885Y-33324856D02*
X79158647Y-33229617D01*
X79158647Y-33229617D02*
X79111028Y-33039141D01*
X79111028Y-33039141D02*
X79111028Y-32705808D01*
X79111028Y-32705808D02*
X79158647Y-32515332D01*
X79158647Y-32515332D02*
X79253885Y-32420094D01*
X79253885Y-32420094D02*
X79349123Y-32372475D01*
X80206266Y-32705808D02*
X80206266Y-33705808D01*
X80206266Y-32753427D02*
X80301504Y-32705808D01*
X80301504Y-32705808D02*
X80491980Y-32705808D01*
X80491980Y-32705808D02*
X80587218Y-32753427D01*
X80587218Y-32753427D02*
X80634837Y-32801046D01*
X80634837Y-32801046D02*
X80682456Y-32896284D01*
X80682456Y-32896284D02*
X80682456Y-33181998D01*
X80682456Y-33181998D02*
X80634837Y-33277236D01*
X80634837Y-33277236D02*
X80587218Y-33324856D01*
X80587218Y-33324856D02*
X80491980Y-33372475D01*
X80491980Y-33372475D02*
X80301504Y-33372475D01*
X80301504Y-33372475D02*
X80206266Y-33324856D01*
X80968171Y-32705808D02*
X81349123Y-32705808D01*
X81111028Y-32372475D02*
X81111028Y-33229617D01*
X81111028Y-33229617D02*
X81158647Y-33324856D01*
X81158647Y-33324856D02*
X81253885Y-33372475D01*
X81253885Y-33372475D02*
X81349123Y-33372475D01*
X81682457Y-33372475D02*
X81682457Y-32705808D01*
X81682457Y-32372475D02*
X81634838Y-32420094D01*
X81634838Y-32420094D02*
X81682457Y-32467713D01*
X81682457Y-32467713D02*
X81730076Y-32420094D01*
X81730076Y-32420094D02*
X81682457Y-32372475D01*
X81682457Y-32372475D02*
X81682457Y-32467713D01*
X82587218Y-33324856D02*
X82491980Y-33372475D01*
X82491980Y-33372475D02*
X82301504Y-33372475D01*
X82301504Y-33372475D02*
X82206266Y-33324856D01*
X82206266Y-33324856D02*
X82158647Y-33277236D01*
X82158647Y-33277236D02*
X82111028Y-33181998D01*
X82111028Y-33181998D02*
X82111028Y-32896284D01*
X82111028Y-32896284D02*
X82158647Y-32801046D01*
X82158647Y-32801046D02*
X82206266Y-32753427D01*
X82206266Y-32753427D02*
X82301504Y-32705808D01*
X82301504Y-32705808D02*
X82491980Y-32705808D01*
X82491980Y-32705808D02*
X82587218Y-32753427D01*
X82968171Y-33324856D02*
X83063409Y-33372475D01*
X83063409Y-33372475D02*
X83253885Y-33372475D01*
X83253885Y-33372475D02*
X83349123Y-33324856D01*
X83349123Y-33324856D02*
X83396742Y-33229617D01*
X83396742Y-33229617D02*
X83396742Y-33181998D01*
X83396742Y-33181998D02*
X83349123Y-33086760D01*
X83349123Y-33086760D02*
X83253885Y-33039141D01*
X83253885Y-33039141D02*
X83111028Y-33039141D01*
X83111028Y-33039141D02*
X83015790Y-32991522D01*
X83015790Y-32991522D02*
X82968171Y-32896284D01*
X82968171Y-32896284D02*
X82968171Y-32848665D01*
X82968171Y-32848665D02*
X83015790Y-32753427D01*
X83015790Y-32753427D02*
X83111028Y-32705808D01*
X83111028Y-32705808D02*
X83253885Y-32705808D01*
X83253885Y-32705808D02*
X83349123Y-32753427D01*
X85111028Y-32420094D02*
X85015790Y-32372475D01*
X85015790Y-32372475D02*
X84872933Y-32372475D01*
X84872933Y-32372475D02*
X84730076Y-32420094D01*
X84730076Y-32420094D02*
X84634838Y-32515332D01*
X84634838Y-32515332D02*
X84587219Y-32610570D01*
X84587219Y-32610570D02*
X84539600Y-32801046D01*
X84539600Y-32801046D02*
X84539600Y-32943903D01*
X84539600Y-32943903D02*
X84587219Y-33134379D01*
X84587219Y-33134379D02*
X84634838Y-33229617D01*
X84634838Y-33229617D02*
X84730076Y-33324856D01*
X84730076Y-33324856D02*
X84872933Y-33372475D01*
X84872933Y-33372475D02*
X84968171Y-33372475D01*
X84968171Y-33372475D02*
X85111028Y-33324856D01*
X85111028Y-33324856D02*
X85158647Y-33277236D01*
X85158647Y-33277236D02*
X85158647Y-32943903D01*
X85158647Y-32943903D02*
X84968171Y-32943903D01*
X85587219Y-33372475D02*
X85587219Y-32705808D01*
X85587219Y-32896284D02*
X85634838Y-32801046D01*
X85634838Y-32801046D02*
X85682457Y-32753427D01*
X85682457Y-32753427D02*
X85777695Y-32705808D01*
X85777695Y-32705808D02*
X85872933Y-32705808D01*
X86349124Y-33372475D02*
X86253886Y-33324856D01*
X86253886Y-33324856D02*
X86206267Y-33277236D01*
X86206267Y-33277236D02*
X86158648Y-33181998D01*
X86158648Y-33181998D02*
X86158648Y-32896284D01*
X86158648Y-32896284D02*
X86206267Y-32801046D01*
X86206267Y-32801046D02*
X86253886Y-32753427D01*
X86253886Y-32753427D02*
X86349124Y-32705808D01*
X86349124Y-32705808D02*
X86491981Y-32705808D01*
X86491981Y-32705808D02*
X86587219Y-32753427D01*
X86587219Y-32753427D02*
X86634838Y-32801046D01*
X86634838Y-32801046D02*
X86682457Y-32896284D01*
X86682457Y-32896284D02*
X86682457Y-33181998D01*
X86682457Y-33181998D02*
X86634838Y-33277236D01*
X86634838Y-33277236D02*
X86587219Y-33324856D01*
X86587219Y-33324856D02*
X86491981Y-33372475D01*
X86491981Y-33372475D02*
X86349124Y-33372475D01*
X87539600Y-32705808D02*
X87539600Y-33372475D01*
X87111029Y-32705808D02*
X87111029Y-33229617D01*
X87111029Y-33229617D02*
X87158648Y-33324856D01*
X87158648Y-33324856D02*
X87253886Y-33372475D01*
X87253886Y-33372475D02*
X87396743Y-33372475D01*
X87396743Y-33372475D02*
X87491981Y-33324856D01*
X87491981Y-33324856D02*
X87539600Y-33277236D01*
X88015791Y-32705808D02*
X88015791Y-33705808D01*
X88015791Y-32753427D02*
X88111029Y-32705808D01*
X88111029Y-32705808D02*
X88301505Y-32705808D01*
X88301505Y-32705808D02*
X88396743Y-32753427D01*
X88396743Y-32753427D02*
X88444362Y-32801046D01*
X88444362Y-32801046D02*
X88491981Y-32896284D01*
X88491981Y-32896284D02*
X88491981Y-33181998D01*
X88491981Y-33181998D02*
X88444362Y-33277236D01*
X88444362Y-33277236D02*
X88396743Y-33324856D01*
X88396743Y-33324856D02*
X88301505Y-33372475D01*
X88301505Y-33372475D02*
X88111029Y-33372475D01*
X88111029Y-33372475D02*
X88015791Y-33324856D01*
X67111027Y-33982419D02*
X67682455Y-33982419D01*
X67396741Y-34982419D02*
X67396741Y-33982419D01*
X68015789Y-34982419D02*
X68015789Y-34315752D01*
X68015789Y-33982419D02*
X67968170Y-34030038D01*
X67968170Y-34030038D02*
X68015789Y-34077657D01*
X68015789Y-34077657D02*
X68063408Y-34030038D01*
X68063408Y-34030038D02*
X68015789Y-33982419D01*
X68015789Y-33982419D02*
X68015789Y-34077657D01*
X68491979Y-34315752D02*
X68491979Y-35315752D01*
X68491979Y-34363371D02*
X68587217Y-34315752D01*
X68587217Y-34315752D02*
X68777693Y-34315752D01*
X68777693Y-34315752D02*
X68872931Y-34363371D01*
X68872931Y-34363371D02*
X68920550Y-34410990D01*
X68920550Y-34410990D02*
X68968169Y-34506228D01*
X68968169Y-34506228D02*
X68968169Y-34791942D01*
X68968169Y-34791942D02*
X68920550Y-34887180D01*
X68920550Y-34887180D02*
X68872931Y-34934800D01*
X68872931Y-34934800D02*
X68777693Y-34982419D01*
X68777693Y-34982419D02*
X68587217Y-34982419D01*
X68587217Y-34982419D02*
X68491979Y-34934800D01*
X70158646Y-34458609D02*
X70491979Y-34458609D01*
X70634836Y-34982419D02*
X70158646Y-34982419D01*
X70158646Y-34982419D02*
X70158646Y-33982419D01*
X70158646Y-33982419D02*
X70634836Y-33982419D01*
X70920551Y-34315752D02*
X71301503Y-34315752D01*
X71063408Y-33982419D02*
X71063408Y-34839561D01*
X71063408Y-34839561D02*
X71111027Y-34934800D01*
X71111027Y-34934800D02*
X71206265Y-34982419D01*
X71206265Y-34982419D02*
X71301503Y-34982419D01*
X72063408Y-34934800D02*
X71968170Y-34982419D01*
X71968170Y-34982419D02*
X71777694Y-34982419D01*
X71777694Y-34982419D02*
X71682456Y-34934800D01*
X71682456Y-34934800D02*
X71634837Y-34887180D01*
X71634837Y-34887180D02*
X71587218Y-34791942D01*
X71587218Y-34791942D02*
X71587218Y-34506228D01*
X71587218Y-34506228D02*
X71634837Y-34410990D01*
X71634837Y-34410990D02*
X71682456Y-34363371D01*
X71682456Y-34363371D02*
X71777694Y-34315752D01*
X71777694Y-34315752D02*
X71968170Y-34315752D01*
X71968170Y-34315752D02*
X72063408Y-34363371D01*
X72491980Y-34982419D02*
X72491980Y-33982419D01*
X72920551Y-34982419D02*
X72920551Y-34458609D01*
X72920551Y-34458609D02*
X72872932Y-34363371D01*
X72872932Y-34363371D02*
X72777694Y-34315752D01*
X72777694Y-34315752D02*
X72634837Y-34315752D01*
X72634837Y-34315752D02*
X72539599Y-34363371D01*
X72539599Y-34363371D02*
X72491980Y-34410990D01*
X73777694Y-34934800D02*
X73682456Y-34982419D01*
X73682456Y-34982419D02*
X73491980Y-34982419D01*
X73491980Y-34982419D02*
X73396742Y-34934800D01*
X73396742Y-34934800D02*
X73349123Y-34839561D01*
X73349123Y-34839561D02*
X73349123Y-34458609D01*
X73349123Y-34458609D02*
X73396742Y-34363371D01*
X73396742Y-34363371D02*
X73491980Y-34315752D01*
X73491980Y-34315752D02*
X73682456Y-34315752D01*
X73682456Y-34315752D02*
X73777694Y-34363371D01*
X73777694Y-34363371D02*
X73825313Y-34458609D01*
X73825313Y-34458609D02*
X73825313Y-34553847D01*
X73825313Y-34553847D02*
X73349123Y-34649085D01*
X74253885Y-34982419D02*
X74253885Y-34315752D01*
X74253885Y-34506228D02*
X74301504Y-34410990D01*
X74301504Y-34410990D02*
X74349123Y-34363371D01*
X74349123Y-34363371D02*
X74444361Y-34315752D01*
X74444361Y-34315752D02*
X74539599Y-34315752D01*
X76206266Y-34982419D02*
X75872933Y-34506228D01*
X75634838Y-34982419D02*
X75634838Y-33982419D01*
X75634838Y-33982419D02*
X76015790Y-33982419D01*
X76015790Y-33982419D02*
X76111028Y-34030038D01*
X76111028Y-34030038D02*
X76158647Y-34077657D01*
X76158647Y-34077657D02*
X76206266Y-34172895D01*
X76206266Y-34172895D02*
X76206266Y-34315752D01*
X76206266Y-34315752D02*
X76158647Y-34410990D01*
X76158647Y-34410990D02*
X76111028Y-34458609D01*
X76111028Y-34458609D02*
X76015790Y-34506228D01*
X76015790Y-34506228D02*
X75634838Y-34506228D01*
X77015790Y-34934800D02*
X76920552Y-34982419D01*
X76920552Y-34982419D02*
X76730076Y-34982419D01*
X76730076Y-34982419D02*
X76634838Y-34934800D01*
X76634838Y-34934800D02*
X76587219Y-34839561D01*
X76587219Y-34839561D02*
X76587219Y-34458609D01*
X76587219Y-34458609D02*
X76634838Y-34363371D01*
X76634838Y-34363371D02*
X76730076Y-34315752D01*
X76730076Y-34315752D02*
X76920552Y-34315752D01*
X76920552Y-34315752D02*
X77015790Y-34363371D01*
X77015790Y-34363371D02*
X77063409Y-34458609D01*
X77063409Y-34458609D02*
X77063409Y-34553847D01*
X77063409Y-34553847D02*
X76587219Y-34649085D01*
X77396743Y-34315752D02*
X77634838Y-34982419D01*
X77634838Y-34982419D02*
X77872933Y-34315752D01*
X78253886Y-34887180D02*
X78301505Y-34934800D01*
X78301505Y-34934800D02*
X78253886Y-34982419D01*
X78253886Y-34982419D02*
X78206267Y-34934800D01*
X78206267Y-34934800D02*
X78253886Y-34887180D01*
X78253886Y-34887180D02*
X78253886Y-34982419D01*
X79396743Y-33982419D02*
X80015790Y-33982419D01*
X80015790Y-33982419D02*
X79682457Y-34363371D01*
X79682457Y-34363371D02*
X79825314Y-34363371D01*
X79825314Y-34363371D02*
X79920552Y-34410990D01*
X79920552Y-34410990D02*
X79968171Y-34458609D01*
X79968171Y-34458609D02*
X80015790Y-34553847D01*
X80015790Y-34553847D02*
X80015790Y-34791942D01*
X80015790Y-34791942D02*
X79968171Y-34887180D01*
X79968171Y-34887180D02*
X79920552Y-34934800D01*
X79920552Y-34934800D02*
X79825314Y-34982419D01*
X79825314Y-34982419D02*
X79539600Y-34982419D01*
X79539600Y-34982419D02*
X79444362Y-34934800D01*
X79444362Y-34934800D02*
X79396743Y-34887180D01*
X71475312Y-110072419D02*
X71141979Y-109596228D01*
X70903884Y-110072419D02*
X70903884Y-109072419D01*
X70903884Y-109072419D02*
X71284836Y-109072419D01*
X71284836Y-109072419D02*
X71380074Y-109120038D01*
X71380074Y-109120038D02*
X71427693Y-109167657D01*
X71427693Y-109167657D02*
X71475312Y-109262895D01*
X71475312Y-109262895D02*
X71475312Y-109405752D01*
X71475312Y-109405752D02*
X71427693Y-109500990D01*
X71427693Y-109500990D02*
X71380074Y-109548609D01*
X71380074Y-109548609D02*
X71284836Y-109596228D01*
X71284836Y-109596228D02*
X70903884Y-109596228D01*
X71903884Y-110072419D02*
X71903884Y-109405752D01*
X71903884Y-109072419D02*
X71856265Y-109120038D01*
X71856265Y-109120038D02*
X71903884Y-109167657D01*
X71903884Y-109167657D02*
X71951503Y-109120038D01*
X71951503Y-109120038D02*
X71903884Y-109072419D01*
X71903884Y-109072419D02*
X71903884Y-109167657D01*
X72380074Y-109405752D02*
X72380074Y-110072419D01*
X72380074Y-109500990D02*
X72427693Y-109453371D01*
X72427693Y-109453371D02*
X72522931Y-109405752D01*
X72522931Y-109405752D02*
X72665788Y-109405752D01*
X72665788Y-109405752D02*
X72761026Y-109453371D01*
X72761026Y-109453371D02*
X72808645Y-109548609D01*
X72808645Y-109548609D02*
X72808645Y-110072419D01*
X73713407Y-109405752D02*
X73713407Y-110215276D01*
X73713407Y-110215276D02*
X73665788Y-110310514D01*
X73665788Y-110310514D02*
X73618169Y-110358133D01*
X73618169Y-110358133D02*
X73522931Y-110405752D01*
X73522931Y-110405752D02*
X73380074Y-110405752D01*
X73380074Y-110405752D02*
X73284836Y-110358133D01*
X73713407Y-110024800D02*
X73618169Y-110072419D01*
X73618169Y-110072419D02*
X73427693Y-110072419D01*
X73427693Y-110072419D02*
X73332455Y-110024800D01*
X73332455Y-110024800D02*
X73284836Y-109977180D01*
X73284836Y-109977180D02*
X73237217Y-109881942D01*
X73237217Y-109881942D02*
X73237217Y-109596228D01*
X73237217Y-109596228D02*
X73284836Y-109500990D01*
X73284836Y-109500990D02*
X73332455Y-109453371D01*
X73332455Y-109453371D02*
X73427693Y-109405752D01*
X73427693Y-109405752D02*
X73618169Y-109405752D01*
X73618169Y-109405752D02*
X73713407Y-109453371D01*
X91461027Y-109172419D02*
X92032455Y-109172419D01*
X91746741Y-110172419D02*
X91746741Y-109172419D01*
X92365789Y-110172419D02*
X92365789Y-109505752D01*
X92365789Y-109172419D02*
X92318170Y-109220038D01*
X92318170Y-109220038D02*
X92365789Y-109267657D01*
X92365789Y-109267657D02*
X92413408Y-109220038D01*
X92413408Y-109220038D02*
X92365789Y-109172419D01*
X92365789Y-109172419D02*
X92365789Y-109267657D01*
X92841979Y-109505752D02*
X92841979Y-110505752D01*
X92841979Y-109553371D02*
X92937217Y-109505752D01*
X92937217Y-109505752D02*
X93127693Y-109505752D01*
X93127693Y-109505752D02*
X93222931Y-109553371D01*
X93222931Y-109553371D02*
X93270550Y-109600990D01*
X93270550Y-109600990D02*
X93318169Y-109696228D01*
X93318169Y-109696228D02*
X93318169Y-109981942D01*
X93318169Y-109981942D02*
X93270550Y-110077180D01*
X93270550Y-110077180D02*
X93222931Y-110124800D01*
X93222931Y-110124800D02*
X93127693Y-110172419D01*
X93127693Y-110172419D02*
X92937217Y-110172419D01*
X92937217Y-110172419D02*
X92841979Y-110124800D01*
X111875312Y-109972419D02*
X111541979Y-109496228D01*
X111303884Y-109972419D02*
X111303884Y-108972419D01*
X111303884Y-108972419D02*
X111684836Y-108972419D01*
X111684836Y-108972419D02*
X111780074Y-109020038D01*
X111780074Y-109020038D02*
X111827693Y-109067657D01*
X111827693Y-109067657D02*
X111875312Y-109162895D01*
X111875312Y-109162895D02*
X111875312Y-109305752D01*
X111875312Y-109305752D02*
X111827693Y-109400990D01*
X111827693Y-109400990D02*
X111780074Y-109448609D01*
X111780074Y-109448609D02*
X111684836Y-109496228D01*
X111684836Y-109496228D02*
X111303884Y-109496228D01*
X112684836Y-109924800D02*
X112589598Y-109972419D01*
X112589598Y-109972419D02*
X112399122Y-109972419D01*
X112399122Y-109972419D02*
X112303884Y-109924800D01*
X112303884Y-109924800D02*
X112256265Y-109829561D01*
X112256265Y-109829561D02*
X112256265Y-109448609D01*
X112256265Y-109448609D02*
X112303884Y-109353371D01*
X112303884Y-109353371D02*
X112399122Y-109305752D01*
X112399122Y-109305752D02*
X112589598Y-109305752D01*
X112589598Y-109305752D02*
X112684836Y-109353371D01*
X112684836Y-109353371D02*
X112732455Y-109448609D01*
X112732455Y-109448609D02*
X112732455Y-109543847D01*
X112732455Y-109543847D02*
X112256265Y-109639085D01*
X113018170Y-109305752D02*
X113399122Y-109305752D01*
X113161027Y-108972419D02*
X113161027Y-109829561D01*
X113161027Y-109829561D02*
X113208646Y-109924800D01*
X113208646Y-109924800D02*
X113303884Y-109972419D01*
X113303884Y-109972419D02*
X113399122Y-109972419D01*
X114161027Y-109305752D02*
X114161027Y-109972419D01*
X113732456Y-109305752D02*
X113732456Y-109829561D01*
X113732456Y-109829561D02*
X113780075Y-109924800D01*
X113780075Y-109924800D02*
X113875313Y-109972419D01*
X113875313Y-109972419D02*
X114018170Y-109972419D01*
X114018170Y-109972419D02*
X114113408Y-109924800D01*
X114113408Y-109924800D02*
X114161027Y-109877180D01*
X114637218Y-109972419D02*
X114637218Y-109305752D01*
X114637218Y-109496228D02*
X114684837Y-109400990D01*
X114684837Y-109400990D02*
X114732456Y-109353371D01*
X114732456Y-109353371D02*
X114827694Y-109305752D01*
X114827694Y-109305752D02*
X114922932Y-109305752D01*
X115256266Y-109305752D02*
X115256266Y-109972419D01*
X115256266Y-109400990D02*
X115303885Y-109353371D01*
X115303885Y-109353371D02*
X115399123Y-109305752D01*
X115399123Y-109305752D02*
X115541980Y-109305752D01*
X115541980Y-109305752D02*
X115637218Y-109353371D01*
X115637218Y-109353371D02*
X115684837Y-109448609D01*
X115684837Y-109448609D02*
X115684837Y-109972419D01*
X131703884Y-109348609D02*
X132037217Y-109348609D01*
X132180074Y-109872419D02*
X131703884Y-109872419D01*
X131703884Y-109872419D02*
X131703884Y-108872419D01*
X131703884Y-108872419D02*
X132180074Y-108872419D01*
X132465789Y-109205752D02*
X132846741Y-109205752D01*
X132608646Y-108872419D02*
X132608646Y-109729561D01*
X132608646Y-109729561D02*
X132656265Y-109824800D01*
X132656265Y-109824800D02*
X132751503Y-109872419D01*
X132751503Y-109872419D02*
X132846741Y-109872419D01*
X133608646Y-109824800D02*
X133513408Y-109872419D01*
X133513408Y-109872419D02*
X133322932Y-109872419D01*
X133322932Y-109872419D02*
X133227694Y-109824800D01*
X133227694Y-109824800D02*
X133180075Y-109777180D01*
X133180075Y-109777180D02*
X133132456Y-109681942D01*
X133132456Y-109681942D02*
X133132456Y-109396228D01*
X133132456Y-109396228D02*
X133180075Y-109300990D01*
X133180075Y-109300990D02*
X133227694Y-109253371D01*
X133227694Y-109253371D02*
X133322932Y-109205752D01*
X133322932Y-109205752D02*
X133513408Y-109205752D01*
X133513408Y-109205752D02*
X133608646Y-109253371D01*
X134037218Y-109872419D02*
X134037218Y-108872419D01*
X134465789Y-109872419D02*
X134465789Y-109348609D01*
X134465789Y-109348609D02*
X134418170Y-109253371D01*
X134418170Y-109253371D02*
X134322932Y-109205752D01*
X134322932Y-109205752D02*
X134180075Y-109205752D01*
X134180075Y-109205752D02*
X134084837Y-109253371D01*
X134084837Y-109253371D02*
X134037218Y-109300990D01*
X135894361Y-108872419D02*
X136084837Y-108872419D01*
X136084837Y-108872419D02*
X136180075Y-108920038D01*
X136180075Y-108920038D02*
X136275313Y-109015276D01*
X136275313Y-109015276D02*
X136322932Y-109205752D01*
X136322932Y-109205752D02*
X136322932Y-109539085D01*
X136322932Y-109539085D02*
X136275313Y-109729561D01*
X136275313Y-109729561D02*
X136180075Y-109824800D01*
X136180075Y-109824800D02*
X136084837Y-109872419D01*
X136084837Y-109872419D02*
X135894361Y-109872419D01*
X135894361Y-109872419D02*
X135799123Y-109824800D01*
X135799123Y-109824800D02*
X135703885Y-109729561D01*
X135703885Y-109729561D02*
X135656266Y-109539085D01*
X135656266Y-109539085D02*
X135656266Y-109205752D01*
X135656266Y-109205752D02*
X135703885Y-109015276D01*
X135703885Y-109015276D02*
X135799123Y-108920038D01*
X135799123Y-108920038D02*
X135894361Y-108872419D01*
X137180075Y-109205752D02*
X137180075Y-109872419D01*
X136751504Y-109205752D02*
X136751504Y-109729561D01*
X136751504Y-109729561D02*
X136799123Y-109824800D01*
X136799123Y-109824800D02*
X136894361Y-109872419D01*
X136894361Y-109872419D02*
X137037218Y-109872419D01*
X137037218Y-109872419D02*
X137132456Y-109824800D01*
X137132456Y-109824800D02*
X137180075Y-109777180D01*
X137513409Y-109205752D02*
X137894361Y-109205752D01*
X137656266Y-108872419D02*
X137656266Y-109729561D01*
X137656266Y-109729561D02*
X137703885Y-109824800D01*
X137703885Y-109824800D02*
X137799123Y-109872419D01*
X137799123Y-109872419D02*
X137894361Y-109872419D01*
X66420038Y-57672306D02*
X66372419Y-57767544D01*
X66372419Y-57767544D02*
X66372419Y-57910401D01*
X66372419Y-57910401D02*
X66420038Y-58053258D01*
X66420038Y-58053258D02*
X66515276Y-58148496D01*
X66515276Y-58148496D02*
X66610514Y-58196115D01*
X66610514Y-58196115D02*
X66800990Y-58243734D01*
X66800990Y-58243734D02*
X66943847Y-58243734D01*
X66943847Y-58243734D02*
X67134323Y-58196115D01*
X67134323Y-58196115D02*
X67229561Y-58148496D01*
X67229561Y-58148496D02*
X67324800Y-58053258D01*
X67324800Y-58053258D02*
X67372419Y-57910401D01*
X67372419Y-57910401D02*
X67372419Y-57815163D01*
X67372419Y-57815163D02*
X67324800Y-57672306D01*
X67324800Y-57672306D02*
X67277180Y-57624687D01*
X67277180Y-57624687D02*
X66943847Y-57624687D01*
X66943847Y-57624687D02*
X66943847Y-57815163D01*
X67372419Y-57196115D02*
X66372419Y-57196115D01*
X66372419Y-57196115D02*
X67372419Y-56624687D01*
X67372419Y-56624687D02*
X66372419Y-56624687D01*
X67372419Y-56148496D02*
X66372419Y-56148496D01*
X66372419Y-56148496D02*
X66372419Y-55910401D01*
X66372419Y-55910401D02*
X66420038Y-55767544D01*
X66420038Y-55767544D02*
X66515276Y-55672306D01*
X66515276Y-55672306D02*
X66610514Y-55624687D01*
X66610514Y-55624687D02*
X66800990Y-55577068D01*
X66800990Y-55577068D02*
X66943847Y-55577068D01*
X66943847Y-55577068D02*
X67134323Y-55624687D01*
X67134323Y-55624687D02*
X67229561Y-55672306D01*
X67229561Y-55672306D02*
X67324800Y-55767544D01*
X67324800Y-55767544D02*
X67372419Y-55910401D01*
X67372419Y-55910401D02*
X67372419Y-56148496D01*
D11*
X90259580Y-90216666D02*
X90307200Y-90264285D01*
X90307200Y-90264285D02*
X90354819Y-90407142D01*
X90354819Y-90407142D02*
X90354819Y-90502380D01*
X90354819Y-90502380D02*
X90307200Y-90645237D01*
X90307200Y-90645237D02*
X90211961Y-90740475D01*
X90211961Y-90740475D02*
X90116723Y-90788094D01*
X90116723Y-90788094D02*
X89926247Y-90835713D01*
X89926247Y-90835713D02*
X89783390Y-90835713D01*
X89783390Y-90835713D02*
X89592914Y-90788094D01*
X89592914Y-90788094D02*
X89497676Y-90740475D01*
X89497676Y-90740475D02*
X89402438Y-90645237D01*
X89402438Y-90645237D02*
X89354819Y-90502380D01*
X89354819Y-90502380D02*
X89354819Y-90407142D01*
X89354819Y-90407142D02*
X89402438Y-90264285D01*
X89402438Y-90264285D02*
X89450057Y-90216666D01*
X90354819Y-89264285D02*
X90354819Y-89835713D01*
X90354819Y-89549999D02*
X89354819Y-89549999D01*
X89354819Y-89549999D02*
X89497676Y-89645237D01*
X89497676Y-89645237D02*
X89592914Y-89740475D01*
X89592914Y-89740475D02*
X89640533Y-89835713D01*
X127082142Y-90929580D02*
X127034523Y-90977200D01*
X127034523Y-90977200D02*
X126891666Y-91024819D01*
X126891666Y-91024819D02*
X126796428Y-91024819D01*
X126796428Y-91024819D02*
X126653571Y-90977200D01*
X126653571Y-90977200D02*
X126558333Y-90881961D01*
X126558333Y-90881961D02*
X126510714Y-90786723D01*
X126510714Y-90786723D02*
X126463095Y-90596247D01*
X126463095Y-90596247D02*
X126463095Y-90453390D01*
X126463095Y-90453390D02*
X126510714Y-90262914D01*
X126510714Y-90262914D02*
X126558333Y-90167676D01*
X126558333Y-90167676D02*
X126653571Y-90072438D01*
X126653571Y-90072438D02*
X126796428Y-90024819D01*
X126796428Y-90024819D02*
X126891666Y-90024819D01*
X126891666Y-90024819D02*
X127034523Y-90072438D01*
X127034523Y-90072438D02*
X127082142Y-90120057D01*
X127415476Y-90024819D02*
X128034523Y-90024819D01*
X128034523Y-90024819D02*
X127701190Y-90405771D01*
X127701190Y-90405771D02*
X127844047Y-90405771D01*
X127844047Y-90405771D02*
X127939285Y-90453390D01*
X127939285Y-90453390D02*
X127986904Y-90501009D01*
X127986904Y-90501009D02*
X128034523Y-90596247D01*
X128034523Y-90596247D02*
X128034523Y-90834342D01*
X128034523Y-90834342D02*
X127986904Y-90929580D01*
X127986904Y-90929580D02*
X127939285Y-90977200D01*
X127939285Y-90977200D02*
X127844047Y-91024819D01*
X127844047Y-91024819D02*
X127558333Y-91024819D01*
X127558333Y-91024819D02*
X127463095Y-90977200D01*
X127463095Y-90977200D02*
X127415476Y-90929580D01*
X128367857Y-90024819D02*
X129034523Y-90024819D01*
X129034523Y-90024819D02*
X128605952Y-91024819D01*
X102389104Y-55594285D02*
X102389104Y-55118095D01*
X102674819Y-55689523D02*
X101674819Y-55356190D01*
X101674819Y-55356190D02*
X102674819Y-55022857D01*
X101770057Y-54737142D02*
X101722438Y-54689523D01*
X101722438Y-54689523D02*
X101674819Y-54594285D01*
X101674819Y-54594285D02*
X101674819Y-54356190D01*
X101674819Y-54356190D02*
X101722438Y-54260952D01*
X101722438Y-54260952D02*
X101770057Y-54213333D01*
X101770057Y-54213333D02*
X101865295Y-54165714D01*
X101865295Y-54165714D02*
X101960533Y-54165714D01*
X101960533Y-54165714D02*
X102103390Y-54213333D01*
X102103390Y-54213333D02*
X102674819Y-54784761D01*
X102674819Y-54784761D02*
X102674819Y-54165714D01*
X142314819Y-56141904D02*
X143124342Y-56141904D01*
X143124342Y-56141904D02*
X143219580Y-56094285D01*
X143219580Y-56094285D02*
X143267200Y-56046666D01*
X143267200Y-56046666D02*
X143314819Y-55951428D01*
X143314819Y-55951428D02*
X143314819Y-55760952D01*
X143314819Y-55760952D02*
X143267200Y-55665714D01*
X143267200Y-55665714D02*
X143219580Y-55618095D01*
X143219580Y-55618095D02*
X143124342Y-55570476D01*
X143124342Y-55570476D02*
X142314819Y-55570476D01*
X143267200Y-55141904D02*
X143314819Y-54999047D01*
X143314819Y-54999047D02*
X143314819Y-54760952D01*
X143314819Y-54760952D02*
X143267200Y-54665714D01*
X143267200Y-54665714D02*
X143219580Y-54618095D01*
X143219580Y-54618095D02*
X143124342Y-54570476D01*
X143124342Y-54570476D02*
X143029104Y-54570476D01*
X143029104Y-54570476D02*
X142933866Y-54618095D01*
X142933866Y-54618095D02*
X142886247Y-54665714D01*
X142886247Y-54665714D02*
X142838628Y-54760952D01*
X142838628Y-54760952D02*
X142791009Y-54951428D01*
X142791009Y-54951428D02*
X142743390Y-55046666D01*
X142743390Y-55046666D02*
X142695771Y-55094285D01*
X142695771Y-55094285D02*
X142600533Y-55141904D01*
X142600533Y-55141904D02*
X142505295Y-55141904D01*
X142505295Y-55141904D02*
X142410057Y-55094285D01*
X142410057Y-55094285D02*
X142362438Y-55046666D01*
X142362438Y-55046666D02*
X142314819Y-54951428D01*
X142314819Y-54951428D02*
X142314819Y-54713333D01*
X142314819Y-54713333D02*
X142362438Y-54570476D01*
X142791009Y-53808571D02*
X142838628Y-53665714D01*
X142838628Y-53665714D02*
X142886247Y-53618095D01*
X142886247Y-53618095D02*
X142981485Y-53570476D01*
X142981485Y-53570476D02*
X143124342Y-53570476D01*
X143124342Y-53570476D02*
X143219580Y-53618095D01*
X143219580Y-53618095D02*
X143267200Y-53665714D01*
X143267200Y-53665714D02*
X143314819Y-53760952D01*
X143314819Y-53760952D02*
X143314819Y-54141904D01*
X143314819Y-54141904D02*
X142314819Y-54141904D01*
X142314819Y-54141904D02*
X142314819Y-53808571D01*
X142314819Y-53808571D02*
X142362438Y-53713333D01*
X142362438Y-53713333D02*
X142410057Y-53665714D01*
X142410057Y-53665714D02*
X142505295Y-53618095D01*
X142505295Y-53618095D02*
X142600533Y-53618095D01*
X142600533Y-53618095D02*
X142695771Y-53665714D01*
X142695771Y-53665714D02*
X142743390Y-53713333D01*
X142743390Y-53713333D02*
X142791009Y-53808571D01*
X142791009Y-53808571D02*
X142791009Y-54141904D01*
X74236905Y-53449819D02*
X74236905Y-54259342D01*
X74236905Y-54259342D02*
X74284524Y-54354580D01*
X74284524Y-54354580D02*
X74332143Y-54402200D01*
X74332143Y-54402200D02*
X74427381Y-54449819D01*
X74427381Y-54449819D02*
X74617857Y-54449819D01*
X74617857Y-54449819D02*
X74713095Y-54402200D01*
X74713095Y-54402200D02*
X74760714Y-54354580D01*
X74760714Y-54354580D02*
X74808333Y-54259342D01*
X74808333Y-54259342D02*
X74808333Y-53449819D01*
X75808333Y-54449819D02*
X75236905Y-54449819D01*
X75522619Y-54449819D02*
X75522619Y-53449819D01*
X75522619Y-53449819D02*
X75427381Y-53592676D01*
X75427381Y-53592676D02*
X75332143Y-53687914D01*
X75332143Y-53687914D02*
X75236905Y-53735533D01*
X76189286Y-53545057D02*
X76236905Y-53497438D01*
X76236905Y-53497438D02*
X76332143Y-53449819D01*
X76332143Y-53449819D02*
X76570238Y-53449819D01*
X76570238Y-53449819D02*
X76665476Y-53497438D01*
X76665476Y-53497438D02*
X76713095Y-53545057D01*
X76713095Y-53545057D02*
X76760714Y-53640295D01*
X76760714Y-53640295D02*
X76760714Y-53735533D01*
X76760714Y-53735533D02*
X76713095Y-53878390D01*
X76713095Y-53878390D02*
X76141667Y-54449819D01*
X76141667Y-54449819D02*
X76760714Y-54449819D01*
X103582142Y-107289580D02*
X103534523Y-107337200D01*
X103534523Y-107337200D02*
X103391666Y-107384819D01*
X103391666Y-107384819D02*
X103296428Y-107384819D01*
X103296428Y-107384819D02*
X103153571Y-107337200D01*
X103153571Y-107337200D02*
X103058333Y-107241961D01*
X103058333Y-107241961D02*
X103010714Y-107146723D01*
X103010714Y-107146723D02*
X102963095Y-106956247D01*
X102963095Y-106956247D02*
X102963095Y-106813390D01*
X102963095Y-106813390D02*
X103010714Y-106622914D01*
X103010714Y-106622914D02*
X103058333Y-106527676D01*
X103058333Y-106527676D02*
X103153571Y-106432438D01*
X103153571Y-106432438D02*
X103296428Y-106384819D01*
X103296428Y-106384819D02*
X103391666Y-106384819D01*
X103391666Y-106384819D02*
X103534523Y-106432438D01*
X103534523Y-106432438D02*
X103582142Y-106480057D01*
X103963095Y-106480057D02*
X104010714Y-106432438D01*
X104010714Y-106432438D02*
X104105952Y-106384819D01*
X104105952Y-106384819D02*
X104344047Y-106384819D01*
X104344047Y-106384819D02*
X104439285Y-106432438D01*
X104439285Y-106432438D02*
X104486904Y-106480057D01*
X104486904Y-106480057D02*
X104534523Y-106575295D01*
X104534523Y-106575295D02*
X104534523Y-106670533D01*
X104534523Y-106670533D02*
X104486904Y-106813390D01*
X104486904Y-106813390D02*
X103915476Y-107384819D01*
X103915476Y-107384819D02*
X104534523Y-107384819D01*
X104867857Y-106384819D02*
X105486904Y-106384819D01*
X105486904Y-106384819D02*
X105153571Y-106765771D01*
X105153571Y-106765771D02*
X105296428Y-106765771D01*
X105296428Y-106765771D02*
X105391666Y-106813390D01*
X105391666Y-106813390D02*
X105439285Y-106861009D01*
X105439285Y-106861009D02*
X105486904Y-106956247D01*
X105486904Y-106956247D02*
X105486904Y-107194342D01*
X105486904Y-107194342D02*
X105439285Y-107289580D01*
X105439285Y-107289580D02*
X105391666Y-107337200D01*
X105391666Y-107337200D02*
X105296428Y-107384819D01*
X105296428Y-107384819D02*
X105010714Y-107384819D01*
X105010714Y-107384819D02*
X104915476Y-107337200D01*
X104915476Y-107337200D02*
X104867857Y-107289580D01*
X126004819Y-89411904D02*
X126814342Y-89411904D01*
X126814342Y-89411904D02*
X126909580Y-89364285D01*
X126909580Y-89364285D02*
X126957200Y-89316666D01*
X126957200Y-89316666D02*
X127004819Y-89221428D01*
X127004819Y-89221428D02*
X127004819Y-89030952D01*
X127004819Y-89030952D02*
X126957200Y-88935714D01*
X126957200Y-88935714D02*
X126909580Y-88888095D01*
X126909580Y-88888095D02*
X126814342Y-88840476D01*
X126814342Y-88840476D02*
X126004819Y-88840476D01*
X126004819Y-88459523D02*
X126004819Y-87840476D01*
X126004819Y-87840476D02*
X126385771Y-88173809D01*
X126385771Y-88173809D02*
X126385771Y-88030952D01*
X126385771Y-88030952D02*
X126433390Y-87935714D01*
X126433390Y-87935714D02*
X126481009Y-87888095D01*
X126481009Y-87888095D02*
X126576247Y-87840476D01*
X126576247Y-87840476D02*
X126814342Y-87840476D01*
X126814342Y-87840476D02*
X126909580Y-87888095D01*
X126909580Y-87888095D02*
X126957200Y-87935714D01*
X126957200Y-87935714D02*
X127004819Y-88030952D01*
X127004819Y-88030952D02*
X127004819Y-88316666D01*
X127004819Y-88316666D02*
X126957200Y-88411904D01*
X126957200Y-88411904D02*
X126909580Y-88459523D01*
X75429580Y-107117857D02*
X75477200Y-107165476D01*
X75477200Y-107165476D02*
X75524819Y-107308333D01*
X75524819Y-107308333D02*
X75524819Y-107403571D01*
X75524819Y-107403571D02*
X75477200Y-107546428D01*
X75477200Y-107546428D02*
X75381961Y-107641666D01*
X75381961Y-107641666D02*
X75286723Y-107689285D01*
X75286723Y-107689285D02*
X75096247Y-107736904D01*
X75096247Y-107736904D02*
X74953390Y-107736904D01*
X74953390Y-107736904D02*
X74762914Y-107689285D01*
X74762914Y-107689285D02*
X74667676Y-107641666D01*
X74667676Y-107641666D02*
X74572438Y-107546428D01*
X74572438Y-107546428D02*
X74524819Y-107403571D01*
X74524819Y-107403571D02*
X74524819Y-107308333D01*
X74524819Y-107308333D02*
X74572438Y-107165476D01*
X74572438Y-107165476D02*
X74620057Y-107117857D01*
X74620057Y-106736904D02*
X74572438Y-106689285D01*
X74572438Y-106689285D02*
X74524819Y-106594047D01*
X74524819Y-106594047D02*
X74524819Y-106355952D01*
X74524819Y-106355952D02*
X74572438Y-106260714D01*
X74572438Y-106260714D02*
X74620057Y-106213095D01*
X74620057Y-106213095D02*
X74715295Y-106165476D01*
X74715295Y-106165476D02*
X74810533Y-106165476D01*
X74810533Y-106165476D02*
X74953390Y-106213095D01*
X74953390Y-106213095D02*
X75524819Y-106784523D01*
X75524819Y-106784523D02*
X75524819Y-106165476D01*
X75524819Y-105213095D02*
X75524819Y-105784523D01*
X75524819Y-105498809D02*
X74524819Y-105498809D01*
X74524819Y-105498809D02*
X74667676Y-105594047D01*
X74667676Y-105594047D02*
X74762914Y-105689285D01*
X74762914Y-105689285D02*
X74810533Y-105784523D01*
X122024819Y-95841666D02*
X121548628Y-96174999D01*
X122024819Y-96413094D02*
X121024819Y-96413094D01*
X121024819Y-96413094D02*
X121024819Y-96032142D01*
X121024819Y-96032142D02*
X121072438Y-95936904D01*
X121072438Y-95936904D02*
X121120057Y-95889285D01*
X121120057Y-95889285D02*
X121215295Y-95841666D01*
X121215295Y-95841666D02*
X121358152Y-95841666D01*
X121358152Y-95841666D02*
X121453390Y-95889285D01*
X121453390Y-95889285D02*
X121501009Y-95936904D01*
X121501009Y-95936904D02*
X121548628Y-96032142D01*
X121548628Y-96032142D02*
X121548628Y-96413094D01*
X121024819Y-95508332D02*
X121024819Y-94841666D01*
X121024819Y-94841666D02*
X122024819Y-95270237D01*
X115632142Y-100929580D02*
X115584523Y-100977200D01*
X115584523Y-100977200D02*
X115441666Y-101024819D01*
X115441666Y-101024819D02*
X115346428Y-101024819D01*
X115346428Y-101024819D02*
X115203571Y-100977200D01*
X115203571Y-100977200D02*
X115108333Y-100881961D01*
X115108333Y-100881961D02*
X115060714Y-100786723D01*
X115060714Y-100786723D02*
X115013095Y-100596247D01*
X115013095Y-100596247D02*
X115013095Y-100453390D01*
X115013095Y-100453390D02*
X115060714Y-100262914D01*
X115060714Y-100262914D02*
X115108333Y-100167676D01*
X115108333Y-100167676D02*
X115203571Y-100072438D01*
X115203571Y-100072438D02*
X115346428Y-100024819D01*
X115346428Y-100024819D02*
X115441666Y-100024819D01*
X115441666Y-100024819D02*
X115584523Y-100072438D01*
X115584523Y-100072438D02*
X115632142Y-100120057D01*
X116584523Y-101024819D02*
X116013095Y-101024819D01*
X116298809Y-101024819D02*
X116298809Y-100024819D01*
X116298809Y-100024819D02*
X116203571Y-100167676D01*
X116203571Y-100167676D02*
X116108333Y-100262914D01*
X116108333Y-100262914D02*
X116013095Y-100310533D01*
X117536904Y-101024819D02*
X116965476Y-101024819D01*
X117251190Y-101024819D02*
X117251190Y-100024819D01*
X117251190Y-100024819D02*
X117155952Y-100167676D01*
X117155952Y-100167676D02*
X117060714Y-100262914D01*
X117060714Y-100262914D02*
X116965476Y-100310533D01*
X77359580Y-94229166D02*
X77407200Y-94276785D01*
X77407200Y-94276785D02*
X77454819Y-94419642D01*
X77454819Y-94419642D02*
X77454819Y-94514880D01*
X77454819Y-94514880D02*
X77407200Y-94657737D01*
X77407200Y-94657737D02*
X77311961Y-94752975D01*
X77311961Y-94752975D02*
X77216723Y-94800594D01*
X77216723Y-94800594D02*
X77026247Y-94848213D01*
X77026247Y-94848213D02*
X76883390Y-94848213D01*
X76883390Y-94848213D02*
X76692914Y-94800594D01*
X76692914Y-94800594D02*
X76597676Y-94752975D01*
X76597676Y-94752975D02*
X76502438Y-94657737D01*
X76502438Y-94657737D02*
X76454819Y-94514880D01*
X76454819Y-94514880D02*
X76454819Y-94419642D01*
X76454819Y-94419642D02*
X76502438Y-94276785D01*
X76502438Y-94276785D02*
X76550057Y-94229166D01*
X76883390Y-93657737D02*
X76835771Y-93752975D01*
X76835771Y-93752975D02*
X76788152Y-93800594D01*
X76788152Y-93800594D02*
X76692914Y-93848213D01*
X76692914Y-93848213D02*
X76645295Y-93848213D01*
X76645295Y-93848213D02*
X76550057Y-93800594D01*
X76550057Y-93800594D02*
X76502438Y-93752975D01*
X76502438Y-93752975D02*
X76454819Y-93657737D01*
X76454819Y-93657737D02*
X76454819Y-93467261D01*
X76454819Y-93467261D02*
X76502438Y-93372023D01*
X76502438Y-93372023D02*
X76550057Y-93324404D01*
X76550057Y-93324404D02*
X76645295Y-93276785D01*
X76645295Y-93276785D02*
X76692914Y-93276785D01*
X76692914Y-93276785D02*
X76788152Y-93324404D01*
X76788152Y-93324404D02*
X76835771Y-93372023D01*
X76835771Y-93372023D02*
X76883390Y-93467261D01*
X76883390Y-93467261D02*
X76883390Y-93657737D01*
X76883390Y-93657737D02*
X76931009Y-93752975D01*
X76931009Y-93752975D02*
X76978628Y-93800594D01*
X76978628Y-93800594D02*
X77073866Y-93848213D01*
X77073866Y-93848213D02*
X77264342Y-93848213D01*
X77264342Y-93848213D02*
X77359580Y-93800594D01*
X77359580Y-93800594D02*
X77407200Y-93752975D01*
X77407200Y-93752975D02*
X77454819Y-93657737D01*
X77454819Y-93657737D02*
X77454819Y-93467261D01*
X77454819Y-93467261D02*
X77407200Y-93372023D01*
X77407200Y-93372023D02*
X77359580Y-93324404D01*
X77359580Y-93324404D02*
X77264342Y-93276785D01*
X77264342Y-93276785D02*
X77073866Y-93276785D01*
X77073866Y-93276785D02*
X76978628Y-93324404D01*
X76978628Y-93324404D02*
X76931009Y-93372023D01*
X76931009Y-93372023D02*
X76883390Y-93467261D01*
X135954819Y-81341666D02*
X135478628Y-81674999D01*
X135954819Y-81913094D02*
X134954819Y-81913094D01*
X134954819Y-81913094D02*
X134954819Y-81532142D01*
X134954819Y-81532142D02*
X135002438Y-81436904D01*
X135002438Y-81436904D02*
X135050057Y-81389285D01*
X135050057Y-81389285D02*
X135145295Y-81341666D01*
X135145295Y-81341666D02*
X135288152Y-81341666D01*
X135288152Y-81341666D02*
X135383390Y-81389285D01*
X135383390Y-81389285D02*
X135431009Y-81436904D01*
X135431009Y-81436904D02*
X135478628Y-81532142D01*
X135478628Y-81532142D02*
X135478628Y-81913094D01*
X134954819Y-81008332D02*
X134954819Y-80389285D01*
X134954819Y-80389285D02*
X135335771Y-80722618D01*
X135335771Y-80722618D02*
X135335771Y-80579761D01*
X135335771Y-80579761D02*
X135383390Y-80484523D01*
X135383390Y-80484523D02*
X135431009Y-80436904D01*
X135431009Y-80436904D02*
X135526247Y-80389285D01*
X135526247Y-80389285D02*
X135764342Y-80389285D01*
X135764342Y-80389285D02*
X135859580Y-80436904D01*
X135859580Y-80436904D02*
X135907200Y-80484523D01*
X135907200Y-80484523D02*
X135954819Y-80579761D01*
X135954819Y-80579761D02*
X135954819Y-80865475D01*
X135954819Y-80865475D02*
X135907200Y-80960713D01*
X135907200Y-80960713D02*
X135859580Y-81008332D01*
X70909580Y-92366666D02*
X70957200Y-92414285D01*
X70957200Y-92414285D02*
X71004819Y-92557142D01*
X71004819Y-92557142D02*
X71004819Y-92652380D01*
X71004819Y-92652380D02*
X70957200Y-92795237D01*
X70957200Y-92795237D02*
X70861961Y-92890475D01*
X70861961Y-92890475D02*
X70766723Y-92938094D01*
X70766723Y-92938094D02*
X70576247Y-92985713D01*
X70576247Y-92985713D02*
X70433390Y-92985713D01*
X70433390Y-92985713D02*
X70242914Y-92938094D01*
X70242914Y-92938094D02*
X70147676Y-92890475D01*
X70147676Y-92890475D02*
X70052438Y-92795237D01*
X70052438Y-92795237D02*
X70004819Y-92652380D01*
X70004819Y-92652380D02*
X70004819Y-92557142D01*
X70004819Y-92557142D02*
X70052438Y-92414285D01*
X70052438Y-92414285D02*
X70100057Y-92366666D01*
X70004819Y-92033332D02*
X70004819Y-91366666D01*
X70004819Y-91366666D02*
X71004819Y-91795237D01*
X141929761Y-94185057D02*
X141834523Y-94137438D01*
X141834523Y-94137438D02*
X141739285Y-94042200D01*
X141739285Y-94042200D02*
X141596428Y-93899342D01*
X141596428Y-93899342D02*
X141501190Y-93851723D01*
X141501190Y-93851723D02*
X141405952Y-93851723D01*
X141453571Y-94089819D02*
X141358333Y-94042200D01*
X141358333Y-94042200D02*
X141263095Y-93946961D01*
X141263095Y-93946961D02*
X141215476Y-93756485D01*
X141215476Y-93756485D02*
X141215476Y-93423152D01*
X141215476Y-93423152D02*
X141263095Y-93232676D01*
X141263095Y-93232676D02*
X141358333Y-93137438D01*
X141358333Y-93137438D02*
X141453571Y-93089819D01*
X141453571Y-93089819D02*
X141644047Y-93089819D01*
X141644047Y-93089819D02*
X141739285Y-93137438D01*
X141739285Y-93137438D02*
X141834523Y-93232676D01*
X141834523Y-93232676D02*
X141882142Y-93423152D01*
X141882142Y-93423152D02*
X141882142Y-93756485D01*
X141882142Y-93756485D02*
X141834523Y-93946961D01*
X141834523Y-93946961D02*
X141739285Y-94042200D01*
X141739285Y-94042200D02*
X141644047Y-94089819D01*
X141644047Y-94089819D02*
X141453571Y-94089819D01*
X142834523Y-94089819D02*
X142263095Y-94089819D01*
X142548809Y-94089819D02*
X142548809Y-93089819D01*
X142548809Y-93089819D02*
X142453571Y-93232676D01*
X142453571Y-93232676D02*
X142358333Y-93327914D01*
X142358333Y-93327914D02*
X142263095Y-93375533D01*
X69009580Y-52417857D02*
X69057200Y-52465476D01*
X69057200Y-52465476D02*
X69104819Y-52608333D01*
X69104819Y-52608333D02*
X69104819Y-52703571D01*
X69104819Y-52703571D02*
X69057200Y-52846428D01*
X69057200Y-52846428D02*
X68961961Y-52941666D01*
X68961961Y-52941666D02*
X68866723Y-52989285D01*
X68866723Y-52989285D02*
X68676247Y-53036904D01*
X68676247Y-53036904D02*
X68533390Y-53036904D01*
X68533390Y-53036904D02*
X68342914Y-52989285D01*
X68342914Y-52989285D02*
X68247676Y-52941666D01*
X68247676Y-52941666D02*
X68152438Y-52846428D01*
X68152438Y-52846428D02*
X68104819Y-52703571D01*
X68104819Y-52703571D02*
X68104819Y-52608333D01*
X68104819Y-52608333D02*
X68152438Y-52465476D01*
X68152438Y-52465476D02*
X68200057Y-52417857D01*
X68200057Y-52036904D02*
X68152438Y-51989285D01*
X68152438Y-51989285D02*
X68104819Y-51894047D01*
X68104819Y-51894047D02*
X68104819Y-51655952D01*
X68104819Y-51655952D02*
X68152438Y-51560714D01*
X68152438Y-51560714D02*
X68200057Y-51513095D01*
X68200057Y-51513095D02*
X68295295Y-51465476D01*
X68295295Y-51465476D02*
X68390533Y-51465476D01*
X68390533Y-51465476D02*
X68533390Y-51513095D01*
X68533390Y-51513095D02*
X69104819Y-52084523D01*
X69104819Y-52084523D02*
X69104819Y-51465476D01*
X69104819Y-50989285D02*
X69104819Y-50798809D01*
X69104819Y-50798809D02*
X69057200Y-50703571D01*
X69057200Y-50703571D02*
X69009580Y-50655952D01*
X69009580Y-50655952D02*
X68866723Y-50560714D01*
X68866723Y-50560714D02*
X68676247Y-50513095D01*
X68676247Y-50513095D02*
X68295295Y-50513095D01*
X68295295Y-50513095D02*
X68200057Y-50560714D01*
X68200057Y-50560714D02*
X68152438Y-50608333D01*
X68152438Y-50608333D02*
X68104819Y-50703571D01*
X68104819Y-50703571D02*
X68104819Y-50894047D01*
X68104819Y-50894047D02*
X68152438Y-50989285D01*
X68152438Y-50989285D02*
X68200057Y-51036904D01*
X68200057Y-51036904D02*
X68295295Y-51084523D01*
X68295295Y-51084523D02*
X68533390Y-51084523D01*
X68533390Y-51084523D02*
X68628628Y-51036904D01*
X68628628Y-51036904D02*
X68676247Y-50989285D01*
X68676247Y-50989285D02*
X68723866Y-50894047D01*
X68723866Y-50894047D02*
X68723866Y-50703571D01*
X68723866Y-50703571D02*
X68676247Y-50608333D01*
X68676247Y-50608333D02*
X68628628Y-50560714D01*
X68628628Y-50560714D02*
X68533390Y-50513095D01*
X63738095Y-37954819D02*
X63738095Y-36954819D01*
X63738095Y-37431009D02*
X64309523Y-37431009D01*
X64309523Y-37954819D02*
X64309523Y-36954819D01*
X65309523Y-37954819D02*
X64738095Y-37954819D01*
X65023809Y-37954819D02*
X65023809Y-36954819D01*
X65023809Y-36954819D02*
X64928571Y-37097676D01*
X64928571Y-37097676D02*
X64833333Y-37192914D01*
X64833333Y-37192914D02*
X64738095Y-37240533D01*
X136032142Y-72559580D02*
X135984523Y-72607200D01*
X135984523Y-72607200D02*
X135841666Y-72654819D01*
X135841666Y-72654819D02*
X135746428Y-72654819D01*
X135746428Y-72654819D02*
X135603571Y-72607200D01*
X135603571Y-72607200D02*
X135508333Y-72511961D01*
X135508333Y-72511961D02*
X135460714Y-72416723D01*
X135460714Y-72416723D02*
X135413095Y-72226247D01*
X135413095Y-72226247D02*
X135413095Y-72083390D01*
X135413095Y-72083390D02*
X135460714Y-71892914D01*
X135460714Y-71892914D02*
X135508333Y-71797676D01*
X135508333Y-71797676D02*
X135603571Y-71702438D01*
X135603571Y-71702438D02*
X135746428Y-71654819D01*
X135746428Y-71654819D02*
X135841666Y-71654819D01*
X135841666Y-71654819D02*
X135984523Y-71702438D01*
X135984523Y-71702438D02*
X136032142Y-71750057D01*
X136984523Y-72654819D02*
X136413095Y-72654819D01*
X136698809Y-72654819D02*
X136698809Y-71654819D01*
X136698809Y-71654819D02*
X136603571Y-71797676D01*
X136603571Y-71797676D02*
X136508333Y-71892914D01*
X136508333Y-71892914D02*
X136413095Y-71940533D01*
X137317857Y-71654819D02*
X137936904Y-71654819D01*
X137936904Y-71654819D02*
X137603571Y-72035771D01*
X137603571Y-72035771D02*
X137746428Y-72035771D01*
X137746428Y-72035771D02*
X137841666Y-72083390D01*
X137841666Y-72083390D02*
X137889285Y-72131009D01*
X137889285Y-72131009D02*
X137936904Y-72226247D01*
X137936904Y-72226247D02*
X137936904Y-72464342D01*
X137936904Y-72464342D02*
X137889285Y-72559580D01*
X137889285Y-72559580D02*
X137841666Y-72607200D01*
X137841666Y-72607200D02*
X137746428Y-72654819D01*
X137746428Y-72654819D02*
X137460714Y-72654819D01*
X137460714Y-72654819D02*
X137365476Y-72607200D01*
X137365476Y-72607200D02*
X137317857Y-72559580D01*
X126854819Y-97216666D02*
X126378628Y-97549999D01*
X126854819Y-97788094D02*
X125854819Y-97788094D01*
X125854819Y-97788094D02*
X125854819Y-97407142D01*
X125854819Y-97407142D02*
X125902438Y-97311904D01*
X125902438Y-97311904D02*
X125950057Y-97264285D01*
X125950057Y-97264285D02*
X126045295Y-97216666D01*
X126045295Y-97216666D02*
X126188152Y-97216666D01*
X126188152Y-97216666D02*
X126283390Y-97264285D01*
X126283390Y-97264285D02*
X126331009Y-97311904D01*
X126331009Y-97311904D02*
X126378628Y-97407142D01*
X126378628Y-97407142D02*
X126378628Y-97788094D01*
X125854819Y-96359523D02*
X125854819Y-96549999D01*
X125854819Y-96549999D02*
X125902438Y-96645237D01*
X125902438Y-96645237D02*
X125950057Y-96692856D01*
X125950057Y-96692856D02*
X126092914Y-96788094D01*
X126092914Y-96788094D02*
X126283390Y-96835713D01*
X126283390Y-96835713D02*
X126664342Y-96835713D01*
X126664342Y-96835713D02*
X126759580Y-96788094D01*
X126759580Y-96788094D02*
X126807200Y-96740475D01*
X126807200Y-96740475D02*
X126854819Y-96645237D01*
X126854819Y-96645237D02*
X126854819Y-96454761D01*
X126854819Y-96454761D02*
X126807200Y-96359523D01*
X126807200Y-96359523D02*
X126759580Y-96311904D01*
X126759580Y-96311904D02*
X126664342Y-96264285D01*
X126664342Y-96264285D02*
X126426247Y-96264285D01*
X126426247Y-96264285D02*
X126331009Y-96311904D01*
X126331009Y-96311904D02*
X126283390Y-96359523D01*
X126283390Y-96359523D02*
X126235771Y-96454761D01*
X126235771Y-96454761D02*
X126235771Y-96645237D01*
X126235771Y-96645237D02*
X126283390Y-96740475D01*
X126283390Y-96740475D02*
X126331009Y-96788094D01*
X126331009Y-96788094D02*
X126426247Y-96835713D01*
X126657142Y-95709580D02*
X126609523Y-95757200D01*
X126609523Y-95757200D02*
X126466666Y-95804819D01*
X126466666Y-95804819D02*
X126371428Y-95804819D01*
X126371428Y-95804819D02*
X126228571Y-95757200D01*
X126228571Y-95757200D02*
X126133333Y-95661961D01*
X126133333Y-95661961D02*
X126085714Y-95566723D01*
X126085714Y-95566723D02*
X126038095Y-95376247D01*
X126038095Y-95376247D02*
X126038095Y-95233390D01*
X126038095Y-95233390D02*
X126085714Y-95042914D01*
X126085714Y-95042914D02*
X126133333Y-94947676D01*
X126133333Y-94947676D02*
X126228571Y-94852438D01*
X126228571Y-94852438D02*
X126371428Y-94804819D01*
X126371428Y-94804819D02*
X126466666Y-94804819D01*
X126466666Y-94804819D02*
X126609523Y-94852438D01*
X126609523Y-94852438D02*
X126657142Y-94900057D01*
X126990476Y-94804819D02*
X127609523Y-94804819D01*
X127609523Y-94804819D02*
X127276190Y-95185771D01*
X127276190Y-95185771D02*
X127419047Y-95185771D01*
X127419047Y-95185771D02*
X127514285Y-95233390D01*
X127514285Y-95233390D02*
X127561904Y-95281009D01*
X127561904Y-95281009D02*
X127609523Y-95376247D01*
X127609523Y-95376247D02*
X127609523Y-95614342D01*
X127609523Y-95614342D02*
X127561904Y-95709580D01*
X127561904Y-95709580D02*
X127514285Y-95757200D01*
X127514285Y-95757200D02*
X127419047Y-95804819D01*
X127419047Y-95804819D02*
X127133333Y-95804819D01*
X127133333Y-95804819D02*
X127038095Y-95757200D01*
X127038095Y-95757200D02*
X126990476Y-95709580D01*
X128466666Y-94804819D02*
X128276190Y-94804819D01*
X128276190Y-94804819D02*
X128180952Y-94852438D01*
X128180952Y-94852438D02*
X128133333Y-94900057D01*
X128133333Y-94900057D02*
X128038095Y-95042914D01*
X128038095Y-95042914D02*
X127990476Y-95233390D01*
X127990476Y-95233390D02*
X127990476Y-95614342D01*
X127990476Y-95614342D02*
X128038095Y-95709580D01*
X128038095Y-95709580D02*
X128085714Y-95757200D01*
X128085714Y-95757200D02*
X128180952Y-95804819D01*
X128180952Y-95804819D02*
X128371428Y-95804819D01*
X128371428Y-95804819D02*
X128466666Y-95757200D01*
X128466666Y-95757200D02*
X128514285Y-95709580D01*
X128514285Y-95709580D02*
X128561904Y-95614342D01*
X128561904Y-95614342D02*
X128561904Y-95376247D01*
X128561904Y-95376247D02*
X128514285Y-95281009D01*
X128514285Y-95281009D02*
X128466666Y-95233390D01*
X128466666Y-95233390D02*
X128371428Y-95185771D01*
X128371428Y-95185771D02*
X128180952Y-95185771D01*
X128180952Y-95185771D02*
X128085714Y-95233390D01*
X128085714Y-95233390D02*
X128038095Y-95281009D01*
X128038095Y-95281009D02*
X127990476Y-95376247D01*
X130382142Y-107194580D02*
X130334523Y-107242200D01*
X130334523Y-107242200D02*
X130191666Y-107289819D01*
X130191666Y-107289819D02*
X130096428Y-107289819D01*
X130096428Y-107289819D02*
X129953571Y-107242200D01*
X129953571Y-107242200D02*
X129858333Y-107146961D01*
X129858333Y-107146961D02*
X129810714Y-107051723D01*
X129810714Y-107051723D02*
X129763095Y-106861247D01*
X129763095Y-106861247D02*
X129763095Y-106718390D01*
X129763095Y-106718390D02*
X129810714Y-106527914D01*
X129810714Y-106527914D02*
X129858333Y-106432676D01*
X129858333Y-106432676D02*
X129953571Y-106337438D01*
X129953571Y-106337438D02*
X130096428Y-106289819D01*
X130096428Y-106289819D02*
X130191666Y-106289819D01*
X130191666Y-106289819D02*
X130334523Y-106337438D01*
X130334523Y-106337438D02*
X130382142Y-106385057D01*
X131334523Y-107289819D02*
X130763095Y-107289819D01*
X131048809Y-107289819D02*
X131048809Y-106289819D01*
X131048809Y-106289819D02*
X130953571Y-106432676D01*
X130953571Y-106432676D02*
X130858333Y-106527914D01*
X130858333Y-106527914D02*
X130763095Y-106575533D01*
X131905952Y-106718390D02*
X131810714Y-106670771D01*
X131810714Y-106670771D02*
X131763095Y-106623152D01*
X131763095Y-106623152D02*
X131715476Y-106527914D01*
X131715476Y-106527914D02*
X131715476Y-106480295D01*
X131715476Y-106480295D02*
X131763095Y-106385057D01*
X131763095Y-106385057D02*
X131810714Y-106337438D01*
X131810714Y-106337438D02*
X131905952Y-106289819D01*
X131905952Y-106289819D02*
X132096428Y-106289819D01*
X132096428Y-106289819D02*
X132191666Y-106337438D01*
X132191666Y-106337438D02*
X132239285Y-106385057D01*
X132239285Y-106385057D02*
X132286904Y-106480295D01*
X132286904Y-106480295D02*
X132286904Y-106527914D01*
X132286904Y-106527914D02*
X132239285Y-106623152D01*
X132239285Y-106623152D02*
X132191666Y-106670771D01*
X132191666Y-106670771D02*
X132096428Y-106718390D01*
X132096428Y-106718390D02*
X131905952Y-106718390D01*
X131905952Y-106718390D02*
X131810714Y-106766009D01*
X131810714Y-106766009D02*
X131763095Y-106813628D01*
X131763095Y-106813628D02*
X131715476Y-106908866D01*
X131715476Y-106908866D02*
X131715476Y-107099342D01*
X131715476Y-107099342D02*
X131763095Y-107194580D01*
X131763095Y-107194580D02*
X131810714Y-107242200D01*
X131810714Y-107242200D02*
X131905952Y-107289819D01*
X131905952Y-107289819D02*
X132096428Y-107289819D01*
X132096428Y-107289819D02*
X132191666Y-107242200D01*
X132191666Y-107242200D02*
X132239285Y-107194580D01*
X132239285Y-107194580D02*
X132286904Y-107099342D01*
X132286904Y-107099342D02*
X132286904Y-106908866D01*
X132286904Y-106908866D02*
X132239285Y-106813628D01*
X132239285Y-106813628D02*
X132191666Y-106766009D01*
X132191666Y-106766009D02*
X132096428Y-106718390D01*
X79104819Y-44300594D02*
X78104819Y-44300594D01*
X78104819Y-44300594D02*
X78104819Y-44062499D01*
X78104819Y-44062499D02*
X78152438Y-43919642D01*
X78152438Y-43919642D02*
X78247676Y-43824404D01*
X78247676Y-43824404D02*
X78342914Y-43776785D01*
X78342914Y-43776785D02*
X78533390Y-43729166D01*
X78533390Y-43729166D02*
X78676247Y-43729166D01*
X78676247Y-43729166D02*
X78866723Y-43776785D01*
X78866723Y-43776785D02*
X78961961Y-43824404D01*
X78961961Y-43824404D02*
X79057200Y-43919642D01*
X79057200Y-43919642D02*
X79104819Y-44062499D01*
X79104819Y-44062499D02*
X79104819Y-44300594D01*
X78104819Y-42824404D02*
X78104819Y-43300594D01*
X78104819Y-43300594D02*
X78581009Y-43348213D01*
X78581009Y-43348213D02*
X78533390Y-43300594D01*
X78533390Y-43300594D02*
X78485771Y-43205356D01*
X78485771Y-43205356D02*
X78485771Y-42967261D01*
X78485771Y-42967261D02*
X78533390Y-42872023D01*
X78533390Y-42872023D02*
X78581009Y-42824404D01*
X78581009Y-42824404D02*
X78676247Y-42776785D01*
X78676247Y-42776785D02*
X78914342Y-42776785D01*
X78914342Y-42776785D02*
X79009580Y-42824404D01*
X79009580Y-42824404D02*
X79057200Y-42872023D01*
X79057200Y-42872023D02*
X79104819Y-42967261D01*
X79104819Y-42967261D02*
X79104819Y-43205356D01*
X79104819Y-43205356D02*
X79057200Y-43300594D01*
X79057200Y-43300594D02*
X79009580Y-43348213D01*
X145238095Y-117004819D02*
X145238095Y-116004819D01*
X145238095Y-116481009D02*
X145809523Y-116481009D01*
X145809523Y-117004819D02*
X145809523Y-116004819D01*
X146190476Y-116004819D02*
X146809523Y-116004819D01*
X146809523Y-116004819D02*
X146476190Y-116385771D01*
X146476190Y-116385771D02*
X146619047Y-116385771D01*
X146619047Y-116385771D02*
X146714285Y-116433390D01*
X146714285Y-116433390D02*
X146761904Y-116481009D01*
X146761904Y-116481009D02*
X146809523Y-116576247D01*
X146809523Y-116576247D02*
X146809523Y-116814342D01*
X146809523Y-116814342D02*
X146761904Y-116909580D01*
X146761904Y-116909580D02*
X146714285Y-116957200D01*
X146714285Y-116957200D02*
X146619047Y-117004819D01*
X146619047Y-117004819D02*
X146333333Y-117004819D01*
X146333333Y-117004819D02*
X146238095Y-116957200D01*
X146238095Y-116957200D02*
X146190476Y-116909580D01*
X59238095Y-117004819D02*
X59238095Y-116004819D01*
X59238095Y-116481009D02*
X59809523Y-116481009D01*
X59809523Y-117004819D02*
X59809523Y-116004819D01*
X60238095Y-116100057D02*
X60285714Y-116052438D01*
X60285714Y-116052438D02*
X60380952Y-116004819D01*
X60380952Y-116004819D02*
X60619047Y-116004819D01*
X60619047Y-116004819D02*
X60714285Y-116052438D01*
X60714285Y-116052438D02*
X60761904Y-116100057D01*
X60761904Y-116100057D02*
X60809523Y-116195295D01*
X60809523Y-116195295D02*
X60809523Y-116290533D01*
X60809523Y-116290533D02*
X60761904Y-116433390D01*
X60761904Y-116433390D02*
X60190476Y-117004819D01*
X60190476Y-117004819D02*
X60809523Y-117004819D01*
X64357142Y-107604819D02*
X64023809Y-107128628D01*
X63785714Y-107604819D02*
X63785714Y-106604819D01*
X63785714Y-106604819D02*
X64166666Y-106604819D01*
X64166666Y-106604819D02*
X64261904Y-106652438D01*
X64261904Y-106652438D02*
X64309523Y-106700057D01*
X64309523Y-106700057D02*
X64357142Y-106795295D01*
X64357142Y-106795295D02*
X64357142Y-106938152D01*
X64357142Y-106938152D02*
X64309523Y-107033390D01*
X64309523Y-107033390D02*
X64261904Y-107081009D01*
X64261904Y-107081009D02*
X64166666Y-107128628D01*
X64166666Y-107128628D02*
X63785714Y-107128628D01*
X65309523Y-107604819D02*
X64738095Y-107604819D01*
X65023809Y-107604819D02*
X65023809Y-106604819D01*
X65023809Y-106604819D02*
X64928571Y-106747676D01*
X64928571Y-106747676D02*
X64833333Y-106842914D01*
X64833333Y-106842914D02*
X64738095Y-106890533D01*
X65690476Y-106700057D02*
X65738095Y-106652438D01*
X65738095Y-106652438D02*
X65833333Y-106604819D01*
X65833333Y-106604819D02*
X66071428Y-106604819D01*
X66071428Y-106604819D02*
X66166666Y-106652438D01*
X66166666Y-106652438D02*
X66214285Y-106700057D01*
X66214285Y-106700057D02*
X66261904Y-106795295D01*
X66261904Y-106795295D02*
X66261904Y-106890533D01*
X66261904Y-106890533D02*
X66214285Y-107033390D01*
X66214285Y-107033390D02*
X65642857Y-107604819D01*
X65642857Y-107604819D02*
X66261904Y-107604819D01*
X87769761Y-80874819D02*
X87436428Y-80398628D01*
X87198333Y-80874819D02*
X87198333Y-79874819D01*
X87198333Y-79874819D02*
X87579285Y-79874819D01*
X87579285Y-79874819D02*
X87674523Y-79922438D01*
X87674523Y-79922438D02*
X87722142Y-79970057D01*
X87722142Y-79970057D02*
X87769761Y-80065295D01*
X87769761Y-80065295D02*
X87769761Y-80208152D01*
X87769761Y-80208152D02*
X87722142Y-80303390D01*
X87722142Y-80303390D02*
X87674523Y-80351009D01*
X87674523Y-80351009D02*
X87579285Y-80398628D01*
X87579285Y-80398628D02*
X87198333Y-80398628D01*
X88055476Y-79874819D02*
X88388809Y-80874819D01*
X88388809Y-80874819D02*
X88722142Y-79874819D01*
X89007857Y-79970057D02*
X89055476Y-79922438D01*
X89055476Y-79922438D02*
X89150714Y-79874819D01*
X89150714Y-79874819D02*
X89388809Y-79874819D01*
X89388809Y-79874819D02*
X89484047Y-79922438D01*
X89484047Y-79922438D02*
X89531666Y-79970057D01*
X89531666Y-79970057D02*
X89579285Y-80065295D01*
X89579285Y-80065295D02*
X89579285Y-80160533D01*
X89579285Y-80160533D02*
X89531666Y-80303390D01*
X89531666Y-80303390D02*
X88960238Y-80874819D01*
X88960238Y-80874819D02*
X89579285Y-80874819D01*
X69009580Y-61142857D02*
X69057200Y-61190476D01*
X69057200Y-61190476D02*
X69104819Y-61333333D01*
X69104819Y-61333333D02*
X69104819Y-61428571D01*
X69104819Y-61428571D02*
X69057200Y-61571428D01*
X69057200Y-61571428D02*
X68961961Y-61666666D01*
X68961961Y-61666666D02*
X68866723Y-61714285D01*
X68866723Y-61714285D02*
X68676247Y-61761904D01*
X68676247Y-61761904D02*
X68533390Y-61761904D01*
X68533390Y-61761904D02*
X68342914Y-61714285D01*
X68342914Y-61714285D02*
X68247676Y-61666666D01*
X68247676Y-61666666D02*
X68152438Y-61571428D01*
X68152438Y-61571428D02*
X68104819Y-61428571D01*
X68104819Y-61428571D02*
X68104819Y-61333333D01*
X68104819Y-61333333D02*
X68152438Y-61190476D01*
X68152438Y-61190476D02*
X68200057Y-61142857D01*
X68200057Y-60761904D02*
X68152438Y-60714285D01*
X68152438Y-60714285D02*
X68104819Y-60619047D01*
X68104819Y-60619047D02*
X68104819Y-60380952D01*
X68104819Y-60380952D02*
X68152438Y-60285714D01*
X68152438Y-60285714D02*
X68200057Y-60238095D01*
X68200057Y-60238095D02*
X68295295Y-60190476D01*
X68295295Y-60190476D02*
X68390533Y-60190476D01*
X68390533Y-60190476D02*
X68533390Y-60238095D01*
X68533390Y-60238095D02*
X69104819Y-60809523D01*
X69104819Y-60809523D02*
X69104819Y-60190476D01*
X68104819Y-59857142D02*
X68104819Y-59190476D01*
X68104819Y-59190476D02*
X69104819Y-59619047D01*
X99807142Y-103609580D02*
X99759523Y-103657200D01*
X99759523Y-103657200D02*
X99616666Y-103704819D01*
X99616666Y-103704819D02*
X99521428Y-103704819D01*
X99521428Y-103704819D02*
X99378571Y-103657200D01*
X99378571Y-103657200D02*
X99283333Y-103561961D01*
X99283333Y-103561961D02*
X99235714Y-103466723D01*
X99235714Y-103466723D02*
X99188095Y-103276247D01*
X99188095Y-103276247D02*
X99188095Y-103133390D01*
X99188095Y-103133390D02*
X99235714Y-102942914D01*
X99235714Y-102942914D02*
X99283333Y-102847676D01*
X99283333Y-102847676D02*
X99378571Y-102752438D01*
X99378571Y-102752438D02*
X99521428Y-102704819D01*
X99521428Y-102704819D02*
X99616666Y-102704819D01*
X99616666Y-102704819D02*
X99759523Y-102752438D01*
X99759523Y-102752438D02*
X99807142Y-102800057D01*
X100188095Y-102800057D02*
X100235714Y-102752438D01*
X100235714Y-102752438D02*
X100330952Y-102704819D01*
X100330952Y-102704819D02*
X100569047Y-102704819D01*
X100569047Y-102704819D02*
X100664285Y-102752438D01*
X100664285Y-102752438D02*
X100711904Y-102800057D01*
X100711904Y-102800057D02*
X100759523Y-102895295D01*
X100759523Y-102895295D02*
X100759523Y-102990533D01*
X100759523Y-102990533D02*
X100711904Y-103133390D01*
X100711904Y-103133390D02*
X100140476Y-103704819D01*
X100140476Y-103704819D02*
X100759523Y-103704819D01*
X101616666Y-103038152D02*
X101616666Y-103704819D01*
X101378571Y-102657200D02*
X101140476Y-103371485D01*
X101140476Y-103371485D02*
X101759523Y-103371485D01*
X69009580Y-77642857D02*
X69057200Y-77690476D01*
X69057200Y-77690476D02*
X69104819Y-77833333D01*
X69104819Y-77833333D02*
X69104819Y-77928571D01*
X69104819Y-77928571D02*
X69057200Y-78071428D01*
X69057200Y-78071428D02*
X68961961Y-78166666D01*
X68961961Y-78166666D02*
X68866723Y-78214285D01*
X68866723Y-78214285D02*
X68676247Y-78261904D01*
X68676247Y-78261904D02*
X68533390Y-78261904D01*
X68533390Y-78261904D02*
X68342914Y-78214285D01*
X68342914Y-78214285D02*
X68247676Y-78166666D01*
X68247676Y-78166666D02*
X68152438Y-78071428D01*
X68152438Y-78071428D02*
X68104819Y-77928571D01*
X68104819Y-77928571D02*
X68104819Y-77833333D01*
X68104819Y-77833333D02*
X68152438Y-77690476D01*
X68152438Y-77690476D02*
X68200057Y-77642857D01*
X68200057Y-77261904D02*
X68152438Y-77214285D01*
X68152438Y-77214285D02*
X68104819Y-77119047D01*
X68104819Y-77119047D02*
X68104819Y-76880952D01*
X68104819Y-76880952D02*
X68152438Y-76785714D01*
X68152438Y-76785714D02*
X68200057Y-76738095D01*
X68200057Y-76738095D02*
X68295295Y-76690476D01*
X68295295Y-76690476D02*
X68390533Y-76690476D01*
X68390533Y-76690476D02*
X68533390Y-76738095D01*
X68533390Y-76738095D02*
X69104819Y-77309523D01*
X69104819Y-77309523D02*
X69104819Y-76690476D01*
X68104819Y-75785714D02*
X68104819Y-76261904D01*
X68104819Y-76261904D02*
X68581009Y-76309523D01*
X68581009Y-76309523D02*
X68533390Y-76261904D01*
X68533390Y-76261904D02*
X68485771Y-76166666D01*
X68485771Y-76166666D02*
X68485771Y-75928571D01*
X68485771Y-75928571D02*
X68533390Y-75833333D01*
X68533390Y-75833333D02*
X68581009Y-75785714D01*
X68581009Y-75785714D02*
X68676247Y-75738095D01*
X68676247Y-75738095D02*
X68914342Y-75738095D01*
X68914342Y-75738095D02*
X69009580Y-75785714D01*
X69009580Y-75785714D02*
X69057200Y-75833333D01*
X69057200Y-75833333D02*
X69104819Y-75928571D01*
X69104819Y-75928571D02*
X69104819Y-76166666D01*
X69104819Y-76166666D02*
X69057200Y-76261904D01*
X69057200Y-76261904D02*
X69009580Y-76309523D01*
X60054819Y-45733333D02*
X60769104Y-45733333D01*
X60769104Y-45733333D02*
X60911961Y-45780952D01*
X60911961Y-45780952D02*
X61007200Y-45876190D01*
X61007200Y-45876190D02*
X61054819Y-46019047D01*
X61054819Y-46019047D02*
X61054819Y-46114285D01*
X60483390Y-45114285D02*
X60435771Y-45209523D01*
X60435771Y-45209523D02*
X60388152Y-45257142D01*
X60388152Y-45257142D02*
X60292914Y-45304761D01*
X60292914Y-45304761D02*
X60245295Y-45304761D01*
X60245295Y-45304761D02*
X60150057Y-45257142D01*
X60150057Y-45257142D02*
X60102438Y-45209523D01*
X60102438Y-45209523D02*
X60054819Y-45114285D01*
X60054819Y-45114285D02*
X60054819Y-44923809D01*
X60054819Y-44923809D02*
X60102438Y-44828571D01*
X60102438Y-44828571D02*
X60150057Y-44780952D01*
X60150057Y-44780952D02*
X60245295Y-44733333D01*
X60245295Y-44733333D02*
X60292914Y-44733333D01*
X60292914Y-44733333D02*
X60388152Y-44780952D01*
X60388152Y-44780952D02*
X60435771Y-44828571D01*
X60435771Y-44828571D02*
X60483390Y-44923809D01*
X60483390Y-44923809D02*
X60483390Y-45114285D01*
X60483390Y-45114285D02*
X60531009Y-45209523D01*
X60531009Y-45209523D02*
X60578628Y-45257142D01*
X60578628Y-45257142D02*
X60673866Y-45304761D01*
X60673866Y-45304761D02*
X60864342Y-45304761D01*
X60864342Y-45304761D02*
X60959580Y-45257142D01*
X60959580Y-45257142D02*
X61007200Y-45209523D01*
X61007200Y-45209523D02*
X61054819Y-45114285D01*
X61054819Y-45114285D02*
X61054819Y-44923809D01*
X61054819Y-44923809D02*
X61007200Y-44828571D01*
X61007200Y-44828571D02*
X60959580Y-44780952D01*
X60959580Y-44780952D02*
X60864342Y-44733333D01*
X60864342Y-44733333D02*
X60673866Y-44733333D01*
X60673866Y-44733333D02*
X60578628Y-44780952D01*
X60578628Y-44780952D02*
X60531009Y-44828571D01*
X60531009Y-44828571D02*
X60483390Y-44923809D01*
X91429580Y-102867857D02*
X91477200Y-102915476D01*
X91477200Y-102915476D02*
X91524819Y-103058333D01*
X91524819Y-103058333D02*
X91524819Y-103153571D01*
X91524819Y-103153571D02*
X91477200Y-103296428D01*
X91477200Y-103296428D02*
X91381961Y-103391666D01*
X91381961Y-103391666D02*
X91286723Y-103439285D01*
X91286723Y-103439285D02*
X91096247Y-103486904D01*
X91096247Y-103486904D02*
X90953390Y-103486904D01*
X90953390Y-103486904D02*
X90762914Y-103439285D01*
X90762914Y-103439285D02*
X90667676Y-103391666D01*
X90667676Y-103391666D02*
X90572438Y-103296428D01*
X90572438Y-103296428D02*
X90524819Y-103153571D01*
X90524819Y-103153571D02*
X90524819Y-103058333D01*
X90524819Y-103058333D02*
X90572438Y-102915476D01*
X90572438Y-102915476D02*
X90620057Y-102867857D01*
X91524819Y-101915476D02*
X91524819Y-102486904D01*
X91524819Y-102201190D02*
X90524819Y-102201190D01*
X90524819Y-102201190D02*
X90667676Y-102296428D01*
X90667676Y-102296428D02*
X90762914Y-102391666D01*
X90762914Y-102391666D02*
X90810533Y-102486904D01*
X90524819Y-101296428D02*
X90524819Y-101201190D01*
X90524819Y-101201190D02*
X90572438Y-101105952D01*
X90572438Y-101105952D02*
X90620057Y-101058333D01*
X90620057Y-101058333D02*
X90715295Y-101010714D01*
X90715295Y-101010714D02*
X90905771Y-100963095D01*
X90905771Y-100963095D02*
X91143866Y-100963095D01*
X91143866Y-100963095D02*
X91334342Y-101010714D01*
X91334342Y-101010714D02*
X91429580Y-101058333D01*
X91429580Y-101058333D02*
X91477200Y-101105952D01*
X91477200Y-101105952D02*
X91524819Y-101201190D01*
X91524819Y-101201190D02*
X91524819Y-101296428D01*
X91524819Y-101296428D02*
X91477200Y-101391666D01*
X91477200Y-101391666D02*
X91429580Y-101439285D01*
X91429580Y-101439285D02*
X91334342Y-101486904D01*
X91334342Y-101486904D02*
X91143866Y-101534523D01*
X91143866Y-101534523D02*
X90905771Y-101534523D01*
X90905771Y-101534523D02*
X90715295Y-101486904D01*
X90715295Y-101486904D02*
X90620057Y-101439285D01*
X90620057Y-101439285D02*
X90572438Y-101391666D01*
X90572438Y-101391666D02*
X90524819Y-101296428D01*
X121188095Y-82304819D02*
X121188095Y-83114342D01*
X121188095Y-83114342D02*
X121235714Y-83209580D01*
X121235714Y-83209580D02*
X121283333Y-83257200D01*
X121283333Y-83257200D02*
X121378571Y-83304819D01*
X121378571Y-83304819D02*
X121569047Y-83304819D01*
X121569047Y-83304819D02*
X121664285Y-83257200D01*
X121664285Y-83257200D02*
X121711904Y-83209580D01*
X121711904Y-83209580D02*
X121759523Y-83114342D01*
X121759523Y-83114342D02*
X121759523Y-82304819D01*
X122759523Y-83304819D02*
X122188095Y-83304819D01*
X122473809Y-83304819D02*
X122473809Y-82304819D01*
X122473809Y-82304819D02*
X122378571Y-82447676D01*
X122378571Y-82447676D02*
X122283333Y-82542914D01*
X122283333Y-82542914D02*
X122188095Y-82590533D01*
X125607142Y-83704819D02*
X125273809Y-83228628D01*
X125035714Y-83704819D02*
X125035714Y-82704819D01*
X125035714Y-82704819D02*
X125416666Y-82704819D01*
X125416666Y-82704819D02*
X125511904Y-82752438D01*
X125511904Y-82752438D02*
X125559523Y-82800057D01*
X125559523Y-82800057D02*
X125607142Y-82895295D01*
X125607142Y-82895295D02*
X125607142Y-83038152D01*
X125607142Y-83038152D02*
X125559523Y-83133390D01*
X125559523Y-83133390D02*
X125511904Y-83181009D01*
X125511904Y-83181009D02*
X125416666Y-83228628D01*
X125416666Y-83228628D02*
X125035714Y-83228628D01*
X126559523Y-83704819D02*
X125988095Y-83704819D01*
X126273809Y-83704819D02*
X126273809Y-82704819D01*
X126273809Y-82704819D02*
X126178571Y-82847676D01*
X126178571Y-82847676D02*
X126083333Y-82942914D01*
X126083333Y-82942914D02*
X125988095Y-82990533D01*
X126892857Y-82704819D02*
X127559523Y-82704819D01*
X127559523Y-82704819D02*
X127130952Y-83704819D01*
X78666666Y-101954819D02*
X78666666Y-102669104D01*
X78666666Y-102669104D02*
X78619047Y-102811961D01*
X78619047Y-102811961D02*
X78523809Y-102907200D01*
X78523809Y-102907200D02*
X78380952Y-102954819D01*
X78380952Y-102954819D02*
X78285714Y-102954819D01*
X79142857Y-102954819D02*
X79142857Y-101954819D01*
X79142857Y-101954819D02*
X79523809Y-101954819D01*
X79523809Y-101954819D02*
X79619047Y-102002438D01*
X79619047Y-102002438D02*
X79666666Y-102050057D01*
X79666666Y-102050057D02*
X79714285Y-102145295D01*
X79714285Y-102145295D02*
X79714285Y-102288152D01*
X79714285Y-102288152D02*
X79666666Y-102383390D01*
X79666666Y-102383390D02*
X79619047Y-102431009D01*
X79619047Y-102431009D02*
X79523809Y-102478628D01*
X79523809Y-102478628D02*
X79142857Y-102478628D01*
X80095238Y-102050057D02*
X80142857Y-102002438D01*
X80142857Y-102002438D02*
X80238095Y-101954819D01*
X80238095Y-101954819D02*
X80476190Y-101954819D01*
X80476190Y-101954819D02*
X80571428Y-102002438D01*
X80571428Y-102002438D02*
X80619047Y-102050057D01*
X80619047Y-102050057D02*
X80666666Y-102145295D01*
X80666666Y-102145295D02*
X80666666Y-102240533D01*
X80666666Y-102240533D02*
X80619047Y-102383390D01*
X80619047Y-102383390D02*
X80047619Y-102954819D01*
X80047619Y-102954819D02*
X80666666Y-102954819D01*
X101859580Y-90066666D02*
X101907200Y-90114285D01*
X101907200Y-90114285D02*
X101954819Y-90257142D01*
X101954819Y-90257142D02*
X101954819Y-90352380D01*
X101954819Y-90352380D02*
X101907200Y-90495237D01*
X101907200Y-90495237D02*
X101811961Y-90590475D01*
X101811961Y-90590475D02*
X101716723Y-90638094D01*
X101716723Y-90638094D02*
X101526247Y-90685713D01*
X101526247Y-90685713D02*
X101383390Y-90685713D01*
X101383390Y-90685713D02*
X101192914Y-90638094D01*
X101192914Y-90638094D02*
X101097676Y-90590475D01*
X101097676Y-90590475D02*
X101002438Y-90495237D01*
X101002438Y-90495237D02*
X100954819Y-90352380D01*
X100954819Y-90352380D02*
X100954819Y-90257142D01*
X100954819Y-90257142D02*
X101002438Y-90114285D01*
X101002438Y-90114285D02*
X101050057Y-90066666D01*
X101288152Y-89209523D02*
X101954819Y-89209523D01*
X100907200Y-89447618D02*
X101621485Y-89685713D01*
X101621485Y-89685713D02*
X101621485Y-89066666D01*
X146428571Y-109981009D02*
X146095238Y-109981009D01*
X146095238Y-110504819D02*
X146095238Y-109504819D01*
X146095238Y-109504819D02*
X146571428Y-109504819D01*
X146952381Y-110504819D02*
X146952381Y-109504819D01*
X147428571Y-110504819D02*
X147428571Y-109504819D01*
X147428571Y-109504819D02*
X147666666Y-109504819D01*
X147666666Y-109504819D02*
X147809523Y-109552438D01*
X147809523Y-109552438D02*
X147904761Y-109647676D01*
X147904761Y-109647676D02*
X147952380Y-109742914D01*
X147952380Y-109742914D02*
X147999999Y-109933390D01*
X147999999Y-109933390D02*
X147999999Y-110076247D01*
X147999999Y-110076247D02*
X147952380Y-110266723D01*
X147952380Y-110266723D02*
X147904761Y-110361961D01*
X147904761Y-110361961D02*
X147809523Y-110457200D01*
X147809523Y-110457200D02*
X147666666Y-110504819D01*
X147666666Y-110504819D02*
X147428571Y-110504819D01*
X148952380Y-110504819D02*
X148380952Y-110504819D01*
X148666666Y-110504819D02*
X148666666Y-109504819D01*
X148666666Y-109504819D02*
X148571428Y-109647676D01*
X148571428Y-109647676D02*
X148476190Y-109742914D01*
X148476190Y-109742914D02*
X148380952Y-109790533D01*
X70909580Y-94166666D02*
X70957200Y-94214285D01*
X70957200Y-94214285D02*
X71004819Y-94357142D01*
X71004819Y-94357142D02*
X71004819Y-94452380D01*
X71004819Y-94452380D02*
X70957200Y-94595237D01*
X70957200Y-94595237D02*
X70861961Y-94690475D01*
X70861961Y-94690475D02*
X70766723Y-94738094D01*
X70766723Y-94738094D02*
X70576247Y-94785713D01*
X70576247Y-94785713D02*
X70433390Y-94785713D01*
X70433390Y-94785713D02*
X70242914Y-94738094D01*
X70242914Y-94738094D02*
X70147676Y-94690475D01*
X70147676Y-94690475D02*
X70052438Y-94595237D01*
X70052438Y-94595237D02*
X70004819Y-94452380D01*
X70004819Y-94452380D02*
X70004819Y-94357142D01*
X70004819Y-94357142D02*
X70052438Y-94214285D01*
X70052438Y-94214285D02*
X70100057Y-94166666D01*
X70004819Y-93261904D02*
X70004819Y-93738094D01*
X70004819Y-93738094D02*
X70481009Y-93785713D01*
X70481009Y-93785713D02*
X70433390Y-93738094D01*
X70433390Y-93738094D02*
X70385771Y-93642856D01*
X70385771Y-93642856D02*
X70385771Y-93404761D01*
X70385771Y-93404761D02*
X70433390Y-93309523D01*
X70433390Y-93309523D02*
X70481009Y-93261904D01*
X70481009Y-93261904D02*
X70576247Y-93214285D01*
X70576247Y-93214285D02*
X70814342Y-93214285D01*
X70814342Y-93214285D02*
X70909580Y-93261904D01*
X70909580Y-93261904D02*
X70957200Y-93309523D01*
X70957200Y-93309523D02*
X71004819Y-93404761D01*
X71004819Y-93404761D02*
X71004819Y-93642856D01*
X71004819Y-93642856D02*
X70957200Y-93738094D01*
X70957200Y-93738094D02*
X70909580Y-93785713D01*
X112532142Y-75059580D02*
X112484523Y-75107200D01*
X112484523Y-75107200D02*
X112341666Y-75154819D01*
X112341666Y-75154819D02*
X112246428Y-75154819D01*
X112246428Y-75154819D02*
X112103571Y-75107200D01*
X112103571Y-75107200D02*
X112008333Y-75011961D01*
X112008333Y-75011961D02*
X111960714Y-74916723D01*
X111960714Y-74916723D02*
X111913095Y-74726247D01*
X111913095Y-74726247D02*
X111913095Y-74583390D01*
X111913095Y-74583390D02*
X111960714Y-74392914D01*
X111960714Y-74392914D02*
X112008333Y-74297676D01*
X112008333Y-74297676D02*
X112103571Y-74202438D01*
X112103571Y-74202438D02*
X112246428Y-74154819D01*
X112246428Y-74154819D02*
X112341666Y-74154819D01*
X112341666Y-74154819D02*
X112484523Y-74202438D01*
X112484523Y-74202438D02*
X112532142Y-74250057D01*
X113484523Y-75154819D02*
X112913095Y-75154819D01*
X113198809Y-75154819D02*
X113198809Y-74154819D01*
X113198809Y-74154819D02*
X113103571Y-74297676D01*
X113103571Y-74297676D02*
X113008333Y-74392914D01*
X113008333Y-74392914D02*
X112913095Y-74440533D01*
X114341666Y-74154819D02*
X114151190Y-74154819D01*
X114151190Y-74154819D02*
X114055952Y-74202438D01*
X114055952Y-74202438D02*
X114008333Y-74250057D01*
X114008333Y-74250057D02*
X113913095Y-74392914D01*
X113913095Y-74392914D02*
X113865476Y-74583390D01*
X113865476Y-74583390D02*
X113865476Y-74964342D01*
X113865476Y-74964342D02*
X113913095Y-75059580D01*
X113913095Y-75059580D02*
X113960714Y-75107200D01*
X113960714Y-75107200D02*
X114055952Y-75154819D01*
X114055952Y-75154819D02*
X114246428Y-75154819D01*
X114246428Y-75154819D02*
X114341666Y-75107200D01*
X114341666Y-75107200D02*
X114389285Y-75059580D01*
X114389285Y-75059580D02*
X114436904Y-74964342D01*
X114436904Y-74964342D02*
X114436904Y-74726247D01*
X114436904Y-74726247D02*
X114389285Y-74631009D01*
X114389285Y-74631009D02*
X114341666Y-74583390D01*
X114341666Y-74583390D02*
X114246428Y-74535771D01*
X114246428Y-74535771D02*
X114055952Y-74535771D01*
X114055952Y-74535771D02*
X113960714Y-74583390D01*
X113960714Y-74583390D02*
X113913095Y-74631009D01*
X113913095Y-74631009D02*
X113865476Y-74726247D01*
X96159580Y-86816666D02*
X96207200Y-86864285D01*
X96207200Y-86864285D02*
X96254819Y-87007142D01*
X96254819Y-87007142D02*
X96254819Y-87102380D01*
X96254819Y-87102380D02*
X96207200Y-87245237D01*
X96207200Y-87245237D02*
X96111961Y-87340475D01*
X96111961Y-87340475D02*
X96016723Y-87388094D01*
X96016723Y-87388094D02*
X95826247Y-87435713D01*
X95826247Y-87435713D02*
X95683390Y-87435713D01*
X95683390Y-87435713D02*
X95492914Y-87388094D01*
X95492914Y-87388094D02*
X95397676Y-87340475D01*
X95397676Y-87340475D02*
X95302438Y-87245237D01*
X95302438Y-87245237D02*
X95254819Y-87102380D01*
X95254819Y-87102380D02*
X95254819Y-87007142D01*
X95254819Y-87007142D02*
X95302438Y-86864285D01*
X95302438Y-86864285D02*
X95350057Y-86816666D01*
X95254819Y-86483332D02*
X95254819Y-85864285D01*
X95254819Y-85864285D02*
X95635771Y-86197618D01*
X95635771Y-86197618D02*
X95635771Y-86054761D01*
X95635771Y-86054761D02*
X95683390Y-85959523D01*
X95683390Y-85959523D02*
X95731009Y-85911904D01*
X95731009Y-85911904D02*
X95826247Y-85864285D01*
X95826247Y-85864285D02*
X96064342Y-85864285D01*
X96064342Y-85864285D02*
X96159580Y-85911904D01*
X96159580Y-85911904D02*
X96207200Y-85959523D01*
X96207200Y-85959523D02*
X96254819Y-86054761D01*
X96254819Y-86054761D02*
X96254819Y-86340475D01*
X96254819Y-86340475D02*
X96207200Y-86435713D01*
X96207200Y-86435713D02*
X96159580Y-86483332D01*
X137620833Y-99069819D02*
X137287500Y-98593628D01*
X137049405Y-99069819D02*
X137049405Y-98069819D01*
X137049405Y-98069819D02*
X137430357Y-98069819D01*
X137430357Y-98069819D02*
X137525595Y-98117438D01*
X137525595Y-98117438D02*
X137573214Y-98165057D01*
X137573214Y-98165057D02*
X137620833Y-98260295D01*
X137620833Y-98260295D02*
X137620833Y-98403152D01*
X137620833Y-98403152D02*
X137573214Y-98498390D01*
X137573214Y-98498390D02*
X137525595Y-98546009D01*
X137525595Y-98546009D02*
X137430357Y-98593628D01*
X137430357Y-98593628D02*
X137049405Y-98593628D01*
X138477976Y-98403152D02*
X138477976Y-99069819D01*
X138239881Y-98022200D02*
X138001786Y-98736485D01*
X138001786Y-98736485D02*
X138620833Y-98736485D01*
X141859580Y-73142857D02*
X141907200Y-73190476D01*
X141907200Y-73190476D02*
X141954819Y-73333333D01*
X141954819Y-73333333D02*
X141954819Y-73428571D01*
X141954819Y-73428571D02*
X141907200Y-73571428D01*
X141907200Y-73571428D02*
X141811961Y-73666666D01*
X141811961Y-73666666D02*
X141716723Y-73714285D01*
X141716723Y-73714285D02*
X141526247Y-73761904D01*
X141526247Y-73761904D02*
X141383390Y-73761904D01*
X141383390Y-73761904D02*
X141192914Y-73714285D01*
X141192914Y-73714285D02*
X141097676Y-73666666D01*
X141097676Y-73666666D02*
X141002438Y-73571428D01*
X141002438Y-73571428D02*
X140954819Y-73428571D01*
X140954819Y-73428571D02*
X140954819Y-73333333D01*
X140954819Y-73333333D02*
X141002438Y-73190476D01*
X141002438Y-73190476D02*
X141050057Y-73142857D01*
X141954819Y-72190476D02*
X141954819Y-72761904D01*
X141954819Y-72476190D02*
X140954819Y-72476190D01*
X140954819Y-72476190D02*
X141097676Y-72571428D01*
X141097676Y-72571428D02*
X141192914Y-72666666D01*
X141192914Y-72666666D02*
X141240533Y-72761904D01*
X140954819Y-71285714D02*
X140954819Y-71761904D01*
X140954819Y-71761904D02*
X141431009Y-71809523D01*
X141431009Y-71809523D02*
X141383390Y-71761904D01*
X141383390Y-71761904D02*
X141335771Y-71666666D01*
X141335771Y-71666666D02*
X141335771Y-71428571D01*
X141335771Y-71428571D02*
X141383390Y-71333333D01*
X141383390Y-71333333D02*
X141431009Y-71285714D01*
X141431009Y-71285714D02*
X141526247Y-71238095D01*
X141526247Y-71238095D02*
X141764342Y-71238095D01*
X141764342Y-71238095D02*
X141859580Y-71285714D01*
X141859580Y-71285714D02*
X141907200Y-71333333D01*
X141907200Y-71333333D02*
X141954819Y-71428571D01*
X141954819Y-71428571D02*
X141954819Y-71666666D01*
X141954819Y-71666666D02*
X141907200Y-71761904D01*
X141907200Y-71761904D02*
X141859580Y-71809523D01*
X82604819Y-44300594D02*
X81604819Y-44300594D01*
X81604819Y-44300594D02*
X81604819Y-44062499D01*
X81604819Y-44062499D02*
X81652438Y-43919642D01*
X81652438Y-43919642D02*
X81747676Y-43824404D01*
X81747676Y-43824404D02*
X81842914Y-43776785D01*
X81842914Y-43776785D02*
X82033390Y-43729166D01*
X82033390Y-43729166D02*
X82176247Y-43729166D01*
X82176247Y-43729166D02*
X82366723Y-43776785D01*
X82366723Y-43776785D02*
X82461961Y-43824404D01*
X82461961Y-43824404D02*
X82557200Y-43919642D01*
X82557200Y-43919642D02*
X82604819Y-44062499D01*
X82604819Y-44062499D02*
X82604819Y-44300594D01*
X81938152Y-42872023D02*
X82604819Y-42872023D01*
X81557200Y-43110118D02*
X82271485Y-43348213D01*
X82271485Y-43348213D02*
X82271485Y-42729166D01*
X105607200Y-89333332D02*
X105654819Y-89190475D01*
X105654819Y-89190475D02*
X105654819Y-88952380D01*
X105654819Y-88952380D02*
X105607200Y-88857142D01*
X105607200Y-88857142D02*
X105559580Y-88809523D01*
X105559580Y-88809523D02*
X105464342Y-88761904D01*
X105464342Y-88761904D02*
X105369104Y-88761904D01*
X105369104Y-88761904D02*
X105273866Y-88809523D01*
X105273866Y-88809523D02*
X105226247Y-88857142D01*
X105226247Y-88857142D02*
X105178628Y-88952380D01*
X105178628Y-88952380D02*
X105131009Y-89142856D01*
X105131009Y-89142856D02*
X105083390Y-89238094D01*
X105083390Y-89238094D02*
X105035771Y-89285713D01*
X105035771Y-89285713D02*
X104940533Y-89333332D01*
X104940533Y-89333332D02*
X104845295Y-89333332D01*
X104845295Y-89333332D02*
X104750057Y-89285713D01*
X104750057Y-89285713D02*
X104702438Y-89238094D01*
X104702438Y-89238094D02*
X104654819Y-89142856D01*
X104654819Y-89142856D02*
X104654819Y-88904761D01*
X104654819Y-88904761D02*
X104702438Y-88761904D01*
X104654819Y-88428570D02*
X105654819Y-88190475D01*
X105654819Y-88190475D02*
X104940533Y-87999999D01*
X104940533Y-87999999D02*
X105654819Y-87809523D01*
X105654819Y-87809523D02*
X104654819Y-87571428D01*
X104750057Y-87238094D02*
X104702438Y-87190475D01*
X104702438Y-87190475D02*
X104654819Y-87095237D01*
X104654819Y-87095237D02*
X104654819Y-86857142D01*
X104654819Y-86857142D02*
X104702438Y-86761904D01*
X104702438Y-86761904D02*
X104750057Y-86714285D01*
X104750057Y-86714285D02*
X104845295Y-86666666D01*
X104845295Y-86666666D02*
X104940533Y-86666666D01*
X104940533Y-86666666D02*
X105083390Y-86714285D01*
X105083390Y-86714285D02*
X105654819Y-87285713D01*
X105654819Y-87285713D02*
X105654819Y-86666666D01*
X71804819Y-101166904D02*
X72614342Y-101166904D01*
X72614342Y-101166904D02*
X72709580Y-101119285D01*
X72709580Y-101119285D02*
X72757200Y-101071666D01*
X72757200Y-101071666D02*
X72804819Y-100976428D01*
X72804819Y-100976428D02*
X72804819Y-100785952D01*
X72804819Y-100785952D02*
X72757200Y-100690714D01*
X72757200Y-100690714D02*
X72709580Y-100643095D01*
X72709580Y-100643095D02*
X72614342Y-100595476D01*
X72614342Y-100595476D02*
X71804819Y-100595476D01*
X71804819Y-100214523D02*
X71804819Y-99547857D01*
X71804819Y-99547857D02*
X72804819Y-99976428D01*
X95195833Y-109104819D02*
X94862500Y-108628628D01*
X94624405Y-109104819D02*
X94624405Y-108104819D01*
X94624405Y-108104819D02*
X95005357Y-108104819D01*
X95005357Y-108104819D02*
X95100595Y-108152438D01*
X95100595Y-108152438D02*
X95148214Y-108200057D01*
X95148214Y-108200057D02*
X95195833Y-108295295D01*
X95195833Y-108295295D02*
X95195833Y-108438152D01*
X95195833Y-108438152D02*
X95148214Y-108533390D01*
X95148214Y-108533390D02*
X95100595Y-108581009D01*
X95100595Y-108581009D02*
X95005357Y-108628628D01*
X95005357Y-108628628D02*
X94624405Y-108628628D01*
X96148214Y-109104819D02*
X95576786Y-109104819D01*
X95862500Y-109104819D02*
X95862500Y-108104819D01*
X95862500Y-108104819D02*
X95767262Y-108247676D01*
X95767262Y-108247676D02*
X95672024Y-108342914D01*
X95672024Y-108342914D02*
X95576786Y-108390533D01*
X129004819Y-85592857D02*
X128528628Y-85926190D01*
X129004819Y-86164285D02*
X128004819Y-86164285D01*
X128004819Y-86164285D02*
X128004819Y-85783333D01*
X128004819Y-85783333D02*
X128052438Y-85688095D01*
X128052438Y-85688095D02*
X128100057Y-85640476D01*
X128100057Y-85640476D02*
X128195295Y-85592857D01*
X128195295Y-85592857D02*
X128338152Y-85592857D01*
X128338152Y-85592857D02*
X128433390Y-85640476D01*
X128433390Y-85640476D02*
X128481009Y-85688095D01*
X128481009Y-85688095D02*
X128528628Y-85783333D01*
X128528628Y-85783333D02*
X128528628Y-86164285D01*
X129004819Y-84640476D02*
X129004819Y-85211904D01*
X129004819Y-84926190D02*
X128004819Y-84926190D01*
X128004819Y-84926190D02*
X128147676Y-85021428D01*
X128147676Y-85021428D02*
X128242914Y-85116666D01*
X128242914Y-85116666D02*
X128290533Y-85211904D01*
X128004819Y-83783333D02*
X128004819Y-83973809D01*
X128004819Y-83973809D02*
X128052438Y-84069047D01*
X128052438Y-84069047D02*
X128100057Y-84116666D01*
X128100057Y-84116666D02*
X128242914Y-84211904D01*
X128242914Y-84211904D02*
X128433390Y-84259523D01*
X128433390Y-84259523D02*
X128814342Y-84259523D01*
X128814342Y-84259523D02*
X128909580Y-84211904D01*
X128909580Y-84211904D02*
X128957200Y-84164285D01*
X128957200Y-84164285D02*
X129004819Y-84069047D01*
X129004819Y-84069047D02*
X129004819Y-83878571D01*
X129004819Y-83878571D02*
X128957200Y-83783333D01*
X128957200Y-83783333D02*
X128909580Y-83735714D01*
X128909580Y-83735714D02*
X128814342Y-83688095D01*
X128814342Y-83688095D02*
X128576247Y-83688095D01*
X128576247Y-83688095D02*
X128481009Y-83735714D01*
X128481009Y-83735714D02*
X128433390Y-83783333D01*
X128433390Y-83783333D02*
X128385771Y-83878571D01*
X128385771Y-83878571D02*
X128385771Y-84069047D01*
X128385771Y-84069047D02*
X128433390Y-84164285D01*
X128433390Y-84164285D02*
X128481009Y-84211904D01*
X128481009Y-84211904D02*
X128576247Y-84259523D01*
X74236905Y-80989819D02*
X74236905Y-81799342D01*
X74236905Y-81799342D02*
X74284524Y-81894580D01*
X74284524Y-81894580D02*
X74332143Y-81942200D01*
X74332143Y-81942200D02*
X74427381Y-81989819D01*
X74427381Y-81989819D02*
X74617857Y-81989819D01*
X74617857Y-81989819D02*
X74713095Y-81942200D01*
X74713095Y-81942200D02*
X74760714Y-81894580D01*
X74760714Y-81894580D02*
X74808333Y-81799342D01*
X74808333Y-81799342D02*
X74808333Y-80989819D01*
X75808333Y-81989819D02*
X75236905Y-81989819D01*
X75522619Y-81989819D02*
X75522619Y-80989819D01*
X75522619Y-80989819D02*
X75427381Y-81132676D01*
X75427381Y-81132676D02*
X75332143Y-81227914D01*
X75332143Y-81227914D02*
X75236905Y-81275533D01*
X76141667Y-80989819D02*
X76760714Y-80989819D01*
X76760714Y-80989819D02*
X76427381Y-81370771D01*
X76427381Y-81370771D02*
X76570238Y-81370771D01*
X76570238Y-81370771D02*
X76665476Y-81418390D01*
X76665476Y-81418390D02*
X76713095Y-81466009D01*
X76713095Y-81466009D02*
X76760714Y-81561247D01*
X76760714Y-81561247D02*
X76760714Y-81799342D01*
X76760714Y-81799342D02*
X76713095Y-81894580D01*
X76713095Y-81894580D02*
X76665476Y-81942200D01*
X76665476Y-81942200D02*
X76570238Y-81989819D01*
X76570238Y-81989819D02*
X76284524Y-81989819D01*
X76284524Y-81989819D02*
X76189286Y-81942200D01*
X76189286Y-81942200D02*
X76141667Y-81894580D01*
X109738095Y-93674819D02*
X109738095Y-94484342D01*
X109738095Y-94484342D02*
X109785714Y-94579580D01*
X109785714Y-94579580D02*
X109833333Y-94627200D01*
X109833333Y-94627200D02*
X109928571Y-94674819D01*
X109928571Y-94674819D02*
X110119047Y-94674819D01*
X110119047Y-94674819D02*
X110214285Y-94627200D01*
X110214285Y-94627200D02*
X110261904Y-94579580D01*
X110261904Y-94579580D02*
X110309523Y-94484342D01*
X110309523Y-94484342D02*
X110309523Y-93674819D01*
X111261904Y-93674819D02*
X110785714Y-93674819D01*
X110785714Y-93674819D02*
X110738095Y-94151009D01*
X110738095Y-94151009D02*
X110785714Y-94103390D01*
X110785714Y-94103390D02*
X110880952Y-94055771D01*
X110880952Y-94055771D02*
X111119047Y-94055771D01*
X111119047Y-94055771D02*
X111214285Y-94103390D01*
X111214285Y-94103390D02*
X111261904Y-94151009D01*
X111261904Y-94151009D02*
X111309523Y-94246247D01*
X111309523Y-94246247D02*
X111309523Y-94484342D01*
X111309523Y-94484342D02*
X111261904Y-94579580D01*
X111261904Y-94579580D02*
X111214285Y-94627200D01*
X111214285Y-94627200D02*
X111119047Y-94674819D01*
X111119047Y-94674819D02*
X110880952Y-94674819D01*
X110880952Y-94674819D02*
X110785714Y-94627200D01*
X110785714Y-94627200D02*
X110738095Y-94579580D01*
X118132142Y-90789580D02*
X118084523Y-90837200D01*
X118084523Y-90837200D02*
X117941666Y-90884819D01*
X117941666Y-90884819D02*
X117846428Y-90884819D01*
X117846428Y-90884819D02*
X117703571Y-90837200D01*
X117703571Y-90837200D02*
X117608333Y-90741961D01*
X117608333Y-90741961D02*
X117560714Y-90646723D01*
X117560714Y-90646723D02*
X117513095Y-90456247D01*
X117513095Y-90456247D02*
X117513095Y-90313390D01*
X117513095Y-90313390D02*
X117560714Y-90122914D01*
X117560714Y-90122914D02*
X117608333Y-90027676D01*
X117608333Y-90027676D02*
X117703571Y-89932438D01*
X117703571Y-89932438D02*
X117846428Y-89884819D01*
X117846428Y-89884819D02*
X117941666Y-89884819D01*
X117941666Y-89884819D02*
X118084523Y-89932438D01*
X118084523Y-89932438D02*
X118132142Y-89980057D01*
X118465476Y-89884819D02*
X119084523Y-89884819D01*
X119084523Y-89884819D02*
X118751190Y-90265771D01*
X118751190Y-90265771D02*
X118894047Y-90265771D01*
X118894047Y-90265771D02*
X118989285Y-90313390D01*
X118989285Y-90313390D02*
X119036904Y-90361009D01*
X119036904Y-90361009D02*
X119084523Y-90456247D01*
X119084523Y-90456247D02*
X119084523Y-90694342D01*
X119084523Y-90694342D02*
X119036904Y-90789580D01*
X119036904Y-90789580D02*
X118989285Y-90837200D01*
X118989285Y-90837200D02*
X118894047Y-90884819D01*
X118894047Y-90884819D02*
X118608333Y-90884819D01*
X118608333Y-90884819D02*
X118513095Y-90837200D01*
X118513095Y-90837200D02*
X118465476Y-90789580D01*
X119989285Y-89884819D02*
X119513095Y-89884819D01*
X119513095Y-89884819D02*
X119465476Y-90361009D01*
X119465476Y-90361009D02*
X119513095Y-90313390D01*
X119513095Y-90313390D02*
X119608333Y-90265771D01*
X119608333Y-90265771D02*
X119846428Y-90265771D01*
X119846428Y-90265771D02*
X119941666Y-90313390D01*
X119941666Y-90313390D02*
X119989285Y-90361009D01*
X119989285Y-90361009D02*
X120036904Y-90456247D01*
X120036904Y-90456247D02*
X120036904Y-90694342D01*
X120036904Y-90694342D02*
X119989285Y-90789580D01*
X119989285Y-90789580D02*
X119941666Y-90837200D01*
X119941666Y-90837200D02*
X119846428Y-90884819D01*
X119846428Y-90884819D02*
X119608333Y-90884819D01*
X119608333Y-90884819D02*
X119513095Y-90837200D01*
X119513095Y-90837200D02*
X119465476Y-90789580D01*
X98154819Y-97333333D02*
X98869104Y-97333333D01*
X98869104Y-97333333D02*
X99011961Y-97380952D01*
X99011961Y-97380952D02*
X99107200Y-97476190D01*
X99107200Y-97476190D02*
X99154819Y-97619047D01*
X99154819Y-97619047D02*
X99154819Y-97714285D01*
X99154819Y-96857142D02*
X98154819Y-96857142D01*
X98154819Y-96857142D02*
X98154819Y-96476190D01*
X98154819Y-96476190D02*
X98202438Y-96380952D01*
X98202438Y-96380952D02*
X98250057Y-96333333D01*
X98250057Y-96333333D02*
X98345295Y-96285714D01*
X98345295Y-96285714D02*
X98488152Y-96285714D01*
X98488152Y-96285714D02*
X98583390Y-96333333D01*
X98583390Y-96333333D02*
X98631009Y-96380952D01*
X98631009Y-96380952D02*
X98678628Y-96476190D01*
X98678628Y-96476190D02*
X98678628Y-96857142D01*
X99154819Y-95333333D02*
X99154819Y-95904761D01*
X99154819Y-95619047D02*
X98154819Y-95619047D01*
X98154819Y-95619047D02*
X98297676Y-95714285D01*
X98297676Y-95714285D02*
X98392914Y-95809523D01*
X98392914Y-95809523D02*
X98440533Y-95904761D01*
X74236905Y-71719819D02*
X74236905Y-72529342D01*
X74236905Y-72529342D02*
X74284524Y-72624580D01*
X74284524Y-72624580D02*
X74332143Y-72672200D01*
X74332143Y-72672200D02*
X74427381Y-72719819D01*
X74427381Y-72719819D02*
X74617857Y-72719819D01*
X74617857Y-72719819D02*
X74713095Y-72672200D01*
X74713095Y-72672200D02*
X74760714Y-72624580D01*
X74760714Y-72624580D02*
X74808333Y-72529342D01*
X74808333Y-72529342D02*
X74808333Y-71719819D01*
X75808333Y-72719819D02*
X75236905Y-72719819D01*
X75522619Y-72719819D02*
X75522619Y-71719819D01*
X75522619Y-71719819D02*
X75427381Y-71862676D01*
X75427381Y-71862676D02*
X75332143Y-71957914D01*
X75332143Y-71957914D02*
X75236905Y-72005533D01*
X76427381Y-71719819D02*
X76522619Y-71719819D01*
X76522619Y-71719819D02*
X76617857Y-71767438D01*
X76617857Y-71767438D02*
X76665476Y-71815057D01*
X76665476Y-71815057D02*
X76713095Y-71910295D01*
X76713095Y-71910295D02*
X76760714Y-72100771D01*
X76760714Y-72100771D02*
X76760714Y-72338866D01*
X76760714Y-72338866D02*
X76713095Y-72529342D01*
X76713095Y-72529342D02*
X76665476Y-72624580D01*
X76665476Y-72624580D02*
X76617857Y-72672200D01*
X76617857Y-72672200D02*
X76522619Y-72719819D01*
X76522619Y-72719819D02*
X76427381Y-72719819D01*
X76427381Y-72719819D02*
X76332143Y-72672200D01*
X76332143Y-72672200D02*
X76284524Y-72624580D01*
X76284524Y-72624580D02*
X76236905Y-72529342D01*
X76236905Y-72529342D02*
X76189286Y-72338866D01*
X76189286Y-72338866D02*
X76189286Y-72100771D01*
X76189286Y-72100771D02*
X76236905Y-71910295D01*
X76236905Y-71910295D02*
X76284524Y-71815057D01*
X76284524Y-71815057D02*
X76332143Y-71767438D01*
X76332143Y-71767438D02*
X76427381Y-71719819D01*
X72729580Y-107117857D02*
X72777200Y-107165476D01*
X72777200Y-107165476D02*
X72824819Y-107308333D01*
X72824819Y-107308333D02*
X72824819Y-107403571D01*
X72824819Y-107403571D02*
X72777200Y-107546428D01*
X72777200Y-107546428D02*
X72681961Y-107641666D01*
X72681961Y-107641666D02*
X72586723Y-107689285D01*
X72586723Y-107689285D02*
X72396247Y-107736904D01*
X72396247Y-107736904D02*
X72253390Y-107736904D01*
X72253390Y-107736904D02*
X72062914Y-107689285D01*
X72062914Y-107689285D02*
X71967676Y-107641666D01*
X71967676Y-107641666D02*
X71872438Y-107546428D01*
X71872438Y-107546428D02*
X71824819Y-107403571D01*
X71824819Y-107403571D02*
X71824819Y-107308333D01*
X71824819Y-107308333D02*
X71872438Y-107165476D01*
X71872438Y-107165476D02*
X71920057Y-107117857D01*
X72824819Y-106165476D02*
X72824819Y-106736904D01*
X72824819Y-106451190D02*
X71824819Y-106451190D01*
X71824819Y-106451190D02*
X71967676Y-106546428D01*
X71967676Y-106546428D02*
X72062914Y-106641666D01*
X72062914Y-106641666D02*
X72110533Y-106736904D01*
X71920057Y-105784523D02*
X71872438Y-105736904D01*
X71872438Y-105736904D02*
X71824819Y-105641666D01*
X71824819Y-105641666D02*
X71824819Y-105403571D01*
X71824819Y-105403571D02*
X71872438Y-105308333D01*
X71872438Y-105308333D02*
X71920057Y-105260714D01*
X71920057Y-105260714D02*
X72015295Y-105213095D01*
X72015295Y-105213095D02*
X72110533Y-105213095D01*
X72110533Y-105213095D02*
X72253390Y-105260714D01*
X72253390Y-105260714D02*
X72824819Y-105832142D01*
X72824819Y-105832142D02*
X72824819Y-105213095D01*
X63024819Y-100595238D02*
X62548628Y-100928571D01*
X63024819Y-101166666D02*
X62024819Y-101166666D01*
X62024819Y-101166666D02*
X62024819Y-100785714D01*
X62024819Y-100785714D02*
X62072438Y-100690476D01*
X62072438Y-100690476D02*
X62120057Y-100642857D01*
X62120057Y-100642857D02*
X62215295Y-100595238D01*
X62215295Y-100595238D02*
X62358152Y-100595238D01*
X62358152Y-100595238D02*
X62453390Y-100642857D01*
X62453390Y-100642857D02*
X62501009Y-100690476D01*
X62501009Y-100690476D02*
X62548628Y-100785714D01*
X62548628Y-100785714D02*
X62548628Y-101166666D01*
X62024819Y-100309523D02*
X63024819Y-99976190D01*
X63024819Y-99976190D02*
X62024819Y-99642857D01*
X62358152Y-98880952D02*
X63024819Y-98880952D01*
X61977200Y-99119047D02*
X62691485Y-99357142D01*
X62691485Y-99357142D02*
X62691485Y-98738095D01*
X138233333Y-104004819D02*
X137900000Y-103528628D01*
X137661905Y-104004819D02*
X137661905Y-103004819D01*
X137661905Y-103004819D02*
X138042857Y-103004819D01*
X138042857Y-103004819D02*
X138138095Y-103052438D01*
X138138095Y-103052438D02*
X138185714Y-103100057D01*
X138185714Y-103100057D02*
X138233333Y-103195295D01*
X138233333Y-103195295D02*
X138233333Y-103338152D01*
X138233333Y-103338152D02*
X138185714Y-103433390D01*
X138185714Y-103433390D02*
X138138095Y-103481009D01*
X138138095Y-103481009D02*
X138042857Y-103528628D01*
X138042857Y-103528628D02*
X137661905Y-103528628D01*
X139138095Y-103004819D02*
X138661905Y-103004819D01*
X138661905Y-103004819D02*
X138614286Y-103481009D01*
X138614286Y-103481009D02*
X138661905Y-103433390D01*
X138661905Y-103433390D02*
X138757143Y-103385771D01*
X138757143Y-103385771D02*
X138995238Y-103385771D01*
X138995238Y-103385771D02*
X139090476Y-103433390D01*
X139090476Y-103433390D02*
X139138095Y-103481009D01*
X139138095Y-103481009D02*
X139185714Y-103576247D01*
X139185714Y-103576247D02*
X139185714Y-103814342D01*
X139185714Y-103814342D02*
X139138095Y-103909580D01*
X139138095Y-103909580D02*
X139090476Y-103957200D01*
X139090476Y-103957200D02*
X138995238Y-104004819D01*
X138995238Y-104004819D02*
X138757143Y-104004819D01*
X138757143Y-104004819D02*
X138661905Y-103957200D01*
X138661905Y-103957200D02*
X138614286Y-103909580D01*
X88221666Y-107929819D02*
X88221666Y-108644104D01*
X88221666Y-108644104D02*
X88174047Y-108786961D01*
X88174047Y-108786961D02*
X88078809Y-108882200D01*
X88078809Y-108882200D02*
X87935952Y-108929819D01*
X87935952Y-108929819D02*
X87840714Y-108929819D01*
X89174047Y-107929819D02*
X88697857Y-107929819D01*
X88697857Y-107929819D02*
X88650238Y-108406009D01*
X88650238Y-108406009D02*
X88697857Y-108358390D01*
X88697857Y-108358390D02*
X88793095Y-108310771D01*
X88793095Y-108310771D02*
X89031190Y-108310771D01*
X89031190Y-108310771D02*
X89126428Y-108358390D01*
X89126428Y-108358390D02*
X89174047Y-108406009D01*
X89174047Y-108406009D02*
X89221666Y-108501247D01*
X89221666Y-108501247D02*
X89221666Y-108739342D01*
X89221666Y-108739342D02*
X89174047Y-108834580D01*
X89174047Y-108834580D02*
X89126428Y-108882200D01*
X89126428Y-108882200D02*
X89031190Y-108929819D01*
X89031190Y-108929819D02*
X88793095Y-108929819D01*
X88793095Y-108929819D02*
X88697857Y-108882200D01*
X88697857Y-108882200D02*
X88650238Y-108834580D01*
X69009580Y-70642857D02*
X69057200Y-70690476D01*
X69057200Y-70690476D02*
X69104819Y-70833333D01*
X69104819Y-70833333D02*
X69104819Y-70928571D01*
X69104819Y-70928571D02*
X69057200Y-71071428D01*
X69057200Y-71071428D02*
X68961961Y-71166666D01*
X68961961Y-71166666D02*
X68866723Y-71214285D01*
X68866723Y-71214285D02*
X68676247Y-71261904D01*
X68676247Y-71261904D02*
X68533390Y-71261904D01*
X68533390Y-71261904D02*
X68342914Y-71214285D01*
X68342914Y-71214285D02*
X68247676Y-71166666D01*
X68247676Y-71166666D02*
X68152438Y-71071428D01*
X68152438Y-71071428D02*
X68104819Y-70928571D01*
X68104819Y-70928571D02*
X68104819Y-70833333D01*
X68104819Y-70833333D02*
X68152438Y-70690476D01*
X68152438Y-70690476D02*
X68200057Y-70642857D01*
X68104819Y-70309523D02*
X68104819Y-69690476D01*
X68104819Y-69690476D02*
X68485771Y-70023809D01*
X68485771Y-70023809D02*
X68485771Y-69880952D01*
X68485771Y-69880952D02*
X68533390Y-69785714D01*
X68533390Y-69785714D02*
X68581009Y-69738095D01*
X68581009Y-69738095D02*
X68676247Y-69690476D01*
X68676247Y-69690476D02*
X68914342Y-69690476D01*
X68914342Y-69690476D02*
X69009580Y-69738095D01*
X69009580Y-69738095D02*
X69057200Y-69785714D01*
X69057200Y-69785714D02*
X69104819Y-69880952D01*
X69104819Y-69880952D02*
X69104819Y-70166666D01*
X69104819Y-70166666D02*
X69057200Y-70261904D01*
X69057200Y-70261904D02*
X69009580Y-70309523D01*
X69104819Y-68738095D02*
X69104819Y-69309523D01*
X69104819Y-69023809D02*
X68104819Y-69023809D01*
X68104819Y-69023809D02*
X68247676Y-69119047D01*
X68247676Y-69119047D02*
X68342914Y-69214285D01*
X68342914Y-69214285D02*
X68390533Y-69309523D01*
X57928571Y-109981009D02*
X57595238Y-109981009D01*
X57595238Y-110504819D02*
X57595238Y-109504819D01*
X57595238Y-109504819D02*
X58071428Y-109504819D01*
X58452381Y-110504819D02*
X58452381Y-109504819D01*
X58928571Y-110504819D02*
X58928571Y-109504819D01*
X58928571Y-109504819D02*
X59166666Y-109504819D01*
X59166666Y-109504819D02*
X59309523Y-109552438D01*
X59309523Y-109552438D02*
X59404761Y-109647676D01*
X59404761Y-109647676D02*
X59452380Y-109742914D01*
X59452380Y-109742914D02*
X59499999Y-109933390D01*
X59499999Y-109933390D02*
X59499999Y-110076247D01*
X59499999Y-110076247D02*
X59452380Y-110266723D01*
X59452380Y-110266723D02*
X59404761Y-110361961D01*
X59404761Y-110361961D02*
X59309523Y-110457200D01*
X59309523Y-110457200D02*
X59166666Y-110504819D01*
X59166666Y-110504819D02*
X58928571Y-110504819D01*
X59880952Y-109600057D02*
X59928571Y-109552438D01*
X59928571Y-109552438D02*
X60023809Y-109504819D01*
X60023809Y-109504819D02*
X60261904Y-109504819D01*
X60261904Y-109504819D02*
X60357142Y-109552438D01*
X60357142Y-109552438D02*
X60404761Y-109600057D01*
X60404761Y-109600057D02*
X60452380Y-109695295D01*
X60452380Y-109695295D02*
X60452380Y-109790533D01*
X60452380Y-109790533D02*
X60404761Y-109933390D01*
X60404761Y-109933390D02*
X59833333Y-110504819D01*
X59833333Y-110504819D02*
X60452380Y-110504819D01*
X74713095Y-62449819D02*
X74713095Y-63259342D01*
X74713095Y-63259342D02*
X74760714Y-63354580D01*
X74760714Y-63354580D02*
X74808333Y-63402200D01*
X74808333Y-63402200D02*
X74903571Y-63449819D01*
X74903571Y-63449819D02*
X75094047Y-63449819D01*
X75094047Y-63449819D02*
X75189285Y-63402200D01*
X75189285Y-63402200D02*
X75236904Y-63354580D01*
X75236904Y-63354580D02*
X75284523Y-63259342D01*
X75284523Y-63259342D02*
X75284523Y-62449819D01*
X75808333Y-63449819D02*
X75998809Y-63449819D01*
X75998809Y-63449819D02*
X76094047Y-63402200D01*
X76094047Y-63402200D02*
X76141666Y-63354580D01*
X76141666Y-63354580D02*
X76236904Y-63211723D01*
X76236904Y-63211723D02*
X76284523Y-63021247D01*
X76284523Y-63021247D02*
X76284523Y-62640295D01*
X76284523Y-62640295D02*
X76236904Y-62545057D01*
X76236904Y-62545057D02*
X76189285Y-62497438D01*
X76189285Y-62497438D02*
X76094047Y-62449819D01*
X76094047Y-62449819D02*
X75903571Y-62449819D01*
X75903571Y-62449819D02*
X75808333Y-62497438D01*
X75808333Y-62497438D02*
X75760714Y-62545057D01*
X75760714Y-62545057D02*
X75713095Y-62640295D01*
X75713095Y-62640295D02*
X75713095Y-62878390D01*
X75713095Y-62878390D02*
X75760714Y-62973628D01*
X75760714Y-62973628D02*
X75808333Y-63021247D01*
X75808333Y-63021247D02*
X75903571Y-63068866D01*
X75903571Y-63068866D02*
X76094047Y-63068866D01*
X76094047Y-63068866D02*
X76189285Y-63021247D01*
X76189285Y-63021247D02*
X76236904Y-62973628D01*
X76236904Y-62973628D02*
X76284523Y-62878390D01*
X59972222Y-77931009D02*
X59638889Y-77931009D01*
X59638889Y-78454819D02*
X59638889Y-77454819D01*
X59638889Y-77454819D02*
X60115079Y-77454819D01*
X60496032Y-78454819D02*
X60496032Y-77454819D01*
X60972222Y-78454819D02*
X60972222Y-77454819D01*
X60972222Y-77454819D02*
X61210317Y-77454819D01*
X61210317Y-77454819D02*
X61353174Y-77502438D01*
X61353174Y-77502438D02*
X61448412Y-77597676D01*
X61448412Y-77597676D02*
X61496031Y-77692914D01*
X61496031Y-77692914D02*
X61543650Y-77883390D01*
X61543650Y-77883390D02*
X61543650Y-78026247D01*
X61543650Y-78026247D02*
X61496031Y-78216723D01*
X61496031Y-78216723D02*
X61448412Y-78311961D01*
X61448412Y-78311961D02*
X61353174Y-78407200D01*
X61353174Y-78407200D02*
X61210317Y-78454819D01*
X61210317Y-78454819D02*
X60972222Y-78454819D01*
X61876984Y-77454819D02*
X62496031Y-77454819D01*
X62496031Y-77454819D02*
X62162698Y-77835771D01*
X62162698Y-77835771D02*
X62305555Y-77835771D01*
X62305555Y-77835771D02*
X62400793Y-77883390D01*
X62400793Y-77883390D02*
X62448412Y-77931009D01*
X62448412Y-77931009D02*
X62496031Y-78026247D01*
X62496031Y-78026247D02*
X62496031Y-78264342D01*
X62496031Y-78264342D02*
X62448412Y-78359580D01*
X62448412Y-78359580D02*
X62400793Y-78407200D01*
X62400793Y-78407200D02*
X62305555Y-78454819D01*
X62305555Y-78454819D02*
X62019841Y-78454819D01*
X62019841Y-78454819D02*
X61924603Y-78407200D01*
X61924603Y-78407200D02*
X61876984Y-78359580D01*
X129221666Y-107929819D02*
X129221666Y-108644104D01*
X129221666Y-108644104D02*
X129174047Y-108786961D01*
X129174047Y-108786961D02*
X129078809Y-108882200D01*
X129078809Y-108882200D02*
X128935952Y-108929819D01*
X128935952Y-108929819D02*
X128840714Y-108929819D01*
X129602619Y-107929819D02*
X130269285Y-107929819D01*
X130269285Y-107929819D02*
X129840714Y-108929819D01*
X83857142Y-42524819D02*
X83523809Y-42048628D01*
X83285714Y-42524819D02*
X83285714Y-41524819D01*
X83285714Y-41524819D02*
X83666666Y-41524819D01*
X83666666Y-41524819D02*
X83761904Y-41572438D01*
X83761904Y-41572438D02*
X83809523Y-41620057D01*
X83809523Y-41620057D02*
X83857142Y-41715295D01*
X83857142Y-41715295D02*
X83857142Y-41858152D01*
X83857142Y-41858152D02*
X83809523Y-41953390D01*
X83809523Y-41953390D02*
X83761904Y-42001009D01*
X83761904Y-42001009D02*
X83666666Y-42048628D01*
X83666666Y-42048628D02*
X83285714Y-42048628D01*
X84809523Y-42524819D02*
X84238095Y-42524819D01*
X84523809Y-42524819D02*
X84523809Y-41524819D01*
X84523809Y-41524819D02*
X84428571Y-41667676D01*
X84428571Y-41667676D02*
X84333333Y-41762914D01*
X84333333Y-41762914D02*
X84238095Y-41810533D01*
X85666666Y-41858152D02*
X85666666Y-42524819D01*
X85428571Y-41477200D02*
X85190476Y-42191485D01*
X85190476Y-42191485D02*
X85809523Y-42191485D01*
X65299580Y-45200357D02*
X65347200Y-45247976D01*
X65347200Y-45247976D02*
X65394819Y-45390833D01*
X65394819Y-45390833D02*
X65394819Y-45486071D01*
X65394819Y-45486071D02*
X65347200Y-45628928D01*
X65347200Y-45628928D02*
X65251961Y-45724166D01*
X65251961Y-45724166D02*
X65156723Y-45771785D01*
X65156723Y-45771785D02*
X64966247Y-45819404D01*
X64966247Y-45819404D02*
X64823390Y-45819404D01*
X64823390Y-45819404D02*
X64632914Y-45771785D01*
X64632914Y-45771785D02*
X64537676Y-45724166D01*
X64537676Y-45724166D02*
X64442438Y-45628928D01*
X64442438Y-45628928D02*
X64394819Y-45486071D01*
X64394819Y-45486071D02*
X64394819Y-45390833D01*
X64394819Y-45390833D02*
X64442438Y-45247976D01*
X64442438Y-45247976D02*
X64490057Y-45200357D01*
X64394819Y-44867023D02*
X64394819Y-44247976D01*
X64394819Y-44247976D02*
X64775771Y-44581309D01*
X64775771Y-44581309D02*
X64775771Y-44438452D01*
X64775771Y-44438452D02*
X64823390Y-44343214D01*
X64823390Y-44343214D02*
X64871009Y-44295595D01*
X64871009Y-44295595D02*
X64966247Y-44247976D01*
X64966247Y-44247976D02*
X65204342Y-44247976D01*
X65204342Y-44247976D02*
X65299580Y-44295595D01*
X65299580Y-44295595D02*
X65347200Y-44343214D01*
X65347200Y-44343214D02*
X65394819Y-44438452D01*
X65394819Y-44438452D02*
X65394819Y-44724166D01*
X65394819Y-44724166D02*
X65347200Y-44819404D01*
X65347200Y-44819404D02*
X65299580Y-44867023D01*
X64394819Y-43914642D02*
X64394819Y-43295595D01*
X64394819Y-43295595D02*
X64775771Y-43628928D01*
X64775771Y-43628928D02*
X64775771Y-43486071D01*
X64775771Y-43486071D02*
X64823390Y-43390833D01*
X64823390Y-43390833D02*
X64871009Y-43343214D01*
X64871009Y-43343214D02*
X64966247Y-43295595D01*
X64966247Y-43295595D02*
X65204342Y-43295595D01*
X65204342Y-43295595D02*
X65299580Y-43343214D01*
X65299580Y-43343214D02*
X65347200Y-43390833D01*
X65347200Y-43390833D02*
X65394819Y-43486071D01*
X65394819Y-43486071D02*
X65394819Y-43771785D01*
X65394819Y-43771785D02*
X65347200Y-43867023D01*
X65347200Y-43867023D02*
X65299580Y-43914642D01*
X75604819Y-44300594D02*
X74604819Y-44300594D01*
X74604819Y-44300594D02*
X74604819Y-44062499D01*
X74604819Y-44062499D02*
X74652438Y-43919642D01*
X74652438Y-43919642D02*
X74747676Y-43824404D01*
X74747676Y-43824404D02*
X74842914Y-43776785D01*
X74842914Y-43776785D02*
X75033390Y-43729166D01*
X75033390Y-43729166D02*
X75176247Y-43729166D01*
X75176247Y-43729166D02*
X75366723Y-43776785D01*
X75366723Y-43776785D02*
X75461961Y-43824404D01*
X75461961Y-43824404D02*
X75557200Y-43919642D01*
X75557200Y-43919642D02*
X75604819Y-44062499D01*
X75604819Y-44062499D02*
X75604819Y-44300594D01*
X74604819Y-42872023D02*
X74604819Y-43062499D01*
X74604819Y-43062499D02*
X74652438Y-43157737D01*
X74652438Y-43157737D02*
X74700057Y-43205356D01*
X74700057Y-43205356D02*
X74842914Y-43300594D01*
X74842914Y-43300594D02*
X75033390Y-43348213D01*
X75033390Y-43348213D02*
X75414342Y-43348213D01*
X75414342Y-43348213D02*
X75509580Y-43300594D01*
X75509580Y-43300594D02*
X75557200Y-43252975D01*
X75557200Y-43252975D02*
X75604819Y-43157737D01*
X75604819Y-43157737D02*
X75604819Y-42967261D01*
X75604819Y-42967261D02*
X75557200Y-42872023D01*
X75557200Y-42872023D02*
X75509580Y-42824404D01*
X75509580Y-42824404D02*
X75414342Y-42776785D01*
X75414342Y-42776785D02*
X75176247Y-42776785D01*
X75176247Y-42776785D02*
X75081009Y-42824404D01*
X75081009Y-42824404D02*
X75033390Y-42872023D01*
X75033390Y-42872023D02*
X74985771Y-42967261D01*
X74985771Y-42967261D02*
X74985771Y-43157737D01*
X74985771Y-43157737D02*
X75033390Y-43252975D01*
X75033390Y-43252975D02*
X75081009Y-43300594D01*
X75081009Y-43300594D02*
X75176247Y-43348213D01*
X83857142Y-45524819D02*
X83523809Y-45048628D01*
X83285714Y-45524819D02*
X83285714Y-44524819D01*
X83285714Y-44524819D02*
X83666666Y-44524819D01*
X83666666Y-44524819D02*
X83761904Y-44572438D01*
X83761904Y-44572438D02*
X83809523Y-44620057D01*
X83809523Y-44620057D02*
X83857142Y-44715295D01*
X83857142Y-44715295D02*
X83857142Y-44858152D01*
X83857142Y-44858152D02*
X83809523Y-44953390D01*
X83809523Y-44953390D02*
X83761904Y-45001009D01*
X83761904Y-45001009D02*
X83666666Y-45048628D01*
X83666666Y-45048628D02*
X83285714Y-45048628D01*
X84809523Y-45524819D02*
X84238095Y-45524819D01*
X84523809Y-45524819D02*
X84523809Y-44524819D01*
X84523809Y-44524819D02*
X84428571Y-44667676D01*
X84428571Y-44667676D02*
X84333333Y-44762914D01*
X84333333Y-44762914D02*
X84238095Y-44810533D01*
X85714285Y-44524819D02*
X85238095Y-44524819D01*
X85238095Y-44524819D02*
X85190476Y-45001009D01*
X85190476Y-45001009D02*
X85238095Y-44953390D01*
X85238095Y-44953390D02*
X85333333Y-44905771D01*
X85333333Y-44905771D02*
X85571428Y-44905771D01*
X85571428Y-44905771D02*
X85666666Y-44953390D01*
X85666666Y-44953390D02*
X85714285Y-45001009D01*
X85714285Y-45001009D02*
X85761904Y-45096247D01*
X85761904Y-45096247D02*
X85761904Y-45334342D01*
X85761904Y-45334342D02*
X85714285Y-45429580D01*
X85714285Y-45429580D02*
X85666666Y-45477200D01*
X85666666Y-45477200D02*
X85571428Y-45524819D01*
X85571428Y-45524819D02*
X85333333Y-45524819D01*
X85333333Y-45524819D02*
X85238095Y-45477200D01*
X85238095Y-45477200D02*
X85190476Y-45429580D01*
X134857142Y-105859580D02*
X134809523Y-105907200D01*
X134809523Y-105907200D02*
X134666666Y-105954819D01*
X134666666Y-105954819D02*
X134571428Y-105954819D01*
X134571428Y-105954819D02*
X134428571Y-105907200D01*
X134428571Y-105907200D02*
X134333333Y-105811961D01*
X134333333Y-105811961D02*
X134285714Y-105716723D01*
X134285714Y-105716723D02*
X134238095Y-105526247D01*
X134238095Y-105526247D02*
X134238095Y-105383390D01*
X134238095Y-105383390D02*
X134285714Y-105192914D01*
X134285714Y-105192914D02*
X134333333Y-105097676D01*
X134333333Y-105097676D02*
X134428571Y-105002438D01*
X134428571Y-105002438D02*
X134571428Y-104954819D01*
X134571428Y-104954819D02*
X134666666Y-104954819D01*
X134666666Y-104954819D02*
X134809523Y-105002438D01*
X134809523Y-105002438D02*
X134857142Y-105050057D01*
X135809523Y-105954819D02*
X135238095Y-105954819D01*
X135523809Y-105954819D02*
X135523809Y-104954819D01*
X135523809Y-104954819D02*
X135428571Y-105097676D01*
X135428571Y-105097676D02*
X135333333Y-105192914D01*
X135333333Y-105192914D02*
X135238095Y-105240533D01*
X136285714Y-105954819D02*
X136476190Y-105954819D01*
X136476190Y-105954819D02*
X136571428Y-105907200D01*
X136571428Y-105907200D02*
X136619047Y-105859580D01*
X136619047Y-105859580D02*
X136714285Y-105716723D01*
X136714285Y-105716723D02*
X136761904Y-105526247D01*
X136761904Y-105526247D02*
X136761904Y-105145295D01*
X136761904Y-105145295D02*
X136714285Y-105050057D01*
X136714285Y-105050057D02*
X136666666Y-105002438D01*
X136666666Y-105002438D02*
X136571428Y-104954819D01*
X136571428Y-104954819D02*
X136380952Y-104954819D01*
X136380952Y-104954819D02*
X136285714Y-105002438D01*
X136285714Y-105002438D02*
X136238095Y-105050057D01*
X136238095Y-105050057D02*
X136190476Y-105145295D01*
X136190476Y-105145295D02*
X136190476Y-105383390D01*
X136190476Y-105383390D02*
X136238095Y-105478628D01*
X136238095Y-105478628D02*
X136285714Y-105526247D01*
X136285714Y-105526247D02*
X136380952Y-105573866D01*
X136380952Y-105573866D02*
X136571428Y-105573866D01*
X136571428Y-105573866D02*
X136666666Y-105526247D01*
X136666666Y-105526247D02*
X136714285Y-105478628D01*
X136714285Y-105478628D02*
X136761904Y-105383390D01*
X87257142Y-104024819D02*
X86923809Y-103548628D01*
X86685714Y-104024819D02*
X86685714Y-103024819D01*
X86685714Y-103024819D02*
X87066666Y-103024819D01*
X87066666Y-103024819D02*
X87161904Y-103072438D01*
X87161904Y-103072438D02*
X87209523Y-103120057D01*
X87209523Y-103120057D02*
X87257142Y-103215295D01*
X87257142Y-103215295D02*
X87257142Y-103358152D01*
X87257142Y-103358152D02*
X87209523Y-103453390D01*
X87209523Y-103453390D02*
X87161904Y-103501009D01*
X87161904Y-103501009D02*
X87066666Y-103548628D01*
X87066666Y-103548628D02*
X86685714Y-103548628D01*
X88209523Y-104024819D02*
X87638095Y-104024819D01*
X87923809Y-104024819D02*
X87923809Y-103024819D01*
X87923809Y-103024819D02*
X87828571Y-103167676D01*
X87828571Y-103167676D02*
X87733333Y-103262914D01*
X87733333Y-103262914D02*
X87638095Y-103310533D01*
X89161904Y-104024819D02*
X88590476Y-104024819D01*
X88876190Y-104024819D02*
X88876190Y-103024819D01*
X88876190Y-103024819D02*
X88780952Y-103167676D01*
X88780952Y-103167676D02*
X88685714Y-103262914D01*
X88685714Y-103262914D02*
X88590476Y-103310533D01*
X82359580Y-79867857D02*
X82407200Y-79915476D01*
X82407200Y-79915476D02*
X82454819Y-80058333D01*
X82454819Y-80058333D02*
X82454819Y-80153571D01*
X82454819Y-80153571D02*
X82407200Y-80296428D01*
X82407200Y-80296428D02*
X82311961Y-80391666D01*
X82311961Y-80391666D02*
X82216723Y-80439285D01*
X82216723Y-80439285D02*
X82026247Y-80486904D01*
X82026247Y-80486904D02*
X81883390Y-80486904D01*
X81883390Y-80486904D02*
X81692914Y-80439285D01*
X81692914Y-80439285D02*
X81597676Y-80391666D01*
X81597676Y-80391666D02*
X81502438Y-80296428D01*
X81502438Y-80296428D02*
X81454819Y-80153571D01*
X81454819Y-80153571D02*
X81454819Y-80058333D01*
X81454819Y-80058333D02*
X81502438Y-79915476D01*
X81502438Y-79915476D02*
X81550057Y-79867857D01*
X81550057Y-79486904D02*
X81502438Y-79439285D01*
X81502438Y-79439285D02*
X81454819Y-79344047D01*
X81454819Y-79344047D02*
X81454819Y-79105952D01*
X81454819Y-79105952D02*
X81502438Y-79010714D01*
X81502438Y-79010714D02*
X81550057Y-78963095D01*
X81550057Y-78963095D02*
X81645295Y-78915476D01*
X81645295Y-78915476D02*
X81740533Y-78915476D01*
X81740533Y-78915476D02*
X81883390Y-78963095D01*
X81883390Y-78963095D02*
X82454819Y-79534523D01*
X82454819Y-79534523D02*
X82454819Y-78915476D01*
X81454819Y-78058333D02*
X81454819Y-78248809D01*
X81454819Y-78248809D02*
X81502438Y-78344047D01*
X81502438Y-78344047D02*
X81550057Y-78391666D01*
X81550057Y-78391666D02*
X81692914Y-78486904D01*
X81692914Y-78486904D02*
X81883390Y-78534523D01*
X81883390Y-78534523D02*
X82264342Y-78534523D01*
X82264342Y-78534523D02*
X82359580Y-78486904D01*
X82359580Y-78486904D02*
X82407200Y-78439285D01*
X82407200Y-78439285D02*
X82454819Y-78344047D01*
X82454819Y-78344047D02*
X82454819Y-78153571D01*
X82454819Y-78153571D02*
X82407200Y-78058333D01*
X82407200Y-78058333D02*
X82359580Y-78010714D01*
X82359580Y-78010714D02*
X82264342Y-77963095D01*
X82264342Y-77963095D02*
X82026247Y-77963095D01*
X82026247Y-77963095D02*
X81931009Y-78010714D01*
X81931009Y-78010714D02*
X81883390Y-78058333D01*
X81883390Y-78058333D02*
X81835771Y-78153571D01*
X81835771Y-78153571D02*
X81835771Y-78344047D01*
X81835771Y-78344047D02*
X81883390Y-78439285D01*
X81883390Y-78439285D02*
X81931009Y-78486904D01*
X81931009Y-78486904D02*
X82026247Y-78534523D01*
X83524819Y-98055238D02*
X83048628Y-98388571D01*
X83524819Y-98626666D02*
X82524819Y-98626666D01*
X82524819Y-98626666D02*
X82524819Y-98245714D01*
X82524819Y-98245714D02*
X82572438Y-98150476D01*
X82572438Y-98150476D02*
X82620057Y-98102857D01*
X82620057Y-98102857D02*
X82715295Y-98055238D01*
X82715295Y-98055238D02*
X82858152Y-98055238D01*
X82858152Y-98055238D02*
X82953390Y-98102857D01*
X82953390Y-98102857D02*
X83001009Y-98150476D01*
X83001009Y-98150476D02*
X83048628Y-98245714D01*
X83048628Y-98245714D02*
X83048628Y-98626666D01*
X82524819Y-97769523D02*
X83524819Y-97436190D01*
X83524819Y-97436190D02*
X82524819Y-97102857D01*
X82524819Y-96864761D02*
X82524819Y-96245714D01*
X82524819Y-96245714D02*
X82905771Y-96579047D01*
X82905771Y-96579047D02*
X82905771Y-96436190D01*
X82905771Y-96436190D02*
X82953390Y-96340952D01*
X82953390Y-96340952D02*
X83001009Y-96293333D01*
X83001009Y-96293333D02*
X83096247Y-96245714D01*
X83096247Y-96245714D02*
X83334342Y-96245714D01*
X83334342Y-96245714D02*
X83429580Y-96293333D01*
X83429580Y-96293333D02*
X83477200Y-96340952D01*
X83477200Y-96340952D02*
X83524819Y-96436190D01*
X83524819Y-96436190D02*
X83524819Y-96721904D01*
X83524819Y-96721904D02*
X83477200Y-96817142D01*
X83477200Y-96817142D02*
X83429580Y-96864761D01*
X63659580Y-69680357D02*
X63707200Y-69727976D01*
X63707200Y-69727976D02*
X63754819Y-69870833D01*
X63754819Y-69870833D02*
X63754819Y-69966071D01*
X63754819Y-69966071D02*
X63707200Y-70108928D01*
X63707200Y-70108928D02*
X63611961Y-70204166D01*
X63611961Y-70204166D02*
X63516723Y-70251785D01*
X63516723Y-70251785D02*
X63326247Y-70299404D01*
X63326247Y-70299404D02*
X63183390Y-70299404D01*
X63183390Y-70299404D02*
X62992914Y-70251785D01*
X62992914Y-70251785D02*
X62897676Y-70204166D01*
X62897676Y-70204166D02*
X62802438Y-70108928D01*
X62802438Y-70108928D02*
X62754819Y-69966071D01*
X62754819Y-69966071D02*
X62754819Y-69870833D01*
X62754819Y-69870833D02*
X62802438Y-69727976D01*
X62802438Y-69727976D02*
X62850057Y-69680357D01*
X62754819Y-69347023D02*
X62754819Y-68727976D01*
X62754819Y-68727976D02*
X63135771Y-69061309D01*
X63135771Y-69061309D02*
X63135771Y-68918452D01*
X63135771Y-68918452D02*
X63183390Y-68823214D01*
X63183390Y-68823214D02*
X63231009Y-68775595D01*
X63231009Y-68775595D02*
X63326247Y-68727976D01*
X63326247Y-68727976D02*
X63564342Y-68727976D01*
X63564342Y-68727976D02*
X63659580Y-68775595D01*
X63659580Y-68775595D02*
X63707200Y-68823214D01*
X63707200Y-68823214D02*
X63754819Y-68918452D01*
X63754819Y-68918452D02*
X63754819Y-69204166D01*
X63754819Y-69204166D02*
X63707200Y-69299404D01*
X63707200Y-69299404D02*
X63659580Y-69347023D01*
X63088152Y-67870833D02*
X63754819Y-67870833D01*
X62707200Y-68108928D02*
X63421485Y-68347023D01*
X63421485Y-68347023D02*
X63421485Y-67727976D01*
X91279819Y-97261904D02*
X92089342Y-97261904D01*
X92089342Y-97261904D02*
X92184580Y-97214285D01*
X92184580Y-97214285D02*
X92232200Y-97166666D01*
X92232200Y-97166666D02*
X92279819Y-97071428D01*
X92279819Y-97071428D02*
X92279819Y-96880952D01*
X92279819Y-96880952D02*
X92232200Y-96785714D01*
X92232200Y-96785714D02*
X92184580Y-96738095D01*
X92184580Y-96738095D02*
X92089342Y-96690476D01*
X92089342Y-96690476D02*
X91279819Y-96690476D01*
X91708390Y-96071428D02*
X91660771Y-96166666D01*
X91660771Y-96166666D02*
X91613152Y-96214285D01*
X91613152Y-96214285D02*
X91517914Y-96261904D01*
X91517914Y-96261904D02*
X91470295Y-96261904D01*
X91470295Y-96261904D02*
X91375057Y-96214285D01*
X91375057Y-96214285D02*
X91327438Y-96166666D01*
X91327438Y-96166666D02*
X91279819Y-96071428D01*
X91279819Y-96071428D02*
X91279819Y-95880952D01*
X91279819Y-95880952D02*
X91327438Y-95785714D01*
X91327438Y-95785714D02*
X91375057Y-95738095D01*
X91375057Y-95738095D02*
X91470295Y-95690476D01*
X91470295Y-95690476D02*
X91517914Y-95690476D01*
X91517914Y-95690476D02*
X91613152Y-95738095D01*
X91613152Y-95738095D02*
X91660771Y-95785714D01*
X91660771Y-95785714D02*
X91708390Y-95880952D01*
X91708390Y-95880952D02*
X91708390Y-96071428D01*
X91708390Y-96071428D02*
X91756009Y-96166666D01*
X91756009Y-96166666D02*
X91803628Y-96214285D01*
X91803628Y-96214285D02*
X91898866Y-96261904D01*
X91898866Y-96261904D02*
X92089342Y-96261904D01*
X92089342Y-96261904D02*
X92184580Y-96214285D01*
X92184580Y-96214285D02*
X92232200Y-96166666D01*
X92232200Y-96166666D02*
X92279819Y-96071428D01*
X92279819Y-96071428D02*
X92279819Y-95880952D01*
X92279819Y-95880952D02*
X92232200Y-95785714D01*
X92232200Y-95785714D02*
X92184580Y-95738095D01*
X92184580Y-95738095D02*
X92089342Y-95690476D01*
X92089342Y-95690476D02*
X91898866Y-95690476D01*
X91898866Y-95690476D02*
X91803628Y-95738095D01*
X91803628Y-95738095D02*
X91756009Y-95785714D01*
X91756009Y-95785714D02*
X91708390Y-95880952D01*
X118557142Y-88289580D02*
X118509523Y-88337200D01*
X118509523Y-88337200D02*
X118366666Y-88384819D01*
X118366666Y-88384819D02*
X118271428Y-88384819D01*
X118271428Y-88384819D02*
X118128571Y-88337200D01*
X118128571Y-88337200D02*
X118033333Y-88241961D01*
X118033333Y-88241961D02*
X117985714Y-88146723D01*
X117985714Y-88146723D02*
X117938095Y-87956247D01*
X117938095Y-87956247D02*
X117938095Y-87813390D01*
X117938095Y-87813390D02*
X117985714Y-87622914D01*
X117985714Y-87622914D02*
X118033333Y-87527676D01*
X118033333Y-87527676D02*
X118128571Y-87432438D01*
X118128571Y-87432438D02*
X118271428Y-87384819D01*
X118271428Y-87384819D02*
X118366666Y-87384819D01*
X118366666Y-87384819D02*
X118509523Y-87432438D01*
X118509523Y-87432438D02*
X118557142Y-87480057D01*
X118938095Y-87480057D02*
X118985714Y-87432438D01*
X118985714Y-87432438D02*
X119080952Y-87384819D01*
X119080952Y-87384819D02*
X119319047Y-87384819D01*
X119319047Y-87384819D02*
X119414285Y-87432438D01*
X119414285Y-87432438D02*
X119461904Y-87480057D01*
X119461904Y-87480057D02*
X119509523Y-87575295D01*
X119509523Y-87575295D02*
X119509523Y-87670533D01*
X119509523Y-87670533D02*
X119461904Y-87813390D01*
X119461904Y-87813390D02*
X118890476Y-88384819D01*
X118890476Y-88384819D02*
X119509523Y-88384819D01*
X120128571Y-87384819D02*
X120223809Y-87384819D01*
X120223809Y-87384819D02*
X120319047Y-87432438D01*
X120319047Y-87432438D02*
X120366666Y-87480057D01*
X120366666Y-87480057D02*
X120414285Y-87575295D01*
X120414285Y-87575295D02*
X120461904Y-87765771D01*
X120461904Y-87765771D02*
X120461904Y-88003866D01*
X120461904Y-88003866D02*
X120414285Y-88194342D01*
X120414285Y-88194342D02*
X120366666Y-88289580D01*
X120366666Y-88289580D02*
X120319047Y-88337200D01*
X120319047Y-88337200D02*
X120223809Y-88384819D01*
X120223809Y-88384819D02*
X120128571Y-88384819D01*
X120128571Y-88384819D02*
X120033333Y-88337200D01*
X120033333Y-88337200D02*
X119985714Y-88289580D01*
X119985714Y-88289580D02*
X119938095Y-88194342D01*
X119938095Y-88194342D02*
X119890476Y-88003866D01*
X119890476Y-88003866D02*
X119890476Y-87765771D01*
X119890476Y-87765771D02*
X119938095Y-87575295D01*
X119938095Y-87575295D02*
X119985714Y-87480057D01*
X119985714Y-87480057D02*
X120033333Y-87432438D01*
X120033333Y-87432438D02*
X120128571Y-87384819D01*
X82359580Y-52642857D02*
X82407200Y-52690476D01*
X82407200Y-52690476D02*
X82454819Y-52833333D01*
X82454819Y-52833333D02*
X82454819Y-52928571D01*
X82454819Y-52928571D02*
X82407200Y-53071428D01*
X82407200Y-53071428D02*
X82311961Y-53166666D01*
X82311961Y-53166666D02*
X82216723Y-53214285D01*
X82216723Y-53214285D02*
X82026247Y-53261904D01*
X82026247Y-53261904D02*
X81883390Y-53261904D01*
X81883390Y-53261904D02*
X81692914Y-53214285D01*
X81692914Y-53214285D02*
X81597676Y-53166666D01*
X81597676Y-53166666D02*
X81502438Y-53071428D01*
X81502438Y-53071428D02*
X81454819Y-52928571D01*
X81454819Y-52928571D02*
X81454819Y-52833333D01*
X81454819Y-52833333D02*
X81502438Y-52690476D01*
X81502438Y-52690476D02*
X81550057Y-52642857D01*
X81454819Y-52309523D02*
X81454819Y-51690476D01*
X81454819Y-51690476D02*
X81835771Y-52023809D01*
X81835771Y-52023809D02*
X81835771Y-51880952D01*
X81835771Y-51880952D02*
X81883390Y-51785714D01*
X81883390Y-51785714D02*
X81931009Y-51738095D01*
X81931009Y-51738095D02*
X82026247Y-51690476D01*
X82026247Y-51690476D02*
X82264342Y-51690476D01*
X82264342Y-51690476D02*
X82359580Y-51738095D01*
X82359580Y-51738095D02*
X82407200Y-51785714D01*
X82407200Y-51785714D02*
X82454819Y-51880952D01*
X82454819Y-51880952D02*
X82454819Y-52166666D01*
X82454819Y-52166666D02*
X82407200Y-52261904D01*
X82407200Y-52261904D02*
X82359580Y-52309523D01*
X81454819Y-51071428D02*
X81454819Y-50976190D01*
X81454819Y-50976190D02*
X81502438Y-50880952D01*
X81502438Y-50880952D02*
X81550057Y-50833333D01*
X81550057Y-50833333D02*
X81645295Y-50785714D01*
X81645295Y-50785714D02*
X81835771Y-50738095D01*
X81835771Y-50738095D02*
X82073866Y-50738095D01*
X82073866Y-50738095D02*
X82264342Y-50785714D01*
X82264342Y-50785714D02*
X82359580Y-50833333D01*
X82359580Y-50833333D02*
X82407200Y-50880952D01*
X82407200Y-50880952D02*
X82454819Y-50976190D01*
X82454819Y-50976190D02*
X82454819Y-51071428D01*
X82454819Y-51071428D02*
X82407200Y-51166666D01*
X82407200Y-51166666D02*
X82359580Y-51214285D01*
X82359580Y-51214285D02*
X82264342Y-51261904D01*
X82264342Y-51261904D02*
X82073866Y-51309523D01*
X82073866Y-51309523D02*
X81835771Y-51309523D01*
X81835771Y-51309523D02*
X81645295Y-51261904D01*
X81645295Y-51261904D02*
X81550057Y-51214285D01*
X81550057Y-51214285D02*
X81502438Y-51166666D01*
X81502438Y-51166666D02*
X81454819Y-51071428D01*
X83857142Y-39524819D02*
X83523809Y-39048628D01*
X83285714Y-39524819D02*
X83285714Y-38524819D01*
X83285714Y-38524819D02*
X83666666Y-38524819D01*
X83666666Y-38524819D02*
X83761904Y-38572438D01*
X83761904Y-38572438D02*
X83809523Y-38620057D01*
X83809523Y-38620057D02*
X83857142Y-38715295D01*
X83857142Y-38715295D02*
X83857142Y-38858152D01*
X83857142Y-38858152D02*
X83809523Y-38953390D01*
X83809523Y-38953390D02*
X83761904Y-39001009D01*
X83761904Y-39001009D02*
X83666666Y-39048628D01*
X83666666Y-39048628D02*
X83285714Y-39048628D01*
X84809523Y-39524819D02*
X84238095Y-39524819D01*
X84523809Y-39524819D02*
X84523809Y-38524819D01*
X84523809Y-38524819D02*
X84428571Y-38667676D01*
X84428571Y-38667676D02*
X84333333Y-38762914D01*
X84333333Y-38762914D02*
X84238095Y-38810533D01*
X85142857Y-38524819D02*
X85761904Y-38524819D01*
X85761904Y-38524819D02*
X85428571Y-38905771D01*
X85428571Y-38905771D02*
X85571428Y-38905771D01*
X85571428Y-38905771D02*
X85666666Y-38953390D01*
X85666666Y-38953390D02*
X85714285Y-39001009D01*
X85714285Y-39001009D02*
X85761904Y-39096247D01*
X85761904Y-39096247D02*
X85761904Y-39334342D01*
X85761904Y-39334342D02*
X85714285Y-39429580D01*
X85714285Y-39429580D02*
X85666666Y-39477200D01*
X85666666Y-39477200D02*
X85571428Y-39524819D01*
X85571428Y-39524819D02*
X85285714Y-39524819D01*
X85285714Y-39524819D02*
X85190476Y-39477200D01*
X85190476Y-39477200D02*
X85142857Y-39429580D01*
X68404761Y-85424819D02*
X68071428Y-84948628D01*
X67833333Y-85424819D02*
X67833333Y-84424819D01*
X67833333Y-84424819D02*
X68214285Y-84424819D01*
X68214285Y-84424819D02*
X68309523Y-84472438D01*
X68309523Y-84472438D02*
X68357142Y-84520057D01*
X68357142Y-84520057D02*
X68404761Y-84615295D01*
X68404761Y-84615295D02*
X68404761Y-84758152D01*
X68404761Y-84758152D02*
X68357142Y-84853390D01*
X68357142Y-84853390D02*
X68309523Y-84901009D01*
X68309523Y-84901009D02*
X68214285Y-84948628D01*
X68214285Y-84948628D02*
X67833333Y-84948628D01*
X68690476Y-84424819D02*
X69023809Y-85424819D01*
X69023809Y-85424819D02*
X69357142Y-84424819D01*
X70214285Y-85424819D02*
X69642857Y-85424819D01*
X69928571Y-85424819D02*
X69928571Y-84424819D01*
X69928571Y-84424819D02*
X69833333Y-84567676D01*
X69833333Y-84567676D02*
X69738095Y-84662914D01*
X69738095Y-84662914D02*
X69642857Y-84710533D01*
X91759580Y-88516666D02*
X91807200Y-88564285D01*
X91807200Y-88564285D02*
X91854819Y-88707142D01*
X91854819Y-88707142D02*
X91854819Y-88802380D01*
X91854819Y-88802380D02*
X91807200Y-88945237D01*
X91807200Y-88945237D02*
X91711961Y-89040475D01*
X91711961Y-89040475D02*
X91616723Y-89088094D01*
X91616723Y-89088094D02*
X91426247Y-89135713D01*
X91426247Y-89135713D02*
X91283390Y-89135713D01*
X91283390Y-89135713D02*
X91092914Y-89088094D01*
X91092914Y-89088094D02*
X90997676Y-89040475D01*
X90997676Y-89040475D02*
X90902438Y-88945237D01*
X90902438Y-88945237D02*
X90854819Y-88802380D01*
X90854819Y-88802380D02*
X90854819Y-88707142D01*
X90854819Y-88707142D02*
X90902438Y-88564285D01*
X90902438Y-88564285D02*
X90950057Y-88516666D01*
X90950057Y-88135713D02*
X90902438Y-88088094D01*
X90902438Y-88088094D02*
X90854819Y-87992856D01*
X90854819Y-87992856D02*
X90854819Y-87754761D01*
X90854819Y-87754761D02*
X90902438Y-87659523D01*
X90902438Y-87659523D02*
X90950057Y-87611904D01*
X90950057Y-87611904D02*
X91045295Y-87564285D01*
X91045295Y-87564285D02*
X91140533Y-87564285D01*
X91140533Y-87564285D02*
X91283390Y-87611904D01*
X91283390Y-87611904D02*
X91854819Y-88183332D01*
X91854819Y-88183332D02*
X91854819Y-87564285D01*
X136024819Y-78341666D02*
X135548628Y-78674999D01*
X136024819Y-78913094D02*
X135024819Y-78913094D01*
X135024819Y-78913094D02*
X135024819Y-78532142D01*
X135024819Y-78532142D02*
X135072438Y-78436904D01*
X135072438Y-78436904D02*
X135120057Y-78389285D01*
X135120057Y-78389285D02*
X135215295Y-78341666D01*
X135215295Y-78341666D02*
X135358152Y-78341666D01*
X135358152Y-78341666D02*
X135453390Y-78389285D01*
X135453390Y-78389285D02*
X135501009Y-78436904D01*
X135501009Y-78436904D02*
X135548628Y-78532142D01*
X135548628Y-78532142D02*
X135548628Y-78913094D01*
X135120057Y-77960713D02*
X135072438Y-77913094D01*
X135072438Y-77913094D02*
X135024819Y-77817856D01*
X135024819Y-77817856D02*
X135024819Y-77579761D01*
X135024819Y-77579761D02*
X135072438Y-77484523D01*
X135072438Y-77484523D02*
X135120057Y-77436904D01*
X135120057Y-77436904D02*
X135215295Y-77389285D01*
X135215295Y-77389285D02*
X135310533Y-77389285D01*
X135310533Y-77389285D02*
X135453390Y-77436904D01*
X135453390Y-77436904D02*
X136024819Y-78008332D01*
X136024819Y-78008332D02*
X136024819Y-77389285D01*
X130238095Y-95054819D02*
X130238095Y-95864342D01*
X130238095Y-95864342D02*
X130285714Y-95959580D01*
X130285714Y-95959580D02*
X130333333Y-96007200D01*
X130333333Y-96007200D02*
X130428571Y-96054819D01*
X130428571Y-96054819D02*
X130619047Y-96054819D01*
X130619047Y-96054819D02*
X130714285Y-96007200D01*
X130714285Y-96007200D02*
X130761904Y-95959580D01*
X130761904Y-95959580D02*
X130809523Y-95864342D01*
X130809523Y-95864342D02*
X130809523Y-95054819D01*
X131238095Y-95150057D02*
X131285714Y-95102438D01*
X131285714Y-95102438D02*
X131380952Y-95054819D01*
X131380952Y-95054819D02*
X131619047Y-95054819D01*
X131619047Y-95054819D02*
X131714285Y-95102438D01*
X131714285Y-95102438D02*
X131761904Y-95150057D01*
X131761904Y-95150057D02*
X131809523Y-95245295D01*
X131809523Y-95245295D02*
X131809523Y-95340533D01*
X131809523Y-95340533D02*
X131761904Y-95483390D01*
X131761904Y-95483390D02*
X131190476Y-96054819D01*
X131190476Y-96054819D02*
X131809523Y-96054819D01*
X141238095Y-38454819D02*
X141238095Y-37454819D01*
X141238095Y-37931009D02*
X141809523Y-37931009D01*
X141809523Y-38454819D02*
X141809523Y-37454819D01*
X142714285Y-37788152D02*
X142714285Y-38454819D01*
X142476190Y-37407200D02*
X142238095Y-38121485D01*
X142238095Y-38121485D02*
X142857142Y-38121485D01*
X116407142Y-106759580D02*
X116359523Y-106807200D01*
X116359523Y-106807200D02*
X116216666Y-106854819D01*
X116216666Y-106854819D02*
X116121428Y-106854819D01*
X116121428Y-106854819D02*
X115978571Y-106807200D01*
X115978571Y-106807200D02*
X115883333Y-106711961D01*
X115883333Y-106711961D02*
X115835714Y-106616723D01*
X115835714Y-106616723D02*
X115788095Y-106426247D01*
X115788095Y-106426247D02*
X115788095Y-106283390D01*
X115788095Y-106283390D02*
X115835714Y-106092914D01*
X115835714Y-106092914D02*
X115883333Y-105997676D01*
X115883333Y-105997676D02*
X115978571Y-105902438D01*
X115978571Y-105902438D02*
X116121428Y-105854819D01*
X116121428Y-105854819D02*
X116216666Y-105854819D01*
X116216666Y-105854819D02*
X116359523Y-105902438D01*
X116359523Y-105902438D02*
X116407142Y-105950057D01*
X116788095Y-105950057D02*
X116835714Y-105902438D01*
X116835714Y-105902438D02*
X116930952Y-105854819D01*
X116930952Y-105854819D02*
X117169047Y-105854819D01*
X117169047Y-105854819D02*
X117264285Y-105902438D01*
X117264285Y-105902438D02*
X117311904Y-105950057D01*
X117311904Y-105950057D02*
X117359523Y-106045295D01*
X117359523Y-106045295D02*
X117359523Y-106140533D01*
X117359523Y-106140533D02*
X117311904Y-106283390D01*
X117311904Y-106283390D02*
X116740476Y-106854819D01*
X116740476Y-106854819D02*
X117359523Y-106854819D01*
X117740476Y-105950057D02*
X117788095Y-105902438D01*
X117788095Y-105902438D02*
X117883333Y-105854819D01*
X117883333Y-105854819D02*
X118121428Y-105854819D01*
X118121428Y-105854819D02*
X118216666Y-105902438D01*
X118216666Y-105902438D02*
X118264285Y-105950057D01*
X118264285Y-105950057D02*
X118311904Y-106045295D01*
X118311904Y-106045295D02*
X118311904Y-106140533D01*
X118311904Y-106140533D02*
X118264285Y-106283390D01*
X118264285Y-106283390D02*
X117692857Y-106854819D01*
X117692857Y-106854819D02*
X118311904Y-106854819D01*
X82859580Y-94966666D02*
X82907200Y-95014285D01*
X82907200Y-95014285D02*
X82954819Y-95157142D01*
X82954819Y-95157142D02*
X82954819Y-95252380D01*
X82954819Y-95252380D02*
X82907200Y-95395237D01*
X82907200Y-95395237D02*
X82811961Y-95490475D01*
X82811961Y-95490475D02*
X82716723Y-95538094D01*
X82716723Y-95538094D02*
X82526247Y-95585713D01*
X82526247Y-95585713D02*
X82383390Y-95585713D01*
X82383390Y-95585713D02*
X82192914Y-95538094D01*
X82192914Y-95538094D02*
X82097676Y-95490475D01*
X82097676Y-95490475D02*
X82002438Y-95395237D01*
X82002438Y-95395237D02*
X81954819Y-95252380D01*
X81954819Y-95252380D02*
X81954819Y-95157142D01*
X81954819Y-95157142D02*
X82002438Y-95014285D01*
X82002438Y-95014285D02*
X82050057Y-94966666D01*
X81954819Y-94109523D02*
X81954819Y-94299999D01*
X81954819Y-94299999D02*
X82002438Y-94395237D01*
X82002438Y-94395237D02*
X82050057Y-94442856D01*
X82050057Y-94442856D02*
X82192914Y-94538094D01*
X82192914Y-94538094D02*
X82383390Y-94585713D01*
X82383390Y-94585713D02*
X82764342Y-94585713D01*
X82764342Y-94585713D02*
X82859580Y-94538094D01*
X82859580Y-94538094D02*
X82907200Y-94490475D01*
X82907200Y-94490475D02*
X82954819Y-94395237D01*
X82954819Y-94395237D02*
X82954819Y-94204761D01*
X82954819Y-94204761D02*
X82907200Y-94109523D01*
X82907200Y-94109523D02*
X82859580Y-94061904D01*
X82859580Y-94061904D02*
X82764342Y-94014285D01*
X82764342Y-94014285D02*
X82526247Y-94014285D01*
X82526247Y-94014285D02*
X82431009Y-94061904D01*
X82431009Y-94061904D02*
X82383390Y-94109523D01*
X82383390Y-94109523D02*
X82335771Y-94204761D01*
X82335771Y-94204761D02*
X82335771Y-94395237D01*
X82335771Y-94395237D02*
X82383390Y-94490475D01*
X82383390Y-94490475D02*
X82431009Y-94538094D01*
X82431009Y-94538094D02*
X82526247Y-94585713D01*
X82359580Y-70642857D02*
X82407200Y-70690476D01*
X82407200Y-70690476D02*
X82454819Y-70833333D01*
X82454819Y-70833333D02*
X82454819Y-70928571D01*
X82454819Y-70928571D02*
X82407200Y-71071428D01*
X82407200Y-71071428D02*
X82311961Y-71166666D01*
X82311961Y-71166666D02*
X82216723Y-71214285D01*
X82216723Y-71214285D02*
X82026247Y-71261904D01*
X82026247Y-71261904D02*
X81883390Y-71261904D01*
X81883390Y-71261904D02*
X81692914Y-71214285D01*
X81692914Y-71214285D02*
X81597676Y-71166666D01*
X81597676Y-71166666D02*
X81502438Y-71071428D01*
X81502438Y-71071428D02*
X81454819Y-70928571D01*
X81454819Y-70928571D02*
X81454819Y-70833333D01*
X81454819Y-70833333D02*
X81502438Y-70690476D01*
X81502438Y-70690476D02*
X81550057Y-70642857D01*
X81454819Y-70309523D02*
X81454819Y-69690476D01*
X81454819Y-69690476D02*
X81835771Y-70023809D01*
X81835771Y-70023809D02*
X81835771Y-69880952D01*
X81835771Y-69880952D02*
X81883390Y-69785714D01*
X81883390Y-69785714D02*
X81931009Y-69738095D01*
X81931009Y-69738095D02*
X82026247Y-69690476D01*
X82026247Y-69690476D02*
X82264342Y-69690476D01*
X82264342Y-69690476D02*
X82359580Y-69738095D01*
X82359580Y-69738095D02*
X82407200Y-69785714D01*
X82407200Y-69785714D02*
X82454819Y-69880952D01*
X82454819Y-69880952D02*
X82454819Y-70166666D01*
X82454819Y-70166666D02*
X82407200Y-70261904D01*
X82407200Y-70261904D02*
X82359580Y-70309523D01*
X81550057Y-69309523D02*
X81502438Y-69261904D01*
X81502438Y-69261904D02*
X81454819Y-69166666D01*
X81454819Y-69166666D02*
X81454819Y-68928571D01*
X81454819Y-68928571D02*
X81502438Y-68833333D01*
X81502438Y-68833333D02*
X81550057Y-68785714D01*
X81550057Y-68785714D02*
X81645295Y-68738095D01*
X81645295Y-68738095D02*
X81740533Y-68738095D01*
X81740533Y-68738095D02*
X81883390Y-68785714D01*
X81883390Y-68785714D02*
X82454819Y-69357142D01*
X82454819Y-69357142D02*
X82454819Y-68738095D01*
X82359580Y-61142857D02*
X82407200Y-61190476D01*
X82407200Y-61190476D02*
X82454819Y-61333333D01*
X82454819Y-61333333D02*
X82454819Y-61428571D01*
X82454819Y-61428571D02*
X82407200Y-61571428D01*
X82407200Y-61571428D02*
X82311961Y-61666666D01*
X82311961Y-61666666D02*
X82216723Y-61714285D01*
X82216723Y-61714285D02*
X82026247Y-61761904D01*
X82026247Y-61761904D02*
X81883390Y-61761904D01*
X81883390Y-61761904D02*
X81692914Y-61714285D01*
X81692914Y-61714285D02*
X81597676Y-61666666D01*
X81597676Y-61666666D02*
X81502438Y-61571428D01*
X81502438Y-61571428D02*
X81454819Y-61428571D01*
X81454819Y-61428571D02*
X81454819Y-61333333D01*
X81454819Y-61333333D02*
X81502438Y-61190476D01*
X81502438Y-61190476D02*
X81550057Y-61142857D01*
X81550057Y-60761904D02*
X81502438Y-60714285D01*
X81502438Y-60714285D02*
X81454819Y-60619047D01*
X81454819Y-60619047D02*
X81454819Y-60380952D01*
X81454819Y-60380952D02*
X81502438Y-60285714D01*
X81502438Y-60285714D02*
X81550057Y-60238095D01*
X81550057Y-60238095D02*
X81645295Y-60190476D01*
X81645295Y-60190476D02*
X81740533Y-60190476D01*
X81740533Y-60190476D02*
X81883390Y-60238095D01*
X81883390Y-60238095D02*
X82454819Y-60809523D01*
X82454819Y-60809523D02*
X82454819Y-60190476D01*
X81883390Y-59619047D02*
X81835771Y-59714285D01*
X81835771Y-59714285D02*
X81788152Y-59761904D01*
X81788152Y-59761904D02*
X81692914Y-59809523D01*
X81692914Y-59809523D02*
X81645295Y-59809523D01*
X81645295Y-59809523D02*
X81550057Y-59761904D01*
X81550057Y-59761904D02*
X81502438Y-59714285D01*
X81502438Y-59714285D02*
X81454819Y-59619047D01*
X81454819Y-59619047D02*
X81454819Y-59428571D01*
X81454819Y-59428571D02*
X81502438Y-59333333D01*
X81502438Y-59333333D02*
X81550057Y-59285714D01*
X81550057Y-59285714D02*
X81645295Y-59238095D01*
X81645295Y-59238095D02*
X81692914Y-59238095D01*
X81692914Y-59238095D02*
X81788152Y-59285714D01*
X81788152Y-59285714D02*
X81835771Y-59333333D01*
X81835771Y-59333333D02*
X81883390Y-59428571D01*
X81883390Y-59428571D02*
X81883390Y-59619047D01*
X81883390Y-59619047D02*
X81931009Y-59714285D01*
X81931009Y-59714285D02*
X81978628Y-59761904D01*
X81978628Y-59761904D02*
X82073866Y-59809523D01*
X82073866Y-59809523D02*
X82264342Y-59809523D01*
X82264342Y-59809523D02*
X82359580Y-59761904D01*
X82359580Y-59761904D02*
X82407200Y-59714285D01*
X82407200Y-59714285D02*
X82454819Y-59619047D01*
X82454819Y-59619047D02*
X82454819Y-59428571D01*
X82454819Y-59428571D02*
X82407200Y-59333333D01*
X82407200Y-59333333D02*
X82359580Y-59285714D01*
X82359580Y-59285714D02*
X82264342Y-59238095D01*
X82264342Y-59238095D02*
X82073866Y-59238095D01*
X82073866Y-59238095D02*
X81978628Y-59285714D01*
X81978628Y-59285714D02*
X81931009Y-59333333D01*
X81931009Y-59333333D02*
X81883390Y-59428571D01*
X96359580Y-102666666D02*
X96407200Y-102714285D01*
X96407200Y-102714285D02*
X96454819Y-102857142D01*
X96454819Y-102857142D02*
X96454819Y-102952380D01*
X96454819Y-102952380D02*
X96407200Y-103095237D01*
X96407200Y-103095237D02*
X96311961Y-103190475D01*
X96311961Y-103190475D02*
X96216723Y-103238094D01*
X96216723Y-103238094D02*
X96026247Y-103285713D01*
X96026247Y-103285713D02*
X95883390Y-103285713D01*
X95883390Y-103285713D02*
X95692914Y-103238094D01*
X95692914Y-103238094D02*
X95597676Y-103190475D01*
X95597676Y-103190475D02*
X95502438Y-103095237D01*
X95502438Y-103095237D02*
X95454819Y-102952380D01*
X95454819Y-102952380D02*
X95454819Y-102857142D01*
X95454819Y-102857142D02*
X95502438Y-102714285D01*
X95502438Y-102714285D02*
X95550057Y-102666666D01*
X96454819Y-102190475D02*
X96454819Y-101999999D01*
X96454819Y-101999999D02*
X96407200Y-101904761D01*
X96407200Y-101904761D02*
X96359580Y-101857142D01*
X96359580Y-101857142D02*
X96216723Y-101761904D01*
X96216723Y-101761904D02*
X96026247Y-101714285D01*
X96026247Y-101714285D02*
X95645295Y-101714285D01*
X95645295Y-101714285D02*
X95550057Y-101761904D01*
X95550057Y-101761904D02*
X95502438Y-101809523D01*
X95502438Y-101809523D02*
X95454819Y-101904761D01*
X95454819Y-101904761D02*
X95454819Y-102095237D01*
X95454819Y-102095237D02*
X95502438Y-102190475D01*
X95502438Y-102190475D02*
X95550057Y-102238094D01*
X95550057Y-102238094D02*
X95645295Y-102285713D01*
X95645295Y-102285713D02*
X95883390Y-102285713D01*
X95883390Y-102285713D02*
X95978628Y-102238094D01*
X95978628Y-102238094D02*
X96026247Y-102190475D01*
X96026247Y-102190475D02*
X96073866Y-102095237D01*
X96073866Y-102095237D02*
X96073866Y-101904761D01*
X96073866Y-101904761D02*
X96026247Y-101809523D01*
X96026247Y-101809523D02*
X95978628Y-101761904D01*
X95978628Y-101761904D02*
X95883390Y-101714285D01*
X141192261Y-105185057D02*
X141097023Y-105137438D01*
X141097023Y-105137438D02*
X141001785Y-105042200D01*
X141001785Y-105042200D02*
X140858928Y-104899342D01*
X140858928Y-104899342D02*
X140763690Y-104851723D01*
X140763690Y-104851723D02*
X140668452Y-104851723D01*
X140716071Y-105089819D02*
X140620833Y-105042200D01*
X140620833Y-105042200D02*
X140525595Y-104946961D01*
X140525595Y-104946961D02*
X140477976Y-104756485D01*
X140477976Y-104756485D02*
X140477976Y-104423152D01*
X140477976Y-104423152D02*
X140525595Y-104232676D01*
X140525595Y-104232676D02*
X140620833Y-104137438D01*
X140620833Y-104137438D02*
X140716071Y-104089819D01*
X140716071Y-104089819D02*
X140906547Y-104089819D01*
X140906547Y-104089819D02*
X141001785Y-104137438D01*
X141001785Y-104137438D02*
X141097023Y-104232676D01*
X141097023Y-104232676D02*
X141144642Y-104423152D01*
X141144642Y-104423152D02*
X141144642Y-104756485D01*
X141144642Y-104756485D02*
X141097023Y-104946961D01*
X141097023Y-104946961D02*
X141001785Y-105042200D01*
X141001785Y-105042200D02*
X140906547Y-105089819D01*
X140906547Y-105089819D02*
X140716071Y-105089819D01*
X141525595Y-104185057D02*
X141573214Y-104137438D01*
X141573214Y-104137438D02*
X141668452Y-104089819D01*
X141668452Y-104089819D02*
X141906547Y-104089819D01*
X141906547Y-104089819D02*
X142001785Y-104137438D01*
X142001785Y-104137438D02*
X142049404Y-104185057D01*
X142049404Y-104185057D02*
X142097023Y-104280295D01*
X142097023Y-104280295D02*
X142097023Y-104375533D01*
X142097023Y-104375533D02*
X142049404Y-104518390D01*
X142049404Y-104518390D02*
X141477976Y-105089819D01*
X141477976Y-105089819D02*
X142097023Y-105089819D01*
X66816666Y-108754819D02*
X66816666Y-109469104D01*
X66816666Y-109469104D02*
X66769047Y-109611961D01*
X66769047Y-109611961D02*
X66673809Y-109707200D01*
X66673809Y-109707200D02*
X66530952Y-109754819D01*
X66530952Y-109754819D02*
X66435714Y-109754819D01*
X67721428Y-109088152D02*
X67721428Y-109754819D01*
X67483333Y-108707200D02*
X67245238Y-109421485D01*
X67245238Y-109421485D02*
X67864285Y-109421485D01*
X108721666Y-107929819D02*
X108721666Y-108644104D01*
X108721666Y-108644104D02*
X108674047Y-108786961D01*
X108674047Y-108786961D02*
X108578809Y-108882200D01*
X108578809Y-108882200D02*
X108435952Y-108929819D01*
X108435952Y-108929819D02*
X108340714Y-108929819D01*
X109626428Y-107929819D02*
X109435952Y-107929819D01*
X109435952Y-107929819D02*
X109340714Y-107977438D01*
X109340714Y-107977438D02*
X109293095Y-108025057D01*
X109293095Y-108025057D02*
X109197857Y-108167914D01*
X109197857Y-108167914D02*
X109150238Y-108358390D01*
X109150238Y-108358390D02*
X109150238Y-108739342D01*
X109150238Y-108739342D02*
X109197857Y-108834580D01*
X109197857Y-108834580D02*
X109245476Y-108882200D01*
X109245476Y-108882200D02*
X109340714Y-108929819D01*
X109340714Y-108929819D02*
X109531190Y-108929819D01*
X109531190Y-108929819D02*
X109626428Y-108882200D01*
X109626428Y-108882200D02*
X109674047Y-108834580D01*
X109674047Y-108834580D02*
X109721666Y-108739342D01*
X109721666Y-108739342D02*
X109721666Y-108501247D01*
X109721666Y-108501247D02*
X109674047Y-108406009D01*
X109674047Y-108406009D02*
X109626428Y-108358390D01*
X109626428Y-108358390D02*
X109531190Y-108310771D01*
X109531190Y-108310771D02*
X109340714Y-108310771D01*
X109340714Y-108310771D02*
X109245476Y-108358390D01*
X109245476Y-108358390D02*
X109197857Y-108406009D01*
X109197857Y-108406009D02*
X109150238Y-108501247D01*
D12*
%TO.C,C1*%
X90980000Y-90865580D02*
X90980000Y-90584420D01*
X92000000Y-90865580D02*
X92000000Y-90584420D01*
%TO.C,C37*%
X127584420Y-91490000D02*
X127865580Y-91490000D01*
X127584420Y-92510000D02*
X127865580Y-92510000D01*
%TO.C,A2*%
X103360000Y-45860000D02*
X103360000Y-63900000D01*
X103360000Y-63900000D02*
X106030000Y-63900000D01*
X106030000Y-48530000D02*
X106030000Y-45860000D01*
X106030000Y-48530000D02*
X144130000Y-48530000D01*
X106030000Y-61230000D02*
X106030000Y-63900000D01*
X108570000Y-61230000D02*
X106030000Y-61230000D01*
X108570000Y-61230000D02*
X108570000Y-63900000D01*
X108570000Y-61230000D02*
X144130000Y-61230000D01*
X108570000Y-63900000D02*
X146800000Y-63900000D01*
X138920000Y-50940000D02*
X149340000Y-50940000D01*
X138920000Y-58820000D02*
X138920000Y-50940000D01*
X144130000Y-48530000D02*
X144130000Y-45860000D01*
X144130000Y-61230000D02*
X144130000Y-63900000D01*
X146800000Y-45860000D02*
X103360000Y-45860000D01*
X146800000Y-45860000D02*
X146800000Y-50940000D01*
X146800000Y-63900000D02*
X146800000Y-58820000D01*
X149340000Y-50940000D02*
X149340000Y-58820000D01*
X149340000Y-58820000D02*
X138920000Y-58820000D01*
%TO.C,U12*%
X73415000Y-48035000D02*
X77535000Y-48035000D01*
X73415000Y-48130000D02*
X73415000Y-48035000D01*
X73415000Y-53155000D02*
X73415000Y-53060000D01*
X77535000Y-48035000D02*
X77535000Y-48130000D01*
X77535000Y-53060000D02*
X77535000Y-53155000D01*
X77535000Y-53155000D02*
X73415000Y-53155000D01*
X78315000Y-53395000D02*
X77835000Y-53395000D01*
X78075000Y-53065000D01*
X78315000Y-53395000D01*
G36*
X78315000Y-53395000D02*
G01*
X77835000Y-53395000D01*
X78075000Y-53065000D01*
X78315000Y-53395000D01*
G37*
%TO.C,C23*%
X104365580Y-104990000D02*
X104084420Y-104990000D01*
X104365580Y-106010000D02*
X104084420Y-106010000D01*
%TO.C,U3*%
X120690000Y-88010000D02*
X120785000Y-88010000D01*
X120690000Y-92130000D02*
X120690000Y-88010000D01*
X120785000Y-92130000D02*
X120690000Y-92130000D01*
X125715000Y-88010000D02*
X125810000Y-88010000D01*
X125810000Y-88010000D02*
X125810000Y-92130000D01*
X125810000Y-92130000D02*
X125715000Y-92130000D01*
X126050000Y-87710000D02*
X125720000Y-87470000D01*
X126050000Y-87230000D01*
X126050000Y-87710000D01*
G36*
X126050000Y-87710000D02*
G01*
X125720000Y-87470000D01*
X126050000Y-87230000D01*
X126050000Y-87710000D01*
G37*
%TO.C,C21*%
X75990000Y-106615580D02*
X75990000Y-106334420D01*
X77010000Y-106615580D02*
X77010000Y-106334420D01*
%TO.C,R7*%
X122477500Y-95912258D02*
X122477500Y-95437742D01*
X123522500Y-95912258D02*
X123522500Y-95437742D01*
%TO.C,C11*%
X116134420Y-101490000D02*
X116415580Y-101490000D01*
X116134420Y-102510000D02*
X116415580Y-102510000D01*
%TO.C,C8*%
X77940000Y-94773752D02*
X77940000Y-93351248D01*
X79760000Y-94773752D02*
X79760000Y-93351248D01*
%TO.C,R3*%
X136477500Y-80937742D02*
X136477500Y-81412258D01*
X137522500Y-80937742D02*
X137522500Y-81412258D01*
%TO.C,C7*%
X73040000Y-94773752D02*
X73040000Y-93351248D01*
X74860000Y-94773752D02*
X74860000Y-93351248D01*
%TO.C,Q1*%
X141202500Y-94625000D02*
X142722500Y-94625000D01*
X141202500Y-94675000D02*
X141202500Y-94625000D01*
X141202500Y-96575000D02*
X141202500Y-95795000D01*
X141202500Y-97745000D02*
X141202500Y-97695000D01*
X142722500Y-94625000D02*
X142722500Y-95625000D01*
X142722500Y-96745000D02*
X142722500Y-97745000D01*
X142722500Y-97745000D02*
X141202500Y-97745000D01*
X140902500Y-96135000D02*
X140422500Y-96135000D01*
X140662500Y-95805000D01*
X140902500Y-96135000D01*
G36*
X140902500Y-96135000D02*
G01*
X140422500Y-96135000D01*
X140662500Y-95805000D01*
X140902500Y-96135000D01*
G37*
%TO.C,C29*%
X69590000Y-52486252D02*
X69590000Y-51063748D01*
X71410000Y-52486252D02*
X71410000Y-51063748D01*
%TO.C,C13*%
X134915000Y-67740000D02*
X134915000Y-68490000D01*
X134915000Y-71260000D02*
X134915000Y-70510000D01*
X137545563Y-67740000D02*
X134915000Y-67740000D01*
X137545563Y-71260000D02*
X134915000Y-71260000D01*
X138295563Y-68490000D02*
X137545563Y-67740000D01*
X138295563Y-70510000D02*
X137545563Y-71260000D01*
%TO.C,R6*%
X124477500Y-95087742D02*
X124477500Y-95562258D01*
X125522500Y-95087742D02*
X125522500Y-95562258D01*
%TO.C,C36*%
X127359420Y-93490000D02*
X127640580Y-93490000D01*
X127359420Y-94510000D02*
X127640580Y-94510000D01*
%TO.C,C18*%
X129265000Y-102375000D02*
X129265000Y-103125000D01*
X129265000Y-105895000D02*
X129265000Y-105145000D01*
X131895563Y-102375000D02*
X129265000Y-102375000D01*
X131895563Y-105895000D02*
X129265000Y-105895000D01*
X132645563Y-103125000D02*
X131895563Y-102375000D01*
X132645563Y-105145000D02*
X131895563Y-105895000D01*
%TO.C,D5*%
X76040000Y-41877500D02*
X76040000Y-44562500D01*
X77960000Y-41877500D02*
X76040000Y-41877500D01*
X77960000Y-44562500D02*
X77960000Y-41877500D01*
%TO.C,R12*%
X68287258Y-106977500D02*
X67812742Y-106977500D01*
X68287258Y-108022500D02*
X67812742Y-108022500D01*
%TO.C,RV2*%
X83675000Y-81560000D02*
X93425000Y-81560000D01*
X83675000Y-86610000D02*
X83675000Y-81560000D01*
X93425000Y-81560000D02*
X93425000Y-86610000D01*
X93425000Y-86610000D02*
X83675000Y-86610000D01*
%TO.C,C27*%
X69590000Y-61211252D02*
X69590000Y-59788748D01*
X71410000Y-61211252D02*
X71410000Y-59788748D01*
%TO.C,C24*%
X104936252Y-102080000D02*
X103513748Y-102080000D01*
X104936252Y-103900000D02*
X103513748Y-103900000D01*
%TO.C,C25*%
X69590000Y-77711252D02*
X69590000Y-76288748D01*
X71410000Y-77711252D02*
X71410000Y-76288748D01*
%TO.C,J8*%
X55880000Y-48780000D02*
X65920000Y-48780000D01*
X55880000Y-51100000D02*
X55880000Y-48780000D01*
X55880000Y-64020000D02*
X55880000Y-51700000D01*
X56500000Y-48780000D02*
X56500000Y-64020000D01*
X58000000Y-48780000D02*
X58000000Y-64020000D01*
X62900000Y-48780000D02*
X62900000Y-64020000D01*
X65920000Y-48780000D02*
X65920000Y-64020000D01*
X65920000Y-64020000D02*
X55880000Y-64020000D01*
X55880000Y-51400000D02*
X55270000Y-51840000D01*
X55270000Y-50960000D01*
X55880000Y-51400000D01*
G36*
X55880000Y-51400000D02*
G01*
X55270000Y-51840000D01*
X55270000Y-50960000D01*
X55880000Y-51400000D01*
G37*
%TO.C,C10*%
X91990000Y-102365580D02*
X91990000Y-102084420D01*
X93010000Y-102365580D02*
X93010000Y-102084420D01*
%TO.C,U1*%
X127960000Y-71300000D02*
X129325000Y-71300000D01*
X127960000Y-81700000D02*
X129325000Y-81700000D01*
X129325000Y-71300000D02*
X129325000Y-71990000D01*
X129325000Y-81700000D02*
X129325000Y-81010000D01*
X132490000Y-81440000D02*
X131810000Y-81440000D01*
X132150000Y-80970000D01*
X132490000Y-81440000D01*
G36*
X132490000Y-81440000D02*
G01*
X131810000Y-81440000D01*
X132150000Y-80970000D01*
X132490000Y-81440000D01*
G37*
%TO.C,R17*%
X123477500Y-84087742D02*
X123477500Y-84562258D01*
X124522500Y-84087742D02*
X124522500Y-84562258D01*
%TO.C,C14*%
X136634420Y-73490000D02*
X136915580Y-73490000D01*
X136634420Y-74510000D02*
X136915580Y-74510000D01*
%TO.C,JP2*%
X78700000Y-98750000D02*
X80700000Y-98750000D01*
X78700000Y-101550000D02*
X78700000Y-98750000D01*
X80700000Y-98750000D02*
X80700000Y-101550000D01*
X80700000Y-101550000D02*
X78700000Y-101550000D01*
%TO.C,C4*%
X99490000Y-90915580D02*
X99490000Y-90634420D01*
X100510000Y-90915580D02*
X100510000Y-90634420D01*
%TO.C,C5*%
X71470000Y-94915580D02*
X71470000Y-94634420D01*
X72490000Y-94915580D02*
X72490000Y-94634420D01*
%TO.C,C16*%
X111415000Y-70240000D02*
X111415000Y-70990000D01*
X111415000Y-73760000D02*
X111415000Y-73010000D01*
X114045563Y-70240000D02*
X111415000Y-70240000D01*
X114045563Y-73760000D02*
X111415000Y-73760000D01*
X114795563Y-70990000D02*
X114045563Y-70240000D01*
X114795563Y-73010000D02*
X114045563Y-73760000D01*
%TO.C,C3*%
X95890000Y-90898752D02*
X95890000Y-89476248D01*
X97710000Y-90898752D02*
X97710000Y-89476248D01*
%TO.C,R4*%
X138024758Y-96662500D02*
X137550242Y-96662500D01*
X138024758Y-97707500D02*
X137550242Y-97707500D01*
%TO.C,C15*%
X139490000Y-73634420D02*
X139490000Y-73915580D01*
X140510000Y-73634420D02*
X140510000Y-73915580D01*
%TO.C,D4*%
X79540000Y-41877500D02*
X79540000Y-44562500D01*
X81460000Y-41877500D02*
X79540000Y-41877500D01*
X81460000Y-44562500D02*
X81460000Y-41877500D01*
%TO.C,SW2*%
X108100000Y-83400000D02*
X110400000Y-83400000D01*
X108100000Y-84600000D02*
X108100000Y-83400000D01*
X108100000Y-86400000D02*
X108100000Y-87100000D01*
X108100000Y-88900000D02*
X108100000Y-89600000D01*
X108100000Y-92600000D02*
X108100000Y-91400000D01*
X110400000Y-92600000D02*
X108100000Y-92600000D01*
%TO.C,U7*%
X73190000Y-98345000D02*
X73285000Y-98345000D01*
X73190000Y-102465000D02*
X73190000Y-98345000D01*
X73285000Y-102465000D02*
X73190000Y-102465000D01*
X78215000Y-98345000D02*
X78310000Y-98345000D01*
X78310000Y-98345000D02*
X78310000Y-102465000D01*
X78310000Y-102465000D02*
X78215000Y-102465000D01*
X73280000Y-103005000D02*
X72950000Y-103245000D01*
X72950000Y-102765000D01*
X73280000Y-103005000D01*
G36*
X73280000Y-103005000D02*
G01*
X72950000Y-103245000D01*
X72950000Y-102765000D01*
X73280000Y-103005000D01*
G37*
%TO.C,R1*%
X96748752Y-104290000D02*
X93976248Y-104290000D01*
X96748752Y-107710000D02*
X93976248Y-107710000D01*
%TO.C,R16*%
X126087742Y-84477500D02*
X126562258Y-84477500D01*
X126087742Y-85522500D02*
X126562258Y-85522500D01*
%TO.C,U13*%
X73415000Y-75575000D02*
X77535000Y-75575000D01*
X73415000Y-75670000D02*
X73415000Y-75575000D01*
X73415000Y-80695000D02*
X73415000Y-80600000D01*
X77535000Y-75575000D02*
X77535000Y-75670000D01*
X77535000Y-80600000D02*
X77535000Y-80695000D01*
X77535000Y-80695000D02*
X73415000Y-80695000D01*
X78315000Y-80935000D02*
X77835000Y-80935000D01*
X78075000Y-80605000D01*
X78315000Y-80935000D01*
G36*
X78315000Y-80935000D02*
G01*
X77835000Y-80935000D01*
X78075000Y-80605000D01*
X78315000Y-80935000D01*
G37*
%TO.C,U5*%
X108440000Y-95065000D02*
X112560000Y-95065000D01*
X108440000Y-95130000D02*
X108440000Y-95065000D01*
X108440000Y-103935000D02*
X108440000Y-103870000D01*
X112560000Y-95065000D02*
X112560000Y-95130000D01*
X112560000Y-103870000D02*
X112560000Y-103935000D01*
X112560000Y-103935000D02*
X108440000Y-103935000D01*
X107900000Y-95130000D02*
X107660000Y-94800000D01*
X108140000Y-94800000D01*
X107900000Y-95130000D01*
G36*
X107900000Y-95130000D02*
G01*
X107660000Y-94800000D01*
X108140000Y-94800000D01*
X107900000Y-95130000D01*
G37*
%TO.C,C35*%
X118915580Y-88490000D02*
X118634420Y-88490000D01*
X118915580Y-89510000D02*
X118634420Y-89510000D01*
%TO.C,JP1*%
X99500000Y-95100000D02*
X101500000Y-95100000D01*
X99500000Y-97900000D02*
X99500000Y-95100000D01*
X101500000Y-95100000D02*
X101500000Y-97900000D01*
X101500000Y-97900000D02*
X99500000Y-97900000D01*
%TO.C,U10*%
X73415000Y-66305000D02*
X77535000Y-66305000D01*
X73415000Y-66400000D02*
X73415000Y-66305000D01*
X73415000Y-71425000D02*
X73415000Y-71330000D01*
X77535000Y-66305000D02*
X77535000Y-66400000D01*
X77535000Y-71330000D02*
X77535000Y-71425000D01*
X77535000Y-71425000D02*
X73415000Y-71425000D01*
X78315000Y-71665000D02*
X77835000Y-71665000D01*
X78075000Y-71335000D01*
X78315000Y-71665000D01*
G36*
X78315000Y-71665000D02*
G01*
X77835000Y-71665000D01*
X78075000Y-71335000D01*
X78315000Y-71665000D01*
G37*
%TO.C,C17*%
X115134420Y-75490000D02*
X115415580Y-75490000D01*
X115134420Y-76510000D02*
X115415580Y-76510000D01*
%TO.C,C12*%
X73290000Y-106615580D02*
X73290000Y-106334420D01*
X74310000Y-106615580D02*
X74310000Y-106334420D01*
%TO.C,RV4*%
X63710000Y-95125000D02*
X68760000Y-95125000D01*
X63710000Y-104875000D02*
X63710000Y-95125000D01*
X68760000Y-95125000D02*
X68760000Y-104875000D01*
X68760000Y-104875000D02*
X63710000Y-104875000D01*
%TO.C,R5*%
X137762258Y-101612500D02*
X137287742Y-101612500D01*
X137762258Y-102657500D02*
X137287742Y-102657500D01*
D13*
%TO.C,J5*%
X85625000Y-112180000D02*
X91900000Y-112180000D01*
X85625000Y-127120000D02*
X85625000Y-112180000D01*
X96560000Y-112180000D02*
X100375000Y-112180000D01*
X100375000Y-112180000D02*
X100375000Y-127120000D01*
X100375000Y-127120000D02*
X85625000Y-127120000D01*
D14*
X93100000Y-111500000D02*
G75*
G02*
X92900000Y-111500000I-100000J0D01*
G01*
X92900000Y-111500000D02*
G75*
G02*
X93100000Y-111500000I100000J0D01*
G01*
D12*
%TO.C,C31*%
X69590000Y-70711252D02*
X69590000Y-69288748D01*
X71410000Y-70711252D02*
X71410000Y-69288748D01*
%TO.C,U9*%
X73415000Y-57035000D02*
X77535000Y-57035000D01*
X73415000Y-57130000D02*
X73415000Y-57035000D01*
X73415000Y-62155000D02*
X73415000Y-62060000D01*
X77535000Y-57035000D02*
X77535000Y-57130000D01*
X77535000Y-62060000D02*
X77535000Y-62155000D01*
X77535000Y-62155000D02*
X73415000Y-62155000D01*
X78315000Y-62395000D02*
X77835000Y-62395000D01*
X78075000Y-62065000D01*
X78315000Y-62395000D01*
G36*
X78315000Y-62395000D02*
G01*
X77835000Y-62395000D01*
X78075000Y-62065000D01*
X78315000Y-62395000D01*
G37*
D13*
%TO.C,J7*%
X126625000Y-112180000D02*
X132900000Y-112180000D01*
X126625000Y-127120000D02*
X126625000Y-112180000D01*
X137560000Y-112180000D02*
X141375000Y-112180000D01*
X141375000Y-112180000D02*
X141375000Y-127120000D01*
X141375000Y-127120000D02*
X126625000Y-127120000D01*
D14*
X134100000Y-111500000D02*
G75*
G02*
X133900000Y-111500000I-100000J0D01*
G01*
X133900000Y-111500000D02*
G75*
G02*
X134100000Y-111500000I100000J0D01*
G01*
D12*
%TO.C,R14*%
X84262742Y-42977500D02*
X84737258Y-42977500D01*
X84262742Y-44022500D02*
X84737258Y-44022500D01*
%TO.C,C33*%
X65880000Y-42797500D02*
X66630000Y-42797500D01*
X65880000Y-45428063D02*
X65880000Y-42797500D01*
X66630000Y-46178063D02*
X65880000Y-45428063D01*
X68650000Y-46178063D02*
X69400000Y-45428063D01*
X69400000Y-42797500D02*
X68650000Y-42797500D01*
X69400000Y-45428063D02*
X69400000Y-42797500D01*
%TO.C,D6*%
X72540000Y-41877500D02*
X72540000Y-44562500D01*
X74460000Y-41877500D02*
X72540000Y-41877500D01*
X74460000Y-44562500D02*
X74460000Y-41877500D01*
%TO.C,R15*%
X84262742Y-45977500D02*
X84737258Y-45977500D01*
X84262742Y-47022500D02*
X84737258Y-47022500D01*
%TO.C,C19*%
X135584420Y-103490000D02*
X135865580Y-103490000D01*
X135584420Y-104510000D02*
X135865580Y-104510000D01*
%TO.C,R11*%
X87662742Y-104477500D02*
X88137258Y-104477500D01*
X87662742Y-105522500D02*
X88137258Y-105522500D01*
%TO.C,C26*%
X79990000Y-79365580D02*
X79990000Y-79084420D01*
X81010000Y-79365580D02*
X81010000Y-79084420D01*
%TO.C,RV3*%
X84210000Y-92585000D02*
X89260000Y-92585000D01*
X84210000Y-102335000D02*
X84210000Y-92585000D01*
X89260000Y-92585000D02*
X89260000Y-102335000D01*
X89260000Y-102335000D02*
X84210000Y-102335000D01*
%TO.C,C34*%
X64240000Y-67277500D02*
X64990000Y-67277500D01*
X64240000Y-69908063D02*
X64240000Y-67277500D01*
X64990000Y-70658063D02*
X64240000Y-69908063D01*
X67010000Y-70658063D02*
X67760000Y-69908063D01*
X67760000Y-67277500D02*
X67010000Y-67277500D01*
X67760000Y-69908063D02*
X67760000Y-67277500D01*
%TO.C,U8*%
X92665000Y-94440000D02*
X92760000Y-94440000D01*
X92665000Y-98560000D02*
X92665000Y-94440000D01*
X92760000Y-98560000D02*
X92665000Y-98560000D01*
X97690000Y-94440000D02*
X97785000Y-94440000D01*
X97785000Y-94440000D02*
X97785000Y-98560000D01*
X97785000Y-98560000D02*
X97690000Y-98560000D01*
X92755000Y-99100000D02*
X92425000Y-99340000D01*
X92425000Y-98860000D01*
X92755000Y-99100000D01*
G36*
X92755000Y-99100000D02*
G01*
X92425000Y-99340000D01*
X92425000Y-98860000D01*
X92755000Y-99100000D01*
G37*
%TO.C,C20*%
X119365580Y-85990000D02*
X119084420Y-85990000D01*
X119365580Y-87010000D02*
X119084420Y-87010000D01*
%TO.C,C30*%
X79990000Y-51915580D02*
X79990000Y-51634420D01*
X81010000Y-51915580D02*
X81010000Y-51634420D01*
%TO.C,R13*%
X84262742Y-39977500D02*
X84737258Y-39977500D01*
X84262742Y-41022500D02*
X84737258Y-41022500D01*
%TO.C,RV1*%
X64125000Y-86110000D02*
X73875000Y-86110000D01*
X64125000Y-91160000D02*
X64125000Y-86110000D01*
X73875000Y-86110000D02*
X73875000Y-91160000D01*
X73875000Y-91160000D02*
X64125000Y-91160000D01*
%TO.C,C2*%
X93040000Y-90223752D02*
X93040000Y-88801248D01*
X94860000Y-90223752D02*
X94860000Y-88801248D01*
%TO.C,R2*%
X136477500Y-78412258D02*
X136477500Y-77937742D01*
X137522500Y-78412258D02*
X137522500Y-77937742D01*
%TO.C,U2*%
X128940000Y-96440000D02*
X133060000Y-96440000D01*
X128940000Y-96535000D02*
X128940000Y-96440000D01*
X128940000Y-101560000D02*
X128940000Y-101465000D01*
X133060000Y-96440000D02*
X133060000Y-96535000D01*
X133060000Y-101465000D02*
X133060000Y-101560000D01*
X133060000Y-101560000D02*
X128940000Y-101560000D01*
X128400000Y-96530000D02*
X128160000Y-96200000D01*
X128640000Y-96200000D01*
X128400000Y-96530000D01*
G36*
X128400000Y-96530000D02*
G01*
X128160000Y-96200000D01*
X128640000Y-96200000D01*
X128400000Y-96530000D01*
G37*
%TO.C,C22*%
X116401248Y-103640000D02*
X117823752Y-103640000D01*
X116401248Y-105460000D02*
X117823752Y-105460000D01*
%TO.C,C6*%
X80530000Y-94915580D02*
X80530000Y-94634420D01*
X81550000Y-94915580D02*
X81550000Y-94634420D01*
%TO.C,C32*%
X79990000Y-69865580D02*
X79990000Y-69584420D01*
X81010000Y-69865580D02*
X81010000Y-69584420D01*
%TO.C,C28*%
X79990000Y-60640580D02*
X79990000Y-60359420D01*
X81010000Y-60640580D02*
X81010000Y-60359420D01*
%TO.C,C9*%
X93990000Y-102415580D02*
X93990000Y-102134420D01*
X95010000Y-102415580D02*
X95010000Y-102134420D01*
%TO.C,Q2*%
X140652500Y-100525000D02*
X142172500Y-100525000D01*
X140652500Y-101525000D02*
X140652500Y-100525000D01*
X140652500Y-103645000D02*
X140652500Y-102645000D01*
X142172500Y-100525000D02*
X142172500Y-100575000D01*
X142172500Y-101695000D02*
X142172500Y-102475000D01*
X142172500Y-103595000D02*
X142172500Y-103645000D01*
X142172500Y-103645000D02*
X140652500Y-103645000D01*
X142712500Y-102465000D02*
X142472500Y-102135000D01*
X142952500Y-102135000D01*
X142712500Y-102465000D01*
G36*
X142712500Y-102465000D02*
G01*
X142472500Y-102135000D01*
X142952500Y-102135000D01*
X142712500Y-102465000D01*
G37*
D13*
%TO.C,J4*%
X64625000Y-112180000D02*
X70900000Y-112180000D01*
X64625000Y-127120000D02*
X64625000Y-112180000D01*
X75560000Y-112180000D02*
X79375000Y-112180000D01*
X79375000Y-112180000D02*
X79375000Y-127120000D01*
X79375000Y-127120000D02*
X64625000Y-127120000D01*
D14*
X72100000Y-111500000D02*
G75*
G02*
X71900000Y-111500000I-100000J0D01*
G01*
X71900000Y-111500000D02*
G75*
G02*
X72100000Y-111500000I100000J0D01*
G01*
D13*
%TO.C,J6*%
X106125000Y-112180000D02*
X112400000Y-112180000D01*
X106125000Y-127120000D02*
X106125000Y-112180000D01*
X117060000Y-112180000D02*
X120875000Y-112180000D01*
X120875000Y-112180000D02*
X120875000Y-127120000D01*
X120875000Y-127120000D02*
X106125000Y-127120000D01*
D14*
X113600000Y-111500000D02*
G75*
G02*
X113400000Y-111500000I-100000J0D01*
G01*
X113400000Y-111500000D02*
G75*
G02*
X113600000Y-111500000I100000J0D01*
G01*
%TD*%
G36*
X92943039Y-34019685D02*
G01*
X92988794Y-34072489D01*
X93000000Y-34124000D01*
X93000000Y-34876000D01*
X92980315Y-34943039D01*
X92927511Y-34988794D01*
X92876000Y-35000000D01*
X82124000Y-35000000D01*
X82056961Y-34980315D01*
X82011206Y-34927511D01*
X82000000Y-34876000D01*
X82000000Y-34124000D01*
X82019685Y-34056961D01*
X82072489Y-34011206D01*
X82124000Y-34000000D01*
X92876000Y-34000000D01*
X92943039Y-34019685D01*
G37*
%LPC*%
%TO.C,JP2*%
G36*
X78950000Y-100300000D02*
G01*
X80450000Y-100300000D01*
X80450000Y-100000000D01*
X78950000Y-100000000D01*
X78950000Y-100300000D01*
G37*
%TO.C,JP1*%
G36*
X99750000Y-96650000D02*
G01*
X101250000Y-96650000D01*
X101250000Y-96350000D01*
X99750000Y-96350000D01*
X99750000Y-96650000D01*
G37*
%TD*%
D15*
%TO.C,C1*%
X91490000Y-91500000D03*
X91490000Y-89950000D03*
%TD*%
D16*
%TO.C,C37*%
X126950000Y-92000000D03*
X128500000Y-92000000D03*
%TD*%
D17*
%TO.C,A2*%
X107300000Y-62500000D03*
D18*
X109840000Y-62500000D03*
X112380000Y-62500000D03*
X114920000Y-62500000D03*
X117460000Y-62500000D03*
X120000000Y-62500000D03*
X122540000Y-62500000D03*
X125080000Y-62500000D03*
X127620000Y-62500000D03*
X130160000Y-62500000D03*
X132700000Y-62500000D03*
X135240000Y-62500000D03*
X137780000Y-62500000D03*
X140320000Y-62500000D03*
X142860000Y-62500000D03*
X142860000Y-47260000D03*
X140320000Y-47260000D03*
X137780000Y-47260000D03*
X135240000Y-47260000D03*
X132700000Y-47260000D03*
X130160000Y-47260000D03*
X127620000Y-47260000D03*
X125080000Y-47260000D03*
X122540000Y-47260000D03*
X120000000Y-47260000D03*
X117460000Y-47260000D03*
X114920000Y-47260000D03*
X112380000Y-47260000D03*
X109840000Y-47260000D03*
X107300000Y-47260000D03*
%TD*%
D19*
%TO.C,U12*%
X77950000Y-52500000D03*
X77950000Y-51230000D03*
X77950000Y-49960000D03*
X77950000Y-48690000D03*
X73000000Y-48690000D03*
X73000000Y-49960000D03*
X73000000Y-51230000D03*
X73000000Y-52500000D03*
%TD*%
D20*
%TO.C,C23*%
X105000000Y-105500000D03*
X103450000Y-105500000D03*
%TD*%
D21*
%TO.C,U3*%
X125155000Y-87595000D03*
X123885000Y-87595000D03*
X122615000Y-87595000D03*
X121345000Y-87595000D03*
X121345000Y-92545000D03*
X122615000Y-92545000D03*
X123885000Y-92545000D03*
X125155000Y-92545000D03*
D22*
X123250000Y-90070000D03*
%TD*%
D15*
%TO.C,C21*%
X76500000Y-107250000D03*
X76500000Y-105700000D03*
%TD*%
D23*
%TO.C,R7*%
X123000000Y-96500000D03*
X123000000Y-94850000D03*
%TD*%
D16*
%TO.C,C11*%
X115500000Y-102000000D03*
X117050000Y-102000000D03*
%TD*%
D24*
%TO.C,C8*%
X78850000Y-95625000D03*
X78850000Y-92500000D03*
%TD*%
D25*
%TO.C,R3*%
X137000000Y-80350000D03*
X137000000Y-82000000D03*
%TD*%
D24*
%TO.C,C7*%
X73950000Y-95625000D03*
X73950000Y-92500000D03*
%TD*%
D26*
%TO.C,Q1*%
X141025000Y-95235000D03*
X141025000Y-97135000D03*
X142900000Y-96185000D03*
%TD*%
D24*
%TO.C,C29*%
X70500000Y-53337500D03*
X70500000Y-50212500D03*
%TD*%
D27*
%TO.C,H1*%
X60043651Y-34950852D03*
D28*
X60043651Y-34950852D03*
%TD*%
D29*
%TO.C,C13*%
X138000000Y-69500000D03*
X135350000Y-69500000D03*
%TD*%
D25*
%TO.C,R6*%
X125000000Y-94500000D03*
X125000000Y-96150000D03*
%TD*%
D16*
%TO.C,C36*%
X126725000Y-94000000D03*
X128275000Y-94000000D03*
%TD*%
D29*
%TO.C,C18*%
X132350000Y-104135000D03*
X129700000Y-104135000D03*
%TD*%
D30*
%TO.C,D5*%
X77000000Y-42625000D03*
X77000000Y-44500000D03*
%TD*%
D27*
%TO.C,H3*%
X146000000Y-121000000D03*
D28*
X146000000Y-121000000D03*
%TD*%
D27*
%TO.C,H2*%
X60000000Y-121000000D03*
D28*
X60000000Y-121000000D03*
%TD*%
D31*
%TO.C,R12*%
X68875000Y-107500000D03*
X67225000Y-107500000D03*
%TD*%
D32*
%TO.C,RV2*%
X91090000Y-82810000D03*
X88550000Y-85350000D03*
X86010000Y-82810000D03*
%TD*%
D24*
%TO.C,C27*%
X70500000Y-62062500D03*
X70500000Y-58937500D03*
%TD*%
D33*
%TO.C,C24*%
X105787500Y-102990000D03*
X102662500Y-102990000D03*
%TD*%
D24*
%TO.C,C25*%
X70500000Y-78562500D03*
X70500000Y-75437500D03*
%TD*%
D34*
%TO.C,J8*%
X60600000Y-51400000D03*
D35*
X60600000Y-56400000D03*
X60600000Y-61400000D03*
%TD*%
D15*
%TO.C,C10*%
X92500000Y-103000000D03*
X92500000Y-101450000D03*
%TD*%
D36*
%TO.C,U1*%
X132150000Y-80310000D03*
X132150000Y-79040000D03*
X132150000Y-77770000D03*
X132150000Y-76500000D03*
X132150000Y-75230000D03*
X132150000Y-73960000D03*
X132150000Y-72690000D03*
D37*
X123000000Y-76500000D03*
%TD*%
D25*
%TO.C,R17*%
X124000000Y-83500000D03*
X124000000Y-85150000D03*
%TD*%
D16*
%TO.C,C14*%
X136000000Y-74000000D03*
X137550000Y-74000000D03*
%TD*%
D38*
%TO.C,JP2*%
X79700000Y-100800000D03*
X79700000Y-99500000D03*
%TD*%
D15*
%TO.C,C4*%
X100000000Y-91550000D03*
X100000000Y-90000000D03*
%TD*%
D39*
%TO.C,FID1*%
X147500000Y-111500000D03*
%TD*%
D15*
%TO.C,C5*%
X71980000Y-95550000D03*
X71980000Y-94000000D03*
%TD*%
D29*
%TO.C,C16*%
X114500000Y-72000000D03*
X111850000Y-72000000D03*
%TD*%
D24*
%TO.C,C3*%
X96800000Y-91750000D03*
X96800000Y-88625000D03*
%TD*%
D31*
%TO.C,R4*%
X138612500Y-97185000D03*
X136962500Y-97185000D03*
%TD*%
D40*
%TO.C,C15*%
X140000000Y-73000000D03*
X140000000Y-74550000D03*
%TD*%
D30*
%TO.C,D4*%
X80500000Y-42625000D03*
X80500000Y-44500000D03*
%TD*%
D41*
%TO.C,SW2*%
X110000000Y-91400000D03*
X110000000Y-84600000D03*
D42*
X107250000Y-90500000D03*
X107250000Y-88000000D03*
X107250000Y-85500000D03*
%TD*%
D43*
%TO.C,U7*%
X73845000Y-102880000D03*
X75115000Y-102880000D03*
X76385000Y-102880000D03*
X77655000Y-102880000D03*
X77655000Y-97930000D03*
X76385000Y-97930000D03*
X75115000Y-97930000D03*
X73845000Y-97930000D03*
%TD*%
D44*
%TO.C,R1*%
X97500000Y-106000000D03*
X93225000Y-106000000D03*
%TD*%
D45*
%TO.C,R16*%
X125500000Y-85000000D03*
X127150000Y-85000000D03*
%TD*%
D19*
%TO.C,U13*%
X77950000Y-80040000D03*
X77950000Y-78770000D03*
X77950000Y-77500000D03*
X77950000Y-76230000D03*
X73000000Y-76230000D03*
X73000000Y-77500000D03*
X73000000Y-78770000D03*
X73000000Y-80040000D03*
%TD*%
D46*
%TO.C,U5*%
X108025000Y-95690000D03*
X108025000Y-96960000D03*
X108025000Y-98230000D03*
X108025000Y-99500000D03*
X108025000Y-100770000D03*
X108025000Y-102040000D03*
X108025000Y-103310000D03*
X112975000Y-103310000D03*
X112975000Y-102040000D03*
X112975000Y-100770000D03*
X112975000Y-99500000D03*
X112975000Y-98230000D03*
X112975000Y-96960000D03*
X112975000Y-95690000D03*
%TD*%
D20*
%TO.C,C35*%
X119550000Y-89000000D03*
X118000000Y-89000000D03*
%TD*%
D38*
%TO.C,JP1*%
X100500000Y-97150000D03*
X100500000Y-95850000D03*
%TD*%
D19*
%TO.C,U10*%
X77950000Y-70770000D03*
X77950000Y-69500000D03*
X77950000Y-68230000D03*
X77950000Y-66960000D03*
X73000000Y-66960000D03*
X73000000Y-68230000D03*
X73000000Y-69500000D03*
X73000000Y-70770000D03*
%TD*%
D16*
%TO.C,C17*%
X114500000Y-76000000D03*
X116050000Y-76000000D03*
%TD*%
D15*
%TO.C,C12*%
X73800000Y-107250000D03*
X73800000Y-105700000D03*
%TD*%
D32*
%TO.C,RV4*%
X64960000Y-97460000D03*
X67500000Y-100000000D03*
X64960000Y-102540000D03*
%TD*%
D31*
%TO.C,R5*%
X138350000Y-102135000D03*
X136700000Y-102135000D03*
%TD*%
D47*
%TO.C,J5*%
X93000000Y-112920000D03*
D48*
X95540000Y-112920000D03*
D49*
X87920000Y-118000000D03*
X98080000Y-118000000D03*
%TD*%
D24*
%TO.C,C31*%
X70500000Y-71562500D03*
X70500000Y-68437500D03*
%TD*%
D39*
%TO.C,FID2*%
X59000000Y-111500000D03*
%TD*%
D19*
%TO.C,U9*%
X77950000Y-61500000D03*
X77950000Y-60230000D03*
X77950000Y-58960000D03*
X77950000Y-57690000D03*
X73000000Y-57690000D03*
X73000000Y-58960000D03*
X73000000Y-60230000D03*
X73000000Y-61500000D03*
%TD*%
D39*
%TO.C,FID3*%
X61000000Y-80500000D03*
%TD*%
D47*
%TO.C,J7*%
X134000000Y-112920000D03*
D48*
X136540000Y-112920000D03*
D49*
X128920000Y-118000000D03*
X139080000Y-118000000D03*
%TD*%
D45*
%TO.C,R14*%
X83675000Y-43500000D03*
X85325000Y-43500000D03*
%TD*%
D50*
%TO.C,C33*%
X67640000Y-45882500D03*
X67640000Y-43232500D03*
%TD*%
D30*
%TO.C,D6*%
X73500000Y-42625000D03*
X73500000Y-44500000D03*
%TD*%
D45*
%TO.C,R15*%
X83675000Y-46500000D03*
X85325000Y-46500000D03*
%TD*%
D16*
%TO.C,C19*%
X134950000Y-104000000D03*
X136500000Y-104000000D03*
%TD*%
D45*
%TO.C,R11*%
X87075000Y-105000000D03*
X88725000Y-105000000D03*
%TD*%
D15*
%TO.C,C26*%
X80500000Y-80000000D03*
X80500000Y-78450000D03*
%TD*%
D32*
%TO.C,RV3*%
X85460000Y-94920000D03*
X88000000Y-97460000D03*
X85460000Y-100000000D03*
%TD*%
D50*
%TO.C,C34*%
X66000000Y-70362500D03*
X66000000Y-67712500D03*
%TD*%
D43*
%TO.C,U8*%
X93320000Y-98975000D03*
X94590000Y-98975000D03*
X95860000Y-98975000D03*
X97130000Y-98975000D03*
X97130000Y-94025000D03*
X95860000Y-94025000D03*
X94590000Y-94025000D03*
X93320000Y-94025000D03*
%TD*%
D20*
%TO.C,C20*%
X120000000Y-86500000D03*
X118450000Y-86500000D03*
%TD*%
D15*
%TO.C,C30*%
X80500000Y-52550000D03*
X80500000Y-51000000D03*
%TD*%
D45*
%TO.C,R13*%
X83675000Y-40500000D03*
X85325000Y-40500000D03*
%TD*%
D32*
%TO.C,RV1*%
X71540000Y-87360000D03*
X69000000Y-89900000D03*
X66460000Y-87360000D03*
%TD*%
D24*
%TO.C,C2*%
X93950000Y-91075000D03*
X93950000Y-87950000D03*
%TD*%
D23*
%TO.C,R2*%
X137000000Y-79000000D03*
X137000000Y-77350000D03*
%TD*%
D46*
%TO.C,U2*%
X128525000Y-97095000D03*
X128525000Y-98365000D03*
X128525000Y-99635000D03*
X128525000Y-100905000D03*
X133475000Y-100905000D03*
X133475000Y-99635000D03*
X133475000Y-98365000D03*
X133475000Y-97095000D03*
%TD*%
D27*
%TO.C,H4*%
X146043651Y-34950852D03*
D28*
X146043651Y-34950852D03*
%TD*%
D51*
%TO.C,C22*%
X115550000Y-104550000D03*
X118675000Y-104550000D03*
%TD*%
D15*
%TO.C,C6*%
X81040000Y-95550000D03*
X81040000Y-94000000D03*
%TD*%
%TO.C,C32*%
X80500000Y-70500000D03*
X80500000Y-68950000D03*
%TD*%
%TO.C,C28*%
X80500000Y-61275000D03*
X80500000Y-59725000D03*
%TD*%
%TO.C,C9*%
X94500000Y-103050000D03*
X94500000Y-101500000D03*
%TD*%
D52*
%TO.C,Q2*%
X142350000Y-103035000D03*
X142350000Y-101135000D03*
X140475000Y-102085000D03*
%TD*%
D47*
%TO.C,J4*%
X72000000Y-112920000D03*
D48*
X74540000Y-112920000D03*
D49*
X66920000Y-118000000D03*
X77080000Y-118000000D03*
%TD*%
D47*
%TO.C,J6*%
X113500000Y-112920000D03*
D48*
X116040000Y-112920000D03*
D49*
X108420000Y-118000000D03*
X118580000Y-118000000D03*
%TD*%
%LPD*%
M02*
