%TF.GenerationSoftware,KiCad,Pcbnew,9.0.8+1*%
%TF.CreationDate,2026-09-14T00:24:06-06:00*%
%TF.ProjectId,Tip_Etcher_Rev_2,5469705f-4574-4636-9865-725f5265765f,rev?*%
%TF.SameCoordinates,Original*%
%TF.FileFunction,Soldermask,Top*%
%TF.FilePolarity,Negative*%
%FSLAX46Y46*%
G04 Gerber Fmt 4.6, Leading zero omitted, Abs format (unit mm)*
G04 Created by KiCad (PCBNEW 9.0.8+1) date 2026-09-14 00:24:06*
%MOMM*%
%LPD*%
G01*
G04 APERTURE LIST*
G04 Aperture macros list*
%AMRoundRect*
0 Rectangle with rounded corners*
0 $1 Rounding radius*
0 $2 $3 $4 $5 $6 $7 $8 $9 X,Y pos of 4 corners*
0 Add a 4 corners polygon primitive as box body*
4,1,4,$2,$3,$4,$5,$6,$7,$8,$9,$2,$3,0*
0 Add four circle primitives for the rounded corners*
1,1,$1+$1,$2,$3*
1,1,$1+$1,$4,$5*
1,1,$1+$1,$6,$7*
1,1,$1+$1,$8,$9*
0 Add four rect primitives between the rounded corners*
20,1,$1+$1,$2,$3,$4,$5,0*
20,1,$1+$1,$4,$5,$6,$7,0*
20,1,$1+$1,$6,$7,$8,$9,0*
20,1,$1+$1,$8,$9,$2,$3,0*%
G04 Aperture macros list end*
%ADD10RoundRect,0.225000X0.250000X-0.225000X0.250000X0.225000X-0.250000X0.225000X-0.250000X-0.225000X0*%
%ADD11RoundRect,0.225000X-0.225000X-0.250000X0.225000X-0.250000X0.225000X0.250000X-0.225000X0.250000X0*%
%ADD12R,1.600000X1.600000*%
%ADD13O,1.600000X1.600000*%
%ADD14RoundRect,0.150000X0.825000X0.150000X-0.825000X0.150000X-0.825000X-0.150000X0.825000X-0.150000X0*%
%ADD15RoundRect,0.225000X0.225000X0.250000X-0.225000X0.250000X-0.225000X-0.250000X0.225000X-0.250000X0*%
%ADD16RoundRect,0.150000X-0.150000X0.825000X-0.150000X-0.825000X0.150000X-0.825000X0.150000X0.825000X0*%
%ADD17R,3.000000X2.290000*%
%ADD18RoundRect,0.200000X0.275000X-0.200000X0.275000X0.200000X-0.275000X0.200000X-0.275000X-0.200000X0*%
%ADD19RoundRect,0.250000X0.650000X-0.412500X0.650000X0.412500X-0.650000X0.412500X-0.650000X-0.412500X0*%
%ADD20RoundRect,0.200000X-0.275000X0.200000X-0.275000X-0.200000X0.275000X-0.200000X0.275000X0.200000X0*%
%ADD21RoundRect,0.150000X-0.587500X-0.150000X0.587500X-0.150000X0.587500X0.150000X-0.587500X0.150000X0*%
%ADD22C,4.700000*%
%ADD23C,7.000000*%
%ADD24RoundRect,0.250001X0.924999X0.499999X-0.924999X0.499999X-0.924999X-0.499999X0.924999X-0.499999X0*%
%ADD25RoundRect,0.243750X-0.456250X0.243750X-0.456250X-0.243750X0.456250X-0.243750X0.456250X0.243750X0*%
%ADD26RoundRect,0.200000X0.200000X0.275000X-0.200000X0.275000X-0.200000X-0.275000X0.200000X-0.275000X0*%
%ADD27C,1.440000*%
%ADD28RoundRect,0.250000X0.412500X0.650000X-0.412500X0.650000X-0.412500X-0.650000X0.412500X-0.650000X0*%
%ADD29RoundRect,0.250000X-1.050000X1.050000X-1.050000X-1.050000X1.050000X-1.050000X1.050000X1.050000X0*%
%ADD30C,2.600000*%
%ADD31RoundRect,0.200000X2.100000X0.200000X-2.100000X0.200000X-2.100000X-0.200000X2.100000X-0.200000X0*%
%ADD32RoundRect,0.250002X4.449998X5.149998X-4.449998X5.149998X-4.449998X-5.149998X4.449998X-5.149998X0*%
%ADD33R,1.500000X1.000000*%
%ADD34C,1.000000*%
%ADD35RoundRect,0.225000X-0.250000X0.225000X-0.250000X-0.225000X0.250000X-0.225000X0.250000X0.225000X0*%
%ADD36RoundRect,0.250000X1.000000X-0.375000X1.000000X0.375000X-1.000000X0.375000X-1.000000X-0.375000X0*%
%ADD37RoundRect,0.150000X0.150000X-0.825000X0.150000X0.825000X-0.150000X0.825000X-0.150000X-0.825000X0*%
%ADD38RoundRect,0.250000X0.312500X1.450000X-0.312500X1.450000X-0.312500X-1.450000X0.312500X-1.450000X0*%
%ADD39RoundRect,0.200000X-0.200000X-0.275000X0.200000X-0.275000X0.200000X0.275000X-0.200000X0.275000X0*%
%ADD40RoundRect,0.150000X-0.825000X-0.150000X0.825000X-0.150000X0.825000X0.150000X-0.825000X0.150000X0*%
%ADD41RoundRect,0.102000X-0.699000X-0.699000X0.699000X-0.699000X0.699000X0.699000X-0.699000X0.699000X0*%
%ADD42C,1.602000*%
%ADD43C,3.204000*%
%ADD44RoundRect,0.250001X0.499999X-0.924999X0.499999X0.924999X-0.499999X0.924999X-0.499999X-0.924999X0*%
%ADD45RoundRect,0.250000X-0.412500X-0.650000X0.412500X-0.650000X0.412500X0.650000X-0.412500X0.650000X0*%
%ADD46RoundRect,0.150000X0.587500X0.150000X-0.587500X0.150000X-0.587500X-0.150000X0.587500X-0.150000X0*%
G04 APERTURE END LIST*
%TO.C,JP2*%
G36*
X78950000Y-100300000D02*
G01*
X80450000Y-100300000D01*
X80450000Y-100000000D01*
X78950000Y-100000000D01*
X78950000Y-100300000D01*
G37*
%TO.C,JP1*%
G36*
X99750000Y-96650000D02*
G01*
X101250000Y-96650000D01*
X101250000Y-96350000D01*
X99750000Y-96350000D01*
X99750000Y-96650000D01*
G37*
%TD*%
D10*
%TO.C,C1*%
X91490000Y-91500000D03*
X91490000Y-89950000D03*
%TD*%
D11*
%TO.C,C37*%
X126950000Y-92000000D03*
X128500000Y-92000000D03*
%TD*%
D12*
%TO.C,A2*%
X107300000Y-62500000D03*
D13*
X109840000Y-62500000D03*
X112380000Y-62500000D03*
X114920000Y-62500000D03*
X117460000Y-62500000D03*
X120000000Y-62500000D03*
X122540000Y-62500000D03*
X125080000Y-62500000D03*
X127620000Y-62500000D03*
X130160000Y-62500000D03*
X132700000Y-62500000D03*
X135240000Y-62500000D03*
X137780000Y-62500000D03*
X140320000Y-62500000D03*
X142860000Y-62500000D03*
X142860000Y-47260000D03*
X140320000Y-47260000D03*
X137780000Y-47260000D03*
X135240000Y-47260000D03*
X132700000Y-47260000D03*
X130160000Y-47260000D03*
X127620000Y-47260000D03*
X125080000Y-47260000D03*
X122540000Y-47260000D03*
X120000000Y-47260000D03*
X117460000Y-47260000D03*
X114920000Y-47260000D03*
X112380000Y-47260000D03*
X109840000Y-47260000D03*
X107300000Y-47260000D03*
%TD*%
D14*
%TO.C,U12*%
X77950000Y-52500000D03*
X77950000Y-51230000D03*
X77950000Y-49960000D03*
X77950000Y-48690000D03*
X73000000Y-48690000D03*
X73000000Y-49960000D03*
X73000000Y-51230000D03*
X73000000Y-52500000D03*
%TD*%
D15*
%TO.C,C23*%
X105000000Y-105500000D03*
X103450000Y-105500000D03*
%TD*%
D16*
%TO.C,U3*%
X125155000Y-87595000D03*
X123885000Y-87595000D03*
X122615000Y-87595000D03*
X121345000Y-87595000D03*
X121345000Y-92545000D03*
X122615000Y-92545000D03*
X123885000Y-92545000D03*
X125155000Y-92545000D03*
D17*
X123250000Y-90070000D03*
%TD*%
D10*
%TO.C,C21*%
X76500000Y-107250000D03*
X76500000Y-105700000D03*
%TD*%
D18*
%TO.C,R7*%
X123000000Y-96500000D03*
X123000000Y-94850000D03*
%TD*%
D11*
%TO.C,C11*%
X115500000Y-102000000D03*
X117050000Y-102000000D03*
%TD*%
D19*
%TO.C,C8*%
X78850000Y-95625000D03*
X78850000Y-92500000D03*
%TD*%
D20*
%TO.C,R3*%
X137000000Y-80350000D03*
X137000000Y-82000000D03*
%TD*%
D19*
%TO.C,C7*%
X73950000Y-95625000D03*
X73950000Y-92500000D03*
%TD*%
D21*
%TO.C,Q1*%
X141025000Y-95235000D03*
X141025000Y-97135000D03*
X142900000Y-96185000D03*
%TD*%
D19*
%TO.C,C29*%
X70500000Y-53337500D03*
X70500000Y-50212500D03*
%TD*%
D22*
%TO.C,H1*%
X60043651Y-34950852D03*
D23*
X60043651Y-34950852D03*
%TD*%
D24*
%TO.C,C13*%
X138000000Y-69500000D03*
X135350000Y-69500000D03*
%TD*%
D20*
%TO.C,R6*%
X125000000Y-94500000D03*
X125000000Y-96150000D03*
%TD*%
D11*
%TO.C,C36*%
X126725000Y-94000000D03*
X128275000Y-94000000D03*
%TD*%
D24*
%TO.C,C18*%
X132350000Y-104135000D03*
X129700000Y-104135000D03*
%TD*%
D25*
%TO.C,D5*%
X77000000Y-42625000D03*
X77000000Y-44500000D03*
%TD*%
D22*
%TO.C,H3*%
X146000000Y-121000000D03*
D23*
X146000000Y-121000000D03*
%TD*%
D22*
%TO.C,H2*%
X60000000Y-121000000D03*
D23*
X60000000Y-121000000D03*
%TD*%
D26*
%TO.C,R12*%
X68875000Y-107500000D03*
X67225000Y-107500000D03*
%TD*%
D27*
%TO.C,RV2*%
X91090000Y-82810000D03*
X88550000Y-85350000D03*
X86010000Y-82810000D03*
%TD*%
D19*
%TO.C,C27*%
X70500000Y-62062500D03*
X70500000Y-58937500D03*
%TD*%
D28*
%TO.C,C24*%
X105787500Y-102990000D03*
X102662500Y-102990000D03*
%TD*%
D19*
%TO.C,C25*%
X70500000Y-78562500D03*
X70500000Y-75437500D03*
%TD*%
D29*
%TO.C,J8*%
X60600000Y-51400000D03*
D30*
X60600000Y-56400000D03*
X60600000Y-61400000D03*
%TD*%
D10*
%TO.C,C10*%
X92500000Y-103000000D03*
X92500000Y-101450000D03*
%TD*%
D31*
%TO.C,U1*%
X132150000Y-80310000D03*
X132150000Y-79040000D03*
X132150000Y-77770000D03*
X132150000Y-76500000D03*
X132150000Y-75230000D03*
X132150000Y-73960000D03*
X132150000Y-72690000D03*
D32*
X123000000Y-76500000D03*
%TD*%
D20*
%TO.C,R17*%
X124000000Y-83500000D03*
X124000000Y-85150000D03*
%TD*%
D11*
%TO.C,C14*%
X136000000Y-74000000D03*
X137550000Y-74000000D03*
%TD*%
D33*
%TO.C,JP2*%
X79700000Y-100800000D03*
X79700000Y-99500000D03*
%TD*%
D10*
%TO.C,C4*%
X100000000Y-91550000D03*
X100000000Y-90000000D03*
%TD*%
D34*
%TO.C,FID1*%
X147500000Y-111500000D03*
%TD*%
D10*
%TO.C,C5*%
X71980000Y-95550000D03*
X71980000Y-94000000D03*
%TD*%
D24*
%TO.C,C16*%
X114500000Y-72000000D03*
X111850000Y-72000000D03*
%TD*%
D19*
%TO.C,C3*%
X96800000Y-91750000D03*
X96800000Y-88625000D03*
%TD*%
D26*
%TO.C,R4*%
X138612500Y-97185000D03*
X136962500Y-97185000D03*
%TD*%
D35*
%TO.C,C15*%
X140000000Y-73000000D03*
X140000000Y-74550000D03*
%TD*%
D25*
%TO.C,D4*%
X80500000Y-42625000D03*
X80500000Y-44500000D03*
%TD*%
D36*
%TO.C,SW2*%
X107250000Y-90500000D03*
X107250000Y-88000000D03*
X107250000Y-85500000D03*
%TD*%
D37*
%TO.C,U7*%
X73845000Y-102880000D03*
X75115000Y-102880000D03*
X76385000Y-102880000D03*
X77655000Y-102880000D03*
X77655000Y-97930000D03*
X76385000Y-97930000D03*
X75115000Y-97930000D03*
X73845000Y-97930000D03*
%TD*%
D38*
%TO.C,R1*%
X97500000Y-106000000D03*
X93225000Y-106000000D03*
%TD*%
D39*
%TO.C,R16*%
X125500000Y-85000000D03*
X127150000Y-85000000D03*
%TD*%
D14*
%TO.C,U13*%
X77950000Y-80040000D03*
X77950000Y-78770000D03*
X77950000Y-77500000D03*
X77950000Y-76230000D03*
X73000000Y-76230000D03*
X73000000Y-77500000D03*
X73000000Y-78770000D03*
X73000000Y-80040000D03*
%TD*%
D40*
%TO.C,U5*%
X108025000Y-95690000D03*
X108025000Y-96960000D03*
X108025000Y-98230000D03*
X108025000Y-99500000D03*
X108025000Y-100770000D03*
X108025000Y-102040000D03*
X108025000Y-103310000D03*
X112975000Y-103310000D03*
X112975000Y-102040000D03*
X112975000Y-100770000D03*
X112975000Y-99500000D03*
X112975000Y-98230000D03*
X112975000Y-96960000D03*
X112975000Y-95690000D03*
%TD*%
D15*
%TO.C,C35*%
X119550000Y-89000000D03*
X118000000Y-89000000D03*
%TD*%
D33*
%TO.C,JP1*%
X100500000Y-97150000D03*
X100500000Y-95850000D03*
%TD*%
D14*
%TO.C,U10*%
X77950000Y-70770000D03*
X77950000Y-69500000D03*
X77950000Y-68230000D03*
X77950000Y-66960000D03*
X73000000Y-66960000D03*
X73000000Y-68230000D03*
X73000000Y-69500000D03*
X73000000Y-70770000D03*
%TD*%
D11*
%TO.C,C17*%
X114500000Y-76000000D03*
X116050000Y-76000000D03*
%TD*%
D10*
%TO.C,C12*%
X73800000Y-107250000D03*
X73800000Y-105700000D03*
%TD*%
D27*
%TO.C,RV4*%
X64960000Y-97460000D03*
X67500000Y-100000000D03*
X64960000Y-102540000D03*
%TD*%
D26*
%TO.C,R5*%
X138350000Y-102135000D03*
X136700000Y-102135000D03*
%TD*%
D41*
%TO.C,J5*%
X93000000Y-112920000D03*
D42*
X95540000Y-112920000D03*
D43*
X87920000Y-118000000D03*
X98080000Y-118000000D03*
%TD*%
D19*
%TO.C,C31*%
X70500000Y-71562500D03*
X70500000Y-68437500D03*
%TD*%
D34*
%TO.C,FID2*%
X59000000Y-111500000D03*
%TD*%
D14*
%TO.C,U9*%
X77950000Y-61500000D03*
X77950000Y-60230000D03*
X77950000Y-58960000D03*
X77950000Y-57690000D03*
X73000000Y-57690000D03*
X73000000Y-58960000D03*
X73000000Y-60230000D03*
X73000000Y-61500000D03*
%TD*%
D34*
%TO.C,FID3*%
X61000000Y-80500000D03*
%TD*%
D41*
%TO.C,J7*%
X134000000Y-112920000D03*
D42*
X136540000Y-112920000D03*
D43*
X128920000Y-118000000D03*
X139080000Y-118000000D03*
%TD*%
D39*
%TO.C,R14*%
X83675000Y-43500000D03*
X85325000Y-43500000D03*
%TD*%
D44*
%TO.C,C33*%
X67640000Y-45882500D03*
X67640000Y-43232500D03*
%TD*%
D25*
%TO.C,D6*%
X73500000Y-42625000D03*
X73500000Y-44500000D03*
%TD*%
D39*
%TO.C,R15*%
X83675000Y-46500000D03*
X85325000Y-46500000D03*
%TD*%
D11*
%TO.C,C19*%
X134950000Y-104000000D03*
X136500000Y-104000000D03*
%TD*%
D39*
%TO.C,R11*%
X87075000Y-105000000D03*
X88725000Y-105000000D03*
%TD*%
D10*
%TO.C,C26*%
X80500000Y-80000000D03*
X80500000Y-78450000D03*
%TD*%
D27*
%TO.C,RV3*%
X85460000Y-94920000D03*
X88000000Y-97460000D03*
X85460000Y-100000000D03*
%TD*%
D44*
%TO.C,C34*%
X66000000Y-70362500D03*
X66000000Y-67712500D03*
%TD*%
D37*
%TO.C,U8*%
X93320000Y-98975000D03*
X94590000Y-98975000D03*
X95860000Y-98975000D03*
X97130000Y-98975000D03*
X97130000Y-94025000D03*
X95860000Y-94025000D03*
X94590000Y-94025000D03*
X93320000Y-94025000D03*
%TD*%
D15*
%TO.C,C20*%
X120000000Y-86500000D03*
X118450000Y-86500000D03*
%TD*%
D10*
%TO.C,C30*%
X80500000Y-52550000D03*
X80500000Y-51000000D03*
%TD*%
D39*
%TO.C,R13*%
X83675000Y-40500000D03*
X85325000Y-40500000D03*
%TD*%
D27*
%TO.C,RV1*%
X71540000Y-87360000D03*
X69000000Y-89900000D03*
X66460000Y-87360000D03*
%TD*%
D19*
%TO.C,C2*%
X93950000Y-91075000D03*
X93950000Y-87950000D03*
%TD*%
D18*
%TO.C,R2*%
X137000000Y-79000000D03*
X137000000Y-77350000D03*
%TD*%
D40*
%TO.C,U2*%
X128525000Y-97095000D03*
X128525000Y-98365000D03*
X128525000Y-99635000D03*
X128525000Y-100905000D03*
X133475000Y-100905000D03*
X133475000Y-99635000D03*
X133475000Y-98365000D03*
X133475000Y-97095000D03*
%TD*%
D22*
%TO.C,H4*%
X146043651Y-34950852D03*
D23*
X146043651Y-34950852D03*
%TD*%
D45*
%TO.C,C22*%
X115550000Y-104550000D03*
X118675000Y-104550000D03*
%TD*%
D10*
%TO.C,C6*%
X81040000Y-95550000D03*
X81040000Y-94000000D03*
%TD*%
%TO.C,C32*%
X80500000Y-70500000D03*
X80500000Y-68950000D03*
%TD*%
%TO.C,C28*%
X80500000Y-61275000D03*
X80500000Y-59725000D03*
%TD*%
%TO.C,C9*%
X94500000Y-103050000D03*
X94500000Y-101500000D03*
%TD*%
D46*
%TO.C,Q2*%
X142350000Y-103035000D03*
X142350000Y-101135000D03*
X140475000Y-102085000D03*
%TD*%
D41*
%TO.C,J4*%
X72000000Y-112920000D03*
D42*
X74540000Y-112920000D03*
D43*
X66920000Y-118000000D03*
X77080000Y-118000000D03*
%TD*%
D41*
%TO.C,J6*%
X113500000Y-112920000D03*
D42*
X116040000Y-112920000D03*
D43*
X108420000Y-118000000D03*
X118580000Y-118000000D03*
%TD*%
M02*
