M48
; DRILL file {KiCad 9.0.8+1} date 2026-09-14T00:24:06-0600
; FORMAT={-:-/ absolute / inch / decimal}
; #@! TF.CreationDate,2026-09-14T00:24:06-06:00
; #@! TF.GenerationSoftware,Kicad,Pcbnew,9.0.8+1
; #@! TF.FileFunction,Plated,1,2,PTH
FMAT,2
INCH
; #@! TA.AperFunction,Plated,PTH,ViaDrill
T1C0.0118
; #@! TA.AperFunction,Plated,PTH,ComponentDrill
T2C0.0315
; #@! TA.AperFunction,Plated,PTH,ComponentDrill
T3C0.0350
; #@! TA.AperFunction,Plated,PTH,ComponentDrill
T4C0.0394
; #@! TA.AperFunction,Plated,PTH,ComponentDrill
T5C0.0512
; #@! TA.AperFunction,Plated,PTH,ComponentDrill
T6C0.0787
; #@! TA.AperFunction,Plated,PTH,ComponentDrill
T7C0.1693
%
G90
G05
T1
X2.2953Y-3.3661
X2.2953Y-3.5433
X2.2992Y-4.0827
X2.2992Y-4.2598
X2.3031Y-3.7323
X2.3031Y-3.9094
X2.4252Y-3.3661
X2.4252Y-3.5433
X2.4291Y-4.0827
X2.4291Y-4.2598
X2.4331Y-3.7323
X2.4331Y-3.9094
X2.688Y-3.062
X2.6929Y-4.0276
X2.6929Y-4.1063
X2.7362Y-2.185
X2.752Y-2.8976
X2.7559Y-4.311
X2.7598Y-4.0276
X2.7598Y-4.1102
X2.7598Y-4.1811
X2.7677Y-3.7559
X2.7717Y-2.2441
X2.7776Y-2.6201
X2.7815Y-1.9016
X2.8071Y-3.8819
X2.8189Y-4.0315
X2.8228Y-3.5984
X2.8307Y-4.185
X2.8346Y-2.5197
X2.9094Y-3.5236
X2.9173Y-2.8976
X2.9646Y-2.5236
X2.9882Y-3.5157
X3.0236Y-3.685
X3.063Y-2.8976
X3.1299Y-4.0276
X3.1299Y-4.0866
X3.1496Y-3.3031
X3.1535Y-1.8504
X3.1575Y-3.563
X3.185Y-4.6535
X3.185Y-4.8307
X3.189Y-1.9094
X3.1929Y-2.4803
X3.2087Y-4.0866
X3.2224Y-2.0039
X3.2283Y-2.7559
X3.2638Y-1.9173
X3.2677Y-4.1535
X3.2717Y-3.4528
X3.2795Y-3.3031
X3.315Y-4.6535
X3.315Y-4.8307
X3.3189Y-3.2323
X3.3268Y-2.126
X3.3346Y-3.5157
X3.3386Y-4.0354
X3.3425Y-3.6102
X3.4134Y-3.6102
X3.4213Y-4.0354
X3.4449Y-3.1063
X3.4843Y-3.4449
X3.5276Y-3.126
X3.5394Y-3.6002
X3.5472Y-1.7244
X3.5472Y-1.9016
X3.5512Y-2.4409
X3.5512Y-2.6181
X3.5551Y-2.0906
X3.5551Y-2.2677
X3.5591Y-4.0118
X3.563Y-3.4803
X3.5787Y-4.122
X3.5787Y-4.1811
X3.5787Y-4.2362
X3.5866Y-3.7362
X3.6063Y-3.8976
X3.6102Y-3.126
X3.6299Y-3.4587
X3.6772Y-1.7244
X3.6772Y-1.9016
X3.6811Y-2.4409
X3.6811Y-2.6181
X3.685Y-2.0906
X3.685Y-2.2677
X3.7402Y-3.3071
X3.75Y-3.7579
X3.7559Y-3.7953
X3.7913Y-3.0315
X3.8976Y-2.874
X3.9016Y-3.6575
X3.9094Y-4.0157
X3.9528Y-4.1063
X3.9961Y-4.6929
X3.9961Y-4.8701
X4.0Y-3.9213
X4.0Y-4.0197
X4.0079Y-3.6102
X4.0472Y-3.7598
X4.0472Y-3.8661
X4.0551Y-3.189
X4.122Y-2.7953
X4.122Y-2.9724
X4.126Y-4.6929
X4.126Y-4.8701
X4.1594Y-3.5
X4.1693Y-3.8465
X4.1732Y-3.7559
X4.1929Y-3.2874
X4.252Y-2.7953
X4.252Y-2.9724
X4.311Y-2.6575
X4.3425Y-1.4606
X4.3425Y-1.5906
X4.3504Y-4.0157
X4.3543Y-3.9606
X4.3661Y-4.2165
X4.3937Y-3.3307
X4.3937Y-3.5079
X4.5197Y-1.4606
X4.5197Y-1.5906
X4.5236Y-3.3307
X4.5236Y-3.5079
X4.5433Y-4.2165
X4.5866Y-3.1102
X4.5866Y-3.4449
X4.685Y-3.5827
X4.7087Y-1.4528
X4.7087Y-1.5827
X4.7244Y-3.8386
X4.7441Y-3.2874
X4.7638Y-3.9173
X4.7835Y-3.8189
X4.7913Y-4.1378
X4.7913Y-4.315
X4.8031Y-3.3465
X4.8031Y-4.5827
X4.8031Y-4.7598
X4.8858Y-1.4528
X4.8858Y-1.5827
X4.9213Y-4.1378
X4.9213Y-4.315
X4.9331Y-4.5827
X4.9331Y-4.7598
X4.9409Y-3.9173
X5.0591Y-1.4567
X5.0591Y-1.5866
X5.0591Y-2.0079
X5.0787Y-3.4843
X5.0787Y-3.7598
X5.1063Y-3.6831
X5.128Y-3.7756
X5.1299Y-3.9173
X5.1319Y-3.9547
X5.187Y-2.7953
X5.1969Y-3.5827
X5.2362Y-1.4567
X5.2362Y-1.5866
X5.3287Y-3.0965
X5.3476Y-2.8622
X5.3646Y-2.9701
X5.4016Y-3.3465
X5.4016Y-3.5236
X5.4488Y-2.8228
X5.5047Y-2.9898
X5.5315Y-3.3465
X5.5315Y-3.5236
T2
X2.5575Y-3.837
X2.5575Y-4.037
X2.6165Y-3.4394
X2.6575Y-3.937
X2.7165Y-3.5394
X2.8165Y-3.4394
X3.3646Y-3.737
X3.3646Y-3.937
X3.3862Y-3.2602
X3.4646Y-3.837
X3.4862Y-3.3602
X3.5862Y-3.2602
T3
X2.8346Y-4.4457
X2.9346Y-4.4457
X3.6614Y-4.4457
X3.7614Y-4.4457
X4.4685Y-4.4457
X4.5685Y-4.4457
X5.2756Y-4.4457
X5.3756Y-4.4457
T4
X4.2244Y-1.8606
X4.2244Y-2.4606
X4.3244Y-1.8606
X4.3244Y-2.4606
X4.4244Y-1.8606
X4.4244Y-2.4606
X4.5244Y-1.8606
X4.5244Y-2.4606
X4.6244Y-1.8606
X4.6244Y-2.4606
X4.7244Y-1.8606
X4.7244Y-2.4606
X4.8244Y-1.8606
X4.8244Y-2.4606
X4.9244Y-1.8606
X4.9244Y-2.4606
X5.0244Y-1.8606
X5.0244Y-2.4606
X5.1244Y-1.8606
X5.1244Y-2.4606
X5.2244Y-1.8606
X5.2244Y-2.4606
X5.3244Y-1.8606
X5.3244Y-2.4606
X5.4244Y-1.8606
X5.4244Y-2.4606
X5.5244Y-1.8606
X5.5244Y-2.4606
X5.6244Y-1.8606
X5.6244Y-2.4606
T5
X2.3858Y-2.0236
X2.3858Y-2.2205
X2.3858Y-2.4173
T6
X2.6346Y-4.6457
X3.0346Y-4.6457
X3.4614Y-4.6457
X3.8614Y-4.6457
X4.2685Y-4.6457
X4.6685Y-4.6457
X5.0756Y-4.6457
X5.4756Y-4.6457
T7
X2.3622Y-4.7638
X2.3639Y-1.376
X5.748Y-4.7638
X5.7498Y-1.376
M30
