%TF.GenerationSoftware,KiCad,Pcbnew,9.0.8+1*%
%TF.CreationDate,2026-09-14T00:24:06-06:00*%
%TF.ProjectId,Tip_Etcher_Rev_2,5469705f-4574-4636-9865-725f5265765f,rev?*%
%TF.SameCoordinates,Original*%
%TF.FileFunction,Legend,Bot*%
%TF.FilePolarity,Positive*%
%FSLAX46Y46*%
G04 Gerber Fmt 4.6, Leading zero omitted, Abs format (unit mm)*
G04 Created by KiCad (PCBNEW 9.0.8+1) date 2026-09-14 00:24:06*
%MOMM*%
%LPD*%
G01*
G04 APERTURE LIST*
G04 Aperture macros list*
%AMRoundRect*
0 Rectangle with rounded corners*
0 $1 Rounding radius*
0 $2 $3 $4 $5 $6 $7 $8 $9 X,Y pos of 4 corners*
0 Add a 4 corners polygon primitive as box body*
4,1,4,$2,$3,$4,$5,$6,$7,$8,$9,$2,$3,0*
0 Add four circle primitives for the rounded corners*
1,1,$1+$1,$2,$3*
1,1,$1+$1,$4,$5*
1,1,$1+$1,$6,$7*
1,1,$1+$1,$8,$9*
0 Add four rect primitives between the rounded corners*
20,1,$1+$1,$2,$3,$4,$5,0*
20,1,$1+$1,$4,$5,$6,$7,0*
20,1,$1+$1,$6,$7,$8,$9,0*
20,1,$1+$1,$8,$9,$2,$3,0*%
G04 Aperture macros list end*
%ADD10R,1.600000X1.600000*%
%ADD11O,1.600000X1.600000*%
%ADD12C,4.700000*%
%ADD13C,1.440000*%
%ADD14RoundRect,0.250000X-1.050000X1.050000X-1.050000X-1.050000X1.050000X-1.050000X1.050000X1.050000X0*%
%ADD15C,2.600000*%
%ADD16C,0.900000*%
%ADD17RoundRect,0.102000X-0.699000X-0.699000X0.699000X-0.699000X0.699000X0.699000X-0.699000X0.699000X0*%
%ADD18C,1.602000*%
%ADD19C,3.204000*%
G04 APERTURE END LIST*
%LPC*%
D10*
%TO.C,A2*%
X107300000Y-62500000D03*
D11*
X109840000Y-62500000D03*
X112380000Y-62500000D03*
X114920000Y-62500000D03*
X117460000Y-62500000D03*
X120000000Y-62500000D03*
X122540000Y-62500000D03*
X125080000Y-62500000D03*
X127620000Y-62500000D03*
X130160000Y-62500000D03*
X132700000Y-62500000D03*
X135240000Y-62500000D03*
X137780000Y-62500000D03*
X140320000Y-62500000D03*
X142860000Y-62500000D03*
X142860000Y-47260000D03*
X140320000Y-47260000D03*
X137780000Y-47260000D03*
X135240000Y-47260000D03*
X132700000Y-47260000D03*
X130160000Y-47260000D03*
X127620000Y-47260000D03*
X125080000Y-47260000D03*
X122540000Y-47260000D03*
X120000000Y-47260000D03*
X117460000Y-47260000D03*
X114920000Y-47260000D03*
X112380000Y-47260000D03*
X109840000Y-47260000D03*
X107300000Y-47260000D03*
%TD*%
D12*
%TO.C,H1*%
X60043651Y-34950852D03*
%TD*%
%TO.C,H3*%
X146000000Y-121000000D03*
%TD*%
%TO.C,H2*%
X60000000Y-121000000D03*
%TD*%
D13*
%TO.C,RV2*%
X91090000Y-82810000D03*
X88550000Y-85350000D03*
X86010000Y-82810000D03*
%TD*%
D14*
%TO.C,J8*%
X60600000Y-51400000D03*
D15*
X60600000Y-56400000D03*
X60600000Y-61400000D03*
%TD*%
D16*
%TO.C,SW2*%
X110000000Y-91400000D03*
X110000000Y-84600000D03*
%TD*%
D13*
%TO.C,RV4*%
X64960000Y-97460000D03*
X67500000Y-100000000D03*
X64960000Y-102540000D03*
%TD*%
D17*
%TO.C,J5*%
X93000000Y-112920000D03*
D18*
X95540000Y-112920000D03*
D19*
X87920000Y-118000000D03*
X98080000Y-118000000D03*
%TD*%
D17*
%TO.C,J7*%
X134000000Y-112920000D03*
D18*
X136540000Y-112920000D03*
D19*
X128920000Y-118000000D03*
X139080000Y-118000000D03*
%TD*%
D13*
%TO.C,RV3*%
X85460000Y-94920000D03*
X88000000Y-97460000D03*
X85460000Y-100000000D03*
%TD*%
%TO.C,RV1*%
X71540000Y-87360000D03*
X69000000Y-89900000D03*
X66460000Y-87360000D03*
%TD*%
D12*
%TO.C,H4*%
X146043651Y-34950852D03*
%TD*%
D17*
%TO.C,J4*%
X72000000Y-112920000D03*
D18*
X74540000Y-112920000D03*
D19*
X66920000Y-118000000D03*
X77080000Y-118000000D03*
%TD*%
D17*
%TO.C,J6*%
X113500000Y-112920000D03*
D18*
X116040000Y-112920000D03*
D19*
X108420000Y-118000000D03*
X118580000Y-118000000D03*
%TD*%
%LPD*%
M02*
